<svg width="54" height="24" viewBox="0 0 54 24" fill="none" xmlns="http://www.w3.org/2000/svg">
<rect x="0.8125" y="0.000976562" width="53" height="24" rx="3" fill="white"/>
<path d="M40.1081 11.9642C40.1081 15.7745 37.019 18.8886 33.1576 18.8886C29.3329 18.8886 26.207 15.7745 26.207 11.9642C26.207 8.15395 29.2962 5.03979 33.1208 5.03979C37.019 5.03979 40.1081 8.15395 40.1081 11.9642Z" fill="#FFBC00"/>
<path d="M33.1576 5.03979C36.9822 5.03979 40.1081 8.15395 40.1081 11.9642C40.1081 15.7745 37.019 18.8886 33.1576 18.8886C29.3329 18.8886 26.207 15.7745 26.207 11.9642" fill="#FF8500"/>
<path d="M33.1543 5.03979C36.9789 5.03979 40.1049 8.15395 40.1049 11.9642C40.1049 15.7745 37.0157 18.8886 33.1543 18.8886" fill="#FF8500"/>
<path d="M23.8165 5.03979C20.0286 5.07643 16.9395 8.15395 16.9395 11.9642C16.9395 15.7745 20.0286 18.8886 23.89 18.8886C25.692 18.8886 27.3101 18.1925 28.5605 17.0934C28.8179 16.8736 29.0386 16.6171 29.2592 16.3607H27.825C27.6411 16.1408 27.4572 15.8844 27.3101 15.6645H29.7741C29.9212 15.4447 30.0683 15.1883 30.1786 14.9318H26.9056C26.7953 14.712 26.6849 14.4555 26.6114 14.1991H30.436C30.6567 13.503 30.8038 12.7702 30.8038 12.0008C30.8038 11.4879 30.7302 11.0116 30.6567 10.5354H26.3907C26.4275 10.2789 26.5011 10.0591 26.5746 9.80261H30.3993C30.3257 9.54616 30.2154 9.2897 30.1051 9.06987H26.8688C26.9791 8.81341 27.1262 8.59359 27.2733 8.33713H29.7373C29.5902 8.08067 29.4063 7.82421 29.1857 7.60439H27.825C28.0456 7.34793 28.2663 7.12811 28.5237 6.90829C27.3101 5.77254 25.6552 5.11307 23.8532 5.11307C23.8532 5.03979 23.8532 5.03979 23.8165 5.03979Z" fill="#FF5050"/>
<path d="M16.9375 11.9612C16.9375 15.7715 20.0266 18.8856 23.8881 18.8856C25.69 18.8856 27.3082 18.1895 28.5585 17.0904C28.816 16.8706 29.0366 16.6141 29.2573 16.3577H27.823C27.6391 16.1379 27.4553 15.8814 27.3082 15.6616H29.7721C29.9192 15.4418 30.0663 15.1853 30.1767 14.9288H26.9036C26.7933 14.709 26.683 14.4526 26.6094 14.1961H30.4341C30.6547 13.5 30.8018 12.7673 30.8018 11.9979C30.8018 11.485 30.7283 11.0087 30.6547 10.5324H26.3888C26.4256 10.2759 26.4991 10.0561 26.5727 9.79965H30.3973C30.3238 9.54319 30.2134 9.28673 30.1031 9.06691H26.8669C26.9772 8.81045 27.1243 8.59063 27.2714 8.33417H29.7353C29.5882 8.07771 29.4044 7.82125 29.1837 7.60143H27.823C28.0437 7.34497 28.2643 7.12515 28.5218 6.90532C27.3082 5.76958 25.6533 5.11011 23.8513 5.11011H23.8145" fill="#D42428"/>
<path d="M23.89 18.8888C25.692 18.8888 27.3101 18.1927 28.5604 17.0936C28.8179 16.8738 29.0385 16.6173 29.2592 16.3609H27.8249C27.6411 16.141 27.4572 15.8846 27.3101 15.6648H29.774C29.9211 15.4449 30.0682 15.1885 30.1786 14.932H26.9055C26.7952 14.7122 26.6849 14.4557 26.6113 14.1993H30.436C30.6566 13.5032 30.8037 12.7704 30.8037 12.0011C30.8037 11.4881 30.7302 11.0119 30.6566 10.5356H26.3907C26.4275 10.2791 26.501 10.0593 26.5746 9.80283H30.3992C30.3257 9.54637 30.2153 9.28991 30.105 9.07009H26.8688C26.9791 8.81363 27.1262 8.5938 27.2733 8.33734H29.7373C29.5901 8.08088 29.4063 7.82443 29.1856 7.6046H27.8249C28.0456 7.34814 28.2662 7.12832 28.5237 6.9085C27.3101 5.77275 25.6552 5.11328 23.8532 5.11328H23.8164" fill="#D42428"/>
<path d="M26.3516 13.7209L26.462 13.0981C26.4252 13.0981 26.3516 13.1347 26.2781 13.1347C26.0207 13.1347 25.9839 12.9881 26.0207 12.9149L26.2413 11.6326H26.6458L26.7562 10.9365H26.3884L26.462 10.4968H25.7265C25.7265 10.4968 25.2852 12.9149 25.2852 13.208C25.2852 13.6476 25.5426 13.8308 25.8736 13.8308C26.0942 13.8308 26.2781 13.7575 26.3516 13.7209Z" fill="white"/>
<path d="M26.6035 12.5488C26.6035 13.5747 27.3022 13.8311 27.8907 13.8311C28.4423 13.8311 28.6629 13.7212 28.6629 13.7212L28.81 13.0251C28.81 13.0251 28.4055 13.2083 28.0378 13.2083C27.2287 13.2083 27.3758 12.6221 27.3758 12.6221H28.8836C28.8836 12.6221 28.9939 12.1458 28.9939 11.9626C28.9939 11.4863 28.7365 10.9001 27.9274 10.9001C27.1551 10.8269 26.6035 11.6329 26.6035 12.5488ZM27.8907 11.4863C28.2952 11.4863 28.2216 11.9626 28.2216 11.9993H27.4126C27.4126 11.9626 27.4861 11.4863 27.8907 11.4863Z" fill="white"/>
<path d="M32.5598 13.7218L32.7069 12.9157C32.7069 12.9157 32.3391 13.0989 32.0817 13.0989C31.5668 13.0989 31.3462 12.6959 31.3462 12.2563C31.3462 11.377 31.7875 10.9007 32.3023 10.9007C32.6701 10.9007 32.9643 11.1205 32.9643 11.1205L33.0746 10.3512C33.0746 10.3512 32.6333 10.168 32.2288 10.168C31.3829 10.168 30.5371 10.9007 30.5371 12.2929C30.5371 13.2088 30.9784 13.8317 31.861 13.8317C32.1552 13.8317 32.5598 13.7218 32.5598 13.7218Z" fill="white"/>
<path d="M22.3037 10.8259C21.7889 10.8259 21.4211 10.9725 21.4211 10.9725L21.3108 11.5953C21.3108 11.5953 21.6418 11.4488 22.1198 11.4488C22.3773 11.4488 22.5979 11.4854 22.5979 11.7052C22.5979 11.8518 22.5611 11.8884 22.5611 11.8884C22.5611 11.8884 22.3405 11.8884 22.2302 11.8884C21.605 11.8884 20.9062 12.1449 20.9062 12.9875C20.9062 13.647 21.3476 13.7935 21.605 13.7935C22.1198 13.7935 22.3405 13.4638 22.3773 13.4638L22.3405 13.7569H23.0024L23.2967 11.7419C23.2967 10.8626 22.5611 10.8259 22.3037 10.8259ZM22.4508 12.4746C22.4508 12.5845 22.3773 13.1707 21.936 13.1707C21.7153 13.1707 21.6418 12.9875 21.6418 12.8776C21.6418 12.6944 21.7521 12.438 22.3037 12.438C22.414 12.4746 22.4508 12.4746 22.4508 12.4746Z" fill="white"/>
<path d="M23.9884 13.795C24.1723 13.795 25.0917 13.8316 25.0917 12.8424C25.0917 11.9265 24.2091 12.1097 24.2091 11.7433C24.2091 11.5602 24.3562 11.4869 24.6136 11.4869C24.7239 11.4869 25.1285 11.5235 25.1285 11.5235L25.2388 10.864C25.2388 10.864 24.9814 10.7908 24.54 10.7908C23.9884 10.7908 23.4368 11.0106 23.4368 11.7433C23.4368 12.586 24.3562 12.5127 24.3562 12.8424C24.3562 13.0623 24.0987 13.0989 23.9149 13.0989C23.5839 13.0989 23.2529 12.989 23.2529 12.989L23.1426 13.6485C23.1794 13.7217 23.3632 13.795 23.9884 13.795Z" fill="white"/>
<path d="M38.6665 10.2402L38.5194 11.2294C38.5194 11.2294 38.2252 10.8631 37.8207 10.8631C37.1587 10.8631 36.5703 11.6691 36.5703 12.6216C36.5703 13.2078 36.8645 13.8307 37.4897 13.8307C37.931 13.8307 38.1884 13.5376 38.1884 13.5376L38.1517 13.794H38.8872L39.4388 10.2769L38.6665 10.2402ZM38.3355 12.182C38.3355 12.585 38.1517 13.0979 37.7471 13.0979C37.4897 13.0979 37.3426 12.8781 37.3426 12.5117C37.3426 11.9255 37.6 11.5592 37.931 11.5592C38.1884 11.5592 38.3355 11.7424 38.3355 12.182Z" fill="white"/>
<path d="M18.2925 13.7576L18.7338 11.1198L18.8073 13.7576H19.3222L20.2784 11.1198L19.8738 13.7576H20.6461L21.2345 10.2405H20.0209L19.2854 12.4021L19.2486 10.2405H18.1822L17.5938 13.7576H18.2925Z" fill="white"/>
<path d="M29.6958 13.7571C29.9164 12.5481 29.9532 11.5589 30.4681 11.7421C30.5416 11.2658 30.6519 11.0826 30.7255 10.8994C30.7255 10.8994 30.6887 10.8994 30.5784 10.8994C30.2474 10.8994 29.99 11.3391 29.99 11.3391L30.0635 10.9361H29.3648L28.8867 13.7937H29.6958V13.7571Z" fill="white"/>
<path d="M34.2529 10.8259C33.7381 10.8259 33.3703 10.9725 33.3703 10.9725L33.26 11.5953C33.26 11.5953 33.591 11.4488 34.0691 11.4488C34.3265 11.4488 34.5471 11.4854 34.5471 11.7052C34.5471 11.8518 34.5104 11.8884 34.5104 11.8884C34.5104 11.8884 34.2897 11.8884 34.1794 11.8884C33.5542 11.8884 32.8555 12.1449 32.8555 12.9875C32.8555 13.647 33.2968 13.7935 33.5542 13.7935C34.0691 13.7935 34.2897 13.4638 34.3265 13.4638L34.2897 13.7569H34.9517L35.2459 11.7419C35.2826 10.8626 34.5104 10.8259 34.2529 10.8259ZM34.4368 12.4746C34.4368 12.5845 34.3633 13.1707 33.922 13.1707C33.7013 13.1707 33.6278 12.9875 33.6278 12.8776C33.6278 12.6944 33.7381 12.438 34.2897 12.438C34.4 12.4746 34.4 12.4746 34.4368 12.4746Z" fill="white"/>
<path d="M35.8735 13.7571C36.0942 12.5481 36.1309 11.5589 36.6458 11.7421C36.7193 11.2658 36.8297 11.0826 36.9032 10.8994C36.9032 10.8994 36.8664 10.8994 36.7561 10.8994C36.4251 10.8994 36.1677 11.3391 36.1677 11.3391L36.2413 10.9361H35.5425L35.0645 13.7937H35.8735V13.7571Z" fill="white"/>
<path d="M25.1992 13.2085C25.1992 13.6481 25.4566 13.8313 25.7876 13.8313C26.0451 13.8313 26.2657 13.758 26.3393 13.7214L26.4496 13.0985C26.4128 13.0985 26.3393 13.1352 26.2657 13.1352C26.0083 13.1352 25.9715 12.9886 26.0083 12.9154L26.2289 11.6331H26.6335L26.7438 10.937H26.376L26.4496 10.4973" fill="#DCE5E5"/>
<path d="M26.9727 12.5488C26.9727 13.5747 27.3036 13.8311 27.892 13.8311C28.4437 13.8311 28.6643 13.7212 28.6643 13.7212L28.8114 13.0251C28.8114 13.0251 28.4069 13.2083 28.0391 13.2083C27.2301 13.2083 27.3772 12.6221 27.3772 12.6221H28.885C28.885 12.6221 28.9953 12.1458 28.9953 11.9626C28.9953 11.4863 28.7379 10.9001 27.9288 10.9001C27.1565 10.8269 26.9727 11.6329 26.9727 12.5488ZM27.892 11.4863C28.2966 11.4863 28.3701 11.9626 28.3701 11.9993H27.414C27.414 11.9626 27.4875 11.4863 27.892 11.4863Z" fill="#DCE5E5"/>
<path d="M32.5592 13.722L32.7063 12.916C32.7063 12.916 32.3385 13.0992 32.0811 13.0992C31.5663 13.0992 31.3456 12.6962 31.3456 12.2565C31.3456 11.3772 31.7869 10.901 32.3018 10.901C32.6695 10.901 32.9637 11.1208 32.9637 11.1208L33.074 10.3514C33.074 10.3514 32.6327 10.1682 32.2282 10.1682C31.3824 10.1682 30.9043 10.901 30.9043 12.2932C30.9043 13.2091 30.9778 13.8319 31.8605 13.8319C32.1547 13.8319 32.5592 13.722 32.5592 13.722Z" fill="#DCE5E5"/>
<path d="M21.3108 11.6322C21.3108 11.6322 21.6418 11.4856 22.1198 11.4856C22.3773 11.4856 22.5979 11.5222 22.5979 11.7421C22.5979 11.8886 22.5611 11.9253 22.5611 11.9253C22.5611 11.9253 22.3405 11.9253 22.2302 11.9253C21.605 11.9253 20.9062 12.1817 20.9062 13.0244C20.9062 13.6838 21.3476 13.8304 21.605 13.8304C22.1198 13.8304 22.3405 13.5006 22.3773 13.5006L22.3405 13.7937H23.0024L23.2967 11.7787C23.2967 10.9361 22.5611 10.8994 22.2669 10.8994L21.3108 11.6322ZM22.8186 12.4748C22.8186 12.5847 22.3773 13.1709 21.936 13.1709C21.7153 13.1709 21.6418 12.9877 21.6418 12.8778C21.6418 12.6946 21.7521 12.4382 22.3037 12.4382C22.414 12.4748 22.8186 12.4748 22.8186 12.4748Z" fill="#DCE5E5"/>
<path d="M23.1855 13.7205C23.1855 13.7205 23.4062 13.7938 24.0314 13.7938C24.2153 13.7938 25.1346 13.8304 25.1346 12.8412C25.1346 11.9253 24.252 12.1085 24.252 11.7421C24.252 11.5589 24.3991 11.4857 24.6566 11.4857C24.7669 11.4857 25.1714 11.5223 25.1714 11.5223L25.2817 10.8628C25.2817 10.8628 25.0243 10.7896 24.583 10.7896C24.0314 10.7896 23.8475 11.0094 23.8475 11.7421C23.8475 12.5848 24.3991 12.5115 24.3991 12.8412C24.3991 13.0611 24.1417 13.0977 23.9578 13.0977" fill="#DCE5E5"/>
<path d="M38.5176 11.2309C38.5176 11.2309 38.2234 10.8645 37.8189 10.8645C37.1569 10.8645 36.9363 11.6705 36.9363 12.6231C36.9363 13.2093 36.8627 13.8321 37.4879 13.8321C37.9292 13.8321 38.1866 13.539 38.1866 13.539L38.1499 13.7955H38.8854L39.437 10.2783L38.5176 11.2309ZM38.4808 12.1834C38.4808 12.5865 38.1499 13.0994 37.7453 13.0994C37.4879 13.0994 37.3408 12.8795 37.3408 12.5132C37.3408 11.927 37.5982 11.5606 37.9292 11.5606C38.1866 11.5606 38.4808 11.7438 38.4808 12.1834Z" fill="#DCE5E5"/>
<path d="M18.2925 13.7576L18.7338 11.1198L18.8073 13.7576H19.3222L20.2784 11.1198L19.8738 13.7576H20.6461L21.2345 10.2405H20.3151L19.2854 12.4021L19.2486 10.2405H18.8441L17.5938 13.7576H18.2925Z" fill="#DCE5E5"/>
<path d="M28.9121 13.7571H29.6844C29.905 12.5481 29.9418 11.5589 30.4567 11.7421C30.5302 11.2658 30.6406 11.0826 30.7141 10.8994C30.7141 10.8994 30.6773 10.8994 30.567 10.8994C30.236 10.8994 29.9786 11.3391 29.9786 11.3391L30.0521 10.9361" fill="#DCE5E5"/>
<path d="M33.26 11.6322C33.26 11.6322 33.591 11.4856 34.0691 11.4856C34.3265 11.4856 34.5471 11.5222 34.5471 11.7421C34.5471 11.8886 34.5104 11.9253 34.5104 11.9253C34.5104 11.9253 34.2897 11.9253 34.1794 11.9253C33.5542 11.9253 32.8555 12.1817 32.8555 13.0244C32.8555 13.6838 33.2968 13.8304 33.5542 13.8304C34.0691 13.8304 34.2897 13.5006 34.3265 13.5006L34.2897 13.7937H34.9517L35.2459 11.7787C35.2459 10.9361 34.5104 10.8994 34.2162 10.8994L33.26 11.6322ZM34.7678 12.4748C34.7678 12.5847 34.3265 13.1709 33.8852 13.1709C33.6645 13.1709 33.591 12.9877 33.591 12.8778C33.591 12.6946 33.7013 12.4382 34.2529 12.4382C34.4 12.4748 34.7678 12.4748 34.7678 12.4748Z" fill="#DCE5E5"/>
<path d="M35.0996 13.7571H35.8719C36.0925 12.5481 36.1293 11.5589 36.6442 11.7421C36.7177 11.2658 36.8281 11.0826 36.9016 10.8994C36.9016 10.8994 36.8648 10.8994 36.7545 10.8994C36.4235 10.8994 36.1661 11.3391 36.1661 11.3391L36.2396 10.9361" fill="#DCE5E5"/>
</svg>
