<svg width="116" height="24" viewBox="0 0 116 24" fill="none" xmlns="http://www.w3.org/2000/svg">
<path fill-rule="evenodd" clip-rule="evenodd" d="M5.81513 0.0379032C3.0537 0.0384144 0.815542 2.2774 0.816053 5.03882L0.81863 18.9809C0.819141 21.7423 3.05813 23.9805 5.81956 23.98L105.512 23.9615C107.179 23.9612 108.735 23.1306 109.664 21.7466L114.34 14.7747C115.47 13.0893 115.47 10.8879 114.339 9.20298L109.66 2.23282C108.731 0.849134 107.174 0.0191398 105.508 0.019448L5.81513 0.0379032ZM8.89491 14.6834C7.4024 14.6831 6.19271 13.473 6.19299 11.9805C6.19326 10.488 7.4034 9.27829 8.89591 9.27856C10.3884 9.27884 11.5981 10.489 11.5978 11.9815C11.5976 13.474 10.3874 14.6837 8.89491 14.6834Z" fill="url(#paint0_linear_817_22)"/>
<path d="M23.4276 11.1702C23.8 11.3645 24.0915 11.6358 24.302 11.9839C24.5125 12.324 24.6178 12.7126 24.6178 13.1498C24.6178 13.8462 24.3709 14.4251 23.877 14.8866C23.3831 15.3481 22.7799 15.5789 22.0673 15.5789H18.4238V7.07732H21.8002C22.4965 7.07732 23.0835 7.30403 23.5612 7.75744C24.047 8.21086 24.2899 8.76953 24.2899 9.43346C24.2899 10.1622 24.0025 10.7411 23.4276 11.1702ZM21.8002 8.38899H19.8205V10.6237H21.8002C22.1078 10.6237 22.3669 10.5184 22.5774 10.3079C22.788 10.0893 22.8932 9.8221 22.8932 9.50633C22.8932 9.19056 22.788 8.92742 22.5774 8.7169C22.3669 8.49829 22.1078 8.38899 21.8002 8.38899ZM19.8205 14.2672H22.0673C22.3912 14.2672 22.6625 14.1538 22.8811 13.9271C23.1078 13.6923 23.2211 13.4089 23.2211 13.077C23.2211 12.745 23.1078 12.4657 22.8811 12.239C22.6625 12.0042 22.3912 11.8868 22.0673 11.8868H19.8205V14.2672Z" fill="black"/>
<path d="M32.2249 9.34844C33.0507 9.34844 33.7632 9.66017 34.3624 10.2836C34.9535 10.899 35.249 11.652 35.249 12.5426C35.249 13.4413 34.9535 14.1984 34.3624 14.8137C33.7713 15.4291 33.0588 15.7367 32.2249 15.7367C31.3099 15.7367 30.6015 15.3967 30.0995 14.7166V18.0079H28.7878V9.50633H30.0995V10.3808C30.5934 9.69255 31.3019 9.34844 32.2249 9.34844ZM30.646 13.9393C31.0104 14.3036 31.4678 14.4858 32.0184 14.4858C32.569 14.4858 33.0264 14.3036 33.3908 13.9393C33.7552 13.5668 33.9373 13.1013 33.9373 12.5426C33.9373 11.9839 33.7552 11.5224 33.3908 11.1581C33.0264 10.7856 32.569 10.5994 32.0184 10.5994C31.4678 10.5994 31.0104 10.7856 30.646 11.1581C30.2817 11.5224 30.0995 11.9839 30.0995 12.5426C30.0995 13.0932 30.2817 13.5587 30.646 13.9393Z" fill="black"/>
<path d="M41.2472 10.3686V9.50633H42.5589V15.5789H41.2472V14.7044C40.7533 15.3926 40.0449 15.7367 39.1218 15.7367C38.2879 15.7367 37.5754 15.4291 36.9843 14.8137C36.3933 14.1984 36.0977 13.4413 36.0977 12.5426C36.0977 11.6439 36.3933 10.8868 36.9843 10.2715C37.5754 9.65612 38.2879 9.34844 39.1218 9.34844C40.0449 9.34844 40.7533 9.68851 41.2472 10.3686ZM37.9559 13.9393C38.3203 14.3036 38.7777 14.4858 39.3283 14.4858C39.8789 14.4858 40.3363 14.3036 40.7007 13.9393C41.065 13.5668 41.2472 13.1013 41.2472 12.5426C41.2472 11.9839 41.065 11.5224 40.7007 11.1581C40.3363 10.7856 39.8789 10.5994 39.3283 10.5994C38.7777 10.5994 38.3203 10.7856 37.9559 11.1581C37.5916 11.5224 37.4094 11.9839 37.4094 12.5426C37.4094 13.0932 37.5916 13.5587 37.9559 13.9393Z" fill="black"/>
<path d="M46.954 15.7367C46.039 15.7367 45.2739 15.4291 44.6586 14.8137C44.0513 14.1903 43.7477 13.4332 43.7477 12.5426C43.7477 11.6358 44.0513 10.8787 44.6586 10.2715C45.2739 9.65612 46.039 9.34844 46.954 9.34844C47.545 9.34844 48.0835 9.49014 48.5693 9.77352C49.0551 10.0569 49.4194 10.4375 49.6623 10.9152L48.5328 11.571C48.3952 11.2795 48.1847 11.0528 47.9013 10.8909C47.626 10.7208 47.3062 10.6358 46.9418 10.6358C46.4074 10.6358 45.9581 10.818 45.5937 11.1823C45.2375 11.5548 45.0593 12.0082 45.0593 12.5426C45.0593 13.077 45.2375 13.5304 45.5937 13.9028C45.9581 14.2672 46.4074 14.4494 46.9418 14.4494C47.2981 14.4494 47.6179 14.3684 47.9013 14.2065C48.1928 14.0364 48.4114 13.8057 48.5571 13.5142L49.6866 14.1579C49.4275 14.6437 49.051 15.0283 48.5571 15.3117C48.0713 15.595 47.5369 15.7367 46.954 15.7367Z" fill="black"/>
<path d="M53.406 15.7367C52.4911 15.7367 51.726 15.4291 51.1106 14.8137C50.5034 14.1903 50.1997 13.4332 50.1997 12.5426C50.1997 11.6358 50.5034 10.8787 51.1106 10.2715C51.726 9.65612 52.4911 9.34844 53.406 9.34844C53.9971 9.34844 54.5355 9.49014 55.0213 9.77352C55.5071 10.0569 55.8715 10.4375 56.1144 10.9152L54.9849 11.571C54.8472 11.2795 54.6367 11.0528 54.3533 10.8909C54.0781 10.7208 53.7582 10.6358 53.3939 10.6358C52.8595 10.6358 52.4101 10.818 52.0458 11.1823C51.6895 11.5548 51.5114 12.0082 51.5114 12.5426C51.5114 13.077 51.6895 13.5304 52.0458 13.9028C52.4101 14.2672 52.8595 14.4494 53.3939 14.4494C53.7501 14.4494 54.07 14.3684 54.3533 14.2065C54.6448 14.0364 54.8634 13.8057 55.0092 13.5142L56.1387 14.1579C55.8796 14.6437 55.5031 15.0283 55.0092 15.3117C54.5234 15.595 53.989 15.7367 53.406 15.7367Z" fill="black"/>
<path d="M60.5594 9.34844C61.3852 9.34844 62.0977 9.66017 62.6969 10.2836C63.288 10.899 63.5835 11.652 63.5835 12.5426C63.5835 13.4413 63.288 14.1984 62.6969 14.8137C62.1058 15.4291 61.3933 15.7367 60.5594 15.7367C59.6444 15.7367 58.936 15.3967 58.434 14.7166V18.0079H57.1223V9.50633H58.434V10.3808C58.9279 9.69255 59.6363 9.34844 60.5594 9.34844ZM58.9805 13.9393C59.3449 14.3036 59.8023 14.4858 60.3529 14.4858C60.9035 14.4858 61.3609 14.3036 61.7253 13.9393C62.0897 13.5668 62.2718 13.1013 62.2718 12.5426C62.2718 11.9839 62.0897 11.5224 61.7253 11.1581C61.3609 10.7856 60.9035 10.5994 60.3529 10.5994C59.8023 10.5994 59.3449 10.7856 58.9805 11.1581C58.6162 11.5224 58.434 11.9839 58.434 12.5426C58.434 13.0932 58.6162 13.5587 58.9805 13.9393Z" fill="black"/>
<path d="M69.9096 14.8137C69.2943 15.4291 68.5373 15.7367 67.6385 15.7367C66.7398 15.7367 65.9827 15.4291 65.3674 14.8137C64.7439 14.1903 64.4322 13.4332 64.4322 12.5426C64.4322 11.652 64.7439 10.8949 65.3674 10.2715C65.9827 9.65612 66.7398 9.34844 67.6385 9.34844C68.5373 9.34844 69.2943 9.65612 69.9096 10.2715C70.5331 10.8949 70.8448 11.652 70.8448 12.5426C70.8448 13.4332 70.5331 14.1903 69.9096 14.8137ZM65.7439 12.5426C65.7439 13.0932 65.9261 13.5506 66.2904 13.915C66.6548 14.2793 67.1041 14.4615 67.6385 14.4615C68.1729 14.4615 68.6223 14.2793 68.9866 13.915C69.351 13.5506 69.5331 13.0932 69.5331 12.5426C69.5331 11.992 69.351 11.5346 68.9866 11.1702C68.6223 10.8059 68.1729 10.6237 67.6385 10.6237C67.1041 10.6237 66.6548 10.8059 66.2904 11.1702C65.9261 11.5346 65.7439 11.992 65.7439 12.5426Z" fill="black"/>
<path d="M75.6043 12.2875V9.50633H76.916V15.5789H75.6043V13.5263C75.1266 13.7045 74.6165 13.7935 74.0741 13.7935C73.3049 13.7935 72.7057 13.6073 72.2766 13.2349C71.8475 12.8543 71.6329 12.3078 71.6329 11.5953V9.50633H72.9446V11.4738C72.9446 12.2025 73.3777 12.5669 74.2441 12.5669C74.738 12.5669 75.1914 12.4738 75.6043 12.2875Z" fill="black"/>
<path d="M81.0464 12.4819L83.8154 15.5789H82.2487L79.759 12.7733V15.5789H78.4473V9.50633H79.759V12.1904L82.1151 9.50633H83.7183L81.0464 12.4819Z" fill="black"/>
<path d="M87.1175 13.9271L88.672 9.50633H90.0687L87.7369 15.7732C87.4535 16.5424 87.0567 17.1172 86.5467 17.4978C86.0366 17.8783 85.4455 18.0483 84.7735 18.0079V16.7812C85.5508 16.8298 86.0892 16.4412 86.3888 15.6153L86.4252 15.5303L83.8747 9.50633H85.2714L87.1175 13.9271Z" fill="black"/>
<path d="M99.439 14.5344C98.856 15.336 98.0383 15.7367 96.9857 15.7367C95.9412 15.7367 95.1194 15.336 94.5203 14.5344C93.9373 13.7328 93.6458 12.664 93.6458 11.3281C93.6458 9.99213 93.9373 8.92337 94.5203 8.12179C95.1194 7.32022 95.9412 6.91943 96.9857 6.91943C98.0383 6.91943 98.856 7.32022 99.439 8.12179C100.03 8.91527 100.326 9.98404 100.326 11.3281C100.326 12.6721 100.03 13.7409 99.439 14.5344ZM96.9857 14.3765C97.6172 14.3765 98.099 14.1134 98.431 13.5871C98.7629 13.0608 98.9289 12.3078 98.9289 11.3281C98.9289 10.3484 98.7629 9.59539 98.431 9.06911C98.099 8.54282 97.6172 8.27968 96.9857 8.27968C96.3623 8.27968 95.8805 8.54282 95.5404 9.06911C95.2085 9.59539 95.0425 10.3484 95.0425 11.3281C95.0425 12.3078 95.2085 13.0608 95.5404 13.5871C95.8805 14.1134 96.3623 14.3765 96.9857 14.3765Z" fill="black"/>
<path d="M104.581 7.47811C104.961 7.85865 105.151 8.32016 105.151 8.86264C105.151 9.40512 104.961 9.86663 104.581 10.2472C104.208 10.6196 103.739 10.8059 103.172 10.8059C102.597 10.8059 102.123 10.6196 101.751 10.2472C101.37 9.86663 101.18 9.40512 101.18 8.86264C101.18 8.32826 101.37 7.8708 101.751 7.49025C102.131 7.10971 102.605 6.91943 103.172 6.91943C103.739 6.91943 104.208 7.10566 104.581 7.47811ZM103.16 9.73709C103.419 9.73709 103.629 9.65612 103.791 9.49418C103.953 9.32415 104.034 9.11364 104.034 8.86264C104.034 8.61164 103.953 8.40113 103.791 8.2311C103.629 8.06107 103.419 7.97605 103.16 7.97605C102.909 7.97605 102.702 8.06107 102.54 8.2311C102.378 8.40113 102.297 8.61164 102.297 8.86264C102.297 9.10554 102.378 9.31201 102.54 9.48204C102.71 9.65207 102.917 9.73709 103.16 9.73709ZM102.552 14.7166L101.897 14.3279L107.495 8.0975L108.151 8.474L102.552 14.7166ZM107.058 15.7246C106.483 15.7246 106.01 15.5384 105.637 15.1659C105.257 14.7854 105.066 14.3239 105.066 13.7814C105.066 13.247 105.257 12.7895 105.637 12.409C106.018 12.0285 106.491 11.8382 107.058 11.8382C107.617 11.8382 108.087 12.0285 108.467 12.409C108.848 12.7895 109.038 13.247 109.038 13.7814C109.038 14.3239 108.848 14.7854 108.467 15.1659C108.095 15.5384 107.625 15.7246 107.058 15.7246ZM107.046 14.6558C107.305 14.6558 107.516 14.5749 107.678 14.4129C107.84 14.2429 107.921 14.0324 107.921 13.7814C107.921 13.5304 107.84 13.3199 107.678 13.1498C107.516 12.9798 107.305 12.8948 107.046 12.8948C106.795 12.8948 106.589 12.9798 106.427 13.1498C106.265 13.3199 106.184 13.5304 106.184 13.7814C106.184 14.0243 106.265 14.2308 106.427 14.4008C106.597 14.5708 106.803 14.6558 107.046 14.6558Z" fill="black"/>
<defs>
<linearGradient id="paint0_linear_817_22" x1="139.705" y1="-6.21584" x2="6.66962" y2="24.465" gradientUnits="userSpaceOnUse">
<stop stop-color="#FFC700"/>
<stop offset="1" stop-color="#F7DF04"/>
</linearGradient>
</defs>
</svg>
