<svg width="15" height="15" viewBox="0 0 15 15" fill="none" xmlns="http://www.w3.org/2000/svg">
<g clip-path="url(#clip0_994_4007)">
<path d="M13.3027 3.01416C13.6528 3.46561 13.9445 3.96076 14.1925 4.48503L7.45354 9.45103L4.62378 7.67433V5.54813L7.43896 7.31026L13.3027 3.01416Z" fill="#21A038"/>
<path d="M1.75031 7.52903C1.75031 7.42709 1.75031 7.33971 1.7649 7.23777L0.0582876 7.15039C0.0582876 7.26689 0.0437012 7.39796 0.0437012 7.51447C0.0437012 9.55329 0.875127 11.4028 2.21708 12.7426L3.42775 11.5339C2.39211 10.5145 1.75031 9.10184 1.75031 7.52903Z" fill="url(#paint0_linear_994_4007)"/>
<path d="M7.43898 1.84938C7.54108 1.84938 7.6286 1.84938 7.73071 1.86395L7.81822 0.160071C7.70153 0.160071 7.57026 0.145508 7.45356 0.145508C5.41147 0.145508 3.55899 0.975601 2.21704 2.3154L3.42771 3.52413C4.44876 2.49016 5.87823 1.84938 7.43898 1.84938Z" fill="url(#paint1_linear_994_4007)"/>
<path d="M7.43906 13.2084C7.33696 13.2084 7.24944 13.2084 7.14733 13.1939L7.05981 14.8978C7.17651 14.8978 7.30778 14.9123 7.42447 14.9123C9.46657 14.9123 11.319 14.0822 12.661 12.7424L11.4503 11.5337C10.4293 12.5822 9.01439 13.2084 7.43906 13.2084Z" fill="url(#paint2_linear_994_4007)"/>
<path d="M10.648 2.83959L12.092 1.77648C10.823 0.75707 9.20392 0.130859 7.43896 0.130859V1.83474C8.63505 1.8493 9.74362 2.21337 10.648 2.83959Z" fill="url(#paint3_linear_994_4007)"/>
<path d="M14.849 7.52885C14.849 7.0774 14.8052 6.6405 14.7323 6.20361L13.1424 7.38322C13.1424 7.42691 13.1424 7.48516 13.1424 7.52885C13.1424 9.2036 12.4131 10.7036 11.2607 11.7376L12.4131 13.0046C13.9009 11.6648 14.849 9.69874 14.849 7.52885Z" fill="#21A038"/>
<path d="M7.43908 13.2087C5.76164 13.2087 4.25924 12.4806 3.22361 11.3301L1.95459 12.4806C3.31113 13.9806 5.26571 14.9126 7.43908 14.9126V13.2087Z" fill="url(#paint4_linear_994_4007)"/>
<path d="M3.63196 3.32021L2.47963 2.05322C0.977232 3.40759 0.0437012 5.35903 0.0437012 7.52893H1.75031C1.75031 5.86874 2.47963 4.35418 3.63196 3.32021Z" fill="url(#paint5_linear_994_4007)"/>
</g>
<defs>
<linearGradient id="paint0_linear_994_4007" x1="2.04054" y1="12.5353" x2="0.298771" y2="7.50862" gradientUnits="userSpaceOnUse">
<stop offset="0.1444" stop-color="#F2E913"/>
<stop offset="0.3037" stop-color="#E7E518"/>
<stop offset="0.5823" stop-color="#CADB26"/>
<stop offset="0.891" stop-color="#A3CD39"/>
</linearGradient>
<linearGradient id="paint1_linear_994_4007" x1="2.70351" y1="2.11785" x2="7.12942" y2="0.433921" gradientUnits="userSpaceOnUse">
<stop offset="0.0592" stop-color="#0FA8E0"/>
<stop offset="0.5385" stop-color="#0099F9"/>
<stop offset="0.9234" stop-color="#0291EB"/>
</linearGradient>
<linearGradient id="paint2_linear_994_4007" x1="6.95961" y1="13.4589" x2="12.2346" y2="12.2686" gradientUnits="userSpaceOnUse">
<stop offset="0.1226" stop-color="#A3CD39"/>
<stop offset="0.2846" stop-color="#86C339"/>
<stop offset="0.8693" stop-color="#21A038"/>
</linearGradient>
<linearGradient id="paint3_linear_994_4007" x1="7.08832" y1="1.22103" x2="11.4751" y2="2.57239" gradientUnits="userSpaceOnUse">
<stop offset="0.0566" stop-color="#0291EB"/>
<stop offset="0.79" stop-color="#0C8ACB"/>
</linearGradient>
<linearGradient id="paint4_linear_994_4007" x1="2.38852" y1="12.7573" x2="7.09911" y2="14.5145" gradientUnits="userSpaceOnUse">
<stop offset="0.1324" stop-color="#F2E913"/>
<stop offset="0.2977" stop-color="#EBE716"/>
<stop offset="0.5306" stop-color="#D9E01F"/>
<stop offset="0.8023" stop-color="#BBD62D"/>
<stop offset="0.9829" stop-color="#A3CD39"/>
</linearGradient>
<linearGradient id="paint5_linear_994_4007" x1="1.34227" y1="7.73473" x2="3.22575" y2="2.84297" gradientUnits="userSpaceOnUse">
<stop offset="0.0698" stop-color="#A3CD39"/>
<stop offset="0.2599" stop-color="#81C55F"/>
<stop offset="0.9216" stop-color="#0FA8E0"/>
</linearGradient>
<clipPath id="clip0_994_4007">
<rect width="14.9999" height="14.9999" fill="white"/>
</clipPath>
</defs>
</svg>
