<svg width="17" height="15" viewBox="0 0 17 15" fill="none" xmlns="http://www.w3.org/2000/svg">
<g clip-path="url(#clip0_994_4026)">
<path d="M17.0849 6.90887L17.3029 6.17844L16.5466 6.20236C16.1976 6.18863 15.8604 6.07298 15.5767 5.86975C15.6116 5.86975 15.6443 5.86975 15.6791 5.86975C15.9061 5.86915 16.1284 5.80534 16.3209 5.6855C16.5135 5.56566 16.6686 5.39456 16.7689 5.19149L17.0936 4.47193C16.8321 4.47414 16.5707 4.45889 16.3112 4.42628C16.0639 4.36777 15.8412 4.23316 15.6748 4.0415C15.563 3.92239 15.428 3.82723 15.2781 3.76183C15.1282 3.69643 14.9666 3.66214 14.803 3.66106C14.6735 3.66164 14.5448 3.68217 14.4216 3.72193C14.44 3.66353 14.4546 3.60398 14.4652 3.54367C14.5163 3.1199 14.3972 2.69317 14.1339 2.35672L13.5672 1.65455L13.2141 2.48063C13.1585 2.59785 13.0728 2.69834 12.9657 2.77194C12.9054 2.47796 12.7599 2.20811 12.5472 1.99585C12.3707 1.81536 12.1594 1.67227 11.9261 1.57515C11.6928 1.47803 11.4422 1.42888 11.1894 1.43064C11.1004 1.43019 11.0115 1.43673 10.9235 1.4502L10.2435 1.58281C10.303 1.35264 10.3971 1.13277 10.5225 0.930641L10.8974 0.332817L9.94056 0.434991L9.63761 -0.21718L9.04915 0.0849926L8.49992 -0.43457L7.96158 0.10021L7.37094 -0.201963L7.06799 0.434991L6.11556 0.326296L6.49479 0.921945C6.61983 1.124 6.71317 1.34393 6.77158 1.57412L6.11774 1.44586H6.09594C6.00506 1.43212 5.91324 1.42558 5.82133 1.42629C5.5685 1.42441 5.31789 1.4735 5.08456 1.57063C4.85123 1.66776 4.63999 1.81091 4.46351 1.99151C4.25016 2.20356 4.10391 2.47341 4.04287 2.76759C3.93719 2.69581 3.85226 2.59761 3.79658 2.48281L3.44351 1.65455L2.86594 2.36107C2.60713 2.6979 2.49058 3.12231 2.5412 3.54367C2.55197 3.60394 2.56653 3.66348 2.58479 3.72193C2.46161 3.68193 2.33292 3.66139 2.20338 3.66106C2.03981 3.66227 1.87819 3.69661 1.72832 3.76201C1.57846 3.8274 1.44348 3.92249 1.33158 4.0415C1.16614 4.23113 0.946251 4.36546 0.701712 4.42628C0.440603 4.46485 0.176566 4.48012 -0.0872633 4.47193L0.237481 5.19149C0.337963 5.39441 0.493165 5.56537 0.685661 5.68518C0.878158 5.80499 1.10033 5.8689 1.32722 5.86975C1.3621 5.86975 1.39479 5.86975 1.42966 5.86975C1.14675 6.0753 0.809445 6.19325 0.459788 6.20888L-0.30957 6.18497L-0.0763652 6.9154C0.0073036 7.19634 0.171201 7.4469 0.395302 7.63645C0.619403 7.82601 0.894005 7.94635 1.18556 7.98278C1.15525 8.17215 1.08014 8.35158 0.966426 8.50621C0.852717 8.66083 0.703694 8.7862 0.531711 8.87191L-0.0414935 9.10669L0.272352 9.65017C0.399169 9.84733 0.574056 10.0092 0.780651 10.1206C0.987245 10.232 1.21879 10.2893 1.45363 10.2871C1.57816 10.2869 1.70233 10.2737 1.82415 10.248C1.85212 10.3845 1.88704 10.5194 1.92876 10.6523C2.03668 10.9377 2.04436 11.2512 1.95056 11.5415L1.66722 12.1328L2.29928 12.298C2.44177 12.334 2.58818 12.3522 2.73517 12.3523C2.84179 12.3512 2.94789 12.3373 3.0512 12.311C3.12555 12.2945 3.19844 12.2719 3.26915 12.2436C3.35016 12.3892 3.4498 12.5237 3.56556 12.6436C3.97094 13.0588 4.54633 13.2697 5.2721 13.2697H5.79081L4.71851 13.7045L5.53363 14.098C5.86094 14.2598 6.19629 14.4049 6.53838 14.5328L6.43594 14.811L6.7171 14.9393C7.18365 15.123 7.67824 15.226 8.17953 15.2436C8.17953 15.2436 8.39748 15.2436 8.51517 15.2436C8.63287 15.2436 8.84863 15.2436 8.84863 15.2436C9.34688 15.2258 9.83845 15.1236 10.3024 14.9414L10.5835 14.8132L10.4811 14.5349C10.8271 14.4023 11.1661 14.2521 11.4967 14.0849L12.2966 13.698L11.2265 13.2632H11.7474C12.4753 13.2632 13.055 13.0458 13.4561 12.6371C13.572 12.5173 13.6716 12.3828 13.7525 12.2371C13.8233 12.2652 13.8961 12.2877 13.9704 12.3045C14.0719 12.328 14.1758 12.3396 14.2799 12.3393C14.4269 12.3389 14.5733 12.3207 14.7158 12.2849L15.3522 12.1175L15.0754 11.5371C14.9764 11.2434 14.9826 10.9246 15.0929 10.6349C15.1365 10.5023 15.1757 10.3676 15.2062 10.2349C15.3288 10.2607 15.4536 10.2738 15.5789 10.2741C15.8157 10.2758 16.0489 10.2167 16.2562 10.1025C16.4635 9.98829 16.6378 9.82278 16.7624 9.62191L17.0718 9.08495L16.4986 8.85017C16.3264 8.76475 16.1772 8.63947 16.0635 8.48479C15.9497 8.33011 15.8747 8.15053 15.8448 7.96104C16.1358 7.92303 16.4096 7.80212 16.6334 7.6128C16.8572 7.42348 17.0216 7.17379 17.1067 6.89366" fill="white"/>
<path d="M8.50005 1.80003C7.89197 1.80003 7.43646 2.00002 7.33838 2.23481L8.50005 2.69133L9.66389 2.23263C9.56581 1.99785 9.1103 1.79785 8.50005 1.79785" fill="white"/>
<path d="M8.51514 13.913H8.49988C8.12208 13.9097 7.74601 13.8616 7.37963 13.7695L7.07886 14.5652C8.01015 14.833 8.99833 14.833 9.92963 14.5652L9.6354 13.7717C9.26899 13.8636 8.89294 13.9118 8.51514 13.9152" fill="white"/>
<path d="M10.7404 13.126C10.4214 13.2849 10.0897 13.4173 9.74878 13.5216L9.98634 14.1738C10.3666 14.0743 10.736 13.9374 11.0892 13.7651L10.5944 13.6021L10.7404 13.126Z" fill="white"/>
<path d="M6.26815 13.126L6.41418 13.6021L5.91943 13.7651C6.27197 13.937 6.64063 14.0739 7.02007 14.1738L7.25982 13.5216C6.9189 13.4172 6.58722 13.2849 6.26815 13.126Z" fill="white"/>
<path d="M8.49998 1.04137C8.93637 1.03685 9.36704 1.14069 9.75318 1.34355C9.79039 1.21836 9.83552 1.09565 9.88831 0.976156L9.75754 0.991373L9.62023 1.00659L9.56139 0.882678L9.38703 0.515289L9.06882 0.680505L8.94459 0.743548L8.85087 0.652244L8.49998 0.302246L8.1578 0.652244L8.06408 0.741374L7.93985 0.678331L7.61946 0.513115L7.44728 0.880504L7.38844 1.00442L7.25113 0.989199L7.12036 0.973982C7.17292 1.09356 7.21805 1.21626 7.25549 1.34137C7.63928 1.14084 8.06673 1.0378 8.49998 1.04137Z" fill="white"/>
<path d="M15.5006 5.29784C15.5587 5.31811 15.6199 5.3284 15.6815 5.32828C15.8038 5.32718 15.9236 5.29331 16.0282 5.23021C16.1329 5.1671 16.2187 5.07708 16.2765 4.96958C15.8941 4.90686 15.5453 4.71406 15.2892 4.42393C15.2285 4.35625 15.1543 4.30195 15.0714 4.26451C14.9884 4.22708 14.8986 4.20734 14.8075 4.20654C14.6651 4.2092 14.5262 4.25136 14.4065 4.32828C15.0233 4.65654 15.1497 5.18263 15.4962 5.30002" fill="white"/>
<path d="M1.32957 5.32801C1.39045 5.32814 1.4509 5.31785 1.50828 5.29758C1.86136 5.18018 1.98777 4.6454 2.59803 4.32584C2.47827 4.24891 2.33942 4.20676 2.197 4.2041C2.1056 4.20459 2.01531 4.22419 1.93197 4.26163C1.84863 4.29908 1.77409 4.35354 1.71316 4.42149C1.45764 4.71119 1.10964 4.90394 0.728027 4.96714C0.785857 5.07464 0.8716 5.16466 0.976278 5.22776C1.08096 5.29087 1.20072 5.32474 1.32303 5.32584" fill="white"/>
<path d="M15.6661 7.43477H15.6922C16.3461 7.43477 16.564 6.74347 16.564 6.74347H16.551C16.2103 6.73198 15.8762 6.64647 15.572 6.4929C15.2678 6.33933 15.0009 6.12141 14.7899 5.85434C14.3431 5.28696 13.9748 4.78913 13.2512 4.59348L13.1793 4.58044L13.164 4.5087C13.1444 4.39783 13.2207 4.29131 13.382 4.18261C14.3824 3.53044 13.7024 2.69784 13.7024 2.69784C13.7024 2.69784 13.4169 3.36305 12.7783 3.36305H12.7303C12.6572 3.36171 12.5843 3.35444 12.5124 3.34131L12.3947 3.31957C12.4427 3.15322 12.4441 2.97694 12.3987 2.80985C12.3534 2.64277 12.2631 2.49125 12.1375 2.37175C12.012 2.24346 11.8618 2.14187 11.6958 2.07312C11.5299 2.00437 11.3517 1.96988 11.172 1.97175C11.1077 1.971 11.0435 1.97609 10.9802 1.98697C11.1981 2.27393 11.3616 2.75218 11.1066 3.04783C10.8887 3.30218 10.3481 3.31305 10.3481 3.70001C10.3481 3.86087 10.4985 4.04566 10.7666 4.21305C11.5752 4.72174 12.3772 5.39565 12.7129 6.29782C13.1292 7.4239 12.6606 8.17173 11.9893 8.60216C12.1349 8.72462 12.3142 8.80039 12.5037 8.81955C12.5669 8.81955 12.6257 8.81955 12.6824 8.81955C13.033 8.83383 13.3778 8.72711 13.6588 8.51738C13.6108 8.81283 13.4852 9.09035 13.2948 9.32172C13.1306 9.51208 12.9253 9.66281 12.6942 9.7626C12.4632 9.86238 12.2125 9.90861 11.961 9.8978C11.9609 9.99949 11.9827 10.1 12.0248 10.1926C12.0669 10.2852 12.1283 10.3678 12.2051 10.4348C12.3788 10.5511 12.5773 10.6255 12.7848 10.6522C12.7848 10.6522 12.0263 10.8065 11.9413 11.9239C11.9434 12.208 11.8745 12.4882 11.7408 12.7391H11.7539C13.5149 12.7391 13.4692 11.2326 13.4692 11.2326C13.5148 11.371 13.5953 11.4955 13.7029 11.594C13.8105 11.6926 13.9416 11.762 14.0838 11.7956C14.1436 11.8105 14.2052 11.8178 14.2669 11.8174C14.3668 11.8167 14.4663 11.8043 14.5633 11.7804C14.4041 11.3601 14.4041 10.8964 14.5633 10.4761C14.6872 10.1273 14.747 9.75907 14.7398 9.38911C14.839 9.51024 14.9656 9.60612 15.1092 9.66886C15.2528 9.7316 15.4093 9.75941 15.5658 9.74998C15.7049 9.75247 15.8423 9.7199 15.9654 9.65529C16.0884 9.59069 16.1931 9.49614 16.2698 9.38042C15.0951 8.89346 15.2128 7.32608 15.2128 7.32608C15.3478 7.40849 15.5034 7.45143 15.6617 7.44999M15.3087 9.08911C14.8313 8.85433 14.5284 8.23042 14.4565 8.00216C14.3846 9.22824 13.7765 10.0848 13.0769 10.9108C12.8608 11.1589 12.693 11.4449 12.5821 11.7543C12.6401 11.4424 12.7732 11.1492 12.9701 10.9C13.6239 10.1087 14.2581 9.1239 14.3039 7.98694C14.3408 7.29608 14.1692 6.61004 13.8113 6.01739C13.9229 6.33858 13.9395 6.68501 13.8591 7.01535C13.7788 7.34568 13.6048 7.64599 13.358 7.88042C13.358 7.88042 14.5589 6.43478 12.8589 4.95435C12.1833 4.39131 11.4422 4.04348 11.0608 3.79566C12.4361 4.24348 13.1096 3.75001 13.1096 3.75001C12.9217 3.89524 12.705 3.99887 12.4739 4.05397C12.2428 4.10908 12.0025 4.11439 11.7692 4.06957C11.8651 4.11522 11.9653 4.16522 12.0721 4.22174C13.2316 4.85 14.2756 5.88478 14.4521 7.31738V7.30651C14.7224 8.71303 15.3239 9.0739 15.3239 9.0739" fill="white"/>
<path d="M4.22156 10.6392C4.42574 10.6155 4.6218 10.5456 4.79476 10.4348C4.8732 10.3691 4.93656 10.2873 4.98056 10.1951C5.02455 10.1028 5.04815 10.0022 5.04976 9.90003C4.79792 9.91085 4.54688 9.86463 4.3155 9.76486C4.08411 9.66509 3.87838 9.51435 3.71374 9.32395C3.51552 9.09552 3.38164 8.81871 3.32579 8.52178C3.60623 8.73248 3.95143 8.83931 4.3022 8.82395C4.36105 8.82395 4.41989 8.82395 4.4831 8.82395C4.67331 8.80508 4.85337 8.7293 4.99964 8.60656C4.32835 8.17178 3.85759 7.43048 4.27387 6.30222C4.60733 5.40005 5.41156 4.72397 6.22015 4.21745C6.48823 4.05006 6.63861 3.8631 6.63861 3.70441C6.63861 3.32615 6.10028 3.31528 5.88015 3.05224C5.62515 2.75659 5.78425 2.2805 6.00438 1.99137C5.94105 1.98046 5.87685 1.97536 5.81259 1.97615C5.6329 1.97428 5.4547 2.00877 5.28876 2.07752C5.12281 2.14627 4.97255 2.24786 4.84707 2.37615C4.72132 2.49551 4.63083 2.64702 4.58548 2.81416C4.54013 2.9813 4.54166 3.15764 4.58989 3.32397L4.4722 3.34789C4.40023 3.36079 4.32736 3.36806 4.25425 3.36963H4.20848C3.56771 3.36963 3.28438 2.70441 3.28438 2.70441C3.28438 2.70441 2.61528 3.53049 3.61566 4.18484C3.78784 4.29571 3.86412 4.40223 3.83361 4.51093L3.81836 4.58266L3.74643 4.59571C3.02284 4.79136 2.65669 5.28918 2.20771 5.85657C1.99735 6.12118 1.73193 6.33712 1.42979 6.4895C1.12764 6.64188 0.795942 6.72706 0.457586 6.73918H0.435791C0.435791 6.73918 0.65374 7.43048 1.30759 7.43048H1.3381C1.49644 7.43191 1.652 7.38898 1.78707 7.30657C1.78707 7.30657 1.90259 8.87395 0.727842 9.3609C0.804655 9.47649 0.909402 9.57093 1.03243 9.63551C1.15546 9.7001 1.29281 9.73275 1.43182 9.73047C1.58832 9.73989 1.74483 9.71209 1.88844 9.64935C2.03206 9.58661 2.15867 9.49072 2.25784 9.3696C2.25076 9.73955 2.31056 10.1077 2.43438 10.4566C2.59314 10.8769 2.59314 11.3405 2.43438 11.7609C2.53067 11.7847 2.62942 11.7971 2.72861 11.7978C2.79032 11.7984 2.85184 11.7911 2.91169 11.7761C3.05385 11.7425 3.185 11.6731 3.2926 11.5745C3.40021 11.476 3.48067 11.3515 3.5263 11.2131C3.5263 11.2131 3.48053 12.7196 5.24156 12.7196H5.25464C5.12215 12.4683 5.05402 12.1883 5.0563 11.9044C4.97348 10.787 4.21284 10.6326 4.21284 10.6326M3.92951 10.9044C3.22335 10.0783 2.62182 9.22177 2.53682 7.98482C2.46271 8.20221 2.16194 8.83264 1.68464 9.07177C1.68464 9.07177 2.284 8.71091 2.55643 7.30439V7.31526C2.73515 5.88266 3.77694 4.84788 4.93861 4.21962C5.04541 4.16093 5.14566 4.1131 5.24156 4.06745C5.00518 4.11519 4.76124 4.11135 4.52648 4.05619C4.29173 4.00103 4.07172 3.89585 3.88156 3.74788C3.88156 3.74788 4.55284 4.24136 5.93028 3.79354C5.55541 4.04354 4.81656 4.39136 4.14092 4.9544C2.44964 6.43483 3.65925 7.88048 3.65925 7.88048C3.41247 7.64604 3.23851 7.34574 3.15813 7.0154C3.07775 6.68506 3.09434 6.33863 3.20592 6.01744C2.84743 6.60983 2.67581 7.29606 2.71336 7.987C2.75912 9.12612 3.38682 10.1087 4.04502 10.9C4.24265 11.149 4.37655 11.4422 4.43515 11.7544C4.32301 11.4451 4.15455 11.1591 3.93823 10.9109" fill="white"/>
<path d="M7.19231 5.13026C7.22064 5.1607 7.24897 5.19548 7.27731 5.22809L7.29692 5.252L7.3732 5.35635L7.39064 5.38026C7.41897 5.42374 7.44731 5.47156 7.47564 5.51722C7.5728 5.7112 7.71777 5.87739 7.89694 6.00021C8.07611 6.12302 8.28361 6.19844 8.5 6.21939C8.71578 6.1983 8.92269 6.12305 9.10144 6.00065C9.28018 5.87824 9.42493 5.71267 9.52218 5.51939C9.55051 5.47156 9.57884 5.42374 9.60936 5.38026L9.62244 5.3607C9.64859 5.32374 9.67474 5.28678 9.7009 5.252L9.71833 5.23026C9.74666 5.19548 9.775 5.1607 9.80551 5.13026L9.81859 5.11722C9.9511 4.9784 10.1192 4.87841 10.3046 4.82809L10.2174 4.78244L9.86 4.56505L9.49384 4.34766L8.5 4.89113L7.51923 4.35853L7.15308 4.57592L6.79564 4.79331L6.7041 4.84548C6.88818 4.88989 7.05685 4.98302 7.19231 5.11504L7.20756 5.13026M8.11205 5.08678H8.9359V5.37156C8.89817 5.33518 8.85273 5.30769 8.80294 5.29114C8.75315 5.27459 8.70028 5.26938 8.6482 5.27591V5.68461C8.64722 5.78594 8.67117 5.88596 8.71795 5.97591H8.31692C8.36681 5.88756 8.39378 5.78817 8.39538 5.68678V5.27809C8.34331 5.27156 8.29043 5.27676 8.24064 5.29331C8.19085 5.30987 8.14542 5.33735 8.10769 5.37374L8.11205 5.08678Z" fill="white"/>
<path d="M8.41932 4.53687V2.87383L7.35791 2.51514L7.62817 4.13035L8.41932 4.53687ZM8.20137 3.28252V3.54991L8.14906 3.526C8.06908 3.49912 7.99506 3.45704 7.93111 3.40209C7.87419 3.3662 7.8254 3.31885 7.78787 3.26308C7.75034 3.2073 7.72489 3.14432 7.71317 3.07818L8.20137 3.28252Z" fill="white"/>
<path d="M9.37179 4.13039L9.65076 2.51953L8.58936 2.87823V4.54126L9.37179 4.13039ZM8.8182 3.28257L9.29987 3.0804C9.28814 3.14655 9.2627 3.20952 9.22517 3.2653C9.18764 3.32107 9.13885 3.36842 9.08192 3.40431C9.01797 3.45926 8.94396 3.50134 8.86397 3.52822L8.81384 3.55214L8.8182 3.28257Z" fill="white"/>
<path d="M6.91773 8.39352C7.01204 8.42409 7.11062 8.4395 7.20978 8.43918V8.40874C7.21588 8.38945 7.22097 8.36986 7.22504 8.35005C7.24072 8.26319 7.24946 8.17524 7.25119 8.087C7.19178 8.05168 7.14346 8.00047 7.11171 7.93918C7.09847 7.90276 7.07409 7.87142 7.04202 7.84957C7.00995 7.82773 6.97181 7.81649 6.93299 7.81744C6.83647 7.8255 6.74354 7.85765 6.66273 7.91092C6.64941 8.00627 6.66565 8.10342 6.70929 8.1893C6.75292 8.27518 6.82186 8.34568 6.90684 8.39135" fill="white"/>
<path d="M9.26491 7.51074C9.06876 7.72813 8.68081 8.0977 8.66337 8.11509L8.6394 8.139L7.42107 8.11943C7.42002 8.21992 7.40685 8.31992 7.38184 8.41726V8.45639L8.83119 8.71726C8.98158 8.61291 9.39786 8.30856 9.55914 8.19117C9.45967 8.03903 9.42297 7.85445 9.45671 7.67596C9.38687 7.63234 9.32497 7.57721 9.27363 7.51292" fill="white"/>
<path d="M9.43073 6.04785C9.31359 6.17828 9.17011 6.28251 9.00972 6.35369C8.84933 6.42488 8.67565 6.46141 8.50009 6.46089C8.45581 6.46318 8.41143 6.46318 8.36714 6.46089C8.32316 6.45733 8.27947 6.45079 8.23637 6.44133C8.21332 6.54069 8.22169 6.64473 8.26035 6.73915C8.29146 6.79959 8.33455 6.8531 8.38699 6.89644C8.43944 6.93979 8.50016 6.97207 8.56548 6.99133L8.6156 7.01089V7.06524C8.62164 7.17595 8.66392 7.28162 8.73597 7.36605C8.80802 7.45048 8.90585 7.509 9.01445 7.53263C9.07766 7.46741 9.13432 7.40872 9.17791 7.36089C9.13908 7.28503 9.12554 7.19879 9.13926 7.11473C9.15298 7.03066 9.19325 6.95316 9.25419 6.8935C9.23655 7.02142 9.25737 7.15168 9.31402 7.26778C9.37067 7.38388 9.46059 7.48059 9.5724 7.54567L9.63342 7.57393L9.61599 7.63915C9.57626 7.76603 9.58745 7.90335 9.64722 8.02216C9.70698 8.14098 9.81064 8.23202 9.93637 8.2761L10.017 8.30654L9.98214 8.3848C9.92968 8.50259 9.92463 8.63598 9.96804 8.75738C10.0114 8.87878 10.1 8.97888 10.2153 9.03697H11.1155V8.31958C10.9923 8.30357 10.8776 8.24806 10.7888 8.16141C10.6999 8.07476 10.6417 7.96166 10.6229 7.83915C10.4868 7.82151 10.3632 7.75124 10.2786 7.6435C10.2302 7.57554 10.2024 7.49516 10.1986 7.41191C10.1947 7.32866 10.2149 7.24605 10.2568 7.17393C10.2588 7.31933 10.312 7.45939 10.4071 7.56958C10.4855 7.65098 10.5908 7.7012 10.7036 7.71089H10.7689V7.77828C10.7746 7.87367 10.8116 7.96454 10.8743 8.03685C10.9369 8.10915 11.0217 8.15885 11.1155 8.17828V6.71307C11.124 6.48442 11.1735 6.25914 11.2615 6.04785H9.43073Z" fill="white"/>
<path d="M6.99612 6.71979L6.96997 7.65239L7.07677 7.66761L7.33612 6.77413L7.20535 6.49805L6.99612 6.71979Z" fill="white"/>
<path d="M9.86001 10.9955H9.88617C10.0475 11.0411 10.0889 11.6216 10.3722 11.6737C10.3976 11.6764 10.4231 11.6764 10.4485 11.6737C10.4847 11.6739 10.5205 11.665 10.5524 11.648C10.5844 11.6309 10.6116 11.6061 10.6316 11.5759C10.6316 11.5759 10.4899 11.3585 10.3831 11.202C10.2414 11.0042 10.1325 10.7672 9.86655 10.7672H9.84694C9.79707 10.7691 9.74873 10.7849 9.70745 10.8129C9.61931 10.7553 9.51639 10.7244 9.41104 10.7237C9.28987 10.7385 9.17025 10.7639 9.0536 10.7998L8.46514 10.7411C8.38569 10.7223 8.31682 10.6731 8.27335 10.6042V10.5889C8.27335 10.5737 8.27335 10.5563 8.27335 10.5411C8.27713 10.3839 8.22721 10.23 8.13176 10.1048C8.03632 9.97955 7.90102 9.89041 7.74809 9.85199C7.74809 9.85199 7.76335 9.76069 7.72848 9.72591L7.59771 9.88243L7.16181 9.66504L7.46694 10.0194L7.19232 10.3237C7.17971 10.3359 7.17139 10.3518 7.16864 10.369C7.16589 10.3863 7.16885 10.404 7.17707 10.4194L7.28822 10.5172L7.42989 10.4324C7.4413 10.4293 7.45335 10.4293 7.46476 10.4324C7.50399 10.4324 7.56284 10.4324 7.61514 10.4324C7.66745 10.4324 7.72194 10.4194 7.72848 10.3672C7.71104 10.5455 7.5454 10.8542 7.65437 11.0976L7.73501 11.2824L7.21412 11.2085L6.97437 11.6194C6.93838 11.6735 6.91919 11.737 6.91919 11.802C6.91919 11.8669 6.93838 11.9305 6.97437 11.9846L7.06591 12.0976C7.12933 12.0338 7.18228 11.9605 7.22283 11.8802L7.18142 11.8346C7.16633 11.8202 7.15692 11.8008 7.15492 11.7801C7.15292 11.7593 7.15846 11.7386 7.17053 11.7216L7.32309 11.4694L7.93771 11.6129L7.9704 11.5585C7.98713 11.5294 8.01175 11.5056 8.04144 11.4898C8.07113 11.4741 8.10467 11.467 8.13822 11.4694C8.16579 11.4673 8.19347 11.4673 8.22104 11.4694C8.38252 11.5019 8.54669 11.5194 8.71143 11.5216C8.80412 11.5308 8.89772 11.5215 8.98678 11.4942C9.07584 11.467 9.15857 11.4223 9.23014 11.3629C9.44809 11.6933 9.9036 11.7455 9.86873 11.9129L9.74886 12.4759C9.82732 12.4759 9.90361 12.4759 9.96681 12.4585L10.0801 11.8716C10.0932 11.8085 10.1041 11.7216 10.1041 11.7216C10.0191 11.6498 9.94558 11.5655 9.88617 11.4716C9.80553 11.3194 9.84912 11.2389 9.77501 11.0368C9.78227 11.0234 9.79294 11.0121 9.80594 11.0041C9.81895 10.996 9.83384 10.9916 9.84912 10.9911M7.54758 10.165C7.54051 10.1648 7.53357 10.1631 7.52718 10.1601C7.52079 10.157 7.51508 10.1528 7.51039 10.1475C7.50571 10.1422 7.50215 10.136 7.49992 10.1293C7.4977 10.1226 7.49686 10.1155 7.49745 10.1085C7.49772 10.1015 7.49942 10.0945 7.50245 10.0882C7.50547 10.0818 7.50976 10.0761 7.51506 10.0714C7.52036 10.0668 7.52655 10.0632 7.53326 10.061C7.53998 10.0588 7.54707 10.0579 7.55412 10.0585C7.56828 10.0585 7.58186 10.0641 7.59188 10.0741C7.60189 10.0841 7.60751 10.0977 7.60751 10.1118C7.60751 10.1259 7.60189 10.1394 7.59188 10.1494C7.58186 10.1594 7.56828 10.165 7.55412 10.165" fill="white"/>
<path d="M6.7194 11.5215C6.7194 11.5215 6.92427 11.4367 6.93735 11.378L6.91119 11.3107C6.89985 11.292 6.89559 11.2699 6.89919 11.2483C6.90279 11.2268 6.91401 11.2073 6.93081 11.1933L7.14876 11.0411L7.51709 11.1107C7.47563 11.0548 7.45415 10.9867 7.45606 10.9172L7.10517 10.8433L6.77388 11.0433C6.71628 11.0859 6.67467 11.1465 6.6557 11.2155C6.63673 11.2844 6.64151 11.3578 6.66927 11.4237L6.7194 11.5215Z" fill="white"/>
<path d="M9.31958 12.4847H9.53753C9.53753 12.4847 9.72714 11.9325 9.73804 11.9151C9.59716 11.8496 9.45968 11.7771 9.32612 11.6978C9.38278 11.7825 9.51791 11.876 9.49176 11.9499L9.31958 12.4847Z" fill="white"/>
<path d="M11.1153 9.21289H5.88452V11.1694C5.88452 11.9716 6.46644 12.4737 7.32516 12.4737C8.04221 12.4737 8.23183 12.502 8.49991 12.765C8.58337 12.6758 8.68473 12.6052 8.79737 12.5576C8.91002 12.51 9.03145 12.4867 9.15375 12.489V12.4585L9.32593 11.9564L9.04696 11.639C8.93473 11.6727 8.81746 11.6867 8.70042 11.6803C8.52621 11.6781 8.35256 11.6599 8.1817 11.6259C8.1636 11.6239 8.14532 11.6239 8.12721 11.6259C8.10324 11.6259 8.10324 11.6259 8.0967 11.639L8.06401 11.6933L8.00516 11.7911L7.89183 11.7651L7.39055 11.6477L7.3208 11.7607V11.7737L7.38183 11.8411L7.35568 11.9281C7.30994 12.0346 7.24409 12.1312 7.1617 12.2129L7.03529 12.3477L6.92196 12.2042L6.83696 12.0977C6.79211 12.039 6.76298 11.9699 6.7523 11.8968C6.74162 11.8238 6.74976 11.7493 6.77593 11.6803L6.63427 11.739L6.57106 11.602L6.52747 11.5042C6.48407 11.4045 6.47618 11.2929 6.50513 11.1881C6.53407 11.0833 6.5981 10.9916 6.68657 10.9281L7.08978 10.7107L7.47337 10.7868C7.47337 10.7498 7.49734 10.6194 7.50824 10.5846H7.48644L7.2685 10.6672L7.05055 10.5194C7.03987 10.5089 7.0314 10.4964 7.02561 10.4826C7.01983 10.4688 7.01685 10.4539 7.01685 10.439C7.01685 10.424 7.01983 10.4092 7.02561 10.3954C7.0314 10.3816 7.03987 10.3691 7.05055 10.3585L7.2576 10.0455L6.73234 9.39332L7.53875 9.72376L7.59324 9.65854L7.70221 9.52811L7.82645 9.6455C7.85887 9.67685 7.88157 9.71685 7.89183 9.76071C8.10978 9.84767 8.5108 10.102 8.54568 10.5151L8.42144 10.5651C8.43671 10.5857 8.45695 10.6021 8.48029 10.6129L9.05568 10.6694L9.10798 10.6542C9.20568 10.6177 9.30882 10.5979 9.41311 10.5955C9.51729 10.5962 9.62002 10.62 9.71388 10.6651C9.75525 10.6502 9.79857 10.6414 9.84247 10.639H9.8708C9.99611 10.6501 10.1162 10.6942 10.2188 10.7667C10.3215 10.8393 10.4029 10.9378 10.4549 11.052L10.5181 11.1433C10.6249 11.2955 10.7666 11.5151 10.7709 11.5259L10.8341 11.6237L10.7557 11.7129C10.72 11.7593 10.6742 11.797 10.6217 11.823C10.5692 11.849 10.5114 11.8626 10.4527 11.8629C10.4179 11.8661 10.3829 11.8661 10.3481 11.8629C10.3108 11.848 10.2756 11.8283 10.2435 11.8042C10.2435 11.8346 10.2435 11.8716 10.2261 11.902L10.1258 12.4259C10.4133 12.3691 10.671 12.2118 10.8525 11.9822C11.0339 11.7526 11.1271 11.4659 11.1153 11.1738V9.21289Z" fill="#FCE527"/>
<path d="M5.8846 9.05431H9.95807C9.87664 8.96907 9.81987 8.86344 9.79378 8.74862C9.76769 8.6338 9.77325 8.51407 9.80986 8.40214C9.75472 8.37582 9.7034 8.34219 9.6573 8.30214C9.49819 8.41953 9.00345 8.77171 8.88576 8.86084L8.8596 8.87823L7.26422 8.59127H7.23153C7.17999 8.59427 7.12832 8.59427 7.07678 8.59127C7.06934 8.6256 7.05039 8.65638 7.02305 8.67851C6.9957 8.70064 6.96161 8.71281 6.9264 8.71301H6.90025C6.85907 8.70607 6.82228 8.68326 6.79781 8.64951C6.77335 8.61575 6.76317 8.57375 6.76948 8.53258V8.49779C6.66895 8.42498 6.5919 8.3245 6.54776 8.20866C6.50363 8.09282 6.49434 7.96665 6.52101 7.84562L6.53845 7.82606L6.56242 7.80867C6.56242 7.80867 6.59294 7.78693 6.63435 7.76519L6.51884 7.7478C6.49816 7.74407 6.47976 7.73245 6.46755 7.7154C6.45533 7.69834 6.45028 7.67721 6.45345 7.65649C6.45503 7.64615 6.45867 7.63623 6.46416 7.62732C6.46965 7.61841 6.47688 7.61068 6.48541 7.6046C6.49395 7.59852 6.50361 7.59421 6.51385 7.59192C6.52408 7.58963 6.53467 7.58941 6.54499 7.59128L6.82178 7.63475L6.84794 6.66519L7.25986 6.23041L7.51704 6.76954L7.23589 7.69345L7.47999 7.73258C7.50066 7.7363 7.51907 7.74793 7.53128 7.76498C7.54349 7.78204 7.54855 7.80317 7.54537 7.82388C7.54225 7.84231 7.53263 7.85901 7.51824 7.87097C7.50385 7.88293 7.48564 7.88936 7.46691 7.8891H7.45383L7.2555 7.85649V7.87171C7.27754 7.91053 7.31102 7.94165 7.3514 7.96084L8.56755 7.98041L8.87922 7.67388C8.76283 7.63376 8.66017 7.56166 8.58305 7.4659C8.50593 7.37014 8.4575 7.2546 8.44332 7.13258C8.29191 7.07516 8.16803 6.96248 8.09678 6.81737C8.03765 6.67997 8.02764 6.52647 8.06845 6.38259C7.87652 6.30762 7.70324 6.1919 7.56063 6.04346H5.74512C5.83066 6.25675 5.87788 6.4834 5.8846 6.71302V9.05431Z" fill="#FCE527"/>
<path d="M7.56518 10.0632C7.5581 10.0626 7.55097 10.0634 7.54423 10.0656C7.53748 10.0679 7.53126 10.0714 7.52594 10.0761C7.52062 10.0808 7.51631 10.0865 7.51326 10.0928C7.51022 10.0992 7.50851 10.1061 7.50824 10.1132C7.50765 10.1202 7.50849 10.1273 7.51073 10.134C7.51296 10.1407 7.51654 10.1468 7.52125 10.1521C7.52596 10.1574 7.5317 10.1617 7.53812 10.1647C7.54454 10.1677 7.55151 10.1694 7.55861 10.1697C7.57284 10.1697 7.58649 10.1641 7.59655 10.1541C7.60662 10.1441 7.61227 10.1306 7.61227 10.1164C7.61227 10.1023 7.60662 10.0888 7.59655 10.0788C7.58649 10.0688 7.57284 10.0632 7.55861 10.0632" fill="#222220"/>
<path d="M11.1154 13.6217L10.8146 13.5064L10.8974 13.1956L10.989 12.8564C10.5778 13.0665 10.1472 13.2362 9.70307 13.363C9.48512 13.4238 9.3282 13.4521 9.3282 13.4521V13.6825C9.0608 13.7259 8.79051 13.7491 8.51961 13.7521H8.5C8.2291 13.7492 7.95881 13.7259 7.69141 13.6825V13.4521C7.69141 13.4521 7.53012 13.4238 7.31653 13.363C6.8724 13.2363 6.44172 13.0666 6.03064 12.8564L6.12 13.1956L6.205 13.5064L5.90205 13.6217L5.56641 13.7456C6.01768 13.9823 6.48878 14.1795 6.97435 14.3347L6.85884 14.6477C7.38242 14.8469 7.93977 14.9429 8.5 14.9303H8.51307C9.07549 14.9438 9.63515 14.8478 10.1608 14.6477L10.0453 14.3347C10.5294 14.1803 10.9991 13.9839 11.4488 13.7477L11.1154 13.6217ZM5.92166 13.7673L6.41641 13.6043L6.27038 13.1282C6.58944 13.2871 6.92112 13.4194 7.26205 13.5238L7.0223 14.176C6.6429 14.076 6.27425 13.9391 5.92166 13.7673ZM8.5 14.7673C8.0195 14.7622 7.54175 14.6942 7.07897 14.5651L7.3732 13.7717C7.74181 13.8634 8.12009 13.9108 8.5 13.913H8.52397C8.90176 13.9095 9.2778 13.8613 9.64423 13.7695L9.92974 14.5651C9.46546 14.6939 8.98622 14.7611 8.50435 14.7651M9.98641 14.176L9.74666 13.5238C10.0876 13.4195 10.4193 13.2871 10.7383 13.1282L10.5923 13.6043L11.087 13.7673C10.7338 13.9394 10.3644 14.0763 9.98423 14.176" fill="#222220"/>
<path d="M8.50008 1.23488C8.9933 1.22007 9.47783 1.36666 9.8797 1.65227C9.94503 1.32994 10.0683 1.02208 10.2437 0.743581L9.74893 0.800103L9.48303 0.252279L8.98611 0.506626L8.50008 0.0327148L8.02059 0.506626L7.52585 0.252279L7.26867 0.800103L6.77393 0.743581C6.94632 1.02263 7.06668 1.33048 7.12918 1.65227C7.52878 1.36876 8.00986 1.22229 8.50008 1.23488ZM7.24687 0.991406L7.38418 1.00662L7.44303 0.882711L7.61521 0.515321L7.93559 0.680538L8.05982 0.743581L8.1579 0.652277L8.50008 0.302279L8.85098 0.652277L8.94905 0.750103L9.07328 0.68706L9.39149 0.521843L9.56585 0.889233L9.6247 1.01315L9.762 0.997928L9.89277 0.98271C9.83998 1.1022 9.79485 1.22491 9.75764 1.3501C9.37012 1.15208 8.94095 1.04881 8.50553 1.04881C8.07011 1.04881 7.64094 1.15208 7.25341 1.3501C7.21597 1.22499 7.17085 1.10229 7.11829 0.98271L7.24687 0.991406Z" fill="#222220"/>
<path d="M15.6923 7.64773C16.4856 7.64773 16.7515 6.84338 16.7624 6.8086L16.8518 6.52599H16.5554C16.2458 6.51551 15.9422 6.43771 15.6659 6.29803C15.3896 6.15835 15.1472 5.96015 14.9556 5.7173L14.8968 5.64339C14.4914 5.13035 14.1078 4.64122 13.4191 4.41731C13.4464 4.39333 13.4756 4.37152 13.5063 4.35209C13.6677 4.26075 13.8075 4.13581 13.9162 3.98576C14.0249 3.83572 14.0999 3.66408 14.1361 3.48253C14.1731 3.15098 14.0793 2.81809 13.8746 2.55427L13.6567 2.28253L13.5128 2.60862C13.5128 2.62818 13.2709 3.14557 12.7827 3.14557H12.7456H12.6497C12.662 2.97591 12.6372 2.8056 12.577 2.64645C12.5168 2.4873 12.4226 2.3431 12.301 2.22384C12.1554 2.07566 11.9814 1.95829 11.7893 1.87873C11.5972 1.79917 11.3909 1.75906 11.1829 1.7608C11.1049 1.76045 11.0269 1.76626 10.9497 1.77819L10.6163 1.8434L10.8211 2.11297C10.9824 2.33036 11.1285 2.70644 10.9563 2.90644C10.8738 2.97805 10.7794 3.0347 10.6773 3.07383C10.4594 3.17601 10.1455 3.32166 10.1455 3.68687C10.1455 3.92383 10.3308 4.17165 10.6642 4.38035C11.6515 4.99991 12.2596 5.64556 12.5233 6.3586C12.9309 7.44555 12.3991 8.08251 11.8826 8.41077L11.6515 8.55859L11.8542 8.74337C12.035 8.89705 12.2586 8.99188 12.495 9.01511C12.5647 9.01511 12.6301 9.01511 12.6933 9.01511C12.8956 9.01592 13.0969 8.98661 13.2905 8.92816C13.2423 9.01229 13.1861 9.09164 13.1227 9.16511C12.9777 9.33329 12.7961 9.46617 12.5917 9.55359C12.3874 9.641 12.1657 9.68064 11.9436 9.66946H11.7496L11.7344 9.86293C11.7335 9.99689 11.7621 10.1294 11.8183 10.2511C11.8744 10.3728 11.9566 10.4807 12.0591 10.5673C12.1134 10.6149 12.1744 10.6544 12.24 10.6847C11.918 10.9976 11.7337 11.4254 11.7278 11.8738C11.7332 12.1275 11.6795 12.3791 11.5709 12.6086L11.3529 12.9347H11.7409C12.3802 12.9347 12.8699 12.76 13.2099 12.4107C13.3864 12.2257 13.5176 12.0025 13.5935 11.7586C13.7194 11.8645 13.8688 11.939 14.0294 11.976C14.1058 11.9936 14.1841 12.0024 14.2626 12.0021C14.38 12.0017 14.497 11.9879 14.6113 11.9608L14.8576 11.8955L14.7486 11.6651C14.6121 11.2976 14.6121 10.8935 14.7486 10.526C14.8294 10.2859 14.8856 10.0382 14.9164 9.78685C15.1127 9.88663 15.3303 9.93736 15.5506 9.93467C15.7276 9.93733 15.9023 9.89526 16.0586 9.8124C16.2148 9.72953 16.3475 9.60856 16.4442 9.46076L16.5641 9.24337L16.3461 9.15207C15.616 8.84989 15.4547 8.03903 15.4242 7.5999C15.4961 7.61444 15.5689 7.62316 15.6422 7.62599L15.6923 7.64773ZM16.2699 9.36511C16.1932 9.48084 16.0885 9.57539 15.9654 9.63999C15.8424 9.70459 15.7049 9.73716 15.5659 9.73467C15.4094 9.74392 15.253 9.71604 15.1094 9.65331C14.9658 9.59058 14.8392 9.49479 14.7399 9.37381C14.7463 9.7439 14.6858 10.1121 14.5611 10.4608C14.402 10.881 14.402 11.3448 14.5611 11.7651C14.4641 11.789 14.3647 11.8014 14.2647 11.8021C14.203 11.8025 14.1415 11.7952 14.0817 11.7803C13.9395 11.7467 13.8083 11.6773 13.7007 11.5787C13.5931 11.4802 13.5127 11.3557 13.467 11.2173C13.467 11.2173 13.5128 12.7238 11.7518 12.7238H11.7387C11.8723 12.4728 11.9412 12.1927 11.9392 11.9086C12.022 10.7912 12.7805 10.6368 12.7805 10.6368C12.5757 10.6142 12.3789 10.5451 12.2051 10.4347C12.1267 10.369 12.0633 10.2872 12.0193 10.1949C11.9753 10.1027 11.9517 10.002 11.9501 9.89989C12.2037 9.91226 12.4567 9.86658 12.6897 9.76635C12.9228 9.66612 13.1298 9.51399 13.2949 9.32163C13.4943 9.09374 13.629 8.81678 13.685 8.51946C13.4046 8.73017 13.0594 8.837 12.7086 8.82163C12.6519 8.82163 12.5909 8.82163 12.5299 8.82163C12.3404 8.80247 12.1611 8.72671 12.0155 8.60424C12.6868 8.16946 13.1554 7.42816 12.7391 6.29991C12.4056 5.39774 11.6014 4.72165 10.7928 4.21513C10.5247 4.04774 10.3744 3.86079 10.3744 3.70209C10.3744 3.32383 10.9127 3.31296 11.1328 3.04992C11.3878 2.75427 11.2287 2.27818 11.0064 1.98906C11.0697 1.97818 11.1339 1.97308 11.1982 1.97384C11.3779 1.97197 11.5561 2.00645 11.722 2.0752C11.888 2.14395 12.0382 2.24554 12.1637 2.37384C12.2893 2.49334 12.3796 2.64485 12.4249 2.81194C12.4703 2.97903 12.4689 3.15531 12.4209 3.32166L12.5386 3.34557C12.6105 3.3586 12.6834 3.36586 12.7565 3.36731H12.8045C13.4431 3.36731 13.7286 2.7021 13.7286 2.7021C13.7286 2.7021 14.4064 3.5347 13.4082 4.18687C13.236 4.29774 13.1597 4.40426 13.1903 4.51296L13.2055 4.5847L13.2774 4.59774C14.001 4.79339 14.3672 5.29122 14.8161 5.8586C15.0252 6.1208 15.2883 6.33512 15.5876 6.48703C15.8869 6.63893 16.2155 6.72488 16.551 6.73903H16.5641C16.5641 6.73903 16.3461 7.43034 15.6923 7.43034H15.6618C15.5035 7.43177 15.3479 7.38884 15.2128 7.30642C15.2128 7.30642 15.0973 8.87381 16.2699 9.36076" fill="#222220"/>
<path d="M14.3039 4.51326C14.5476 4.65178 14.7587 4.84081 14.9229 5.06761C15.0465 5.25924 15.2239 5.41043 15.4329 5.50239C15.5123 5.5289 15.5955 5.54212 15.6792 5.54152C15.8424 5.54106 16.0024 5.49579 16.1416 5.41067C16.2807 5.32554 16.3937 5.20384 16.4682 5.05891L16.5946 4.77848L16.2873 4.76109C15.9577 4.70149 15.6585 4.53118 15.4394 4.27848C15.3586 4.19093 15.2606 4.12086 15.1515 4.07263C15.0424 4.02439 14.9245 3.99901 14.8052 3.99805C14.6194 4.00124 14.4382 4.05621 14.2821 4.15674L14.001 4.35457L14.3039 4.51326ZM14.8052 4.20457C14.8962 4.20536 14.9861 4.22511 15.0691 4.26254C15.152 4.29997 15.2262 4.35427 15.2869 4.42196C15.5429 4.71209 15.8918 4.90488 16.2742 4.96761C16.2162 5.07496 16.1304 5.16485 16.0257 5.22793C15.9211 5.29101 15.8014 5.32498 15.6792 5.3263C15.6176 5.32643 15.5564 5.31614 15.4983 5.29587C15.1474 5.17848 15.021 4.6437 14.4085 4.32413C14.5282 4.2471 14.6671 4.20494 14.8096 4.20239" fill="#222220"/>
<path d="M14.4435 7.30663C14.2647 5.87403 13.2229 4.83925 12.0635 4.21099C11.9567 4.15447 11.8564 4.10447 11.7605 4.05882C11.9972 4.10675 12.2416 4.103 12.4767 4.04784C12.7118 3.99267 12.9322 3.8874 13.1227 3.73926C13.1227 3.73926 12.4514 4.23273 11.074 3.78491C11.4554 4.03056 12.1942 4.37839 12.8721 4.9436C14.5612 6.42403 13.3537 7.86967 13.3537 7.86967C13.6005 7.63524 13.7745 7.33494 13.8548 7.0046C13.9352 6.67426 13.9186 6.32783 13.8071 6.00664C14.1648 6.59934 14.3364 7.28534 14.2996 7.9762C14.2538 9.11532 13.6262 10.0979 12.9658 10.8892C12.7689 11.1384 12.6358 11.4316 12.5778 11.7436C12.6913 11.4377 12.8605 11.1554 13.0769 10.911C13.7831 10.0849 14.3846 9.22836 14.4674 7.99141C14.5415 8.2088 14.8423 8.83924 15.3196 9.07836C15.3196 9.07836 14.7181 8.7175 14.4478 7.31098" fill="#222220"/>
<path d="M5.44874 12.6087C5.34301 12.3865 5.28722 12.1439 5.28528 11.8979C5.27937 11.4494 5.09514 11.0217 4.7731 10.7087C4.83881 10.6786 4.89975 10.639 4.954 10.5913C5.05674 10.505 5.13911 10.3971 5.19525 10.2753C5.25138 10.1536 5.27989 10.021 5.27874 9.887L5.26566 9.69352H5.06951C4.84779 9.70436 4.62651 9.66456 4.42255 9.57716C4.21859 9.48976 4.03733 9.35706 3.89259 9.18917C3.82224 9.11357 3.75947 9.03129 3.70515 8.94352C3.89804 9.00189 4.09858 9.0312 4.30015 9.03048C4.36336 9.03048 4.42874 9.03048 4.49849 9.03048C4.73505 9.00635 4.95859 8.91079 5.13926 8.75657L5.34195 8.57178L5.11092 8.42396C4.59438 8.09353 4.06477 7.46744 4.47015 6.37179C4.73387 5.65875 5.34195 5.0131 6.32925 4.39354C6.66272 4.17615 6.84579 3.93485 6.84579 3.70007C6.84579 3.33485 6.54067 3.19137 6.31618 3.08703C6.21405 3.04801 6.11961 2.99135 6.0372 2.91963C5.86284 2.71964 6.00887 2.33485 6.17015 2.12616L6.3772 1.8566L6.04156 1.79138C5.96514 1.77951 5.88788 1.77369 5.81054 1.77399C5.60252 1.77213 5.39627 1.81218 5.20414 1.89175C5.01202 1.97132 4.83798 2.08876 4.69246 2.23703C4.57515 2.35648 4.48473 2.49952 4.42723 2.65659C4.36973 2.81366 4.34647 2.98115 4.359 3.14789H4.2631H4.22823C3.73784 3.14789 3.50682 2.63051 3.4981 2.61094L3.36079 2.28703L3.14284 2.55877C2.93954 2.82321 2.84661 3.15582 2.88349 3.48702C2.91959 3.66863 2.99455 3.84032 3.10325 3.99039C3.21195 4.14046 3.35184 4.26536 3.51336 4.35659C3.54419 4.37587 3.57335 4.39768 3.60054 4.4218C2.91182 4.63919 2.52823 5.13484 2.12284 5.64788L2.064 5.7218C1.87223 5.96492 1.62949 6.16328 1.35277 6.30298C1.07605 6.44267 0.77205 6.52032 0.462075 6.53049L0.152588 6.52179L0.244126 6.8044C0.244126 6.83918 0.518742 7.64353 1.31208 7.64353H1.35131C1.42453 7.64057 1.49741 7.63185 1.56925 7.61744C1.53656 8.05222 1.37528 8.86744 0.645152 9.16961L0.427203 9.26091L0.547075 9.4783C0.643754 9.62682 0.776665 9.74841 0.933343 9.83169C1.09002 9.91496 1.26533 9.95718 1.44284 9.95439C1.66239 9.95664 1.87923 9.90592 2.0749 9.80656C2.10552 10.058 2.16175 10.3056 2.24272 10.5457C2.37925 10.9132 2.37925 11.3173 2.24272 11.6848L2.13374 11.9152L2.3822 11.9805C2.49646 12.0076 2.61348 12.0214 2.73092 12.0218C2.80941 12.0221 2.88767 12.0134 2.96413 11.9957C3.1247 11.9588 3.27414 11.8843 3.40002 11.7783C3.47521 12.022 3.60572 12.2452 3.78143 12.4305C4.12143 12.7797 4.61109 12.9544 5.25041 12.9544H5.63836L5.44874 12.6087ZM5.26131 12.7283C3.50028 12.7283 3.54605 11.2218 3.54605 11.2218C3.50042 11.3602 3.41995 11.4847 3.31235 11.5832C3.20475 11.6818 3.0736 11.7512 2.93143 11.7848C2.87159 11.7998 2.81006 11.8071 2.74836 11.8066C2.64916 11.8058 2.5504 11.7934 2.45413 11.7696C2.61289 11.3492 2.61289 10.8856 2.45413 10.4653C2.33031 10.1165 2.27051 9.74825 2.27759 9.3783C2.17841 9.49943 2.0518 9.59531 1.90819 9.65805C1.76457 9.72079 1.60806 9.7486 1.45156 9.73917C1.31255 9.74146 1.1752 9.7088 1.05218 9.64422C0.929148 9.57963 0.8244 9.48519 0.747588 9.36961C1.92015 8.88265 1.80682 7.31527 1.80682 7.31527C1.67174 7.39768 1.51618 7.44062 1.35784 7.43918H1.30772C0.65387 7.43918 0.435921 6.74788 0.435921 6.74788H0.448998C0.789366 6.73622 1.12308 6.65062 1.42686 6.49706C1.73065 6.34349 1.99717 6.12566 2.20784 5.85875C2.65464 5.29136 3.02297 4.79354 3.74656 4.59789L3.81849 4.58485L3.83374 4.51311C3.85336 4.40224 3.77708 4.29572 3.61579 4.18702C2.61759 3.53485 3.29541 2.70224 3.29541 2.70224C3.29541 2.70224 3.57874 3.36746 4.21951 3.36746H4.26528C4.33839 3.36589 4.41126 3.35862 4.48323 3.34572L4.60092 3.32181C4.55268 3.15548 4.55116 2.97913 4.59651 2.81199C4.64186 2.64486 4.73234 2.49335 4.8581 2.37399C4.98358 2.24569 5.13383 2.1441 5.29978 2.07535C5.46573 2.0066 5.64393 1.97212 5.82361 1.97399C5.88788 1.97318 5.95208 1.97828 6.01541 1.9892C5.79746 2.27616 5.63618 2.75442 5.89118 3.05007C6.10913 3.30442 6.64964 3.31529 6.64964 3.70224C6.64964 3.86311 6.49925 4.04789 6.23118 4.21528C5.42259 4.72397 4.62054 5.39788 4.2849 6.30005C3.86861 7.42614 4.33938 8.17396 5.01066 8.60439C4.86439 8.72714 4.68434 8.80292 4.49413 8.82178C4.43092 8.82178 4.37208 8.82178 4.31323 8.82178C3.96246 8.83715 3.61726 8.73032 3.33682 8.51961C3.39267 8.81654 3.52654 9.09336 3.72477 9.32178C3.88941 9.51218 4.09514 9.66292 4.32652 9.76269C4.55791 9.86247 4.80894 9.90868 5.06079 9.89787C5.05816 10.0012 5.03302 10.1028 4.9871 10.1955C4.94119 10.2883 4.8756 10.3699 4.7949 10.4348C4.62052 10.5515 4.42126 10.6259 4.21297 10.6522C4.21297 10.6522 4.97143 10.8066 5.05643 11.9239C5.05415 12.2078 5.12228 12.4879 5.25477 12.7392L5.26131 12.7283Z" fill="#222220"/>
<path d="M1.32945 5.53708C1.41314 5.53768 1.49636 5.52446 1.57573 5.49795C1.78483 5.40609 1.9622 5.25488 2.08573 5.06317C2.24995 4.83637 2.46102 4.64734 2.7047 4.50882L3.00983 4.34578L2.7265 4.14795C2.57044 4.04732 2.38923 3.99234 2.20342 3.98926C2.08409 3.99022 1.96623 4.0156 1.85713 4.06384C1.74804 4.11208 1.65004 4.18214 1.56919 4.26969C1.35011 4.52239 1.05093 4.6927 0.72137 4.7523L0.414062 4.78273L0.540472 5.06317C0.615193 5.20769 0.728308 5.32894 0.867454 5.41367C1.0066 5.49841 1.16642 5.54335 1.32945 5.5436M1.71957 4.42839C1.78051 4.36043 1.85505 4.30597 1.93839 4.26853C2.02173 4.23108 2.11202 4.21149 2.20342 4.211C2.3489 4.20967 2.49177 4.24963 2.61534 4.32621C1.99855 4.65447 1.87214 5.18056 1.5256 5.29795C1.46821 5.31822 1.40776 5.32852 1.34688 5.32838C1.22458 5.32729 1.10481 5.29342 1.00013 5.23031C0.895456 5.16721 0.809713 5.07719 0.751883 4.96969C1.13349 4.90649 1.4815 4.71373 1.73701 4.42404" fill="#222220"/>
<path d="M2.71359 7.98694C2.67604 7.29601 2.84766 6.60978 3.20615 6.01738C3.09457 6.33857 3.07798 6.685 3.15836 7.01534C3.23874 7.34568 3.4127 7.64598 3.65948 7.88042C3.65948 7.88042 2.44987 6.43477 4.14115 4.95434C4.81679 4.3913 5.55564 4.04348 5.93705 3.79565C4.56179 4.24348 3.88833 3.75 3.88833 3.75C4.07849 3.89797 4.2985 4.00314 4.53325 4.0583C4.76801 4.11347 5.01195 4.11731 5.24833 4.06956C5.15243 4.11522 5.05218 4.16522 4.94538 4.22174C3.78371 4.85 2.74192 5.88477 2.5632 7.31738V7.30651C2.29294 8.71302 1.69141 9.07389 1.69141 9.07389C2.16871 8.83911 2.46948 8.2152 2.54359 7.98694C2.62423 9.22389 3.22795 10.0804 3.93628 10.9065C4.15264 11.1547 4.32111 11.4407 4.4332 11.75C4.3746 11.4378 4.2407 11.1446 4.04307 10.8956C3.38923 10.1043 2.75718 9.11954 2.71141 7.98259" fill="#222220"/>
<path d="M8.10767 5.08936V5.37414C8.1454 5.33775 8.19083 5.31027 8.24062 5.29371C8.29041 5.27716 8.34329 5.27195 8.39536 5.27849V5.68718C8.39376 5.78857 8.36679 5.88796 8.3169 5.97631H8.71792C8.66845 5.88778 8.64151 5.78851 8.63946 5.68718V5.27849C8.69153 5.27195 8.74441 5.27716 8.7942 5.29371C8.84399 5.31027 8.88942 5.33775 8.92715 5.37414V5.08936H8.10767Z" fill="#222220"/>
<path d="M7.93114 3.40448C7.99509 3.45943 8.0691 3.50151 8.14909 3.52839L8.20139 3.5523V3.28274L7.71973 3.08057C7.73145 3.14671 7.7569 3.20969 7.79443 3.26547C7.83196 3.32124 7.88075 3.36859 7.93768 3.40448" fill="#222220"/>
<path d="M9.07744 3.40448C9.13446 3.36869 9.18331 3.32137 9.22086 3.26558C9.2584 3.20979 9.28379 3.14676 9.29539 3.08057L8.81372 3.28274V3.55013L8.86385 3.52622C8.94397 3.49964 9.01804 3.45753 9.0818 3.4023" fill="#222220"/>
<path d="M9.94727 2.31519C9.94727 1.90867 9.26292 1.54346 8.50663 1.54346C7.75035 1.54346 7.06599 1.90867 7.06599 2.31519L7.08125 2.41519L7.3842 4.15432L7.08125 4.3304L6.2901 4.78257C6.2901 4.78257 6.11356 4.87388 6.03074 4.92822C5.73215 5.14562 5.66894 5.43692 5.84112 5.56083C5.86195 5.41742 5.93504 5.2867 6.04642 5.19366C6.15779 5.10062 6.29964 5.05178 6.44484 5.05649C6.56852 5.05981 6.68967 5.09227 6.79838 5.15121C6.90709 5.21015 7.00028 5.2939 7.07035 5.39561C7.11303 5.44816 7.15233 5.50335 7.18804 5.56083C7.23381 5.63474 7.27958 5.69996 7.32317 5.763H5.30933C5.4791 6.05507 5.57835 6.38256 5.5992 6.71952V11.1739C5.5992 12.2608 6.43176 12.7695 7.34279 12.7695C8.03804 12.7695 8.13176 12.7369 8.51753 13.1195C8.89894 12.7369 8.99266 12.7695 9.69009 12.7695C10.5902 12.7695 11.4228 12.2543 11.4228 11.1739V6.713C11.4436 6.37604 11.5429 6.04854 11.7127 5.75648H9.6792C9.72497 5.69344 9.77074 5.62822 9.81433 5.55431C9.85054 5.49716 9.88983 5.44201 9.93202 5.38909C10.0022 5.2875 10.0954 5.20385 10.2041 5.14492C10.3128 5.086 10.4339 5.05347 10.5575 5.04996C10.7026 5.04574 10.8442 5.09475 10.9555 5.1877C11.0668 5.28066 11.14 5.4111 11.1612 5.55431C11.3356 5.4304 11.2724 5.11953 10.9716 4.9217C10.8975 4.86518 10.7166 4.78257 10.7166 4.78257L9.93202 4.32605L9.62907 4.14997L9.93202 2.41084L9.94727 2.31519ZM7.35804 2.51519L8.41945 2.87389V4.53692L7.6283 4.1304L7.35804 2.51519ZM7.57599 6.04779C7.71856 6.19628 7.89185 6.31201 8.08381 6.38691C8.04301 6.5308 8.05301 6.68429 8.11215 6.82169C8.18322 6.96694 8.30715 7.07967 8.45868 7.13691C8.47286 7.25892 8.5213 7.37446 8.59841 7.47023C8.67553 7.56599 8.77819 7.63809 8.89458 7.67821L8.57638 7.97821L7.36022 7.95865C7.31984 7.93946 7.28637 7.90834 7.26433 7.86952V7.8543L7.46266 7.88691H7.47574C7.49447 7.88717 7.51267 7.88074 7.52706 7.86878C7.54145 7.85681 7.55108 7.84011 7.5542 7.82169C7.55737 7.80097 7.55231 7.77984 7.5401 7.76279C7.52789 7.74574 7.50949 7.73411 7.48881 7.73039L7.24471 7.69126L7.51497 6.75865L7.25779 6.21952L6.84587 6.6543L6.81971 7.62387L6.53856 7.58039C6.52824 7.57852 6.51765 7.57874 6.50742 7.58103C6.49718 7.58332 6.48751 7.58763 6.47898 7.59371C6.47045 7.59979 6.46322 7.60752 6.45773 7.61643C6.45224 7.62534 6.4486 7.63526 6.44702 7.6456C6.44385 7.66632 6.4489 7.68745 6.46111 7.70451C6.47333 7.72156 6.49173 7.73318 6.5124 7.73691L6.62792 7.7543C6.58651 7.77821 6.55817 7.7956 6.55599 7.79995L6.53856 7.82604V7.8543C6.51188 7.97533 6.52117 8.10149 6.56531 8.21733C6.60944 8.33317 6.68649 8.43365 6.78702 8.50647V8.54125C6.78071 8.58243 6.79089 8.62443 6.81536 8.65818C6.83982 8.69194 6.87661 8.71475 6.91779 8.72169H6.94394C6.97915 8.72149 7.01325 8.70932 7.04059 8.68719C7.06793 8.66505 7.08689 8.63428 7.09433 8.59995C7.14586 8.60296 7.19753 8.60296 7.24907 8.59995H7.28176L8.87715 8.8869L8.9033 8.86951C9.02971 8.78038 9.51574 8.43473 9.67484 8.31082C9.72096 8.35084 9.77227 8.38448 9.8274 8.41082C9.79079 8.52274 9.78523 8.64247 9.81132 8.75729C9.83742 8.87211 9.89419 8.97775 9.97561 9.06299H5.88471V6.713C5.87567 6.48442 5.82623 6.25922 5.73869 6.04779H7.57599ZM9.53753 8.18908C9.37625 8.30864 8.95997 8.61082 8.80958 8.71516L7.36022 8.4543V8.41517C7.38517 8.31781 7.39834 8.21782 7.39945 8.11734L8.61779 8.13691L8.64176 8.11299C8.6592 8.0956 9.04715 7.72169 9.2433 7.50865C9.29473 7.57285 9.35662 7.62797 9.42638 7.67169C9.39264 7.85018 9.42934 8.03477 9.52881 8.18691M7.12266 7.93908C7.15441 8.00038 7.20273 8.05158 7.26215 8.08691C7.26033 8.17513 7.25159 8.26308 7.23599 8.34995C7.23599 8.36951 7.23599 8.38908 7.22074 8.40864V8.43908C7.12157 8.4394 7.02299 8.424 6.92869 8.39343C6.84371 8.34776 6.77477 8.27726 6.73113 8.19137C6.6875 8.10549 6.67125 8.00835 6.68458 7.91299C6.7628 7.86371 6.85175 7.83388 6.94394 7.82604C6.98247 7.82522 7.02027 7.83654 7.05197 7.8584C7.08367 7.88026 7.10764 7.91154 7.12048 7.94778M6.97445 7.64995L6.99843 6.71735L7.21638 6.49996L7.34715 6.77387L7.08779 7.66734L6.97445 7.64995ZM9.53753 12.4804H9.31958L9.49176 11.9565C9.51792 11.8825 9.38279 11.7869 9.32612 11.7021C9.45961 11.7815 9.5971 11.8541 9.73804 11.9195C9.73804 11.9369 9.53753 12.4891 9.53753 12.4891M10.0802 11.8804L9.96689 12.4673C9.89497 12.4673 9.81869 12.4825 9.74894 12.4847L9.86881 11.9217C9.90368 11.7543 9.45253 11.7043 9.23022 11.3717C9.15871 11.4312 9.07599 11.476 8.98692 11.5032C8.89784 11.5305 8.80421 11.5397 8.71151 11.5304C8.54678 11.5282 8.38261 11.5107 8.22112 11.4782C8.19356 11.476 8.16586 11.476 8.1383 11.4782C8.10475 11.4758 8.07121 11.4829 8.04152 11.4987C8.01183 11.5144 7.98721 11.5382 7.97048 11.5673L7.93779 11.6217L7.32317 11.4782L7.17061 11.7304C7.15896 11.7475 7.15368 11.7682 7.15567 11.7888C7.15766 11.8095 7.16679 11.8288 7.1815 11.8434L7.22292 11.8891C7.18236 11.9693 7.12941 12.0426 7.06599 12.1065L6.97445 11.9847C6.93847 11.9306 6.91927 11.8671 6.91927 11.8021C6.91927 11.7372 6.93847 11.6736 6.97445 11.6195L7.21856 11.2086L7.73945 11.2825L7.65881 11.0978C7.54984 10.8543 7.71548 10.5456 7.73292 10.3673C7.73292 10.4217 7.67625 10.4325 7.61958 10.4325C7.56292 10.4325 7.50843 10.4325 7.4692 10.4325C7.4578 10.4293 7.44572 10.4293 7.43433 10.4325L7.29266 10.5173L7.1924 10.4195C7.18418 10.4041 7.18123 10.3864 7.18398 10.3691C7.18673 10.3519 7.19504 10.336 7.20766 10.3239L7.46484 10.0347L7.15971 9.68038L7.59561 9.89777L7.72638 9.74125C7.76125 9.77603 7.74599 9.86733 7.74599 9.86733C7.89892 9.90575 8.03422 9.99489 8.12966 10.1201C8.22511 10.2453 8.27504 10.3992 8.27125 10.5565C8.27125 10.5717 8.27125 10.5869 8.27125 10.6043V10.6195C8.31472 10.6885 8.38359 10.7376 8.46304 10.7565L9.05151 10.8152C9.16816 10.7793 9.28777 10.7538 9.40894 10.7391C9.51431 10.7396 9.61727 10.7705 9.70535 10.8282C9.74658 10.8001 9.79495 10.7843 9.84484 10.7825H9.86445C10.1282 10.7825 10.2393 11.0217 10.381 11.2173C10.4878 11.3673 10.6295 11.5912 10.6295 11.5912C10.6095 11.6215 10.5823 11.6462 10.5503 11.6633C10.5184 11.6804 10.4826 11.6892 10.4464 11.6891C10.421 11.6916 10.3955 11.6916 10.3701 11.6891C10.0868 11.6369 10.0454 11.0565 9.88407 11.0108H9.85792C9.84264 11.0113 9.82775 11.0157 9.81474 11.0237C9.80173 11.0318 9.79107 11.043 9.78381 11.0565C9.85792 11.2543 9.81433 11.3347 9.89497 11.4912C9.95438 11.5852 10.0279 11.6695 10.1129 11.7412C10.1129 11.7412 10.102 11.826 10.0889 11.8912M6.91343 11.3173L6.93958 11.3847C6.92215 11.4434 6.72163 11.5282 6.72163 11.5282L6.67804 11.4325C6.65029 11.3666 6.64551 11.2933 6.66448 11.2243C6.68344 11.1553 6.72506 11.0947 6.78266 11.0521L7.11394 10.8521L7.46484 10.926C7.46292 10.9955 7.48441 11.0636 7.52586 11.1195L7.15753 11.0499L6.93958 11.2021C6.92278 11.2161 6.91156 11.2356 6.90796 11.2572C6.90437 11.2787 6.90862 11.3008 6.91997 11.3195M10.1412 12.4282L10.2437 11.9021C10.2437 11.8717 10.2546 11.8347 10.2589 11.8043C10.2884 11.8169 10.319 11.8264 10.3505 11.8325C10.3853 11.8358 10.4203 11.8358 10.4551 11.8325C10.5137 11.8323 10.5715 11.8186 10.624 11.7926C10.6766 11.7666 10.7224 11.729 10.758 11.6825L10.8365 11.5934L10.7733 11.4956C10.7733 11.4956 10.6273 11.2652 10.5205 11.113L10.4595 11.0217C10.4075 10.9074 10.326 10.809 10.2234 10.7364C10.1208 10.6638 10.0007 10.6197 9.87535 10.6086H9.84702C9.8031 10.611 9.75977 10.6198 9.71843 10.6347C9.62459 10.5896 9.52185 10.5658 9.41766 10.5652C9.31337 10.5676 9.21023 10.5874 9.11253 10.6239L9.06022 10.6391L8.48484 10.5825C8.4613 10.5711 8.44105 10.5539 8.42599 10.5325L8.55022 10.4825C8.51535 10.0695 8.11433 9.81516 7.89638 9.7282C7.88651 9.68356 7.86378 9.64276 7.83099 9.61081L7.70676 9.49342L7.59779 9.62386L7.5433 9.68907L6.73689 9.35864L7.25997 10.0108L7.05292 10.3239C7.04224 10.3344 7.03377 10.3469 7.02798 10.3607C7.0222 10.3745 7.01922 10.3893 7.01922 10.4043C7.01922 10.4193 7.0222 10.4341 7.02798 10.4479C7.03377 10.4617 7.04224 10.4742 7.05292 10.4847L7.27086 10.6325L7.48881 10.5499H7.51061C7.51061 10.5825 7.48663 10.7152 7.47574 10.7521L7.09215 10.676L6.68894 10.8934C6.5953 10.9594 6.52857 11.0567 6.50096 11.1677C6.47335 11.2786 6.48669 11.3958 6.53856 11.4978L6.58433 11.5956L6.64753 11.7325L6.7892 11.6738C6.76302 11.7429 6.75489 11.8174 6.76557 11.8904C6.77624 11.9634 6.80538 12.0325 6.85022 12.0912L6.93522 12.1978L7.04856 12.3412L7.17497 12.2065C7.25752 12.125 7.3234 12.0282 7.36894 11.9217L7.3951 11.8347L7.33407 11.7673V11.7543L7.40381 11.6412L7.90509 11.7586L8.01843 11.7847L8.07945 11.6847L8.11215 11.6304C8.11215 11.6195 8.11215 11.6173 8.14266 11.6173H8.19715C8.36801 11.6513 8.54165 11.6695 8.71586 11.6717C8.83291 11.6781 8.95017 11.6641 9.0624 11.6304L9.32612 11.9565L9.15394 12.463V12.4934C9.03164 12.4911 8.91021 12.5145 8.79756 12.5621C8.68491 12.6096 8.58356 12.6803 8.5001 12.7695C8.23202 12.5043 8.04458 12.4782 7.32535 12.4782C6.46663 12.4782 5.88471 11.976 5.88471 11.1739V9.21734H11.1155V11.1739C11.1275 11.4653 11.0349 11.7515 10.8543 11.9811C10.6738 12.2106 10.4171 12.3683 10.1304 12.426M11.2615 6.04779C11.1734 6.25904 11.1239 6.48434 11.1155 6.713V8.17604C11.0228 8.1564 10.939 8.10716 10.8768 8.03576C10.8147 7.96437 10.7776 7.87471 10.7711 7.78039V7.713H10.7057C10.593 7.70331 10.4877 7.65309 10.4093 7.57169C10.3129 7.46124 10.2589 7.32029 10.2568 7.17387C10.211 7.24836 10.1889 7.33487 10.1931 7.42212C10.1974 7.50936 10.2279 7.5933 10.2807 7.663C10.3654 7.77074 10.489 7.84101 10.6251 7.85865C10.6438 7.98084 10.7017 8.0937 10.7901 8.18031C10.8785 8.26693 10.9927 8.32263 11.1155 8.33908V9.05647H10.2154C10.1 8.99838 10.0115 8.89828 9.96804 8.77688C9.92463 8.65548 9.92968 8.52208 9.98215 8.4043L10.017 8.32604L9.93638 8.2956C9.81065 8.25152 9.70698 8.16048 9.64722 8.04166C9.58746 7.92285 9.57626 7.78553 9.61599 7.65865L9.63343 7.59343L9.5724 7.56517C9.46059 7.50009 9.37067 7.40338 9.31402 7.28728C9.25737 7.17118 9.23655 7.04091 9.2542 6.913C9.19325 6.97265 9.15298 7.05016 9.13926 7.13422C9.12554 7.21829 9.13909 7.30453 9.17792 7.38039C9.13433 7.42821 9.07766 7.48908 9.01445 7.55213C8.90551 7.5284 8.80742 7.46956 8.73534 7.38469C8.66325 7.29983 8.62118 7.19365 8.61561 7.08256V7.02169L8.56548 7.00213C8.49925 6.98151 8.43798 6.94752 8.38549 6.90226C8.33299 6.85701 8.2904 6.80147 8.26035 6.73909C8.21816 6.63859 8.2105 6.52699 8.23856 6.4217C8.28163 6.4313 8.32533 6.43783 8.36933 6.44126C8.41361 6.44354 8.45799 6.44354 8.50227 6.44126C8.67673 6.44087 8.84915 6.40389 9.00835 6.33273C9.16755 6.26157 9.30997 6.15783 9.42638 6.02822L11.2615 6.04779ZM9.85574 4.56518L10.2132 4.78257L10.3025 4.83475C10.1171 4.88517 9.94909 4.98514 9.81651 5.12388L9.80779 5.1304C9.77727 5.16301 9.74894 5.19561 9.72061 5.2304L9.70317 5.25214C9.67556 5.28692 9.64941 5.32315 9.62471 5.36083L9.61163 5.3804C9.58112 5.42387 9.55279 5.4717 9.52445 5.51953C9.42701 5.7131 9.28192 5.87886 9.10277 6.00128C8.92362 6.1237 8.71626 6.19879 8.5001 6.21952C8.2847 6.19809 8.07823 6.12267 7.8999 6.00028C7.72156 5.8779 7.57715 5.71252 7.4801 5.51953C7.45176 5.4717 7.42343 5.42605 7.3951 5.38257L7.37766 5.35866L7.30138 5.25431L7.28176 5.2304C7.25343 5.19561 7.22509 5.16301 7.19676 5.13257L7.1924 5.11518C7.05962 4.97716 6.89157 4.87793 6.70638 4.82823L6.79792 4.77605L7.15535 4.55866L7.52151 4.34127L8.5001 4.89127L9.48086 4.35866L9.85574 4.56518ZM9.37189 4.1304L8.58945 4.54127V2.87389L9.65086 2.51519L9.37189 4.1304ZM8.5001 2.69563L7.33843 2.23693C7.43651 2.00432 7.8942 1.80215 8.5001 1.80215C9.10599 1.80215 9.56368 2.00215 9.66394 2.23693L8.5001 2.69563Z" fill="#222220"/>
</g>
<defs>
<clipPath id="clip0_994_4026">
<rect width="17" height="14.9999" fill="white"/>
</clipPath>
</defs>
</svg>
