<svg width="54" height="24" viewBox="0 0 54 24" fill="none" xmlns="http://www.w3.org/2000/svg">
<rect x="0.8125" y="0.000976562" width="53" height="24" rx="3" fill="white"/>
<path d="M20.3262 18.5255L22.5968 5.47485H26.1447L23.945 18.5255H20.3262Z" fill="#3C58BF"/>
<path d="M20.3262 18.5255L23.2355 5.47485H26.1447L23.945 18.5255H20.3262Z" fill="#293688"/>
<path d="M36.7824 5.62007C36.0728 5.33005 34.9375 5.04004 33.5183 5.04004C29.9704 5.04004 27.4159 6.85263 27.4159 9.46276C27.4159 11.4204 29.1899 12.4354 30.609 13.088C32.0282 13.7405 32.4539 14.1755 32.4539 14.7555C32.4539 15.6256 31.3186 16.0606 30.3252 16.0606C28.906 16.0606 28.1255 15.8431 26.9192 15.3356L26.4225 15.1181L25.9258 18.0907C26.7773 18.4532 28.3384 18.8157 29.9704 18.8157C33.7312 18.8157 36.2147 17.0032 36.2147 14.248C36.2147 12.7254 35.2923 11.5654 33.1635 10.6228C31.8863 9.97029 31.1057 9.60777 31.1057 8.95524C31.1057 8.37521 31.7443 7.79518 33.1635 7.79518C34.3698 7.79518 35.2213 8.01269 35.8599 8.30271L36.2147 8.44771L36.7824 5.62007Z" fill="#3C58BF"/>
<path d="M36.7824 5.62007C36.0728 5.33005 34.9375 5.04004 33.5183 5.04004C29.9704 5.04004 28.0545 6.85263 28.0545 9.46276C28.0545 11.4204 29.1899 12.4354 30.609 13.088C32.0282 13.7405 32.4539 14.1755 32.4539 14.7555C32.4539 15.6256 31.3186 16.0606 30.3252 16.0606C28.906 16.0606 28.1255 15.8431 26.9192 15.3356L26.4225 15.1181L25.9258 18.0907C26.7773 18.4532 28.3384 18.8157 29.9704 18.8157C33.7312 18.8157 36.2147 17.0032 36.2147 14.248C36.2147 12.7254 35.2923 11.5654 33.1635 10.6228C31.8863 9.97029 31.1057 9.60777 31.1057 8.95524C31.1057 8.37521 31.7443 7.79518 33.1635 7.79518C34.3698 7.79518 35.2213 8.01269 35.8599 8.30271L36.2147 8.44771L36.7824 5.62007Z" fill="#293688"/>
<path d="M42.8894 5.47485C42.0379 5.47485 41.3993 5.54736 41.0445 6.4174L35.7227 18.5255H39.5544L40.264 16.3504H44.8053L45.231 18.5255H48.637L45.6568 5.47485H42.8894V5.47485ZM41.2574 14.1753C41.4703 13.5228 42.6766 10.3326 42.6766 10.3326C42.6766 10.3326 42.9604 9.53506 43.1733 9.02754L43.3861 10.2601C43.3861 10.2601 44.0957 13.5228 44.2376 14.2478H41.2574V14.1753Z" fill="#3C58BF"/>
<path d="M43.7409 5.47485C42.8894 5.47485 42.2508 5.54736 41.896 6.4174L35.7227 18.5255H39.5544L40.264 16.3504H44.8053L45.231 18.5255H48.637L45.6568 5.47485H43.7409V5.47485ZM41.2574 14.1753C41.5412 13.4503 42.6766 10.3326 42.6766 10.3326C42.6766 10.3326 42.9604 9.53506 43.1733 9.02754L43.3861 10.2601C43.3861 10.2601 44.0957 13.5228 44.2376 14.2478H41.2574V14.1753Z" fill="#293688"/>
<path d="M13.7965 14.6098L13.4417 12.7247C12.8031 10.5496 10.7453 8.15701 8.47461 6.99695L11.6677 18.5975H15.4995L21.2471 5.54688H17.4153L13.7965 14.6098Z" fill="#3C58BF"/>
<path d="M13.7965 14.6098L13.4417 12.7247C12.8031 10.5496 10.7453 8.15701 8.47461 6.99695L11.6677 18.5975H15.4995L21.2471 5.54688H18.1249L13.7965 14.6098Z" fill="#293688"/>
<path d="M3.93359 5.47485L4.57222 5.61986C9.11354 6.70742 12.2357 9.46256 13.442 12.7252L12.1647 6.56241C11.9519 5.69236 11.3132 5.47485 10.5327 5.47485H3.93359V5.47485Z" fill="#FFBC00"/>
<path d="M3.93359 5.47485C8.47491 6.56241 12.2357 9.39006 13.442 12.6527L12.2357 7.50496C12.0228 6.63491 11.3132 6.12739 10.5327 6.12739L3.93359 5.47485Z" fill="#FF8500"/>
<path d="M3.93359 5.47485C8.47491 6.56241 12.2357 9.39006 13.442 12.6527L12.5905 9.82508C12.3776 8.95503 12.0938 8.08499 11.1004 7.72247L3.93359 5.47485Z" fill="#FF8500"/>
<path d="M17.3496 14.1759L14.937 11.7108L13.8017 14.4659L13.5178 12.6533C12.8792 10.4782 10.8214 8.0856 8.55078 6.92554L11.7439 18.5261H15.5756L17.3496 14.1759Z" fill="#051244"/>
<path d="M23.9489 18.5263L20.8977 15.3362L20.3301 18.5263H23.9489Z" fill="#051244"/>
<path d="M32.1109 14.0303C32.3947 14.3203 32.5366 14.5378 32.4657 14.8278C32.4657 15.6979 31.3303 16.1329 30.3369 16.1329C28.9177 16.1329 28.1372 15.9154 26.9309 15.4078L26.4342 15.1903L25.9375 18.163C26.789 18.5255 28.3501 18.888 29.9821 18.888C32.2528 18.888 34.0977 18.2355 35.1621 17.0754L32.1109 14.0303Z" fill="#051244"/>
<path d="M36.2285 18.5261H39.5636L40.2731 16.351H44.8145L45.2402 18.5261H48.6462L47.4399 13.2333L43.1824 9.02808L43.3953 10.1881C43.3953 10.1881 44.1049 13.4508 44.2468 14.1758H41.2665C41.5504 13.4508 42.6857 10.3331 42.6857 10.3331C42.6857 10.3331 42.9695 9.5356 43.1824 9.02808" fill="#051244"/>
</svg>
