<svg width="41" height="41" viewBox="0 0 41 41" fill="none" xmlns="http://www.w3.org/2000/svg">
<g clip-path="url(#clip0_0_376)">
<path d="M37.8203 21.1134C37.6593 20.7841 37.6593 20.4065 37.8203 20.0773L39.3121 17.0253C40.1427 15.3261 39.4846 13.3007 37.8139 12.4142L34.8131 10.822C34.4893 10.6503 34.2674 10.3447 34.204 9.98382L33.6172 6.63783C33.2904 4.77487 31.5671 3.523 29.6947 3.78792L26.3312 4.2637C25.9681 4.31495 25.6092 4.19823 25.3458 3.94347L22.9043 1.58161C21.5449 0.266457 19.4152 0.266379 18.0559 1.58161L15.6143 3.9437C15.3509 4.19854 14.9919 4.31503 14.6289 4.26393L11.2654 3.78816C9.39238 3.52308 7.66974 4.7751 7.34294 6.63806L6.75607 9.9839C6.69271 10.3448 6.47076 10.6504 6.14709 10.8222L3.14633 12.4144C1.47556 13.3008 0.817435 15.3263 1.64805 17.0256L3.13984 20.0774C3.30078 20.4067 3.30078 20.7844 3.13984 21.1136L1.64798 24.1655C0.817357 25.8647 1.47548 27.8901 3.14625 28.7766L6.14701 30.3688C6.47076 30.5405 6.69271 30.8461 6.75607 31.207L7.34294 34.553C7.64044 36.2489 9.09465 37.4383 10.766 37.4381C10.9306 37.4381 11.0976 37.4265 11.2655 37.4028L14.629 36.927C14.9917 36.8755 15.3509 36.9925 15.6144 37.2473L18.0559 39.6091C18.7357 40.2668 19.6077 40.5955 20.4801 40.5954C21.3522 40.5954 22.2247 40.2666 22.9043 39.6091L25.3458 37.2473C25.6092 36.9925 25.9683 36.8761 26.3312 36.927L29.6947 37.4028C31.568 37.6678 33.2904 36.4159 33.6172 34.5529L34.2041 31.2071C34.2675 30.8461 34.4894 30.5406 34.8131 30.3688L37.8139 28.7766C39.4846 27.8902 40.1427 25.8647 39.3121 24.1654L37.8203 21.1134ZM36.7325 26.7386L33.7318 28.3307C32.7751 28.8385 32.1189 29.7414 31.9318 30.8083L31.3449 34.1542C31.2344 34.7845 30.6516 35.2079 30.0178 35.1184L26.6543 34.6427C25.5817 34.4907 24.5203 34.8359 23.7418 35.589L21.3002 37.9508C20.8404 38.3956 20.1198 38.3956 19.6598 37.9508L17.2184 35.5889C16.5604 34.9524 15.7002 34.6075 14.8023 34.6075C14.6377 34.6075 14.4719 34.6191 14.3058 34.6426L10.9423 35.1184C10.309 35.2079 9.72582 34.7845 9.6152 34.1541L9.02825 30.8082C8.84106 29.7413 8.18497 28.8382 7.22818 28.3307L4.22742 26.7385C3.66211 26.4386 3.43945 25.7533 3.72046 25.1784L5.21233 22.1265C5.68795 21.1534 5.68795 20.0373 5.21233 19.0642L3.72046 16.0122C3.43945 15.4373 3.66211 14.7521 4.22742 14.4522L7.22818 12.86C8.18489 12.3522 8.84106 11.4493 9.02817 10.3824L9.61504 7.0365C9.72566 6.40619 10.3083 5.98275 10.9421 6.07228L14.3056 6.54806C15.3779 6.69986 16.4397 6.35478 17.2182 5.60174L19.6597 3.23988C20.1196 2.79504 20.8401 2.79504 21.3001 3.23988L23.7416 5.60174C24.5201 6.35486 25.5817 6.69986 26.6542 6.54806L30.0177 6.07228C30.651 5.98267 31.2342 6.40619 31.3448 7.0365L31.9316 10.3825C32.1188 11.4494 32.7749 12.3524 33.7317 12.86L36.7325 14.4522C37.2978 14.7521 37.5204 15.4373 37.2394 16.0122L35.7475 19.0641C35.2719 20.0371 35.2719 21.1534 35.7475 22.1264L37.2394 25.1783C37.5205 25.7533 37.2978 26.4386 36.7325 26.7386Z" fill="#FBD239"/>
<path d="M36.7325 26.7386L33.7318 28.3307C32.7751 28.8385 32.1189 29.7414 31.9318 30.8083L31.3449 34.1542C31.2344 34.7845 30.6516 35.2079 30.0178 35.1184L26.6543 34.6427C25.5817 34.4907 24.5203 34.8359 23.7418 35.589L21.3002 37.9508C20.8404 38.3956 20.1198 38.3956 19.6598 37.9508L17.2184 35.5889C16.5604 34.9524 15.7002 34.6075 14.8023 34.6075C14.6377 34.6075 14.4719 34.6191 14.3058 34.6426L10.9423 35.1184C10.309 35.2079 9.72582 34.7845 9.6152 34.1541L9.02825 30.8082C8.84106 29.7413 8.18497 28.8382 7.22818 28.3307L4.22742 26.7385C3.66211 26.4386 3.43945 25.7533 3.72046 25.1784L5.21233 22.1265C5.68795 21.1534 5.68795 20.0373 5.21233 19.0642L3.72046 16.0122C3.43945 15.4373 3.66211 14.7521 4.22742 14.4522L7.22818 12.86C8.18489 12.3522 8.84106 11.4493 9.02817 10.3824L9.61504 7.0365C9.72566 6.40619 10.3083 5.98275 10.9421 6.07228L14.3056 6.54806C15.3779 6.69986 16.4397 6.35478 17.2182 5.60174L19.6597 3.23988C20.1196 2.79504 20.8401 2.79504 21.3001 3.23988L23.7416 5.60174C24.5201 6.35486 25.5817 6.69986 26.6542 6.54806L30.0177 6.07228C30.651 5.98267 31.2342 6.40619 31.3448 7.0365L31.9316 10.3825C32.1188 11.4494 32.7749 12.3524 33.7317 12.86L36.7325 14.4522C37.2978 14.7521 37.5204 15.4373 37.2394 16.0122L35.7475 19.0641C35.2719 20.0371 35.2719 21.1534 35.7475 22.1264L37.2394 25.1783C37.5205 25.7533 37.2978 26.4386 36.7325 26.7386Z" fill="#FBD239"/>
<path d="M28.9094 12.167C28.459 11.7165 27.7285 11.7165 27.2781 12.167L12.0524 27.3926C11.602 27.8431 11.602 28.5735 12.0524 29.024C12.2777 29.2492 12.5729 29.3619 12.8681 29.3619C13.1632 29.3619 13.4585 29.2493 13.6837 29.024L28.9093 13.7983C29.3599 13.3478 29.3599 12.6175 28.9094 12.167Z" fill="#2C2B3F"/>
<path d="M15.8658 10.2139C13.5336 10.2139 11.6362 12.1113 11.6362 14.4435C11.6362 16.7756 13.5336 18.673 15.8658 18.673C18.198 18.673 20.0954 16.7756 20.0954 14.4435C20.0954 12.1113 18.198 10.2139 15.8658 10.2139ZM15.8658 16.3659C14.8057 16.3659 13.9433 15.5035 13.9433 14.4434C13.9433 13.3833 14.8057 12.5209 15.8658 12.5209C16.9259 12.5209 17.7884 13.3833 17.7884 14.4434C17.7883 15.5035 16.9259 16.3659 15.8658 16.3659Z" fill="#2C2B3F"/>
<path d="M25.0948 22.5176C22.7626 22.5176 20.8652 24.415 20.8652 26.7472C20.8652 29.0793 22.7626 30.9767 25.0948 30.9767C27.427 30.9767 29.3244 29.0793 29.3244 26.7472C29.3244 24.415 27.427 22.5176 25.0948 22.5176ZM25.0948 28.6697C24.0347 28.6697 23.1723 27.8072 23.1723 26.7472C23.1723 25.6871 24.0347 24.8247 25.0948 24.8247C26.1549 24.8247 27.0173 25.6871 27.0173 26.7472C27.0173 27.8072 26.1549 28.6697 25.0948 28.6697Z" fill="#2C2B3F"/>
</g>
<defs>
<clipPath id="clip0_0_376">
<rect width="40" height="40" fill="white" transform="translate(0.480469 0.595215)"/>
</clipPath>
</defs>
</svg>
