<svg width="46" height="46" viewBox="0 0 46 46" fill="none" xmlns="http://www.w3.org/2000/svg">
<path d="M22.9653 16.4673C21.8475 16.4673 21.0527 16.9393 21.0527 17.6347V27.0982C21.0527 27.6943 21.8476 28.2904 22.9653 28.2904C24.0334 28.2904 24.9027 27.6943 24.9027 27.0982V17.6347C24.9027 16.9393 24.0334 16.4673 22.9653 16.4673Z" fill="black" stroke="white"/>
<path d="M22.9645 10.6301C21.8219 10.6301 20.9277 11.4498 20.9277 12.3937C20.9277 13.3375 21.8219 14.1821 22.9645 14.1821C24.0823 14.1821 24.9765 13.3375 24.9765 12.3937C24.9765 11.4499 24.0822 10.6301 22.9645 10.6301Z" fill="black" stroke="white"/>
<path d="M7.18479 8.60481C0.641977 17.0557 2.1825 29.1857 10.6281 35.7243C17.5243 41.0635 26.7657 40.9563 33.4498 36.3404L41.2669 36.8314C41.8484 36.8679 42.4103 36.6138 42.767 36.153C43.1237 35.6923 43.229 35.0847 43.048 34.5309L40.6148 27.0859C43.4107 19.4553 41.1956 10.4827 34.3023 5.14587C25.8514 -1.39694 13.7234 0.159382 7.18479 8.60481ZM37.1212 26.3749C36.9646 26.76 36.9496 27.188 37.0787 27.583L38.9013 33.1602L33.0456 32.7925C32.6307 32.7665 32.2201 32.8882 31.8865 33.1363C26.3953 37.219 18.5699 37.4269 12.7803 32.9445C5.8874 27.6079 4.62438 17.6547 9.96465 10.757C15.3049 3.85935 25.2573 2.58918 32.1501 7.92574C37.9455 12.4126 39.6956 20.0432 37.1212 26.3749Z" fill="black" stroke="white"/>
</svg>
