<svg width="20" height="24" viewBox="0 0 20 24" fill="none" xmlns="http://www.w3.org/2000/svg">
<path d="M0.519531 5.97627L2.44265 7.03608M0.519531 5.97627V20.781L3.10835 22.9111M0.519531 5.97627L15.6193 0.911133L17.6403 1.61979M2.44265 7.03608C2.83098 7.22358 3.44677 7.93583 2.7145 8.80124M2.44265 7.03608L17.6403 1.61979M2.7145 8.80124C2.61169 8.92274 2.57966 9.17019 2.83098 9.42151M2.7145 8.80124L17.8143 3.2864M2.83098 9.42151C2.96042 9.55095 3.03844 9.90226 2.83098 10.5033C2.7145 10.8407 2.19302 11.7515 2.83098 13.1383C3.14781 13.8271 3.24803 13.941 3.35263 14.0965C3.98267 15.0326 3.72322 15.9649 3.10835 16.1895M2.83098 9.42151L17.9307 3.90667M3.10835 16.1895V22.9111M3.10835 16.1895L18.2081 10.6746M3.10835 22.9111L18.2081 17.3963V10.6746M17.6403 1.61979C18.0286 1.80729 18.5465 2.42099 17.8143 3.2864M17.8143 3.2864C17.7114 3.4079 17.6794 3.65535 17.9307 3.90667M17.9307 3.90667C18.0602 4.03611 18.1382 4.38742 17.9307 4.98843C17.8143 5.32588 17.2928 6.23662 17.9307 7.62349C18.2476 8.31225 18.3265 8.43892 18.3302 8.44379C18.7419 9.16865 19.2647 9.75467 18.2081 10.6746" stroke="black" stroke-width="0.4"/>
</svg>
