<svg width="50" height="51" viewBox="0 0 50 51" fill="none" xmlns="http://www.w3.org/2000/svg">
<path d="M25 0.950195C11.2144 0.950195 0 12.1646 0 25.9502C0 39.7357 11.2144 50.9502 25 50.9502C38.7856 50.9502 50 39.7357 50 25.9502C50 12.1646 38.7856 0.950195 25 0.950195Z" fill="#FBD239"/>
<path d="M37.6701 20.652L24.1283 34.1935C23.722 34.5997 23.1888 34.8042 22.6555 34.8042C22.1222 34.8042 21.5889 34.5997 21.1826 34.1935L14.4119 27.4227C13.5971 26.6083 13.5971 25.2915 14.4119 24.477C15.2263 23.6622 16.5428 23.6622 17.3576 24.477L22.6555 29.7749L34.7244 17.7063C35.5388 16.8915 36.8553 16.8915 37.6701 17.7063C38.4845 18.5208 38.4845 19.8372 37.6701 20.652Z" fill="white"/>
</svg>
