<svg width="30" height="31" viewBox="0 0 30 31" fill="none" xmlns="http://www.w3.org/2000/svg">
<path d="M28.7597 23.1537L25.7644 20.1583C25.2223 19.6165 24.5433 19.232 23.7998 19.0458C23.0563 18.8596 22.2763 18.8787 21.5428 19.101C20.8093 19.3233 20.1499 19.7406 19.6349 20.3082C19.12 20.8759 18.7687 21.5727 18.6187 22.3243C13.6793 21.4007 8.8752 16.6163 8.57618 12.3401C9.4159 12.1856 10.1887 11.7792 10.7919 11.1748C11.586 10.3806 12.0321 9.30345 12.0321 8.18032C12.0321 7.05718 11.586 5.98004 10.7919 5.18581L7.79735 2.19045C7.00312 1.39632 5.92598 0.950195 4.80284 0.950195C3.67971 0.950195 2.60256 1.39632 1.80833 2.19045C-7.17604 11.1748 19.7754 38.1262 28.7597 29.1419C29.5534 28.3476 29.9992 27.2706 29.9992 26.1478C29.9992 25.0249 29.5534 23.948 28.7597 23.1537Z" fill="#2C2B3F"/>
</svg>
