<svg width="68" height="68" viewBox="0 0 68 68" fill="none" xmlns="http://www.w3.org/2000/svg">
<path fill-rule="evenodd" clip-rule="evenodd" d="M10.5084 40.3286C11.556 40.3286 12.4251 39.6566 12.7598 38.7286H16.9456C17.3898 38.7286 17.7503 38.3702 17.7503 37.9286C17.7503 37.487 17.3898 37.1286 16.9456 37.1286H12.7598C12.4251 36.2006 11.556 35.5286 10.5084 35.5286C9.17426 35.5286 8.09441 36.6038 8.09441 37.9286C8.09441 39.2534 9.17426 40.3286 10.5084 40.3286ZM66.0297 0.328613H1.65716C0.768824 0.328613 0.0478516 1.04381 0.0478516 1.92861V3.52861C0.0478516 4.41181 0.768824 5.12861 1.65716 5.12861H4.87579V65.9286C4.87579 66.8134 5.59676 67.5286 6.4851 67.5286H38.6714C39.5613 67.5286 40.2807 66.8134 40.2807 65.9286V5.12861H66.0297C66.9196 5.12861 67.639 4.41181 67.639 3.52861V1.92861C67.639 1.04381 66.9196 0.328613 66.0297 0.328613ZM38.6714 65.9286H6.4851V5.12861H38.6714V65.9286ZM66.0297 3.52861H38.6714H6.4851H1.65716V1.92861H66.0297V3.52861Z" fill="#2C2B3F"/>
</svg>
