<svg width="69" height="68" viewBox="0 0 69 68" fill="none" xmlns="http://www.w3.org/2000/svg">
<path fill-rule="evenodd" clip-rule="evenodd" d="M50.7993 61.7271H18.4521C18.2344 61.7271 18.0576 62.034 18.0576 62.4121C18.0576 62.7902 18.2344 63.0971 18.4521 63.0971H50.7993C51.0163 63.0971 51.1938 62.7902 51.1938 62.4121C51.1938 62.034 51.0163 61.7271 50.7993 61.7271Z" fill="#2C2B3F"/>
<path fill-rule="evenodd" clip-rule="evenodd" d="M51.158 4.5513H18.4179C18.1975 4.5513 18.0186 4.85818 18.0186 5.2363C18.0186 5.61442 18.1975 5.9213 18.4179 5.9213H51.158C51.3776 5.9213 51.5573 5.61442 51.5573 5.2363C51.5573 4.85818 51.3776 4.5513 51.158 4.5513Z" fill="#2C2B3F"/>
<path fill-rule="evenodd" clip-rule="evenodd" d="M67.7523 0.347216L51.2672 4.54767C50.8692 4.64905 50.5477 5.34365 50.5477 6.10127V61.758C50.5477 62.5142 50.8692 63.2102 51.2672 63.3116L67.7523 67.5107C68.2708 67.6436 68.6974 67.0435 68.6974 66.1708V1.68709C68.6974 0.81439 68.2721 0.215695 67.7523 0.347216ZM51.8441 62.0142V5.8437L67.388 1.70353L67.4282 66.1133L51.8441 62.0142ZM57.556 37.354H55.6153C55.4416 36.558 54.9827 35.984 54.4369 35.984C53.7433 35.984 53.1807 36.9046 53.1807 38.039C53.1807 39.1733 53.7433 40.094 54.4369 40.094C54.9827 40.094 55.4416 39.52 55.6153 38.724H57.556C57.9126 38.724 58.2043 38.4171 58.2043 38.039C58.2043 37.6609 57.9139 37.354 57.556 37.354Z" fill="#2C2B3F"/>
<path fill-rule="evenodd" clip-rule="evenodd" d="M2.05128 0.347216L18.5364 4.54767C18.9344 4.64905 19.2559 5.34365 19.2559 6.10127V61.758C19.2559 62.5142 18.9344 63.2102 18.5364 63.3116L2.05128 67.5107C1.53272 67.6436 1.1062 67.0435 1.1062 66.1708V1.68709C1.1062 0.81439 1.53142 0.215695 2.05128 0.347216ZM17.9595 62.0142V5.8437L2.41557 1.70353L2.37538 66.1133L17.9595 62.0142ZM12.2475 37.354H14.1882C14.3619 36.558 14.8209 35.984 15.3667 35.984C16.0602 35.984 16.6229 36.9046 16.6229 38.039C16.6229 39.1733 16.0602 40.094 15.3667 40.094C14.8209 40.094 14.3619 39.52 14.1882 38.724H12.2475C11.891 38.724 11.5993 38.4171 11.5993 38.039C11.5993 37.6609 11.8897 37.354 12.2475 37.354Z" fill="#2C2B3F"/>
<path d="M65.3746 0.89771C65.7842 0.89771 66.1194 1.20459 66.1194 1.58271C66.1194 1.96083 64.5485 2.26771 64.1389 2.26771M4.30474 0.89771C3.89364 0.89771 3.55999 1.20459 3.55999 1.58271C3.55999 1.96083 4.55268 2.09312 4.96379 2.09312M50.7993 61.7271H18.4521C18.2344 61.7271 18.0576 62.034 18.0576 62.4121C18.0576 62.7902 18.2344 63.0971 18.4521 63.0971H50.7993C51.0163 63.0971 51.1938 62.7902 51.1938 62.4121C51.1938 62.034 51.0163 61.7271 50.7993 61.7271ZM51.158 4.5513H18.4179C18.1975 4.5513 18.0186 4.85818 18.0186 5.2363C18.0186 5.61442 18.1975 5.9213 18.4179 5.9213H51.158C51.3776 5.9213 51.5573 5.61442 51.5573 5.2363C51.5573 4.85818 51.3776 4.5513 51.158 4.5513ZM67.7523 0.347216L51.2672 4.54767C50.8692 4.64905 50.5477 5.34365 50.5477 6.10127V61.758C50.5477 62.5142 50.8692 63.2102 51.2672 63.3116L67.7523 67.5107C68.2708 67.6436 68.6974 67.0435 68.6974 66.1708V1.68709C68.6974 0.81439 68.2721 0.215695 67.7523 0.347216ZM51.8441 62.0142V5.8437L67.388 1.70353L67.4282 66.1133L51.8441 62.0142ZM57.5561 37.354H55.6153C55.4416 36.558 54.9827 35.984 54.4369 35.984C53.7433 35.984 53.1807 36.9046 53.1807 38.039C53.1807 39.1733 53.7433 40.094 54.4369 40.094C54.9827 40.094 55.4416 39.52 55.6153 38.724H57.5561C57.9126 38.724 58.2043 38.4171 58.2043 38.039C58.2043 37.6609 57.9139 37.354 57.5561 37.354ZM2.05128 0.347216L18.5364 4.54767C18.9344 4.64905 19.2559 5.34365 19.2559 6.10127V61.758C19.2559 62.5142 18.9344 63.2102 18.5364 63.3116L2.05128 67.5107C1.53272 67.6436 1.1062 67.0435 1.1062 66.1708V1.68709C1.1062 0.81439 1.53142 0.215695 2.05128 0.347216ZM17.9595 62.0142V5.8437L2.41557 1.70353L2.37538 66.1133L17.9595 62.0142ZM12.2475 37.354H14.1882C14.3619 36.558 14.8209 35.984 15.3667 35.984C16.0602 35.984 16.6229 36.9046 16.6229 38.039C16.6229 39.1733 16.0602 40.094 15.3667 40.094C14.8209 40.094 14.3619 39.52 14.1882 38.724H12.2475C11.891 38.724 11.5993 38.4171 11.5993 38.039C11.5993 37.6609 11.8897 37.354 12.2475 37.354Z" stroke="#2C2B3F" stroke-width="0.3"/>
</svg>
