<svg width="167" height="57" viewBox="0 0 167 57" fill="none" xmlns="http://www.w3.org/2000/svg">
<path d="M78.0992 26.9999H81.3992L85.9992 9.8999V26.9999H89.6992V4.3999H84.5992L79.9992 20.9999L75.3992 4.3999H70.1992V26.9999H73.3992V9.8999L78.0992 26.9999ZM105.199 15.7999C105.199 11.7999 103.199 10.2999 99.0992 10.2999C96.4992 10.2999 94.4992 11.0999 93.2992 11.7999V14.9999C94.2992 14.1999 96.5992 13.3999 98.5992 13.3999C100.499 13.3999 101.299 14.0999 101.299 15.7999V16.6999H100.699C94.7992 16.6999 92.0992 18.6999 92.0992 21.9999C92.0992 25.2999 94.0992 27.1999 97.0992 27.1999C99.3992 27.1999 100.399 26.4999 101.099 25.6999H101.299C101.299 26.0999 101.499 26.6999 101.599 26.9999H105.399C105.299 25.6999 105.199 24.2999 105.199 22.9999V15.7999ZM101.299 23.0999C100.799 23.7999 99.8992 24.3999 98.4992 24.3999C96.8992 24.3999 96.0992 23.3999 96.0992 21.9999C96.0992 20.0999 97.3992 19.3999 100.799 19.3999H101.399V23.0999H101.299ZM111.899 10.5999H108.299V31.6999H112.199V25.0999C113.199 26.5999 114.599 27.2999 116.299 27.2999C120.099 27.2999 122.699 24.2999 122.699 18.7999C122.699 13.2999 120.199 10.2999 116.499 10.2999C114.699 10.2999 113.199 11.0999 112.099 12.6999L111.899 10.5999ZM115.199 24.2999C113.199 24.2999 112.099 22.5999 112.099 18.8999C112.099 15.0999 113.199 13.3999 115.399 13.3999C117.499 13.3999 118.599 15.0999 118.599 18.7999C118.599 22.5999 117.499 24.2999 115.199 24.2999ZM134.799 26.9999H139.199L132.999 18.1999L138.499 10.5999H134.599L129.099 18.1999V10.5999H125.199V26.9999H129.099V18.9999L134.799 26.9999ZM152.199 25.8999V22.6999C150.999 23.4999 148.999 24.1999 147.099 24.1999C144.299 24.1999 143.199 22.8999 142.999 20.0999H152.299V17.9999C152.299 12.2999 149.799 10.1999 145.899 10.1999C141.199 10.1999 138.899 13.7999 138.899 18.7999C138.899 24.4999 141.699 27.2999 146.599 27.2999C149.299 27.2999 151.099 26.6999 152.199 25.8999ZM145.899 13.3999C147.799 13.3999 148.399 14.9999 148.399 16.9999V17.2999H142.999C143.099 14.6999 144.099 13.3999 145.899 13.3999ZM166.199 13.6999V10.5999H153.199V13.6999H157.799V26.9999H161.699V13.6999H166.199Z" fill="#23292F"/>
<path d="M47.1007 31C55.4007 31 62.1007 24.3 62.1007 16C62.1007 7.7 55.4007 1 47.1007 1C38.8007 1 32.1007 7.7 32.1007 16C32.0007 24.3 38.8007 31 47.1007 31Z" fill="#FED42B"/>
<path d="M15 31C23.2843 31 30 24.2843 30 16C30 7.71573 23.2843 1 15 1C6.71573 1 0 7.71573 0 16C0 24.2843 6.71573 31 15 31Z" fill="#FC3F1D"/>
<path d="M17.2008 9.4H15.7008C13.1008 9.4 11.8008 10.7 11.8008 12.7C11.8008 14.9 12.7008 16 14.6008 17.3L16.1008 18.4L11.8008 25.1H8.30078L12.4008 19C10.0008 17.3 8.70078 15.7 8.70078 12.9C8.70078 9.4 11.1008 7 15.7008 7H20.3008V25H17.3008V9.4H17.2008Z" fill="white"/>
<path d="M39.7 9.2001L26.5 26.5001L30 30.5001L39.8 17.5001L38.8 24.6001L44.3 26.5001L51 15.8001C50.7 17.8001 50.2 22.4001 54.6 23.8001C61.5 25.9001 67.5 13.5001 70.3 7.2001L66.3 5.1001C63.2 11.6001 58.4 18.8001 56.5 18.3001C54.6 17.8001 56.3 11.7001 57.4 7.8001V7.7001L51.3 5.6001L44 17.5001L45 11.0001L39.7 9.2001Z" fill="#23292F"/>
<path d="M49.9807 47.6683C49.8782 47.3514 49.5971 47.1263 49.2645 47.0963L44.7468 46.6861L42.9604 42.5048C42.8287 42.1984 42.5287 42 42.1954 42C41.8621 42 41.5621 42.1984 41.4304 42.5055L39.644 46.6861L35.1256 47.0963C34.7936 47.127 34.5132 47.3514 34.4101 47.6683C34.307 47.9853 34.4022 48.3329 34.6534 48.552L38.0682 51.5469L37.0612 55.9825C36.9876 56.3087 37.1142 56.6458 37.3848 56.8414C37.5302 56.9465 37.7004 57 37.872 57C38.02 57 38.1667 56.9601 38.2984 56.8813L42.1954 54.5522L46.0909 56.8813C46.376 57.0528 46.7353 57.0371 47.0053 56.8414C47.276 56.6452 47.4025 56.308 47.3288 55.9825L46.3219 51.5469L49.7367 48.5526C49.9879 48.3329 50.0838 47.9859 49.9807 47.6683Z" fill="#FED42B"/>
<path d="M70.633 47.6683C70.5306 47.3514 70.2495 47.1263 69.9169 47.0963L65.3992 46.6861L63.6128 42.5048C63.481 42.1984 63.181 42 62.8477 42C62.5144 42 62.2145 42.1984 62.0827 42.5055L60.2963 46.6861L55.7779 47.0963C55.4459 47.127 55.1655 47.3514 55.0624 47.6683C54.9594 47.9853 55.0546 48.3329 55.3057 48.552L58.7205 51.5469L57.7136 55.9825C57.6399 56.3087 57.7665 56.6458 58.0371 56.8414C58.1826 56.9465 58.3527 57 58.5243 57C58.6723 57 58.8191 56.9601 58.9508 56.8813L62.8477 54.5522L66.7433 56.8813C67.0283 57.0528 67.3877 57.0371 67.6577 56.8414C67.9284 56.6452 68.0549 56.308 67.9812 55.9825L66.9742 51.5469L70.3891 48.5526C70.6402 48.3329 70.7361 47.9859 70.633 47.6683Z" fill="#FED42B"/>
<path d="M91.2854 47.6683C91.1829 47.3514 90.9018 47.1263 90.5692 47.0963L86.0515 46.6861L84.2651 42.5048C84.1334 42.1984 83.8334 42 83.5001 42C83.1668 42 82.8668 42.1984 82.7351 42.5055L80.9487 46.6861L76.4302 47.0963C76.0982 47.127 75.8178 47.3514 75.7148 47.6683C75.6117 47.9853 75.7069 48.3329 75.958 48.552L79.3729 51.5469L78.3659 55.9825C78.2923 56.3087 78.4188 56.6458 78.6894 56.8414C78.8349 56.9465 79.0051 57 79.1767 57C79.3246 57 79.4714 56.9601 79.6031 56.8813L83.5001 54.5522L87.3956 56.8813C87.6807 57.0528 88.04 57.0371 88.31 56.8414C88.5807 56.6452 88.7072 56.308 88.6335 55.9825L87.6266 51.5469L91.0414 48.5526C91.2925 48.3329 91.3884 47.9859 91.2854 47.6683Z" fill="#FED42B"/>
<path d="M111.938 47.6683C111.835 47.3514 111.554 47.1263 111.222 47.0963L106.704 46.6861L104.917 42.5048C104.786 42.1984 104.486 42 104.152 42C103.819 42 103.519 42.1984 103.387 42.5055L101.601 46.6861L97.0826 47.0963C96.7506 47.127 96.4702 47.3514 96.3671 47.6683C96.2641 47.9853 96.3592 48.3329 96.6104 48.552L100.025 51.5469L99.0183 55.9825C98.9446 56.3087 99.0712 56.6458 99.3418 56.8414C99.4872 56.9465 99.6574 57 99.829 57C99.977 57 100.124 56.9601 100.255 56.8813L104.152 54.5522L108.048 56.8813C108.333 57.0528 108.692 57.0371 108.962 56.8414C109.233 56.6452 109.36 56.308 109.286 55.9825L108.279 51.5469L111.694 48.5526C111.945 48.3329 112.041 47.9859 111.938 47.6683Z" fill="#FED42B"/>
<path d="M132.59 47.6683C132.488 47.3514 132.206 47.1263 131.874 47.0963L127.356 46.6861L125.57 42.5048C125.438 42.1984 125.138 42 124.805 42C124.471 42 124.171 42.1984 124.04 42.5055L122.253 46.6861L117.735 47.0963C117.403 47.127 117.123 47.3514 117.019 47.6683C116.916 47.9853 117.012 48.3329 117.263 48.552L120.678 51.5469L119.671 55.9825C119.597 56.3087 119.724 56.6458 119.994 56.8414C120.14 56.9465 120.31 57 120.481 57C120.629 57 120.776 56.9601 120.908 56.8813L124.805 54.5522L128.7 56.8813C128.985 57.0528 129.345 57.0371 129.615 56.8414C129.885 56.6452 130.012 56.308 129.938 55.9825L128.931 51.5469L132.346 48.5526C132.597 48.3329 132.693 47.9859 132.59 47.6683Z" fill="#FED42B"/>
</svg>
