<svg width="31" height="20" viewBox="0 0 31 20" fill="none" xmlns="http://www.w3.org/2000/svg">
<path d="M0.526339 20H30C30.2906 20 30.5263 19.7643 30.5263 19.4737V0.526339C30.5263 0.235684 30.2906 0 30 0H0.526339C0.235684 5.96216e-05 0 0.235684 0 0.526339V19.4737C0 19.7644 0.235684 20 0.526339 20Z" fill="#FF0028"/>
<path d="M30.5263 4.21057H0V15.7897H30.5263V4.21057Z" fill="#FBD239"/>
<path d="M12.8935 9.99994L13.3398 7.99182C13.3809 7.80688 13.2402 7.63147 13.0507 7.63147H12.7364C12.5469 7.63147 12.4062 7.80688 12.4473 7.99182L12.8935 9.99994Z" fill="#FF0028"/>
<path d="M13.4224 8.9469H12.3698V13.4203H13.4224V8.9469Z" fill="#F9F9F9"/>
<path d="M13.6857 8.42126H12.1068V8.9476H13.6857V8.42126Z" fill="#FBD239"/>
<path d="M13.6805 9.99988H11.0488V10.5262H13.6805V9.99988Z" fill="#FF0028"/>
<path d="M13.6825 12.1052L12.1035 11.579V11.0526L13.6825 11.579V12.1052Z" fill="#FF0028"/>
<path d="M4.99769 9.99994L5.44395 7.99182C5.48509 7.80688 5.34433 7.63147 5.15485 7.63147H4.84052C4.65111 7.63147 4.5104 7.80688 4.55142 7.99182L4.99769 9.99994Z" fill="#FF0028"/>
<path d="M6.84144 8.4209C6.55079 8.4209 6.3151 8.65658 6.3151 8.94724V12.3683C6.3151 13.0077 6.91191 14.2104 8.94668 14.2104C10.9814 14.2104 11.5783 13.0078 11.5783 12.3683V8.94724C11.5783 8.65658 11.3426 8.4209 11.0519 8.4209H6.84144Z" fill="#F9F9F9"/>
<path d="M8.94668 11.0525H6.3151V8.94724C6.3151 8.65658 6.55079 8.4209 6.84144 8.4209H8.94668V11.0525Z" fill="#FF0028"/>
<path d="M8.94596 11.0524H11.5775V12.3682C11.5775 13.0949 10.9885 13.6839 10.2618 13.6839C9.53502 13.6839 8.94596 13.0949 8.94596 12.3682V11.0524Z" fill="#FF0028"/>
<path d="M6.3151 11.0524H8.94668V12.3682C8.94668 13.0949 8.35762 13.6839 7.63089 13.6839C6.90416 13.6839 6.3151 13.0949 6.3151 12.3682V11.0524Z" fill="#FBD239"/>
<path d="M8.42153 13.4148V11.0522H7.89519V13.6573C8.09098 13.6176 8.26788 13.5309 8.42153 13.4148Z" fill="#FF0028"/>
<path d="M7.36749 13.6574V11.0524H6.84115V13.4149C6.99485 13.531 7.17175 13.6177 7.36749 13.6574Z" fill="#FF0028"/>
<path d="M8.4201 9.99963H6.84115V10.526H8.4201V9.99963Z" fill="#FBD239"/>
<path d="M8.4201 8.9469H6.84115V9.47324H8.4201V8.9469Z" fill="#FBD239"/>
<path d="M8.15614 9.26001H7.10352V10.2135H8.15614V9.26001Z" fill="#FBD239"/>
<path d="M5.52658 8.9469H4.47396V13.4203H5.52658V8.9469Z" fill="#F9F9F9"/>
<path d="M5.7899 13.158H4.21094V13.6843H5.7899V13.158Z" fill="#FBD239"/>
<path d="M5.79038 8.42126H4.21142V8.9476H5.79038V8.42126Z" fill="#FBD239"/>
<path d="M6.05316 13.684H3.94792V14.2103H6.05316V13.684Z" fill="#5064AA"/>
<path d="M13.9487 13.1582H12.3698V13.6845H13.9487V13.1582Z" fill="#FBD239"/>
<path d="M13.9464 13.684H11.8411V14.2103H13.9464V13.684Z" fill="#5064AA"/>
<path d="M10.5277 7.8949H7.36979V8.42124H10.5277V7.8949Z" fill="#FBD239"/>
<path d="M9.21124 6.3158H8.6849V7.89475H9.21124V6.3158Z" fill="#FBD239"/>
<path d="M8.41966 7.10527C7.9843 7.10527 7.63021 6.75111 7.63021 6.31582C7.63021 5.88046 7.98436 5.52637 8.41966 5.52637C8.85502 5.52637 9.20911 5.88052 9.20911 6.31582C9.20917 6.75111 8.85502 7.10527 8.41966 7.10527ZM8.41966 6.05265C8.27448 6.05265 8.15649 6.17058 8.15649 6.31582C8.15649 6.46099 8.27442 6.57899 8.41966 6.57899C8.5649 6.57899 8.68283 6.46105 8.68283 6.31582C8.68283 6.17064 8.5649 6.05265 8.41966 6.05265Z" fill="#F9F9F9"/>
<path d="M9.47435 7.10527C9.03899 7.10527 8.6849 6.75111 8.6849 6.31582C8.6849 5.88046 9.03905 5.52637 9.47435 5.52637C9.9097 5.52637 10.2638 5.88052 10.2638 6.31582C10.2638 6.75111 9.90964 7.10527 9.47435 7.10527ZM9.47435 6.05265C9.32917 6.05265 9.21118 6.17058 9.21118 6.31582C9.21118 6.46099 9.32911 6.57899 9.47435 6.57899C9.61952 6.57899 9.73752 6.46105 9.73752 6.31582C9.73746 6.17064 9.61952 6.05265 9.47435 6.05265Z" fill="#F9F9F9"/>
<path d="M10.5264 7.632C10.0911 7.632 9.73698 7.27785 9.73698 6.84255C9.73698 6.40719 10.0911 6.0531 10.5264 6.0531C10.9618 6.0531 11.3159 6.40725 11.3159 6.84255C11.3159 7.27785 10.9617 7.632 10.5264 7.632ZM10.5264 6.57938C10.3812 6.57938 10.2633 6.69731 10.2633 6.84255C10.2633 6.98773 10.3812 7.10572 10.5264 7.10572C10.6716 7.10572 10.7896 6.98779 10.7896 6.84255C10.7896 6.69731 10.6716 6.57938 10.5264 6.57938Z" fill="#F9F9F9"/>
<path d="M7.36757 7.632C6.93222 7.632 6.57812 7.27785 6.57812 6.84255C6.57812 6.40719 6.93228 6.0531 7.36757 6.0531C7.80293 6.0531 8.15702 6.40725 8.15702 6.84255C8.15708 7.27785 7.80293 7.632 7.36757 7.632ZM7.36757 6.57938C7.2224 6.57938 7.1044 6.69731 7.1044 6.84255C7.1044 6.98773 7.22234 7.10572 7.36757 7.10572C7.51281 7.10572 7.63074 6.98773 7.63074 6.84249C7.63074 6.69731 7.51281 6.57938 7.36757 6.57938Z" fill="#F9F9F9"/>
<path d="M10.524 12.1054V12.3686C10.524 12.5137 10.406 12.6317 10.2609 12.6317C10.1157 12.6317 9.99769 12.5137 9.99769 12.3686V12.1054H10.524ZM11.0503 11.5791H9.47135V12.3686C9.47135 12.8039 9.8255 13.158 10.2608 13.158C10.6962 13.158 11.0503 12.8038 11.0503 12.3686V11.5791H11.0503Z" fill="#FBD239"/>
<path d="M10.2633 10.5263C9.97266 10.5263 9.73698 10.2906 9.73698 9.99994V9.47361C9.73698 9.18295 9.97266 8.94727 10.2633 8.94727C10.554 8.94727 10.7897 9.18295 10.7897 9.47361V9.99994C10.7897 10.2906 10.554 10.5263 10.2633 10.5263Z" fill="#FFA0D2"/>
<path d="M8.9483 11.842C9.3843 11.842 9.73775 11.4885 9.73775 11.0525C9.73775 10.6165 9.3843 10.2631 8.9483 10.2631C8.5123 10.2631 8.15885 10.6165 8.15885 11.0525C8.15885 11.4885 8.5123 11.842 8.9483 11.842Z" fill="#5064AA"/>
<path d="M9.21124 5.26306H8.6849V6.84202H9.21124V5.26306Z" fill="#FBD239"/>
<path d="M7.36749 7.89475L6.84115 7.36841L7.14945 7.06011C7.62601 6.58356 8.27243 6.3158 8.94645 6.3158C9.62047 6.3158 10.2668 6.58356 10.7434 7.06011L11.0517 7.36841L10.5254 7.89475H7.36749Z" fill="#FF0028"/>
<path d="M8.94742 7.63132C9.09276 7.63132 9.21059 7.5135 9.21059 7.36815C9.21059 7.22281 9.09276 7.10498 8.94742 7.10498C8.80207 7.10498 8.68425 7.22281 8.68425 7.36815C8.68425 7.5135 8.80207 7.63132 8.94742 7.63132Z" fill="#FBD239"/>
<path d="M7.89338 7.63144C8.03873 7.63144 8.15655 7.51362 8.15655 7.36827C8.15655 7.22293 8.03873 7.1051 7.89338 7.1051C7.74804 7.1051 7.63021 7.22293 7.63021 7.36827C7.63021 7.51362 7.74804 7.63144 7.89338 7.63144Z" fill="#FBD239"/>
<path d="M9.9995 7.63132C10.1448 7.63132 10.2627 7.5135 10.2627 7.36815C10.2627 7.22281 10.1448 7.10498 9.9995 7.10498C9.85415 7.10498 9.73633 7.22281 9.73633 7.36815C9.73633 7.5135 9.85415 7.63132 9.9995 7.63132Z" fill="#FBD239"/>
<path d="M6.84263 10H4.21094V10.5263H6.84263V10Z" fill="#FF0028"/>
<path d="M4.21094 12.1054L5.78984 11.5791V11.0527L4.21094 11.5791V12.1054Z" fill="#FF0028"/>
</svg>
