<svg width="54" height="77" viewBox="0 0 54 77" fill="none" xmlns="http://www.w3.org/2000/svg">
<path fill-rule="evenodd" clip-rule="evenodd" d="M8.51439 0.806994C5.62643 0.371495 4.37064 0.288532 1.13778 0.29404C0.805884 0.290537 0.326938 0.556856 0.489956 0.744885C1.54539 2.32171 2.53952 3.9077 4.00563 5.29922C4.79814 5.60863 5.01322 5.16666 5.04457 4.84337C5.10378 4.2327 5.21262 3.75579 5.42335 3.14016L6.16846 2.62162C7.27544 2.4207 8.80433 2.05107 9.07812 1.71138C9.49557 1.19346 8.96198 0.864028 8.51439 0.806994Z" fill="#6D6D6D"/>
<path d="M5.64707 1.79203C58.9297 23.9189 71.5633 40.7815 25.9479 75.101C71.7636 39.6127 57.2437 25.0846 3.96161 2.95794L5.64707 1.79203Z" fill="#6D6D6D"/>
</svg>
