<svg width="81" height="81" viewBox="0 0 81 81" fill="none" xmlns="http://www.w3.org/2000/svg">
<path d="M79.2813 11.5465L69.0537 1.31887C67.564 -0.17082 65.1399 -0.170664 63.6502 1.31887L44.3935 20.5754C43.9113 21.0578 43.9113 21.8393 44.3935 22.3217C44.8757 22.8037 45.6574 22.8037 46.1396 22.3217L65.3962 3.06512C65.6515 2.8098 65.9908 2.66934 66.3518 2.66934C66.7127 2.66934 67.0521 2.8098 67.3074 3.06512L77.5352 13.2928C77.7904 13.5479 77.931 13.8873 77.931 14.2484C77.931 14.6093 77.7904 14.9487 77.5352 15.2039L75.0252 17.7139L68.4488 11.1376C67.9666 10.6556 67.1849 10.6556 66.7027 11.1376C66.2205 11.62 66.2205 12.4015 66.7027 12.8839L73.279 19.4601L70.4113 22.3278L67.521 19.4375C67.0388 18.9554 66.2571 18.9554 65.7749 19.4375C65.2927 19.9198 65.2927 20.7014 65.7749 21.1837L68.6652 24.0739L65.7976 26.9415L62.9073 24.0512C62.4251 23.5692 61.6433 23.5692 61.1612 24.0512C60.679 24.5335 60.679 25.3151 61.1612 25.7975L64.0515 28.6876L61.1838 31.5553L54.6074 24.9787C54.1254 24.4968 53.3435 24.4965 52.8613 24.9787C52.3791 25.461 52.3791 26.2426 52.8613 26.725L59.4377 33.3014L56.5701 36.169L53.6798 33.2787C53.1976 32.7967 52.4159 32.7967 51.9337 33.2787C51.4515 33.761 51.4515 34.5426 51.9337 35.0249L54.8238 37.9151L52.3979 40.341L40.259 28.2021L46.1396 22.3217C46.6218 21.8393 44.8757 22.804 44.3935 22.3217C43.9113 21.8396 44.8757 20.0934 44.3935 20.5754L38.5127 26.4559L15.7365 3.68043C14.1524 2.09637 12.0463 1.22402 9.80618 1.22402C7.56602 1.22418 5.45993 2.09652 3.87602 3.68059C2.29181 5.26465 1.41946 7.37058 1.41946 9.6109C1.41946 11.8511 2.29181 13.9571 3.87587 15.5412L26.6516 38.317L1.5179 63.4512C0.028213 64.941 0.028213 67.3649 1.5179 68.8548L11.7456 79.0826C12.4671 79.8042 13.4266 80.2017 14.4473 80.2017C15.4679 80.2017 16.4274 79.8042 17.149 79.0826L42.283 53.9485L48.1199 59.7854C48.6021 60.2674 47.6377 58.5212 48.1199 58.0392C48.6021 57.5568 50.3482 58.5215 49.866 58.0392L43.3484 51.5215C43.3004 51.4456 43.2441 51.3734 43.178 51.3073C43.112 51.2412 43.0398 51.1849 42.964 51.137L16.2104 24.3834L19.2206 21.3732L21.5687 23.481C64.911 66.462 22.1257 23.481 22.4418 23.481C22.7579 23.481 23.0738 23.3604 23.3149 23.1195C23.7971 22.6371 23.7971 21.8556 23.3149 21.3732L21.2679 19.3262L24.579 16.0151L37.6382 29.0743L37.6398 29.076L37.6415 29.0776L51.4041 42.8403C51.4382 42.8853 51.4744 42.9293 51.5155 42.9704C51.5566 43.0115 51.6005 43.0478 51.6455 43.0818L69.9687 61.4049L66.6576 64.716L48.1707 46.2292C48.1596 46.2171 48.1496 46.2045 48.1379 46.1929L40.7657 38.8206C40.7535 38.8084 40.7402 38.7978 40.7277 38.7862L23.3149 21.3732C22.8327 20.8912 23.7971 22.6375 23.3149 23.1195C22.8327 23.6018 19.2206 21.3732 21.5687 23.481L64.911 66.462L61.5998 69.7731L49.866 58.0392C49.3838 57.5571 48.6021 57.5571 48.1199 58.0392C47.6377 58.5215 47.6377 59.3031 48.1199 59.7854L60.7268 72.3923C60.8466 72.5121 60.9951 72.6088 61.153 72.6701L76.0715 78.4621C76.3068 78.5534 76.5521 78.5977 76.7955 78.5977C77.3177 78.5977 77.8305 78.3934 78.2132 78.0104C78.7743 77.449 78.9508 76.6084 78.6632 75.8687L72.8651 60.9571C72.8038 60.7996 72.7071 60.6509 72.5874 60.5313L54.1438 42.0878L79.2813 16.9501C80.7712 15.4603 80.7712 13.0364 79.2813 11.5465ZM40.5374 52.2024L38.1145 54.6248L35.2241 51.7345C34.742 51.2524 33.9602 51.2524 33.478 51.7345C32.9959 52.2168 32.9959 52.9984 33.478 53.4807L36.3684 56.371L33.5007 59.2387L26.9243 52.6623C26.4421 52.1803 25.6604 52.1803 25.1782 52.6623C24.696 53.1446 24.696 53.9262 25.1782 54.4085L31.7546 60.9849L28.887 63.8526L25.9966 60.9623C25.5145 60.4803 24.7327 60.4803 24.2505 60.9623C23.7684 61.4446 23.7684 62.2262 24.2505 62.7085L27.1409 65.5987L24.2732 68.4663L21.3829 65.576C20.9007 65.094 20.119 65.094 19.6368 65.576C19.1546 66.0584 19.1546 66.8399 19.6368 67.3223L22.5271 70.2126L19.6595 73.0803L13.0831 66.5038C12.6009 66.0218 11.8191 66.0218 11.337 66.5038C10.8548 66.9862 10.8548 67.7678 11.337 68.2501L17.9134 74.8263L15.4034 77.3363C15.1481 77.5917 14.8087 77.7323 14.4477 77.7323C14.0868 77.7323 13.7474 77.5917 13.4921 77.3363L3.26446 67.1085C2.73759 66.5817 2.73759 65.7243 3.26446 65.1974L28.3984 40.0634L40.5374 52.2024ZM5.62196 13.7951C3.31477 11.4879 3.31477 7.73387 5.62196 5.42668C7.92915 3.11934 11.6832 3.11934 13.9904 5.42668L17.8929 9.32918L9.52446 17.6976L5.62196 13.7951ZM18.6493 18.4521L18.6477 18.4537L14.4643 22.6371L11.2707 19.4435L19.6391 11.0751L22.8327 14.2687L18.6493 18.4521ZM75.9782 75.7768L63.8119 71.0535L71.2496 63.6159L75.9782 75.7768Z" fill="#2C2B3F"/>
</svg>
