<svg width="81" height="81" viewBox="0 0 81 81" fill="none" xmlns="http://www.w3.org/2000/svg">
<path d="M80.0475 46.1284L74.9408 38.4684V32.1204C76.0134 32.2602 77.1015 32.028 78.0236 31.4623C78.9458 30.8967 79.6463 30.0319 80.0084 29.0122C80.3705 27.9924 80.3723 26.8792 80.0135 25.8583C79.6547 24.8374 78.9569 23.9704 78.0366 23.4018L66.9448 16.5178V4.20183C66.9448 3.84821 66.8044 3.50907 66.5545 3.25902C66.3046 3.00898 65.9656 2.8685 65.6122 2.8685H57.6162C57.2628 2.8685 56.9238 3.00898 56.6739 3.25902C56.424 3.50907 56.2836 3.84821 56.2836 4.20183V9.89648L40.994 0.401839C40.7831 0.27099 40.5398 0.20166 40.2917 0.20166C40.0435 0.20166 39.8003 0.27099 39.5894 0.401839L2.54678 23.4018C1.62027 23.9673 0.916474 24.8345 0.553579 25.8578C0.190685 26.8811 0.190802 27.9983 0.553912 29.0215C0.917021 30.0448 1.621 30.9118 2.54763 31.4771C3.47425 32.0424 4.56707 32.2714 5.64254 32.1258V72.2017H1.64457C1.29113 72.2017 0.952159 72.3422 0.702237 72.5922C0.452315 72.8422 0.311911 73.1814 0.311911 73.535C0.311911 73.8886 0.452315 74.2278 0.702237 74.4778C0.952159 74.7279 1.29113 74.8683 1.64457 74.8683H40.2917V78.8683C40.2917 79.222 40.4321 79.5611 40.682 79.8111C40.9319 80.0612 41.2709 80.2017 41.6243 80.2017H78.9388C79.2922 80.2017 79.6312 80.0612 79.8811 79.8111C80.131 79.5611 80.2714 79.222 80.2714 78.8683V46.8684C80.2376 46.6112 80.1619 46.3612 80.0475 46.1284ZM62.7056 45.5351H57.8574L58.745 40.2018H61.8181L62.7056 45.5351ZM55.1548 45.5351H44.1137L47.6679 40.2018H56.0437L55.1548 45.5351ZM57.6162 48.2017H62.9469V57.7097L61.0212 56.4257C60.8022 56.2795 60.5448 56.2015 60.2815 56.2015C60.0183 56.2015 59.7609 56.2795 59.5419 56.4257L57.6162 57.7097V48.2017ZM65.4083 45.5351L64.5194 40.2018H72.8951L76.4493 45.5351H65.4083ZM58.9489 5.53516H64.2795V14.8685L58.9489 11.5578V5.53516ZM4.04335 29.2298C3.72812 29.0558 3.4639 28.8023 3.27693 28.4944C3.08997 28.1866 2.98678 27.8352 2.97761 27.4751C2.96845 27.115 3.05364 26.7588 3.2247 26.4419C3.39577 26.1249 3.64676 25.8583 3.95273 25.6685L40.2917 3.1045L76.6306 25.6685C77.0929 25.9587 77.4214 26.4203 77.5445 26.9522C77.6675 27.4842 77.575 28.0433 77.2871 28.5072C76.9993 28.9711 76.5395 29.3021 76.0084 29.4277C75.4773 29.5534 74.9181 29.4635 74.453 29.1778L40.994 8.40182C40.7831 8.27097 40.5398 8.20164 40.2917 8.20164C40.0435 8.20164 39.8003 8.27097 39.5894 8.40182L6.1303 29.1804C5.81927 29.3763 5.46104 29.4843 5.09363 29.493C4.72621 29.5017 4.36329 29.4107 4.04335 29.2298ZM16.3038 72.2017V42.8684H32.2957V72.2017H16.3038ZM34.961 72.2017V41.5351C34.961 41.1815 34.8206 40.8423 34.5707 40.5923C34.3208 40.3422 33.9818 40.2018 33.6284 40.2018H14.9712C14.6177 40.2018 14.2787 40.3422 14.0288 40.5923C13.7789 40.8423 13.6385 41.1815 13.6385 41.5351V72.2017H8.30786V30.9658L40.2917 11.0991L72.2755 30.9658V37.5351H46.955C46.7356 37.5351 46.5196 37.5892 46.3262 37.6927C46.1328 37.7962 45.9679 37.9459 45.8462 38.1284L40.5155 46.1284C40.4011 46.3612 40.3255 46.6112 40.2917 46.8684V72.2017H34.961ZM77.6061 77.535H42.957V48.2017H54.9509V60.2017C54.9509 60.4431 55.0163 60.68 55.1403 60.887C55.2643 61.0941 55.4421 61.2637 55.6549 61.3775C55.8676 61.4914 56.1072 61.5454 56.3482 61.5337C56.5892 61.522 56.8225 61.445 57.0232 61.311L60.2815 59.135L63.5399 61.3084C63.7404 61.4422 63.9734 61.5191 64.2142 61.531C64.4549 61.5428 64.6944 61.4891 64.907 61.3755C65.1197 61.2619 65.2976 61.0928 65.4217 60.8861C65.5459 60.6794 65.6117 60.4429 65.6122 60.2017V48.2017H77.6061V77.535Z" fill="#2C2B3F"/>
<path d="M29.6304 56.2017H28.2977C27.9443 56.2017 27.6053 56.3422 27.3554 56.5922C27.1055 56.8423 26.9651 57.1814 26.9651 57.5351C26.9651 57.8887 27.1055 58.2278 27.3554 58.4779C27.6053 58.7279 27.9443 58.8684 28.2977 58.8684H29.6304C29.9838 58.8684 30.3228 58.7279 30.5727 58.4779C30.8227 58.2278 30.9631 57.8887 30.9631 57.5351C30.9631 57.1814 30.8227 56.8423 30.5727 56.5922C30.3228 56.3422 29.9838 56.2017 29.6304 56.2017Z" fill="#2C2B3F"/>
<path d="M48.2873 25.5351C48.2873 23.9528 47.8184 22.4061 46.9398 21.0905C46.0611 19.7749 44.8124 18.7496 43.3513 18.1441C41.8902 17.5386 40.2825 17.3801 38.7314 17.6888C37.1804 17.9975 35.7556 18.7594 34.6374 19.8782C33.5191 20.9971 32.7576 22.4225 32.4491 23.9744C32.1405 25.5262 32.2989 27.1347 32.9041 28.5965C33.5093 30.0583 34.5341 31.3078 35.8491 32.1868C37.164 33.0659 38.7099 33.5351 40.2914 33.5351C42.4114 33.5329 44.4439 32.6894 45.943 31.1896C47.4421 29.6898 48.2852 27.6562 48.2873 25.5351ZM41.624 30.6791V26.8684H45.4328C45.1933 27.7847 44.7142 28.6207 44.0448 29.2905C43.3755 29.9602 42.5399 30.4395 41.624 30.6791ZM45.4328 24.2018H41.624V20.3911C42.5399 20.6307 43.3755 21.11 44.0448 21.7797C44.7142 22.4494 45.1933 23.2854 45.4328 24.2018ZM38.9587 20.3911V24.2018H35.15C35.3894 23.2854 35.8685 22.4494 36.5379 21.7797C37.2073 21.11 38.0428 20.6307 38.9587 20.3911ZM35.15 26.8684H38.9587V30.6791C38.0428 30.4395 37.2073 29.9602 36.5379 29.2905C35.8685 28.6207 35.3894 27.7847 35.15 26.8684Z" fill="#2C2B3F"/>
</svg>
