<svg width="80" height="80" viewBox="0 0 80 80" fill="none" xmlns="http://www.w3.org/2000/svg">
<g clip-path="url(#clip0_1013_189)">
<path d="M36.0002 46.0001C36.0002 46.7365 36.5971 47.3334 37.3335 47.3334C38.0699 47.3334 38.6668 46.7365 38.6668 46.0001C38.6668 41.5894 34.5868 37.9441 29.3335 37.4081V36.0001C29.3335 35.2637 28.7365 34.6667 28.0002 34.6667C27.2638 34.6667 26.6668 35.2637 26.6668 36.0001V37.4081C21.4135 37.9414 17.3335 41.5894 17.3335 46.0001C17.3335 50.4107 21.4135 54.0561 26.6668 54.5921V66.5761C22.8895 66.0987 20.0002 63.6334 20.0002 60.6667C20.0002 59.9304 19.4032 59.3334 18.6668 59.3334C17.9305 59.3334 17.3335 59.9304 17.3335 60.6667C17.3335 65.0774 21.4135 68.7227 26.6668 69.2587V70.6667C26.6668 71.4031 27.2638 72.0001 28.0002 72.0001C28.7365 72.0001 29.3335 71.4031 29.3335 70.6667V69.2587C34.5868 68.7254 38.6668 65.0774 38.6668 60.6667C38.6668 56.2561 34.5868 52.6107 29.3335 52.0747V40.0907C33.1108 40.5681 36.0002 43.0334 36.0002 46.0001ZM20.0002 46.0001C20.0002 43.0334 22.8895 40.5681 26.6668 40.0907V51.9094C22.8895 51.4321 20.0002 48.9667 20.0002 46.0001ZM36.0002 60.6667C36.0002 63.6334 33.1108 66.0987 29.3335 66.5761V54.7574C33.1108 55.2347 36.0002 57.7001 36.0002 60.6667Z" fill="#2C2B3F"/>
<path d="M4.8001 40.2307C4.1322 39.9207 3.33948 40.2108 3.02943 40.8787C1.02266 45.1976 -0.0114645 49.9044 9.5865e-05 54.6667C9.5865e-05 71.4761 9.4201 80.0001 28.0001 80.0001C31.7544 80.0591 35.5003 79.6274 39.1428 78.7161C39.8545 78.5268 40.278 77.7964 40.0888 77.0847C39.8995 76.373 39.1692 75.9495 38.4575 76.1387C35.0373 76.9834 31.5227 77.3849 28.0001 77.3334C10.9534 77.3334 2.66676 69.9187 2.66676 54.6667C2.64278 50.2903 3.59332 45.9634 5.44943 42C5.75833 41.3321 5.46772 40.5402 4.8001 40.2307Z" fill="#2C2B3F"/>
<path d="M76 33.3335H46.6667C44.4576 33.3335 42.6667 35.1244 42.6667 37.3335V76.0002C42.6667 78.2093 44.4576 80.0002 46.6667 80.0002H76C78.2092 80.0002 80 78.2093 80 76.0002V37.3335C80 35.1244 78.2092 33.3335 76 33.3335ZM77.3334 76.0002C77.3334 76.7366 76.7364 77.3335 76 77.3335H46.6667C45.9304 77.3335 45.3334 76.7366 45.3334 76.0002V37.3335C45.3334 36.5971 45.9304 36.0002 46.6667 36.0002H76C76.7364 36.0002 77.3334 36.5971 77.3334 37.3335V76.0002Z" fill="#2C2B3F"/>
<path d="M52.0002 50.6667H70.6668C72.1396 50.6667 73.3335 49.4728 73.3335 48V42.6667C73.3335 41.1939 72.1396 40 70.6668 40H52.0002C50.5274 40 49.3335 41.1939 49.3335 42.6667V48C49.3335 49.4728 50.5274 50.6667 52.0002 50.6667ZM52.0002 42.6667H70.6668V48H52.0002V42.6667Z" fill="#2C2B3F"/>
<path d="M54.6668 54.6667H50.6668C49.9304 54.6667 49.3335 55.2637 49.3335 56.0001C49.3335 56.7365 49.9304 57.3335 50.6668 57.3335H54.6668C55.4032 57.3335 56.0001 56.7365 56.0001 56.0001C56.0001 55.2637 55.4032 54.6667 54.6668 54.6667Z" fill="#2C2B3F"/>
<path d="M54.6668 60H50.6668C49.9304 60 49.3335 60.597 49.3335 61.3333C49.3335 62.0697 49.9304 62.6667 50.6668 62.6667H54.6668C55.4032 62.6667 56.0001 62.0697 56.0001 61.3333C56.0001 60.597 55.4032 60 54.6668 60Z" fill="#2C2B3F"/>
<path d="M54.6668 65.3335H50.6668C49.9304 65.3335 49.3335 65.9305 49.3335 66.6668C49.3335 67.4032 49.9304 68.0002 50.6668 68.0002H54.6668C55.4032 68.0002 56.0001 67.4032 56.0001 66.6668C56.0001 65.9305 55.4032 65.3335 54.6668 65.3335Z" fill="#2C2B3F"/>
<path d="M54.6668 70.6667H50.6668C49.9304 70.6667 49.3335 71.2637 49.3335 72.0001C49.3335 72.7365 49.9304 73.3335 50.6668 73.3335H54.6668C55.4032 73.3335 56.0001 72.7365 56.0001 72.0001C56.0001 71.2637 55.4032 70.6667 54.6668 70.6667Z" fill="#2C2B3F"/>
<path d="M64.0001 54.6667H60.0001C59.2637 54.6667 58.6667 55.2637 58.6667 56.0001C58.6667 56.7365 59.2637 57.3335 60.0001 57.3335H64.0001C64.7364 57.3335 65.3334 56.7365 65.3334 56.0001C65.3334 55.2637 64.7364 54.6667 64.0001 54.6667Z" fill="#2C2B3F"/>
<path d="M64.0001 60H60.0001C59.2637 60 58.6667 60.597 58.6667 61.3333C58.6667 62.0697 59.2637 62.6667 60.0001 62.6667H64.0001C64.7364 62.6667 65.3334 62.0697 65.3334 61.3333C65.3334 60.597 64.7364 60 64.0001 60Z" fill="#2C2B3F"/>
<path d="M64.0001 65.3335H60.0001C59.2637 65.3335 58.6667 65.9305 58.6667 66.6668C58.6667 67.4032 59.2637 68.0002 60.0001 68.0002H64.0001C64.7364 68.0002 65.3334 67.4032 65.3334 66.6668C65.3334 65.9305 64.7364 65.3335 64.0001 65.3335Z" fill="#2C2B3F"/>
<path d="M64.0001 70.6667H60.0001C59.2637 70.6667 58.6667 71.2637 58.6667 72.0001C58.6667 72.7365 59.2637 73.3335 60.0001 73.3335H64.0001C64.7364 73.3335 65.3334 72.7365 65.3334 72.0001C65.3334 71.2637 64.7364 70.6667 64.0001 70.6667Z" fill="#2C2B3F"/>
<path d="M73.3334 54.6667H69.3334C68.5971 54.6667 68.0001 55.2637 68.0001 56.0001C68.0001 56.7365 68.5971 57.3335 69.3334 57.3335H73.3334C74.0698 57.3335 74.6668 56.7365 74.6668 56.0001C74.6668 55.2637 74.0698 54.6667 73.3334 54.6667Z" fill="#2C2B3F"/>
<path d="M73.3334 60H69.3334C68.5971 60 68.0001 60.597 68.0001 61.3333C68.0001 62.0697 68.5971 62.6667 69.3334 62.6667H73.3334C74.0698 62.6667 74.6668 62.0697 74.6668 61.3333C74.6668 60.597 74.0698 60 73.3334 60Z" fill="#2C2B3F"/>
<path d="M73.3334 65.3335H69.3334C68.5971 65.3335 68.0001 65.9305 68.0001 66.6668C68.0001 67.4032 68.5971 68.0002 69.3334 68.0002H73.3334C74.0698 68.0002 74.6668 67.4032 74.6668 66.6668C74.6668 65.9305 74.0698 65.3335 73.3334 65.3335Z" fill="#2C2B3F"/>
<path d="M73.3334 70.6667H69.3334C68.5971 70.6667 68.0001 71.2637 68.0001 72.0001C68.0001 72.7365 68.5971 73.3335 69.3334 73.3335H73.3334C74.0698 73.3335 74.6668 72.7365 74.6668 72.0001C74.6668 71.2637 74.0698 70.6667 73.3334 70.6667Z" fill="#2C2B3F"/>
<path d="M8.43351 1.68408C4.92284 4.90008 11.0908 14.8201 14.7255 20.0001H14.0002C12.7616 19.9956 11.5725 20.4862 10.6975 21.3628C9.82544 22.2415 9.33529 23.4288 9.33351 24.6668C9.33924 26.3282 10.2307 27.8605 11.6722 28.6868C10.1158 30.3329 8.64967 32.0621 7.28017 33.8668C6.83835 34.4559 6.95774 35.2916 7.54684 35.7334C8.13594 36.1753 8.97168 36.0559 9.41351 35.4668C11.0604 33.3121 12.8418 31.2636 14.7468 29.3334H42.0002C43.6674 29.3334 45.208 28.444 46.0416 27.0001C46.8752 25.5562 46.8752 23.7773 46.0416 22.3334C45.208 20.8896 43.6674 20.0001 42.0002 20.0001H41.2748C44.9082 14.8201 51.0762 4.90142 47.5682 1.68408C45.9548 0.206747 44.0748 1.28408 42.4175 2.22675C40.9104 3.25888 39.1556 3.87097 37.3335 4.00008C35.8871 3.99703 34.5082 3.38762 33.5322 2.32008C32.0731 0.836671 30.0795 0.0012207 27.9988 0.0012207C25.9181 0.0012207 23.9246 0.836671 22.4655 2.32008C21.4879 3.38933 20.1063 3.99889 18.6575 4.00008C16.8364 3.87231 15.0825 3.26007 13.5775 2.22675C11.9215 1.28141 10.0428 0.208081 8.43351 1.68408V1.68408ZM43.4175 23.2508C43.9912 23.823 44.1629 24.6848 43.8524 25.4332C43.5419 26.1816 42.8104 26.6688 42.0002 26.6668H14.0002C12.8956 26.6668 12.0002 25.7713 12.0002 24.6668C12.0002 23.5622 12.8956 22.6668 14.0002 22.6668H42.0002C42.5311 22.6669 43.0405 22.8768 43.4175 23.2508ZM18.6575 6.66675C20.739 6.66646 22.7332 5.83007 24.1922 4.34542C25.166 3.27567 26.5456 2.66592 27.9922 2.66592C29.4388 2.66592 30.8184 3.27567 31.7922 4.34542C33.2531 5.83121 35.2498 6.66764 37.3335 6.66675C39.6228 6.54647 41.8376 5.81236 43.7455 4.54142C44.3542 4.11175 45.0429 3.80844 45.7708 3.64942C47.1388 4.90275 43.5228 12.4614 37.9948 20.0001H34.6668V13.3334C34.6668 12.597 34.0699 12.0001 33.3335 12.0001C32.5971 12.0001 32.0002 12.597 32.0002 13.3334V20.0001H24.0002V13.3334C24.0002 12.597 23.4032 12.0001 22.6668 12.0001C21.9305 12.0001 21.3335 12.597 21.3335 13.3334V20.0001H18.0108C12.4828 12.4614 8.86684 4.90275 10.2535 3.62942C10.9663 3.81981 11.6423 4.12806 12.2535 4.54142C14.1585 5.81219 16.3707 6.54635 18.6575 6.66675Z" fill="#2C2B3F"/>
<path d="M3.49996 40L5.5 36.5L6.5 35L7.15173 34.0224C7.37996 33.6801 7.69356 33.4032 8.06155 33.2192L9.54635 32.4767C10.0497 32.225 10.6592 32.4775 10.8371 33.0113V33.0113C10.9384 33.3151 10.8753 33.6497 10.6703 33.8957L8.5 36.5L7.9328 37.4071L5.49642 42.0533C5.20495 42.6092 4.57158 42.8941 3.96231 42.7434V42.7434C3.10155 42.5306 2.67002 41.5655 3.08534 40.7821L3.49996 40Z" fill="#2C2B3F"/>
</g>
<defs>
<clipPath id="clip0_1013_189">
<rect width="80" height="80" fill="white"/>
</clipPath>
</defs>
</svg>
