<svg width="72" height="82" viewBox="0 0 72 82" fill="none" xmlns="http://www.w3.org/2000/svg">
<path d="M63.3134 14.5146C60.8372 14.2014 58.4172 13.6521 56.1216 12.8825C55.5076 12.6768 54.8435 13.0076 54.6378 13.621C54.4322 14.235 53.943 13.3656 55.3764 15.1048C57.6215 16.0756 60.3898 16.5074 63.0198 16.84C66.9639 17.3393 69.7789 20.9794 69.2943 24.954C68.6589 30.1664 67.4955 37.9466 65.5619 45.41C63.4556 53.5393 60.9837 59.1954 58.2145 62.2216C52.5279 68.4356 45.3983 73.9434 40.4191 77.4694C37.8025 79.3224 34.2869 79.3224 31.6709 77.4694C26.6916 73.9434 19.5621 68.4356 13.8754 62.2216C11.1063 59.1954 8.63373 53.5393 6.52801 45.41C4.59441 37.9466 3.43108 30.1664 2.79509 24.954C2.31108 20.9794 5.12542 17.3393 9.07013 16.84C20.4404 15.402 27.9764 9.6891 32.2965 5.14991C33.281 4.11597 34.6122 3.5459 36.0447 3.5459C37.4772 3.5459 38.8083 4.11597 39.7935 5.14991C42.9056 8.42018 51.3938 13.1156 55.3764 15.1048C56.1216 13.9833 54.3485 14.2002 54.6378 13.621C54.9265 13.0418 56.7002 13.1712 56.1216 12.8825C52.3826 11.0148 44.4157 6.60682 41.4908 3.53431C40.0596 2.0304 38.1254 1.20215 36.0447 1.20215C33.964 1.20215 32.0298 2.0304 30.5985 3.53431C26.5409 7.79762 19.4614 13.1632 8.77594 14.5146C3.55498 15.175 -0.171833 19.9858 0.468427 25.2378C1.55974 34.1893 4.8825 55.8666 12.1463 63.8042C17.9727 70.1708 25.2433 75.7897 30.3159 79.3822C32.0292 80.5956 34.0366 81.2023 36.0447 81.2023C38.0521 81.2017 40.0602 80.5956 41.7734 79.3822C46.8461 75.7897 54.1166 70.1708 59.943 63.8042C67.2075 55.8666 70.5296 34.1893 71.6209 25.2378C72.2612 19.9858 68.5344 15.175 63.3134 14.5146Z" fill="#2C2B3F"/>
<path d="M56.1216 12.8825C58.4172 13.6521 60.8372 14.2014 63.3134 14.5146C68.5344 15.175 72.2612 19.9858 71.6209 25.2378C70.5296 34.1893 67.2075 55.8666 59.943 63.8042C54.1166 70.1708 46.8461 75.7897 41.7734 79.3822C40.0602 80.5956 38.0521 81.2017 36.0447 81.2023C34.0366 81.2023 32.0292 80.5956 30.3159 79.3822C25.2433 75.7897 17.9727 70.1708 12.1463 63.8042C4.8825 55.8666 1.55974 34.1893 0.468427 25.2378C-0.171833 19.9858 3.55498 15.175 8.77594 14.5146C19.4614 13.1632 26.5409 7.79762 30.5985 3.53431C32.0298 2.0304 33.964 1.20215 36.0447 1.20215C38.1254 1.20215 40.0596 2.0304 41.4908 3.53431C44.4157 6.60682 52.3826 11.0148 56.1216 12.8825ZM56.1216 12.8825C55.5076 12.6768 54.8435 13.0076 54.6378 13.621M56.1216 12.8825C56.7002 13.1712 54.9265 13.0418 54.6378 13.621M54.6378 13.621C54.4322 14.235 53.943 13.3656 55.3764 15.1048M54.6378 13.621C54.3485 14.2002 56.1216 13.9833 55.3764 15.1048M55.3764 15.1048C57.6215 16.0756 60.3898 16.5074 63.0198 16.84C66.9639 17.3393 69.7789 20.9794 69.2943 24.954C68.6589 30.1664 67.4955 37.9466 65.5619 45.41C63.4556 53.5393 60.9837 59.1954 58.2145 62.2216C52.5279 68.4356 45.3983 73.9434 40.4191 77.4694C37.8025 79.3224 34.2869 79.3224 31.6709 77.4694C26.6916 73.9434 19.5621 68.4356 13.8754 62.2216C11.1063 59.1954 8.63373 53.5393 6.52801 45.41C4.59441 37.9466 3.43108 30.1664 2.79509 24.954C2.31108 20.9794 5.12542 17.3393 9.07013 16.84C20.4404 15.402 27.9764 9.6891 32.2965 5.14991C33.281 4.11597 34.6122 3.5459 36.0447 3.5459C37.4772 3.5459 38.8083 4.11597 39.7935 5.14991C42.9056 8.42018 51.3938 13.1156 55.3764 15.1048Z" stroke="#2C2B3F" stroke-width="0.6"/>
<path d="M33.3937 12.2146C27.4653 17.3446 20.5445 20.7021 12.8242 22.1938C10.4719 22.6486 8.88374 24.8727 9.20845 27.2579C9.75472 31.2686 10.8717 38.7692 12.2114 43.9401C14.6534 53.3676 17.0149 56.9571 18.2051 58.2571C22.1174 62.5321 29.377 68.2443 33.3558 71.2686C34.1456 71.8686 35.0917 72.1683 36.0377 72.1683C36.9838 72.1683 37.9298 71.8686 38.7196 71.2686C42.6985 68.2443 49.958 62.5321 53.8704 58.2571C55.0606 56.9571 57.4221 53.3676 59.8641 43.9401C61.2044 38.768 62.3207 31.268 62.8676 27.2579C63.1923 24.8727 61.6036 22.6486 59.2513 22.1938C51.5309 20.7021 44.6101 17.3446 38.6818 12.2146C37.1742 10.9102 34.9013 10.9102 33.3937 12.2146ZM60.5452 26.9412C60.0057 30.9005 58.9052 38.2968 57.5954 43.3523C55.1265 52.8824 52.7968 55.9586 52.1419 56.6751C48.2118 60.9689 40.4542 67.0059 37.3012 69.4022C36.5571 69.968 35.5183 69.968 34.7743 69.4022C31.6212 67.0059 23.8636 60.9683 19.9342 56.6751C19.2787 55.9586 16.9489 52.8824 14.4801 43.3523C13.1709 38.298 12.0704 30.9011 11.5308 26.9412C11.3734 25.7882 12.1369 24.714 13.2685 24.4949C21.3978 22.9244 28.6848 19.3893 34.9275 13.987C35.2437 13.713 35.641 13.5757 36.0377 13.5757C36.4345 13.5757 36.8318 13.713 37.148 13.987C43.3907 19.3893 50.6777 22.9244 58.8069 24.4949C59.9385 24.714 60.7021 25.7882 60.5452 26.9412Z" fill="#2C2B3F" stroke="#2C2B3F" stroke-width="0.6"/>
<path d="M29.5342 37.7739C28.6529 37.0561 25.678 35.5742 23.5479 38.3885C21.4184 41.2022 23.2812 43.657 24.1625 44.3748L31.4007 50.2641C31.9024 50.6724 30.8227 49.1178 31.231 48.6155C31.6393 48.1132 33.3819 48.8554 32.8802 48.4464L25.642 42.5566C25.2465 42.2343 24.3823 41.1851 25.3661 39.8674C26.35 38.5503 27.6592 39.2692 28.0547 39.5915L35.0915 45.3172C35.5559 45.695 36.2304 45.662 36.6558 45.2403L46.953 35.0395C47.7019 34.2974 48.914 34.3035 49.6562 35.0524C50.3978 35.8006 50.3917 37.0134 49.6434 37.755L37.3784 49.9058C36.4074 50.8421 35.338 50.452 34.8272 50.0303L32.8802 48.4464C32.3778 48.0381 31.6399 48.1138 31.231 48.6155C30.8227 49.1172 30.8984 49.8557 31.4007 50.2641L33.3477 51.8485C34.1039 52.4638 35.0573 52.8031 36.0326 52.8031C37.1624 52.8031 38.2262 52.3655 39.0282 51.5708L51.2926 39.4206C52.9594 37.769 52.9723 35.0694 51.3207 33.4026C49.6697 31.7363 46.9701 31.7235 45.3032 33.3745L35.7537 42.8349L29.5342 37.7739Z" fill="#2C2B3F"/>
<path d="M31.4007 50.2641L24.1625 44.3748C23.2812 43.657 21.4184 41.2022 23.5479 38.3885C25.678 35.5742 28.6529 37.0561 29.5342 37.7739L35.7537 42.8349L45.3032 33.3745C46.9701 31.7235 49.6697 31.7363 51.3207 33.4026C52.9723 35.0694 52.9594 37.769 51.2926 39.4206L39.0282 51.5708C38.2262 52.3655 37.1624 52.8031 36.0326 52.8031C35.0573 52.8031 34.1039 52.4638 33.3477 51.8485L31.4007 50.2641ZM31.4007 50.2641C31.9024 50.6724 30.8227 49.1178 31.231 48.6155M31.4007 50.2641C30.8984 49.8557 30.8227 49.1172 31.231 48.6155M31.231 48.6155C31.6393 48.1132 33.3819 48.8554 32.8802 48.4464M31.231 48.6155C31.6399 48.1138 32.3778 48.0381 32.8802 48.4464M32.8802 48.4464L25.642 42.5566C25.2465 42.2343 24.3823 41.1851 25.3661 39.8674C26.35 38.5503 27.6592 39.2692 28.0547 39.5915L35.0915 45.3172C35.5559 45.695 36.2304 45.662 36.6558 45.2403L46.953 35.0395C47.7019 34.2974 48.914 34.3035 49.6562 35.0524C50.3978 35.8006 50.3917 37.0134 49.6434 37.755L37.3784 49.9058C36.4074 50.8421 35.338 50.452 34.8272 50.0303L32.8802 48.4464Z" stroke="#2C2B3F" stroke-width="0.6"/>
</svg>
