<svg width="80" height="80" viewBox="0 0 80 80" fill="none" xmlns="http://www.w3.org/2000/svg">
<g clip-path="url(#clip0_1013_101)">
<rect y="77" width="80" height="3" rx="1.5" fill="#2C2B3F"/>
<mask id="path-2-inside-1_1013_101" fill="white">
<rect x="18" y="7" width="43" height="73" rx="1.5"/>
</mask>
<rect x="18" y="7" width="43" height="73" rx="1.5" stroke="#2C2B3F" stroke-width="6" mask="url(#path-2-inside-1_1013_101)"/>
<rect x="50" y="42" width="6" height="3" rx="1.5" fill="#2C2B3F"/>
<path d="M17 1.5H63C64.933 1.5 66.5 3.067 66.5 5V78.5389C66.5 80.4596 64.9522 82.0215 63.0316 82.0388L17.0316 82.4545C15.0863 82.4721 13.5 80.9 13.5 78.9546V5C13.5 3.067 15.067 1.5 17 1.5Z" stroke="#2C2B3F" stroke-width="3"/>
<path d="M46.9609 39.7137C46.6904 39.7137 46.4317 39.7646 46.1932 39.8564C45.9293 38.9715 45.1086 38.3243 44.1391 38.3243C43.8602 38.3243 43.5939 38.3784 43.3494 38.4757C43.0643 37.6265 42.2614 37.0126 41.3173 37.0126C41.0802 37.0126 40.8522 37.0519 40.6389 37.1233V34.8542C40.6389 33.6725 39.6774 32.7109 38.4955 32.7109C37.3137 32.7109 36.3522 33.6724 36.3522 34.8542V44.1249L35.5151 42.8823L35.4957 42.8582C34.6753 41.8384 33.2321 41.6118 32.1387 42.3311C31.567 42.7072 31.1796 43.2842 31.048 43.9558C30.9174 44.6226 31.0554 45.2982 31.4366 45.86L35.1674 51.7407L35.1821 51.763C36.1442 53.1638 37.733 54.0001 39.4324 54.0001H43.6195C46.6438 54.0001 49.1042 51.5396 49.1042 48.5153V41.857C49.1042 40.6751 48.1427 39.7137 46.9609 39.7137ZM47.6393 48.5153C47.6393 50.7319 45.836 52.5352 43.6195 52.5352H39.4324C38.2201 52.5352 37.0863 51.9407 36.3969 50.9442L32.667 45.065L32.6523 45.0427C32.4895 44.8057 32.4304 44.5197 32.4856 44.2376C32.541 43.9554 32.7037 43.7129 32.9439 43.5549C33.3958 43.2576 33.9898 43.3449 34.3372 43.7555L37.8172 48.9213V34.8543C37.8172 34.4802 38.1216 34.1758 38.4957 34.1758C38.8698 34.1758 39.1742 34.4802 39.1742 34.8543V42.1734H40.639V39.1559C40.639 38.7818 40.9433 38.4774 41.3175 38.4774C41.6916 38.4774 41.9959 38.7818 41.9959 39.1559V42.1734H43.4608V40.4676C43.4608 40.0935 43.7651 39.7891 44.1392 39.7891C44.5134 39.7891 44.8177 40.0935 44.8177 40.4676V42.1734H46.2826V41.9148V41.857C46.2826 41.4829 46.5869 41.1785 46.961 41.1785C47.3351 41.1785 47.6395 41.4828 47.6395 41.857V48.5153H47.6393Z" fill="#2C2B3F"/>
<path d="M39.187 29H37.7222V31.0264H39.187V29Z" fill="#2C2B3F"/>
<path d="M41.4917 29.8651L40.1267 31.3628L41.2094 32.3495L42.5743 30.8518L41.4917 29.8651Z" fill="#2C2B3F"/>
<path d="M43.6947 33.0419L41.677 33.2295L41.8126 34.688L43.8303 34.5004L43.6947 33.0419Z" fill="#2C2B3F"/>
<path d="M35.3727 29.8644L34.29 30.8511L35.655 32.3488L36.7377 31.362L35.3727 29.8644Z" fill="#2C2B3F"/>
<path d="M33.1698 33.0424L33.0342 34.501L35.0518 34.6886L35.1875 33.2301L33.1698 33.0424Z" fill="#2C2B3F"/>
</g>
<defs>
<clipPath id="clip0_1013_101">
<rect width="80" height="80" fill="white"/>
</clipPath>
</defs>
</svg>
