<svg width="31" height="31" viewBox="0 0 31 31" fill="none" xmlns="http://www.w3.org/2000/svg">
<path d="M30.424 17.7228L28.509 14.8503V12.4698C28.9112 12.5222 29.3193 12.4351 29.6651 12.223C30.0109 12.0109 30.2736 11.6866 30.4094 11.3042C30.5452 10.9218 30.5458 10.5043 30.4113 10.1215C30.2767 9.73864 30.0151 9.41351 29.6699 9.20029L25.5105 6.6188V2.00031C25.5105 1.8677 25.4579 1.74052 25.3642 1.64676C25.2704 1.55299 25.1433 1.50031 25.0108 1.50031H22.0123C21.8797 1.50031 21.7526 1.55299 21.6589 1.64676C21.5652 1.74052 21.5125 1.8677 21.5125 2.00031V4.1358L15.7789 0.575311C15.6998 0.526243 15.6086 0.500244 15.5156 0.500244C15.4225 0.500244 15.3313 0.526243 15.2522 0.575311L1.3612 9.20029C1.01376 9.41234 0.749837 9.73755 0.613751 10.1213C0.477665 10.5051 0.477709 10.924 0.613876 11.3077C0.750042 11.6914 1.01404 12.0166 1.36152 12.2285C1.709 12.4405 2.11881 12.5264 2.52212 12.4718V27.5003H1.02287C0.890332 27.5003 0.763219 27.5529 0.669498 27.6467C0.575777 27.7405 0.523125 27.8676 0.523125 28.0002C0.523125 28.1329 0.575777 28.26 0.669498 28.3538C0.763219 28.4476 0.890332 28.5002 1.02287 28.5002H15.5156V30.0002C15.5156 30.1329 15.5682 30.26 15.6619 30.3538C15.7557 30.4476 15.8828 30.5002 16.0153 30.5002H30.0083C30.1408 30.5002 30.2679 30.4476 30.3616 30.3538C30.4554 30.26 30.508 30.1329 30.508 30.0002V18.0003C30.4953 17.9038 30.467 17.8101 30.424 17.7228ZM23.9208 17.5003H22.1027L22.4356 15.5003H23.588L23.9208 17.5003ZM21.0893 17.5003H16.9488L18.2817 15.5003H21.4226L21.0893 17.5003ZM22.0123 18.5003H24.0113V22.0658L23.2891 21.5843C23.207 21.5294 23.1105 21.5002 23.0118 21.5002C22.9131 21.5002 22.8165 21.5294 22.7344 21.5843L22.0123 22.0658V18.5003ZM24.9343 17.5003L24.601 15.5003H27.7419L29.0747 17.5003H24.9343ZM22.512 2.50031H24.511V6.0003L22.512 4.7588V2.50031ZM1.92242 11.3858C1.80421 11.3205 1.70512 11.2255 1.63501 11.11C1.5649 10.9946 1.5262 10.8628 1.52277 10.7278C1.51933 10.5928 1.55127 10.4592 1.61542 10.3403C1.67957 10.2215 1.7737 10.1215 1.88844 10.0503L15.5156 1.58881L29.1427 10.0503C29.316 10.1591 29.4393 10.3322 29.4854 10.5317C29.5315 10.7312 29.4968 10.9409 29.3889 11.1148C29.281 11.2888 29.1085 11.4129 28.9094 11.46C28.7102 11.5071 28.5005 11.4734 28.3261 11.3663L15.7789 3.5753C15.6998 3.52624 15.6086 3.50024 15.5156 3.50024C15.4225 3.50024 15.3313 3.52624 15.2522 3.5753L2.70502 11.3673C2.58839 11.4407 2.45405 11.4812 2.31627 11.4845C2.17849 11.4878 2.04239 11.4537 1.92242 11.3858ZM6.5201 27.5003V16.5003H12.5171V27.5003H6.5201ZM13.5166 27.5003V16.0003C13.5166 15.8677 13.4639 15.7405 13.3702 15.6467C13.2765 15.553 13.1494 15.5003 13.0168 15.5003H6.02035C5.88781 15.5003 5.7607 15.553 5.66698 15.6467C5.57326 15.7405 5.52061 15.8677 5.52061 16.0003V27.5003H3.52161V12.0368L15.5156 4.5868L27.5095 12.0368V14.5003H18.0143C17.9321 14.5003 17.8511 14.5206 17.7785 14.5594C17.706 14.5982 17.6442 14.6543 17.5985 14.7228L15.5995 17.7228C15.5566 17.8101 15.5283 17.9038 15.5156 18.0003V27.5003H13.5166ZM29.5085 29.5002H16.5151V18.5003H21.0128V23.0003C21.0128 23.0908 21.0373 23.1796 21.0838 23.2573C21.1303 23.3349 21.197 23.3985 21.2768 23.4412C21.3566 23.4839 21.4464 23.5041 21.5368 23.4997C21.6272 23.4954 21.7146 23.4665 21.7899 23.4163L23.0118 22.6003L24.2337 23.4153C24.3089 23.4655 24.3963 23.4943 24.4865 23.4987C24.5768 23.5032 24.6666 23.483 24.7464 23.4404C24.8261 23.3979 24.8928 23.3344 24.9394 23.2569C24.9859 23.1794 25.0106 23.0907 25.0108 23.0003V18.5003H29.5085V29.5002Z" fill="#2C2B3F"/>
<path d="M11.5307 21.5061H11.031C10.8985 21.5061 10.7713 21.5588 10.6776 21.6525C10.5839 21.7463 10.5312 21.8735 10.5312 22.0061C10.5312 22.1387 10.5839 22.2659 10.6776 22.3597C10.7713 22.4534 10.8985 22.5061 11.031 22.5061H11.5307C11.6633 22.5061 11.7904 22.4534 11.8841 22.3597C11.9778 22.2659 12.0305 22.1387 12.0305 22.0061C12.0305 21.8735 11.9778 21.7463 11.8841 21.6525C11.7904 21.5588 11.6633 21.5061 11.5307 21.5061Z" fill="#2C2B3F"/>
<path d="M18.5204 10.0041C18.5204 9.4108 18.3446 8.83078 18.0151 8.33744C17.6856 7.84409 17.2173 7.45958 16.6694 7.23251C16.1215 7.00545 15.5186 6.94604 14.937 7.0618C14.3553 7.17755 13.821 7.46327 13.4017 7.88283C12.9823 8.30239 12.6968 8.83693 12.5811 9.41888C12.4654 10.0008 12.5247 10.604 12.7517 11.1522C12.9786 11.7004 13.363 12.1689 13.8561 12.4985C14.3492 12.8282 14.9289 13.0041 15.5219 13.0041C16.3169 13.0033 17.0791 12.687 17.6413 12.1246C18.2035 11.5621 18.5196 10.7995 18.5204 10.0041ZM16.0217 11.9331V10.5041H17.45C17.3602 10.8478 17.1805 11.1613 16.9295 11.4124C16.6785 11.6636 16.3651 11.8433 16.0217 11.9331ZM17.45 9.50415H16.0217V8.07515C16.3651 8.165 16.6785 8.34473 16.9295 8.59588C17.1805 8.84703 17.3602 9.16052 17.45 9.50415ZM15.0222 8.07515V9.50415H13.5939C13.6837 9.16052 13.8633 8.84703 14.1144 8.59588C14.3654 8.34473 14.6787 8.165 15.0222 8.07515ZM13.5939 10.5041H15.0222V11.9331C14.6787 11.8433 14.3654 11.6636 14.1144 11.4124C13.8633 11.1613 13.6837 10.8478 13.5939 10.5041Z" fill="#2C2B3F"/>
</svg>
