<svg width="21" height="21" viewBox="0 0 21 21" fill="none" xmlns="http://www.w3.org/2000/svg">
<path d="M17.8191 10.4411C17.818 11.4713 16.9726 12.3148 15.9191 12.3148C14.865 12.3148 14.0191 11.4702 14.0191 10.4391C14.0191 10.3331 14.0281 10.2291 14.0453 10.1277C14.0483 10.1101 14.0515 10.0925 14.055 10.075L14.0459 10.1279C14.0283 10.23 14.0191 10.3354 14.0191 10.4432C14.0191 10.5487 14.028 10.6519 14.0448 10.7521L14.1429 11.3351L17.8191 10.4411ZM17.8191 10.4411C17.819 10.334 17.8098 10.2294 17.7924 10.1279L17.7833 10.0749L17.8191 10.4411ZM10.7644 18.1462C10.723 19.1414 9.89357 19.9434 8.86602 19.9434C7.84096 19.9434 7.01305 19.1453 6.96794 18.1534C6.96666 18.1252 6.96602 18.0967 6.96602 18.0681C6.96602 18.0409 6.9666 18.0138 6.96776 17.9869C7.01077 16.9929 7.8398 16.192 8.86602 16.192C9.89083 16.192 10.719 16.9907 10.7641 17.9828C10.7654 18.0111 10.766 18.0395 10.766 18.0681C10.766 18.0943 10.7655 18.1203 10.7644 18.1462Z" stroke="#2C2B3F"/>
</svg>
