<svg width="19" height="19" viewBox="0 0 19 19" fill="none" xmlns="http://www.w3.org/2000/svg">
<g clip-path="url(#clip0)">
<path d="M9.25003 0.472656C4.90805 0.472656 1.38867 3.99203 1.38867 8.33402C1.38867 11.3044 3.03516 13.886 5.464 15.2237L5.37155 18.4727L9.08086 16.1866C9.13683 16.1878 9.1928 16.1954 9.25003 16.1954C13.592 16.1954 17.1114 12.676 17.1114 8.33402C17.1114 3.99203 13.592 0.472656 9.25003 0.472656ZM10.2513 12.915H8.23686V6.43094H10.2513V12.915ZM9.23054 5.63663C8.59345 5.63663 8.16957 5.18507 8.1834 4.62786C8.1702 4.04486 8.59345 3.60651 9.24374 3.60651C9.89341 3.60651 10.306 4.04486 10.3192 4.62786C10.3185 5.18507 9.89215 5.63663 9.23054 5.63663Z" fill="#2C2B3F"/>
</g>
<defs>
<clipPath id="clip0">
<rect width="18" height="18" fill="white" transform="translate(0.25 0.472656)"/>
</clipPath>
</defs>
</svg>
