<svg xmlns="http://www.w3.org/2000/svg" viewBox="0 0 425.68 250"><defs><style>.cls-1{fill:#040405;}.cls-2{fill:#fad139;}.cls-3{fill:#383023;}.cls-4{fill:none;stroke:#383023;stroke-linecap:round;stroke-miterlimit:10;stroke-width:2px;}.cls-5{fill:#1d1e1c;}</style></defs><title>Ресурс 2</title><g id="Слой_2" data-name="Слой 2"><g id="Слой_1-2" data-name="Слой 1"><path class="cls-1" d="M223.7,217V204.46a7.24,7.24,0,0,0,3.14-1.05,7,7,0,0,0,2.08-3.22,29.66,29.66,0,0,0,1.48-6.9l2-18h25v28.56h3.16V217h-7.48v-6.48H231.19V217Zm14.13-23.14q-.75,6.81-4.27,10.07h16.33v-22H239.2Z"/><path class="cls-1" d="M284,210.47H265V175.32h18.5c3.2,0,5.68.87,7.46,2.61a8.56,8.56,0,0,1,2.66,6.35,8.29,8.29,0,0,1-1.74,5.37,7.3,7.3,0,0,1-4.32,2.69,7.35,7.35,0,0,1,4.79,2.9,9,9,0,0,1,1.95,5.74,9.19,9.19,0,0,1-2.69,6.8Q288.89,210.46,284,210.47Zm-2.21-21.08a4.15,4.15,0,0,0,3-1.06,3.59,3.59,0,0,0,1.11-2.74,3.63,3.63,0,0,0-1.14-2.76,4.11,4.11,0,0,0-3-1.08h-9.38v7.64Zm.26,14.59a4.78,4.78,0,0,0,3.32-1.08,3.75,3.75,0,0,0,1.21-3,3.93,3.93,0,0,0-1.21-2.93,4.55,4.55,0,0,0-3.32-1.18h-9.64V204Z"/><path class="cls-1" d="M324.77,210.47H299.9V175.32h24.87v6.59H307.38v7.43h17v6.58h-17v8h17.39Z"/><path class="cls-1" d="M338.11,210.47h-7.49V175.32h16.44q5.54,0,8.67,3.24a11.93,11.93,0,0,1,0,16.15,11.47,11.47,0,0,1-8.65,3.27h-8.95Zm7.95-19.08a5.4,5.4,0,0,0,3.72-1.29,4.83,4.83,0,0,0,0-6.9,5.4,5.4,0,0,0-3.72-1.29h-7.95v9.48Z"/><path class="cls-1" d="M388.38,210.47H363.5V175.32h24.88v6.59H371v7.43h17v6.58H371v8h17.39Z"/><path class="cls-1" d="M401.44,210.47h-7.22V175.32h7.49V198L418,175.32h7.69v35.15H418.2V186.91Zm17.76-41.42a10.87,10.87,0,0,1-9.22,4.63,11.09,11.09,0,0,1-9.27-4.63l3-2.48a7.69,7.69,0,0,0,12.59,0Z"/><path class="cls-2" d="M254.16,157.35h-7.74v-51.9l-10,10.53-4.66-4.75,15.56-16h6.81Z"/><path class="cls-2" d="M289.93,158.47a20.59,20.59,0,0,1-10.85-2.84,21.14,21.14,0,0,1-7.46-7.6,38.76,38.76,0,0,1-4.09-10.25,49,49,0,0,1,0-22.92,38.29,38.29,0,0,1,4.09-10.2,21.32,21.32,0,0,1,7.46-7.55,22.07,22.07,0,0,1,21.66,0,21.11,21.11,0,0,1,7.5,7.55,38.31,38.31,0,0,1,4.1,10.2,49.32,49.32,0,0,1,0,22.92,38.78,38.78,0,0,1-4.1,10.25,20.93,20.93,0,0,1-7.5,7.6A20.69,20.69,0,0,1,289.93,158.47Zm-9.31-10.76a13.17,13.17,0,0,0,18.63,0,20.57,20.57,0,0,0,5.13-9.27,53.49,53.49,0,0,0,0-24.23,20.24,20.24,0,0,0-5.13-9.22,13.27,13.27,0,0,0-18.63,0,20.15,20.15,0,0,0-5.13,9.22,53.12,53.12,0,0,0,0,24.23A20.48,20.48,0,0,0,280.62,147.71Z"/><path class="cls-2" d="M347,158.47a20.65,20.65,0,0,1-10.86-2.84,21,21,0,0,1-7.45-7.6,38.78,38.78,0,0,1-4.1-10.25,49.32,49.32,0,0,1,0-22.92,38.31,38.31,0,0,1,4.1-10.2,21.21,21.21,0,0,1,7.45-7.55,22.07,22.07,0,0,1,21.66,0,21.22,21.22,0,0,1,7.51,7.55,38.29,38.29,0,0,1,4.09,10.2,49,49,0,0,1,0,22.92A38.76,38.76,0,0,1,365.27,148a21,21,0,0,1-7.51,7.6A20.66,20.66,0,0,1,347,158.47Zm-9.32-10.76a13.17,13.17,0,0,0,18.63,0,20.48,20.48,0,0,0,5.13-9.27,53.12,53.12,0,0,0,0-24.23,20.15,20.15,0,0,0-5.13-9.22,13.27,13.27,0,0,0-18.63,0,20.24,20.24,0,0,0-5.13,9.22,53.49,53.49,0,0,0,0,24.23A20.57,20.57,0,0,0,337.64,147.71Z"/><path class="cls-3" d="M163.19,23.82,121.65,1.43a.59.59,0,0,0-.88.52V23.3a.6.6,0,0,1-.6.6H83.42v.23h-.23V225.84a.59.59,0,0,0,.6.59H97a.58.58,0,0,0,.59-.59v-187a.6.6,0,0,1,.6-.6h22a.59.59,0,0,1,.59.6l-.2,209.43a.6.6,0,0,0,.79.57l67.44-22.77a.6.6,0,0,0,.41-.57V190.07a.59.59,0,0,1,.59-.6h0a.6.6,0,0,1,.6.6v35.54a.59.59,0,0,0,.6.59h13.19a.59.59,0,0,0,.6-.59V23.9H163.47A.54.54,0,0,1,163.19,23.82Zm27.18,15.06V72.33a.6.6,0,0,1-.6.6h0a.59.59,0,0,1-.59-.6V38.88a.59.59,0,0,1,.59-.6h0A.6.6,0,0,1,190.37,38.88Zm-1.19,133.75V90.46a.58.58,0,0,1,.59-.59h0a.59.59,0,0,1,.6.59v82.17a.6.6,0,0,1-.6.6h0A.59.59,0,0,1,189.18,172.63Z"/><line class="cls-4" x1="95.64" y1="225.5" x2="1" y2="225.5"/><line class="cls-4" x1="286.38" y1="225.8" x2="191.74" y2="225.8"/><path class="cls-2" d="M120.74,250V0l69,37V227Z"/><path class="cls-5" d="M151.51,137.34c-.07-.83-.61-1-1.08-1.35h0a10.39,10.39,0,0,0-1.18-.93,28.09,28.09,0,0,0-2.52-1.25,12.13,12.13,0,0,0-4-.81l-1.44,0h-.16l-2.3.41c-.19,0-.31-.13-.43-.26a1.88,1.88,0,0,0-2.66-.08,3.66,3.66,0,0,0-1.28,3.32,2.44,2.44,0,0,0,1.81,2.18,2.56,2.56,0,0,0,2.6-1.84.73.73,0,0,1,.55-.55,11.44,11.44,0,0,1,6.2.4,12,12,0,0,1,2.88,1.5,3.13,3.13,0,0,1,.69.62,3.55,3.55,0,0,1,.31.23,1,1,0,0,0,1.35.14A1.75,1.75,0,0,0,151.51,137.34Z"/></g></g></svg>