<svg width="322" height="77" viewBox="0 0 322 77" fill="none" xmlns="http://www.w3.org/2000/svg">
<path d="M25.7755 50.4694C30.4472 50.4694 34.3519 47.262 37.629 43.5665C38.0474 43.0784 38.2566 42.5206 38.2566 42.0325C38.2566 41.3353 37.8382 40.7077 37.0712 40.3591C35.3281 42.1023 32.3298 43.8454 29.7499 43.8454C27.9371 43.8454 26.8214 42.5904 27.6582 38.6857L32.539 15.6062C31.7023 15.0484 30.5169 14.6998 29.2619 14.6998C26.7517 14.6998 24.381 15.8851 23.6837 19.0925L21.5222 29.1332C18.8726 29.4121 16.0138 29.6212 12.8761 29.691L15.3166 18.5347C15.9441 15.8851 14.4799 14.6998 11.9697 14.6998C9.04119 14.6998 6.53104 16.164 4.16034 18.0466C2.76582 19.1623 3.2539 21.3238 4.16034 21.8816C4.78788 21.3238 5.20624 21.0449 5.55487 21.0449C6.18241 21.0449 6.53104 21.6724 6.25214 22.788L0.464844 49.563C1.30156 50.1208 2.48691 50.4694 3.74199 50.4694C6.25214 50.4694 8.69256 49.2841 9.38983 46.0767L11.9 34.4324C14.9679 34.2929 18.1056 33.5956 20.7552 32.7589L19.3607 39.5224C17.4781 48.5171 22.2892 50.4694 25.7755 50.4694Z" fill="url(#paint0_linear_846_205)"/>
<path d="M55.6413 19.7201C57.3148 19.7201 58.779 19.999 60.1038 20.4871C61.1497 20.9054 62.3351 20.1384 62.4745 18.5347C60.3827 15.397 57.5937 14.4209 54.1073 14.4209C43.5787 14.4209 36.2574 27.5992 36.2574 38.1279C36.2574 44.6821 39.3253 50.4694 46.5072 50.4694C53.8982 50.4694 62.1259 42.172 64.2177 32.9681C65.6122 33.247 67.0067 33.3167 68.4013 33.3167C68.2618 34.6415 68.1921 35.8966 68.1224 37.082C67.5645 46.8437 71.0509 50.4694 76.0712 50.4694C84.8567 50.4694 94.5487 41.1958 95.3854 30.6671C95.3854 30.1093 95.4551 29.5515 95.3854 28.9937C99.3598 27.7386 103.195 25.0193 104.729 23.8339C105.914 22.9275 105.914 20.9752 105.077 20.3476C102.149 22.3697 98.3836 24.6009 94.2 25.7863C93.0844 24.2523 91.3413 23.3459 89.2495 23.3459C85.2751 23.3459 83.6016 26.4835 84.8567 29.9699C85.4145 30.2488 86.4604 30.3882 87.576 30.3185C88.343 34.9204 86.1815 44.6821 80.2548 44.6821C77.9538 44.6821 75.862 42.7995 76.2106 35.9663C76.2803 34.4324 76.4895 32.5497 76.8382 30.458C85.9723 24.7404 95.0368 12.0502 95.4551 6.89042C95.8038 2.42792 93.1541 0.126953 88.9008 0.126953C77.5354 0.126953 70.8417 16.5824 68.7499 30.5277C67.4251 30.5277 66.1003 30.3882 64.636 30.179C64.7058 29.9001 64.7058 29.6212 64.7058 29.2726C64.8452 24.8101 61.9864 21.9513 58.2212 21.9513C54.2468 21.9513 52.7128 25.4377 54.1771 29.2726C55.2927 29.9699 56.4083 30.5277 57.5239 31.0158C58.5698 38.1976 53.6193 44.4032 49.7146 44.4032C47.2742 44.4032 45.1824 42.0325 45.1824 35.8966C45.1824 29.0634 49.2962 19.7201 55.6413 19.7201ZM88.6917 4.44999C90.1559 4.44999 90.644 5.63534 90.3651 7.65741C89.6678 13.0263 83.8108 21.7422 77.5354 26.7625C79.6969 16.5824 84.0897 4.44999 88.6917 4.44999Z" fill="url(#paint1_linear_846_205)"/>
<path d="M116.412 14.4209C105.883 14.4209 98.5618 27.5992 98.5618 38.1279C98.5618 44.6821 101.63 50.4694 108.812 50.4694C119.759 50.4694 127.219 37.2911 127.219 26.9019C127.219 20.0687 124.012 14.4209 116.412 14.4209ZM117.946 19.7201C120.804 19.7201 121.99 22.5789 121.99 26.3441C121.99 33.6654 117.527 44.4032 112.019 44.4032C109.579 44.4032 107.487 42.0325 107.487 35.8966C107.487 29.0634 111.601 19.7201 117.946 19.7201Z" fill="url(#paint2_linear_846_205)"/>
<path d="M131.207 19.0925C130.789 19.5109 130.719 19.999 130.719 20.4871C130.719 21.2541 131.138 22.0211 131.905 22.3697C133.508 20.8357 136.367 19.3017 138.668 19.3017C140.69 19.3017 142.364 20.3476 142.364 22.9275C142.364 30.0396 127.093 29.2726 127.093 40.9169C127.093 45.9372 131.138 50.4694 138.598 50.4694C144.943 50.4694 152.753 45.3097 156.448 37.1517C157.076 35.8269 156.448 34.9902 154.914 35.1296C151.777 41.1958 146.059 44.3335 140.341 44.3335C137.064 44.3335 135.461 42.8693 135.461 40.9866C135.461 33.8048 150.382 33.9443 150.382 22.0908C150.382 17.698 147.314 14.2117 142.224 14.2117C138.11 14.2117 134.833 15.8851 131.207 19.0925Z" fill="url(#paint3_linear_846_205)"/>
<path d="M153.58 38.1279C153.58 44.6821 156.648 50.4694 163.83 50.4694C172.127 50.4694 181.61 39.9407 182.029 29.4121C186.561 28.5056 191.302 25.1587 193.045 23.8339C194.231 22.9275 194.231 20.9054 193.394 20.3476C190.187 22.5091 186.143 25.0193 181.471 26.0652C180.495 23.4853 178.263 21.9513 175.544 21.9513C171.57 21.9513 170.036 25.4377 171.5 29.2726C172.267 29.7607 173.452 30.0396 174.707 30.1093C176.381 37.6398 171.151 44.4032 167.037 44.4032C164.597 44.4032 162.505 42.0325 162.505 35.8966C162.505 29.0634 166.619 19.7201 172.964 19.7201C174.638 19.7201 176.102 19.999 177.427 20.4871C178.473 20.9054 179.658 20.1384 179.797 18.5347C177.706 15.397 174.917 14.4209 171.43 14.4209C160.902 14.4209 153.58 27.5992 153.58 38.1279Z" fill="url(#paint4_linear_846_205)"/>
<path d="M222.321 43.4968C223.507 42.4509 223.297 40.9169 222.252 40.0105C219.811 42.1023 216.116 44.1941 212.281 46.0767C212.49 45.1702 212.699 44.1941 212.908 43.2179L218.765 15.6062C217.928 15.0484 216.743 14.6998 215.488 14.6998C213.745 14.6998 211.862 15.3273 210.677 16.7218C208.934 15.1879 206.703 14.4209 203.565 14.4209C193.873 14.4209 185.994 26.5533 185.994 38.7554C185.994 43.2179 187.458 50.4694 194.71 50.4694C198.475 50.4694 202.031 47.8198 204.89 43.9849C204.332 45.9372 203.844 47.6804 203.356 49.4235C193.943 52.9099 183.065 59.5339 183.065 68.18C183.065 73.9672 187.04 76.7563 191.293 76.7563C203.356 76.7563 208.237 63.0202 211.374 50.0511C216.325 47.7501 221.066 44.6124 222.321 43.4968ZM205.447 38.8949C203.565 41.4747 200.636 43.2876 198.405 43.2876C196.244 43.2876 194.64 41.7536 194.64 38.2673C194.64 30.6671 197.638 19.6504 206.075 19.6504C207.121 19.6504 208.167 19.7898 209.352 20.2082L205.447 38.8949ZM190.665 70.5507C189.759 70.5507 187.807 69.7139 187.807 67.2735C187.807 62.6018 194.221 57.3724 201.891 54.3044C198.335 65.7395 195.477 70.5507 190.665 70.5507Z" fill="url(#paint5_linear_846_205)"/>
<path d="M244.147 50.4694C248.819 50.4694 252.724 47.262 256.001 43.5665C256.419 43.0784 256.628 42.5206 256.628 42.0325C256.628 41.3353 256.21 40.7077 255.443 40.3591C253.7 42.1023 250.702 43.8454 248.122 43.8454C246.309 43.8454 245.193 42.5904 246.03 38.6857L250.911 15.6062C250.074 15.0484 248.889 14.6998 247.634 14.6998C245.123 14.6998 242.753 15.8851 242.055 19.0925L239.894 29.1332C237.244 29.4121 234.386 29.6212 231.248 29.691L233.688 18.5347C234.316 15.8851 232.852 14.6998 230.341 14.6998C227.413 14.6998 224.903 16.164 222.532 18.0466C221.138 19.1623 221.626 21.3238 222.532 21.8816C223.16 21.3238 223.578 21.0449 223.927 21.0449C224.554 21.0449 224.903 21.6724 224.624 22.788L218.837 49.563C219.673 50.1208 220.859 50.4694 222.114 50.4694C224.624 50.4694 227.064 49.2841 227.762 46.0767L230.272 34.4324C233.34 34.2929 236.477 33.5956 239.127 32.7589L237.732 39.5224C235.85 48.5171 240.661 50.4694 244.147 50.4694Z" fill="url(#paint6_linear_846_205)"/>
<path d="M255.257 37.082C254.071 42.3114 254.071 50.4694 261.811 50.4694C265.785 50.4694 269.202 47.1226 271.991 42.5904C271.642 48.7263 275.059 50.4694 278.476 50.4694C282.241 50.4694 287.261 47.262 290.538 43.5665C290.957 43.0784 291.166 42.5206 291.166 42.0325C291.166 41.3353 290.747 40.7077 289.98 40.3591C288.237 42.1023 285.239 43.8454 282.659 43.8454C280.846 43.8454 279.731 42.5904 280.567 38.6857L285.448 15.6062C284.611 15.0484 283.426 14.6998 282.171 14.6998C279.661 14.6998 277.011 15.8851 276.314 19.0925L272.13 38.8251C270.248 41.0564 268.156 42.4509 265.716 42.4509C263.624 42.4509 262.717 41.1958 263.345 38.337L267.598 18.5347C268.226 15.8851 266.762 14.6998 264.251 14.6998C261.323 14.6998 258.813 16.164 256.442 18.0466C255.047 19.1623 255.536 21.3238 256.442 21.8816C257.07 21.3238 257.488 21.0449 257.837 21.0449C258.464 21.0449 258.813 21.6724 258.534 22.788L255.257 37.082Z" fill="url(#paint7_linear_846_205)"/>
<path d="M314.672 21.1146C314.672 17.9769 313.068 14.4209 306.723 14.4209C295.218 14.4209 289.222 28.924 289.222 37.9884C289.222 46.5648 294.521 50.4694 301.075 50.4694C307.839 50.4694 315.927 46.2859 320.738 39.2435C321.505 37.9884 320.808 36.5242 318.995 36.8728C315.997 40.8472 309.582 44.4032 304.561 44.4032C301.354 44.4032 298.774 43.0087 298.077 39.2435C311.534 31.7828 314.672 27.0414 314.672 21.1146ZM307.211 19.8595C308.396 19.8595 309.233 20.9752 309.233 22.5789C309.233 27.1111 304.631 31.9919 297.868 36.2452C298.077 31.3644 300.308 19.8595 307.211 19.8595Z" fill="url(#paint8_linear_846_205)"/>
<defs>
<linearGradient id="paint0_linear_846_205" x1="2.71898" y1="7.33752" x2="319.393" y2="49.9116" gradientUnits="userSpaceOnUse">
<stop stop-color="#DFC079"/>
<stop offset="0.137944" stop-color="#E4BE7E"/>
<stop offset="0.273751" stop-color="#FBDE89"/>
<stop offset="0.418258" stop-color="#E8C064"/>
<stop offset="0.672458" stop-color="#DDB44D"/>
<stop offset="1" stop-color="#E7BF7C"/>
</linearGradient>
<linearGradient id="paint1_linear_846_205" x1="2.71898" y1="7.33752" x2="319.393" y2="49.9116" gradientUnits="userSpaceOnUse">
<stop stop-color="#DFC079"/>
<stop offset="0.137944" stop-color="#E4BE7E"/>
<stop offset="0.273751" stop-color="#FBDE89"/>
<stop offset="0.418258" stop-color="#E8C064"/>
<stop offset="0.672458" stop-color="#DDB44D"/>
<stop offset="1" stop-color="#E7BF7C"/>
</linearGradient>
<linearGradient id="paint2_linear_846_205" x1="2.71898" y1="7.33752" x2="319.393" y2="49.9116" gradientUnits="userSpaceOnUse">
<stop stop-color="#DFC079"/>
<stop offset="0.137944" stop-color="#E4BE7E"/>
<stop offset="0.273751" stop-color="#FBDE89"/>
<stop offset="0.418258" stop-color="#E8C064"/>
<stop offset="0.672458" stop-color="#DDB44D"/>
<stop offset="1" stop-color="#E7BF7C"/>
</linearGradient>
<linearGradient id="paint3_linear_846_205" x1="2.71898" y1="7.33752" x2="319.393" y2="49.9116" gradientUnits="userSpaceOnUse">
<stop stop-color="#DFC079"/>
<stop offset="0.137944" stop-color="#E4BE7E"/>
<stop offset="0.273751" stop-color="#FBDE89"/>
<stop offset="0.418258" stop-color="#E8C064"/>
<stop offset="0.672458" stop-color="#DDB44D"/>
<stop offset="1" stop-color="#E7BF7C"/>
</linearGradient>
<linearGradient id="paint4_linear_846_205" x1="2.71898" y1="7.33752" x2="319.393" y2="49.9116" gradientUnits="userSpaceOnUse">
<stop stop-color="#DFC079"/>
<stop offset="0.137944" stop-color="#E4BE7E"/>
<stop offset="0.273751" stop-color="#FBDE89"/>
<stop offset="0.418258" stop-color="#E8C064"/>
<stop offset="0.672458" stop-color="#DDB44D"/>
<stop offset="1" stop-color="#E7BF7C"/>
</linearGradient>
<linearGradient id="paint5_linear_846_205" x1="2.71898" y1="7.33752" x2="319.393" y2="49.9116" gradientUnits="userSpaceOnUse">
<stop stop-color="#DFC079"/>
<stop offset="0.137944" stop-color="#E4BE7E"/>
<stop offset="0.273751" stop-color="#FBDE89"/>
<stop offset="0.418258" stop-color="#E8C064"/>
<stop offset="0.672458" stop-color="#DDB44D"/>
<stop offset="1" stop-color="#E7BF7C"/>
</linearGradient>
<linearGradient id="paint6_linear_846_205" x1="2.71898" y1="7.33752" x2="319.393" y2="49.9116" gradientUnits="userSpaceOnUse">
<stop stop-color="#DFC079"/>
<stop offset="0.137944" stop-color="#E4BE7E"/>
<stop offset="0.273751" stop-color="#FBDE89"/>
<stop offset="0.418258" stop-color="#E8C064"/>
<stop offset="0.672458" stop-color="#DDB44D"/>
<stop offset="1" stop-color="#E7BF7C"/>
</linearGradient>
<linearGradient id="paint7_linear_846_205" x1="2.71898" y1="7.33752" x2="319.393" y2="49.9116" gradientUnits="userSpaceOnUse">
<stop stop-color="#DFC079"/>
<stop offset="0.137944" stop-color="#E4BE7E"/>
<stop offset="0.273751" stop-color="#FBDE89"/>
<stop offset="0.418258" stop-color="#E8C064"/>
<stop offset="0.672458" stop-color="#DDB44D"/>
<stop offset="1" stop-color="#E7BF7C"/>
</linearGradient>
<linearGradient id="paint8_linear_846_205" x1="2.71898" y1="7.33752" x2="319.393" y2="49.9116" gradientUnits="userSpaceOnUse">
<stop stop-color="#DFC079"/>
<stop offset="0.137944" stop-color="#E4BE7E"/>
<stop offset="0.273751" stop-color="#FBDE89"/>
<stop offset="0.418258" stop-color="#E8C064"/>
<stop offset="0.672458" stop-color="#DDB44D"/>
<stop offset="1" stop-color="#E7BF7C"/>
</linearGradient>
</defs>
</svg>
