<svg width="40" height="49" viewBox="0 0 40 49" fill="none" xmlns="http://www.w3.org/2000/svg">
<path d="M39.1305 37.6789V48.1789H2.63047V39.8789L20.2305 23.4789C21.9305 21.8789 23.0305 20.4789 23.6305 19.3789C24.2305 18.2789 24.5305 17.0789 24.5305 15.8789C24.5305 14.3789 24.0305 13.1789 23.0305 12.2789C22.0305 11.4789 20.5305 10.9789 18.5305 10.9789C16.8305 10.9789 15.2305 11.3789 13.7305 12.1789C12.2305 12.9789 11.1305 14.0789 10.1305 15.5789L0.230469 10.1789C2.03047 7.17891 4.63047 4.77891 7.93047 2.97891C11.2305 1.27891 15.1305 0.378906 19.6305 0.378906C23.2305 0.378906 26.3305 0.978906 29.1305 2.07891C31.8305 3.27891 34.0305 4.87891 35.5305 7.07891C37.0305 9.27891 37.8305 11.7789 37.8305 14.5789C37.8305 17.0789 37.3305 19.4789 36.2305 21.7789C35.1305 24.0789 33.0305 26.5789 29.9305 29.4789L21.1305 37.6789H39.1305Z" fill="#FBD239"/>
</svg>
