<svg width="40" height="49" viewBox="0 0 40 49" fill="none" xmlns="http://www.w3.org/2000/svg">
<path d="M28.6937 19.1746L37.3618 10.282V0.378906H2.48986V12.4041H19.2284L12.3536 19.4777V29.2798H18.531C22.2174 29.2798 24.1105 30.3913 24.1105 32.5134C24.1105 33.625 23.5127 34.7366 22.4167 35.2418C21.0218 35.9492 19.5273 36.2523 18.0328 36.1513C15.8408 36.1513 13.7485 35.8481 11.6562 35.2418C9.46425 34.6355 7.37193 33.8271 5.47888 32.7155L0.0986328 44.6396C2.78876 46.1554 5.67815 47.166 8.66718 47.7723C11.8555 48.4796 15.243 48.8838 18.531 48.8838C22.616 48.9849 26.701 48.2775 30.4871 46.5596C33.3765 45.246 35.8673 43.2249 37.5611 40.5976C39.0556 38.2734 39.8527 35.4439 39.8527 32.6145C39.9523 29.4819 38.8564 26.4503 36.9633 24.0251C34.7714 21.4988 31.882 19.7809 28.6937 19.1746Z" fill="#FBD239"/>
</svg>
