<svg width="96" height="16" viewBox="0 0 96 16" fill="none" xmlns="http://www.w3.org/2000/svg">
<g clip-path="url(#clip0)">
<path d="M15.0625 6.09785C14.9643 5.79412 14.6949 5.57839 14.3761 5.54966L10.0467 5.15655L8.33477 1.14953C8.20853 0.855863 7.92105 0.665771 7.60164 0.665771C7.28223 0.665771 6.99474 0.855863 6.86851 1.15021L5.15655 5.15655L0.826448 5.54966C0.508294 5.57908 0.23958 5.79412 0.140815 6.09785C0.0420498 6.40158 0.133262 6.73473 0.373937 6.94473L3.64646 9.81476L2.68147 14.0655C2.61086 14.3781 2.73217 14.7012 2.9915 14.8886C3.13089 14.9893 3.29397 15.0406 3.45843 15.0406C3.60022 15.0406 3.74088 15.0024 3.86711 14.9268L7.60164 12.6949L11.3348 14.9268C11.608 15.0912 11.9523 15.0762 12.2111 14.8886C12.4705 14.7006 12.5917 14.3774 12.5211 14.0655L11.5561 9.81476L14.8287 6.94531C15.0693 6.73473 15.1612 6.40216 15.0625 6.09785Z" fill="#FFC107"/>
</g>
<g clip-path="url(#clip1)">
<path d="M35.0625 6.09785C34.9643 5.79412 34.6949 5.57839 34.3761 5.54966L30.0467 5.15655L28.3348 1.14953C28.2085 0.855863 27.9211 0.665771 27.6016 0.665771C27.2822 0.665771 26.9947 0.855863 26.8685 1.15021L25.1565 5.15655L20.8264 5.54966C20.5083 5.57908 20.2396 5.79412 20.1408 6.09785C20.042 6.40158 20.1333 6.73473 20.3739 6.94473L23.6465 9.81476L22.6815 14.0655C22.6109 14.3781 22.7322 14.7012 22.9915 14.8886C23.1309 14.9893 23.294 15.0406 23.4584 15.0406C23.6002 15.0406 23.7409 15.0024 23.8671 14.9268L27.6016 12.6949L31.3348 14.9268C31.608 15.0912 31.9523 15.0762 32.2111 14.8886C32.4705 14.7006 32.5917 14.3774 32.5211 14.0655L31.5561 9.81476L34.8287 6.94531C35.0693 6.73473 35.1612 6.40216 35.0625 6.09785Z" fill="#FFC107"/>
</g>
<g clip-path="url(#clip2)">
<path d="M55.0625 6.09785C54.9643 5.79412 54.6949 5.57839 54.3761 5.54966L50.0467 5.15655L48.3348 1.14953C48.2085 0.855863 47.9211 0.665771 47.6016 0.665771C47.2822 0.665771 46.9947 0.855863 46.8685 1.15021L45.1565 5.15655L40.8264 5.54966C40.5083 5.57908 40.2396 5.79412 40.1408 6.09785C40.042 6.40158 40.1333 6.73473 40.3739 6.94473L43.6465 9.81476L42.6815 14.0655C42.6109 14.3781 42.7322 14.7012 42.9915 14.8886C43.1309 14.9893 43.294 15.0406 43.4584 15.0406C43.6002 15.0406 43.7409 15.0024 43.8671 14.9268L47.6016 12.6949L51.3348 14.9268C51.608 15.0912 51.9523 15.0762 52.2111 14.8886C52.4705 14.7006 52.5917 14.3774 52.5211 14.0655L51.5561 9.81476L54.8287 6.94531C55.0693 6.73473 55.1612 6.40216 55.0625 6.09785Z" fill="#FFC107"/>
</g>
<g clip-path="url(#clip3)">
<path d="M75.0625 6.09785C74.9643 5.79412 74.6949 5.57839 74.3761 5.54966L70.0467 5.15655L68.3348 1.14953C68.2085 0.855863 67.9211 0.665771 67.6016 0.665771C67.2822 0.665771 66.9947 0.855863 66.8685 1.15021L65.1565 5.15655L60.8264 5.54966C60.5083 5.57908 60.2396 5.79412 60.1408 6.09785C60.042 6.40158 60.1333 6.73473 60.3739 6.94473L63.6465 9.81476L62.6815 14.0655C62.6109 14.3781 62.7322 14.7012 62.9915 14.8886C63.1309 14.9893 63.294 15.0406 63.4584 15.0406C63.6002 15.0406 63.7409 15.0024 63.8671 14.9268L67.6016 12.6949L71.3348 14.9268C71.608 15.0912 71.9523 15.0762 72.2111 14.8886C72.4705 14.7006 72.5917 14.3774 72.5211 14.0655L71.5561 9.81476L74.8287 6.94531C75.0693 6.73473 75.1612 6.40216 75.0625 6.09785Z" fill="#FFC107"/>
</g>
<g clip-path="url(#clip4)">
<path d="M95.0625 6.09785C94.9643 5.79412 94.6949 5.57839 94.3761 5.54966L90.0467 5.15655L88.3348 1.14953C88.2085 0.855863 87.9211 0.665771 87.6016 0.665771C87.2822 0.665771 86.9947 0.855863 86.8685 1.15021L85.1565 5.15655L80.8264 5.54966C80.5083 5.57908 80.2396 5.79412 80.1408 6.09785C80.042 6.40158 80.1333 6.73473 80.3739 6.94473L83.6465 9.81476L82.6815 14.0655C82.6109 14.3781 82.7322 14.7012 82.9915 14.8886C83.1309 14.9893 83.294 15.0406 83.4584 15.0406C83.6002 15.0406 83.7409 15.0024 83.8671 14.9268L87.6016 12.6949L91.3348 14.9268C91.608 15.0912 91.9523 15.0762 92.2111 14.8886C92.4705 14.7006 92.5917 14.3774 92.5211 14.0655L91.5561 9.81476L94.8287 6.94531C95.0693 6.73473 95.1612 6.40216 95.0625 6.09785Z" fill="#FFC107"/>
</g>
<defs>
<clipPath id="clip0">
<rect width="15" height="15" fill="white" transform="translate(0.101562 0.34375)"/>
</clipPath>
<clipPath id="clip1">
<rect width="15" height="15" fill="white" transform="translate(20.1016 0.34375)"/>
</clipPath>
<clipPath id="clip2">
<rect width="15" height="15" fill="white" transform="translate(40.1016 0.34375)"/>
</clipPath>
<clipPath id="clip3">
<rect width="15" height="15" fill="white" transform="translate(60.1016 0.34375)"/>
</clipPath>
<clipPath id="clip4">
<rect width="15" height="15" fill="white" transform="translate(80.1016 0.34375)"/>
</clipPath>
</defs>
</svg>
