<svg width="540" height="102" viewBox="0 0 540 102" fill="none" xmlns="http://www.w3.org/2000/svg">
<path d="M32.4214 73.4581C23.9948 73.4581 17.0081 70.6847 11.4614 65.1381C5.96811 59.5914 3.22145 52.6314 3.22145 44.2581C3.22145 35.8847 5.96811 28.9514 11.4614 23.4581C16.9548 17.8581 23.9414 15.0581 32.4214 15.0581C37.4881 15.0581 42.1814 16.2581 46.5014 18.6581C50.8214 21.0581 54.2081 24.2847 56.6614 28.3381L44.2614 35.4581C43.1948 33.4847 41.5948 31.9381 39.4614 30.8181C37.3814 29.6447 35.0348 29.0581 32.4214 29.0581C27.9948 29.0581 24.3681 30.4714 21.5414 33.2981C18.8214 36.1247 17.4614 39.7781 17.4614 44.2581C17.4614 48.8447 18.8214 52.5247 21.5414 55.2981C24.3148 58.0714 27.9414 59.4581 32.4214 59.4581C35.0348 59.4581 37.3814 58.8981 39.4614 57.7781C41.5948 56.6047 43.1948 55.0047 44.2614 52.9781L56.6614 60.1781C54.2081 64.2847 50.8214 67.5381 46.5014 69.9381C42.2348 72.2847 37.5414 73.4581 32.4214 73.4581ZM89.6277 43.4581L108.188 72.2581H92.1877L76.1077 47.2181V72.2581H61.7877V16.2581H76.1077V39.7781L91.3877 16.2581H107.388L89.6277 43.4581ZM157.376 72.2581H143.136V44.0981L123.376 72.2581H112.256V16.2581H126.576V44.4181L146.336 16.2581H157.376V72.2581ZM211.361 16.2581V58.4181H217.361V82.9781H203.121V72.2581H176.961V82.9781H162.641V58.4181H168.561C171.121 54.3114 172.401 48.3914 172.401 40.6581V16.2581H211.361ZM183.441 58.4181H197.121V29.5381H186.641V40.8181C186.641 48.3381 185.574 54.2047 183.441 58.4181ZM251.034 43.4581L269.594 72.2581H253.594L237.514 47.2181V72.2581H223.194V16.2581H237.514V39.7781L252.794 16.2581H268.794L251.034 43.4581ZM318.783 72.2581H304.543V44.0981L284.783 72.2581H273.663V16.2581H287.983V44.4181L307.743 16.2581H318.783V72.2581ZM376.972 54.4981H345.772V41.8581H376.972V54.4981ZM400.572 35.9381H404.572C410.119 35.9381 414.679 37.5381 418.252 40.7381C421.932 43.9381 423.772 48.4714 423.772 54.3381C423.772 60.4181 421.799 65.1381 417.852 68.4981C413.905 71.8047 408.999 73.4581 403.132 73.4581C398.119 73.4581 393.799 72.3914 390.172 70.2581C386.599 68.1247 384.012 64.9781 382.412 60.8181L394.892 53.6981C396.065 57.5914 398.812 59.5381 403.132 59.5381C405.159 59.5381 406.705 59.0847 407.772 58.1781C408.892 57.2181 409.452 55.9381 409.452 54.3381C409.452 52.6847 408.892 51.4047 407.772 50.4981C406.705 49.5914 405.239 49.1381 403.372 49.1381H385.452L387.772 16.2581H420.732V29.9381H400.972L400.572 35.9381ZM467.128 65.5381C463.074 70.8181 457.394 73.4581 450.088 73.4581C442.781 73.4581 437.074 70.8181 432.968 65.5381C428.914 60.2047 426.888 53.1114 426.888 44.2581C426.888 35.3514 428.914 28.2847 432.968 23.0581C437.021 17.7247 442.728 15.0581 450.088 15.0581C457.394 15.0581 463.074 17.7247 467.128 23.0581C471.234 28.3914 473.288 35.4581 473.288 44.2581C473.288 53.0581 471.234 60.1514 467.128 65.5381ZM450.088 28.9781C444.168 28.9781 441.208 34.0714 441.208 44.2581C441.208 54.4447 444.168 59.5381 450.088 59.5381C456.008 59.5381 458.968 54.4447 458.968 44.2581C458.968 34.0714 456.008 28.9781 450.088 28.9781ZM491.236 43.7781C487.022 43.7781 483.529 42.3914 480.756 39.6181C477.929 36.7914 476.516 33.3781 476.516 29.3781C476.516 25.4314 477.929 22.0447 480.756 19.2181C483.529 16.4447 487.022 15.0581 491.236 15.0581C495.396 15.0581 498.862 16.4447 501.636 19.2181C504.409 21.9914 505.796 25.3781 505.796 29.3781C505.796 33.3781 504.382 36.7914 501.556 39.6181C498.782 42.3914 495.342 43.7781 491.236 43.7781ZM490.356 66.5781L484.836 63.4581L521.636 23.4581L527.236 26.6581L490.356 66.5781ZM491.156 33.6181C492.862 33.7247 494.062 33.0581 494.756 31.6181C495.502 30.1247 495.502 28.6581 494.756 27.2181C494.062 25.7781 492.862 25.1114 491.156 25.2181C489.982 25.2181 488.996 25.6181 488.196 26.4181C487.449 27.2181 487.076 28.2047 487.076 29.3781C487.076 30.6047 487.449 31.6181 488.196 32.4181C488.996 33.2181 489.982 33.6181 491.156 33.6181ZM522.196 73.3781C517.929 73.3781 514.409 71.9914 511.636 69.2181C508.862 66.4447 507.476 63.0581 507.476 59.0581C507.476 55.0047 508.862 51.5914 511.636 48.8181C514.409 46.0447 517.929 44.6581 522.196 44.6581C526.302 44.6581 529.769 46.0714 532.596 48.8981C535.369 51.6714 536.756 55.0581 536.756 59.0581C536.756 63.0047 535.342 66.3914 532.516 69.2181C529.742 71.9914 526.302 73.3781 522.196 73.3781ZM526.196 59.0581C526.196 57.8314 525.796 56.8181 524.996 56.0181C524.249 55.2181 523.289 54.8181 522.116 54.8181C520.942 54.8181 519.956 55.2181 519.156 56.0181C518.409 56.8181 518.036 57.8314 518.036 59.0581C518.036 60.2314 518.409 61.2181 519.156 62.0181C519.956 62.8181 520.942 63.2181 522.116 63.2181C523.236 63.2181 524.196 62.8181 524.996 62.0181C525.796 61.1647 526.196 60.1781 526.196 59.0581Z" fill="white"/>
<path d="M359.478 24.2382V32.6702H360.678V37.5822H357.83V35.4382H352.598V37.5822H349.734V32.6702H350.918C351.43 31.8489 351.686 30.6649 351.686 29.1182V24.2382H359.478ZM353.894 32.6702H356.63V26.8942H354.534V29.1502C354.534 30.6542 354.321 31.8276 353.894 32.6702ZM371.289 33.9982C370.147 35.1182 368.761 35.6782 367.129 35.6782C365.475 35.6782 364.083 35.1182 362.953 33.9982C361.822 32.8676 361.257 31.4809 361.257 29.8382C361.257 28.1956 361.822 26.8142 362.953 25.6942C364.083 24.5636 365.475 23.9982 367.129 23.9982C368.771 23.9982 370.158 24.5636 371.289 25.6942C372.43 26.8142 373.001 28.1956 373.001 29.8382C373.001 31.4702 372.43 32.8569 371.289 33.9982ZM364.969 32.0302C365.555 32.5956 366.275 32.8782 367.129 32.8782C367.982 32.8782 368.702 32.5956 369.289 32.0302C369.865 31.4542 370.153 30.7236 370.153 29.8382C370.153 28.9422 369.865 28.2169 369.289 27.6622C368.713 27.0862 367.993 26.7982 367.129 26.7982C366.265 26.7982 365.545 27.0862 364.969 27.6622C364.393 28.2169 364.105 28.9422 364.105 29.8382C364.105 30.7236 364.393 31.4542 364.969 32.0302Z" fill="white"/>
</svg>
