<svg width="317" height="161" viewBox="0 0 317 161" fill="none" xmlns="http://www.w3.org/2000/svg">
<path d="M29.7447 59.2C21.318 59.2 14.3314 56.4267 8.78469 50.88C3.29135 45.28 0.544688 38.32 0.544688 30C0.544688 21.68 3.29135 14.7467 8.78469 9.2C14.3314 3.6 21.318 0.799997 29.7447 0.799997C34.8114 0.799997 39.5047 2 43.8247 4.4C48.1447 6.8 51.5314 10.0267 53.9847 14.08L41.5847 21.2C40.518 19.2267 38.918 17.68 36.7847 16.56C34.7047 15.3867 32.358 14.8 29.7447 14.8C25.2647 14.8 21.638 16.2133 18.8647 19.04C16.1447 21.8133 14.7847 25.4667 14.7847 30C14.7847 34.5333 16.1447 38.2133 18.8647 41.04C21.638 43.8133 25.2647 45.2 29.7447 45.2C32.358 45.2 34.7047 44.64 36.7847 43.52C38.918 42.3467 40.518 40.7467 41.5847 38.72L53.9847 45.92C51.5314 50.0267 48.1447 53.28 43.8247 55.68C39.558 58.0267 34.8647 59.2 29.7447 59.2ZM105.511 58H89.5109L73.4309 32.96V58H59.1109V2H73.4309V25.52L88.7109 2H104.711L86.9509 29.2L105.511 58ZM140.46 58V29.84L120.7 58H109.58V2H123.9V30.16L143.66 2H154.7V58H140.46ZM208.684 44.16H214.684V68.72H200.444V58H174.284V68.72H159.964V44.16H165.884C168.444 40.0533 169.724 34.1333 169.724 26.4V2H208.684V44.16ZM180.764 44.16H194.444V15.28H183.964V26.56C183.964 34.0267 182.897 39.8933 180.764 44.16ZM266.917 58H250.917L234.837 32.96V58H220.517V2H234.837V25.52L250.117 2H266.117L248.357 29.2L266.917 58ZM301.866 58V29.84L282.106 58H270.986V2H285.306V30.16L305.066 2H316.106V58H301.866ZM73.7984 141.24V128.6H104.998V141.24H73.7984ZM132.598 122.68C138.092 122.68 142.652 124.28 146.278 127.48C149.958 130.68 151.798 135.213 151.798 141.08C151.798 147.16 149.825 151.88 145.878 155.24C141.932 158.547 137.025 160.2 131.158 160.2C126.252 160.2 121.985 159.16 118.358 157.08C114.732 154.947 112.092 151.773 110.438 147.56L122.918 140.44C124.092 144.333 126.838 146.28 131.158 146.28C133.185 146.28 134.732 145.827 135.798 144.92C136.918 143.96 137.478 142.68 137.478 141.08C137.478 139.427 136.918 138.147 135.798 137.24C134.732 136.333 133.265 135.88 131.398 135.88H113.478L115.798 103H148.758V116.68H128.998L128.598 122.68H132.598ZM195.154 152.28C191.101 157.56 185.421 160.2 178.114 160.2C170.807 160.2 165.101 157.56 160.994 152.28C156.941 146.947 154.914 139.853 154.914 131C154.914 122.147 156.941 115.08 160.994 109.8C165.101 104.467 170.807 101.8 178.114 101.8C185.421 101.8 191.101 104.467 195.154 109.8C199.261 115.08 201.314 122.147 201.314 131C201.314 139.853 199.261 146.947 195.154 152.28ZM169.234 131C169.234 141.187 172.194 146.28 178.114 146.28C184.034 146.28 186.994 141.187 186.994 131C186.994 120.813 184.034 115.72 178.114 115.72C172.194 115.72 169.234 120.813 169.234 131ZM219.262 130.52C215.102 130.52 211.609 129.133 208.782 126.36C205.956 123.533 204.542 120.12 204.542 116.12C204.542 112.12 205.956 108.733 208.782 105.96C211.609 103.187 215.102 101.8 219.262 101.8C223.422 101.8 226.889 103.187 229.662 105.96C232.436 108.733 233.822 112.12 233.822 116.12C233.822 120.173 232.409 123.587 229.582 126.36C226.809 129.133 223.369 130.52 219.262 130.52ZM212.862 150.2L249.662 110.2L255.262 113.4L218.382 153.32L212.862 150.2ZM219.182 120.36C220.409 120.36 221.396 119.96 222.142 119.16C222.942 118.307 223.342 117.293 223.342 116.12C223.342 114.947 222.942 113.96 222.142 113.16C221.396 112.36 220.409 111.96 219.182 111.96C218.009 111.96 217.022 112.36 216.222 113.16C215.476 113.96 215.102 114.947 215.102 116.12C215.102 117.347 215.476 118.36 216.222 119.16C217.022 119.96 218.009 120.36 219.182 120.36ZM250.222 160.12C246.009 160.12 242.489 158.733 239.662 155.96C236.889 153.187 235.502 149.8 235.502 145.8C235.502 141.747 236.889 138.333 239.662 135.56C242.489 132.787 246.009 131.4 250.222 131.4C254.382 131.4 257.849 132.813 260.622 135.64C263.396 138.413 264.782 141.8 264.782 145.8C264.782 149.8 263.369 153.187 260.542 155.96C257.769 158.733 254.329 160.12 250.222 160.12ZM247.182 148.76C247.982 149.56 248.969 149.96 250.142 149.96C251.316 149.96 252.276 149.56 253.022 148.76C253.822 147.907 254.222 146.92 254.222 145.8C254.222 144.573 253.822 143.56 253.022 142.76C252.276 141.96 251.316 141.56 250.142 141.56C248.969 141.56 247.982 141.96 247.182 142.76C246.436 143.56 246.062 144.573 246.062 145.8C246.062 146.973 246.436 147.96 247.182 148.76Z" fill="white"/>
</svg>
