<svg width="18" height="20" viewBox="0 0 18 20" fill="none" xmlns="http://www.w3.org/2000/svg">
<path d="M14.5918 1.44336C14.5918 1.16722 14.3679 0.943359 14.0918 0.943359C13.8157 0.943359 13.5918 1.16722 13.5918 1.44336L14.5918 1.44336ZM13.7382 19.7969C13.9335 19.9922 14.2501 19.9922 14.4453 19.7969L17.6273 16.6149C17.8226 16.4197 17.8226 16.1031 17.6273 15.9078C17.4321 15.7126 17.1155 15.7126 16.9202 15.9078L14.0918 18.7363L11.2634 15.9078C11.0681 15.7126 10.7515 15.7126 10.5563 15.9078C10.361 16.1031 10.361 16.4197 10.5563 16.6149L13.7382 19.7969ZM13.5918 1.44336L13.5918 19.4434L14.5918 19.4434L14.5918 1.44336L13.5918 1.44336Z" fill="#2C2B3F"/>
<path d="M4.44535 1.08981C4.25009 0.894544 3.93351 0.894544 3.73824 1.08981L0.556263 4.27179C0.361001 4.46705 0.361001 4.78363 0.556263 4.97889C0.751525 5.17416 1.06811 5.17416 1.26337 4.97889L4.0918 2.15047L6.92022 4.97889C7.11549 5.17416 7.43207 5.17416 7.62733 4.97889C7.82259 4.78363 7.82259 4.46705 7.62733 4.27179L4.44535 1.08981ZM3.5918 19.4434C3.5918 19.7195 3.81565 19.9434 4.0918 19.9434C4.36794 19.9434 4.5918 19.7195 4.5918 19.4434L3.5918 19.4434ZM3.5918 1.44336L3.5918 19.4434L4.5918 19.4434L4.5918 1.44336L3.5918 1.44336Z" fill="#2C2B3F"/>
</svg>
