<svg width="31" height="31" viewBox="0 0 31 31" fill="none" xmlns="http://www.w3.org/2000/svg">
<path d="M12.3462 15.9846C10.7602 15.9846 9.47897 17.2658 9.50241 18.8361C9.51803 19.844 10.0727 20.719 10.8891 21.2072C10.6118 20.7815 10.4477 20.2776 10.4399 19.7346C10.4165 18.1643 11.6977 16.883 13.2837 16.883C13.5962 16.883 13.8969 16.9338 14.1782 17.0236V13.8791C13.8852 13.8361 13.5844 13.8127 13.2837 13.8127C13.268 13.8127 13.2563 13.8127 13.2407 13.8127V16.1252C12.9594 16.0354 12.6587 15.9846 12.3462 15.9846Z" fill="black"/>
<path d="M19.2015 6.55493H18.3656C18.6 7.73071 19.2601 8.75415 20.182 9.44946C19.5765 8.64868 19.2094 7.64868 19.2015 6.55493Z" fill="black"/>
<path d="M23.9832 11.34C23.6746 11.34 23.3777 11.3088 23.0847 11.2541V13.508C22.0222 13.508 20.991 13.301 20.0222 12.8869C19.3972 12.6213 18.8152 12.2815 18.28 11.8713L18.2957 18.8205C18.2878 20.383 17.6707 21.8479 16.5535 22.9533C15.6433 23.8518 14.491 24.426 13.241 24.6096C12.948 24.6525 12.6472 24.676 12.3464 24.676C11.0105 24.676 9.73706 24.2424 8.7019 23.4416C8.81909 23.5822 8.94409 23.7189 9.08081 23.8518C10.2058 24.9611 11.698 25.5744 13.2878 25.5744C13.5886 25.5744 13.8894 25.551 14.1824 25.508C15.4324 25.3244 16.5847 24.7502 17.4949 23.8518C18.6121 22.7463 19.2292 21.2815 19.2371 19.719L19.1785 12.7697C19.7097 13.1799 20.2917 13.5236 20.9207 13.7854C21.8933 14.1955 22.9246 14.4065 23.9832 14.4065" fill="black"/>
<path d="M30.2329 15.816C30.2329 24.1003 23.5172 30.816 15.2329 30.816C6.94864 30.816 0.23291 24.1003 0.23291 15.816C0.23291 7.53177 6.94864 0.81604 15.2329 0.81604C23.5172 0.81604 30.2329 7.53177 30.2329 15.816Z" fill="black"/>
<g clip-path="url(#clip0)">
<path d="M9.06862 15.5432C10.1819 14.4377 11.6624 13.8244 13.2405 13.8127V12.9807C12.9475 12.9377 12.6467 12.9142 12.346 12.9142C10.7522 12.9142 9.25612 13.5275 8.13112 14.6447C7.02565 15.7424 6.39284 17.2424 6.39675 18.801C6.39675 20.3713 7.01784 21.8439 8.13893 22.9572C8.31862 23.133 8.50222 23.2971 8.69753 23.4455C7.81472 22.3947 7.33425 21.0822 7.33034 19.6994C7.33425 18.1408 7.96315 16.6408 9.06862 15.5432V15.5432Z" fill="#08FFF9"/>
<path d="M23.0847 11.254V10.4181H23.0769C21.991 10.4181 20.991 10.0587 20.1863 9.44934C20.8855 10.3712 21.9089 11.0275 23.0847 11.254Z" fill="#08FFF9"/>
<path d="M13.1238 22.5002C13.4949 22.5198 13.8503 22.469 14.1785 22.3635C15.3113 21.9924 16.1277 20.9377 16.1277 19.6956L16.1316 15.0471V6.55493H18.366C18.3074 6.26196 18.2761 5.96509 18.2722 5.65649H15.1941V14.1448L15.1902 18.7932C15.1902 20.0354 14.3738 21.0901 13.241 21.4612C12.9128 21.5706 12.5574 21.6213 12.1863 21.5979C11.7136 21.5706 11.2722 21.4299 10.8894 21.2034C11.3699 21.9456 12.1902 22.4495 13.1238 22.5002V22.5002Z" fill="#08FFF9"/>
<path d="M13.2405 24.6096C14.4905 24.426 15.6428 23.8518 16.553 22.9534C17.6702 21.8479 18.2874 20.3831 18.2952 18.8206L18.2796 11.8713C18.8108 12.2815 19.3928 12.6252 20.0217 12.887C20.9944 13.2971 22.0257 13.5081 23.0842 13.5081V11.2542C21.9085 11.0276 20.885 10.3713 20.1858 9.44946C19.2639 8.75415 18.5999 7.73071 18.3694 6.55493H16.1311V15.0432L16.1272 19.6916C16.1272 20.9338 15.3108 21.9885 14.178 22.3596C13.8499 22.469 13.4944 22.5198 13.1233 22.4963C12.1858 22.4456 11.3694 21.9417 10.8889 21.2034C10.0725 20.719 9.51784 19.8401 9.50222 18.8323C9.47878 17.262 10.76 15.9807 12.346 15.9807C12.6585 15.9807 12.9592 16.0315 13.2405 16.1213V13.8088C11.6624 13.8206 10.1819 14.4338 9.06862 15.5393C7.96315 16.637 7.33034 18.137 7.33425 19.6916C7.33425 21.0745 7.81472 22.387 8.70143 23.4377C9.7405 24.2385 11.01 24.6721 12.346 24.6721C12.6467 24.676 12.9475 24.6526 13.2405 24.6096V24.6096Z" fill="white"/>
</g>
<defs>
<clipPath id="clip0">
<rect width="20" height="20" fill="white" transform="translate(5.23291 5.61743)"/>
</clipPath>
</defs>
</svg>
