<svg width="18" height="21" viewBox="0 0 18 21" fill="none" xmlns="http://www.w3.org/2000/svg">
									<path d="M6.01789 10.4712C4.43196 10.4712 3.15071 11.7524 3.17414 13.3228C3.18977 14.3306 3.74446 15.2056 4.56086 15.6939C4.28352 15.2681 4.11946 14.7642 4.11164 14.2212C4.08821 12.6509 5.36946 11.3696 6.9554 11.3696C7.2679 11.3696 7.56868 11.4204 7.84993 11.5103V8.36572C7.55696 8.32275 7.25618 8.29932 6.9554 8.29932C6.93977 8.29932 6.92805 8.29932 6.91243 8.29932V10.6118C6.63118 10.522 6.33039 10.4712 6.01789 10.4712Z" fill="#333333"></path>
									<path d="M12.873 1.0415H12.8496H12.0371C12.2715 2.21729 12.9316 3.24072 13.8535 3.93604C13.248 3.13525 12.8809 2.13525 12.873 1.0415Z" fill="#333333"></path>
									<path d="M17.6543 5.82666C17.3457 5.82666 17.0488 5.79541 16.7559 5.74072V7.99463C15.6934 7.99463 14.6621 7.7876 13.6934 7.37354C13.0684 7.10791 12.4863 6.76807 11.9512 6.35791L11.9668 13.3071C11.959 14.8696 11.3418 16.3345 10.2246 17.4399C9.31445 18.3384 8.16211 18.9126 6.91211 19.0962C6.61914 19.1392 6.31836 19.1626 6.01758 19.1626C4.68164 19.1626 3.4082 18.729 2.37305 17.9282C2.49023 18.0688 2.61523 18.2056 2.75195 18.3384C3.87695 19.4478 5.36914 20.061 6.95898 20.061C7.25977 20.061 7.56055 20.0376 7.85352 19.9946C9.10352 19.811 10.2559 19.2368 11.166 18.3384C12.2832 17.2329 12.9004 15.7681 12.9082 14.2056L12.8496 7.25635C13.3809 7.6665 13.9629 8.01025 14.5918 8.27197C15.5645 8.68213 16.5957 8.89307 17.6543 8.89307" fill="#333333"></path>
									<path d="M2.74025 10.0298C3.85353 8.92432 5.334 8.31104 6.91213 8.29932V7.46729C6.61916 7.42432 6.31838 7.40088 6.0176 7.40088C4.42385 7.40088 2.92775 8.01416 1.80275 9.13135C0.697284 10.229 0.0644711 11.729 0.0683774 13.2876C0.0683774 14.8579 0.689471 16.3306 1.81057 17.4438C1.99025 17.6196 2.17385 17.7837 2.36916 17.9321C1.48635 16.8813 1.00588 15.5688 1.00197 14.186C1.00588 12.6274 1.63478 11.1274 2.74025 10.0298Z" fill="#333333"></path>
									<path d="M16.7559 5.74072V4.90478H16.748C15.6621 4.90478 14.6621 4.54541 13.8574 3.93604C14.5566 4.85791 15.5801 5.51415 16.7559 5.74072Z" fill="#333333"></path>
									<path d="M6.79492 16.9868C7.16601 17.0063 7.52148 16.9556 7.8496 16.8501C8.98241 16.479 9.79882 15.4243 9.79882 14.1821L9.80272 9.53369V1.0415H12.0371C11.9785 0.748535 11.9473 0.45166 11.9433 0.143066H8.86523V8.63135L8.86132 13.2798C8.86132 14.522 8.04491 15.5767 6.9121 15.9478C6.58398 16.0571 6.22851 16.1079 5.85742 16.0845C5.38476 16.0571 4.94336 15.9165 4.56055 15.6899C5.04101 16.4321 5.86133 16.936 6.79492 16.9868Z" fill="#333333"></path>
									<path d="M6.91213 19.0962C8.16213 18.9126 9.31447 18.3384 10.2246 17.4399C11.3418 16.3345 11.959 14.8696 11.9668 13.3071L11.9512 6.35791C12.4824 6.76807 13.0645 7.11182 13.6934 7.37354C14.666 7.78369 15.6973 7.99463 16.7559 7.99463V5.74072C15.5801 5.51416 14.5567 4.85791 13.8574 3.93604C12.9356 3.24072 12.2715 2.21729 12.041 1.0415H9.80275V9.52979L9.79885 14.1782C9.79885 15.4204 8.98244 16.4751 7.84963 16.8462C7.5215 16.9556 7.16603 17.0063 6.79494 16.9829C5.85744 16.9321 5.04103 16.4282 4.56056 15.6899C3.74416 15.2056 3.18947 14.3267 3.17385 13.3188C3.15041 11.7485 4.43166 10.4673 6.0176 10.4673C6.3301 10.4673 6.63088 10.5181 6.91213 10.6079V8.29541C5.334 8.30713 3.85353 8.92041 2.74025 10.0259C1.63478 11.1235 1.00197 12.6235 1.00588 14.1782C1.00588 15.561 1.48635 16.8735 2.37306 17.9243C3.41213 18.7251 4.68166 19.1587 6.0176 19.1587C6.31838 19.1626 6.61916 19.1392 6.91213 19.0962Z" fill="#333333"></path>
								</svg>