<svg width="31" height="31" viewBox="0 0 31 31" fill="none" xmlns="http://www.w3.org/2000/svg">
<path d="M29.5195 21.0751V27.0751C29.5195 28.1751 28.6195 29.0751 27.5195 29.0751H23.5195V19.0751H27.5195C28.6195 19.0751 29.5195 19.9751 29.5195 21.0751Z" fill="#99DDFF"/>
<path d="M23.5195 19.0751V29.0751H17.5195V20.3751L18.8195 19.0751H23.5195Z" fill="#99DDFF"/>
<path d="M17.5195 20.3751V29.0751H11.5195V26.1751H11.6195L17.5195 20.3751Z" fill="#99DDFF"/>
<path d="M11.5195 13.0752H1.51953V19.0752H11.5195V13.0752Z" fill="#FFD580"/>
<path d="M11.5195 12.1751V13.0751H1.51953V7.07507H11.5195V12.1751Z" fill="#FFD580"/>
<path d="M11.5195 3.07507V7.07507H1.51953V3.07507C1.51953 1.97507 2.41953 1.07507 3.51953 1.07507H9.51953C10.6195 1.07507 11.5195 1.97507 11.5195 3.07507Z" fill="#FFD580"/>
<path d="M6.51953 26.0751C7.6241 26.0751 8.51953 25.1796 8.51953 24.0751C8.51953 22.9705 7.6241 22.0751 6.51953 22.0751C5.41496 22.0751 4.51953 22.9705 4.51953 24.0751C4.51953 25.1796 5.41496 26.0751 6.51953 26.0751Z" fill="#664848"/>
<path d="M30.2195 18.3751C30.0195 18.1751 29.8195 18.0751 29.5195 18.0751H23.5195H21.2195L27.3195 11.9751C27.5195 11.7751 27.6195 11.5751 27.6195 11.2751C27.6195 10.9751 27.5195 10.7751 27.3195 10.5751L20.2195 3.47507C20.0195 3.27507 19.8195 3.17507 19.5195 3.17507C19.2195 3.17507 19.0195 3.27507 18.8195 3.47507L12.5195 9.77507V7.07507V1.07507C12.5195 0.775073 12.4195 0.575073 12.2195 0.375073C12.0195 0.175073 11.8195 0.0750732 11.5195 0.0750732H1.51953C1.21953 0.0750732 1.01953 0.175073 0.819531 0.375073C0.619531 0.575073 0.519531 0.775073 0.519531 1.07507V7.07507V13.0751V19.0751V21.0751V24.0751C0.519531 27.3751 3.21953 30.0751 6.51953 30.0751H9.51953H11.5195H17.5195H23.5195H29.5195C29.8195 30.0751 30.0195 29.9751 30.2195 29.7751C30.4195 29.5751 30.5195 29.3751 30.5195 29.0751V19.0751C30.5195 18.7751 30.4195 18.5751 30.2195 18.3751ZM10.5195 26.1751V28.0751H9.51953H6.51953C4.31953 28.0751 2.51953 26.2751 2.51953 24.0751V21.0751V20.0751H10.5195V26.1751ZM10.5195 18.0751H2.51953V14.0751H10.5195V18.0751ZM10.5195 12.0751H2.51953V8.07507H10.5195V12.0751ZM10.5195 6.07507H2.51953V2.07507H10.5195V6.07507ZM16.5195 28.0751H12.5195V26.7751L16.5195 22.7751V28.0751ZM16.8195 19.6751L12.5195 23.9751V19.0751V13.0751V12.6751L19.5195 5.67507L25.2195 11.3751L18.1195 18.4751L16.8195 19.6751ZM22.5195 28.0751H18.5195V20.7751L19.2195 20.0751H22.5195V28.0751ZM28.5195 28.0751H24.5195V20.0751H28.5195V28.0751Z" fill="#664848"/>
</svg>
