<svg width="25" height="31" viewBox="0 0 25 31" fill="none" xmlns="http://www.w3.org/2000/svg">
<path d="M23.2202 8.22783L16.398 1.40564L16.2695 1.45908V6.9022C16.2695 7.93814 17.1086 8.7772 18.1445 8.7772H22.9923C23.102 8.51189 23.1105 8.49314 23.2202 8.22783Z" fill="#97DBFF"/>
<path d="M23.7695 7.56597V7.56503L17.0045 0.742847C16.803 0.540347 16.5517 0.445659 16.277 0.473784C16.0145 0.394097 15.7717 0.339722 15.4923 0.339722H3.14453C1.59109 0.340659 0.332969 1.59878 0.332031 3.15222V27.5272C0.332969 29.0807 1.59109 30.3397 3.14453 30.3397H21.8945C23.448 30.3397 24.7061 29.0807 24.707 27.5272V9.55441C24.707 8.80816 24.707 8.09378 23.7695 7.56597ZM17.207 3.54035L21.5064 7.83972H18.1445C17.627 7.83878 17.208 7.41972 17.207 6.90222V3.54035ZM22.832 27.5272C22.8311 28.0447 22.412 28.4638 21.8945 28.4647H3.14453C2.62703 28.4638 2.20797 28.0447 2.20703 27.5272V3.15222C2.20797 2.63472 2.62703 2.21472 3.14453 2.21472H15.332V6.90222C15.333 8.45566 16.5911 9.71472 18.1445 9.71472H22.832V27.5272Z" fill="#664848"/>
<path d="M5.01953 13.4646H20.0195C20.537 13.4646 20.957 13.0446 20.957 12.5271C20.957 12.0096 20.537 11.5896 20.0195 11.5896H5.01953C4.50203 11.5896 4.08203 12.0096 4.08203 12.5271C4.08203 13.0446 4.50203 13.4646 5.01953 13.4646Z" fill="#664848"/>
<path d="M5.01953 17.2146H20.0195C20.537 17.2146 20.957 16.7946 20.957 16.2771C20.957 15.7596 20.537 15.3396 20.0195 15.3396H5.01953C4.50203 15.3396 4.08203 15.7596 4.08203 16.2771C4.08203 16.7946 4.50203 17.2146 5.01953 17.2146Z" fill="#664848"/>
<path d="M5.01953 20.9646H20.0195C20.537 20.9646 20.957 20.5446 20.957 20.0271C20.957 19.5096 20.537 19.0896 20.0195 19.0896H5.01953C4.50203 19.0896 4.08203 19.5096 4.08203 20.0271C4.08203 20.5446 4.50203 20.9646 5.01953 20.9646Z" fill="#664848"/>
<path d="M5.01953 24.7146H12.5195C13.037 24.7146 13.457 24.2946 13.457 23.7771C13.457 23.2596 13.037 22.8396 12.5195 22.8396H5.01953C4.50203 22.8396 4.08203 23.2596 4.08203 23.7771C4.08203 24.2946 4.50203 24.7146 5.01953 24.7146Z" fill="#664848"/>
</svg>
