<svg width="31" height="31" viewBox="0 0 31 31" fill="none" xmlns="http://www.w3.org/2000/svg">
<path d="M24.894 19.5898C24.7815 19.5898 24.6878 19.6001 24.5912 19.6095L21.3625 16.3808L20.1597 15.2437L23.3781 12.09H25.6412C25.9702 12.09 26.2768 11.85 26.4455 11.5678L30.3867 4.94262C30.607 4.57326 30.5489 4.0867 30.2451 3.78202L27.594 1.12239C27.2893 0.817711 26.8196 0.755838 26.4502 0.976145L19.7922 4.9145C19.5091 5.08418 19.2691 5.38886 19.2691 5.71792V7.981L16.1164 11.1994L15.2211 10.2713C15.3898 9.63752 15.492 8.98597 15.492 8.33443C15.493 6.41728 14.7674 4.48982 13.3086 3.0311C11.8509 1.57238 9.92714 0.839273 8.01 0.840211C7.15783 0.840211 6.30847 0.984583 5.49661 1.27333C5.19287 1.38207 4.96881 1.63613 4.89756 1.95112C4.82725 2.26612 4.92194 2.59142 5.14975 2.81923L8.98498 6.65352L8.54342 8.8641L6.33378 9.30565L2.49855 5.47042C2.27075 5.24262 1.9445 5.14793 1.62951 5.21918C1.31452 5.29043 1.06046 5.51542 0.952649 5.81917C0.663906 6.63102 0.519534 7.48226 0.519534 8.33443C0.518596 10.2516 1.25171 12.179 2.71136 13.6387C4.17008 15.0974 6.09754 15.8305 8.01375 15.8296C8.33249 15.8296 8.65123 15.8024 8.9681 15.7621L1.34077 23.3894C0.793278 23.936 0.518596 24.6625 0.519534 25.3778C0.518596 26.0931 0.793278 26.8197 1.34077 27.3662L3.99196 30.0174C4.53945 30.5658 5.26599 30.8405 5.98129 30.8396C6.69753 30.8405 7.42313 30.5658 7.96969 30.0183L16.182 21.806L17.262 22.886L19.2879 24.9128C19.2794 25.0084 19.2701 25.1022 19.2691 25.2147C19.271 28.3196 21.7891 30.8377 24.894 30.8396C27.9989 30.8377 30.517 28.3196 30.5189 25.2147C30.517 22.1098 27.9989 19.5917 24.894 19.5898ZM24.894 28.9646C22.8278 28.9609 21.1478 27.2809 21.1441 25.2147C21.1432 25.0956 21.1666 24.9297 21.2003 24.6981C21.2407 24.4066 21.1432 24.115 20.935 23.9069L18.5885 21.5604L16.8345 19.8064L16.8111 19.7829C16.6123 19.5842 16.3339 19.4848 16.0536 19.5129C15.7733 19.5411 15.5211 19.6939 15.3655 19.9292L15.282 20.0548L6.64409 28.6927C6.46222 28.8737 6.22691 28.9637 5.98129 28.9646C5.73567 28.9637 5.50036 28.8737 5.31849 28.6927L2.6673 26.0406C2.48543 25.8587 2.39543 25.6234 2.39449 25.3778C2.39543 25.1322 2.48543 24.8969 2.66636 24.715L11.3043 16.0771L11.4299 15.9936C11.6643 15.839 11.818 15.5858 11.8462 15.3055C11.8743 15.0252 11.7749 14.7468 11.5762 14.548L11.5527 14.5246L10.8777 13.8496C10.6218 13.5937 10.2412 13.5084 9.89996 13.6293C9.29341 13.8459 8.65405 13.9537 8.01375 13.9537C6.56909 13.9527 5.13006 13.4053 4.03696 12.3122C2.94292 11.2181 2.39543 9.77908 2.39449 8.33443C2.39449 8.23693 2.41418 8.14037 2.41887 8.04287L5.36255 10.9866C5.5838 11.2078 5.90161 11.3044 6.2091 11.2425L9.52403 10.5797C9.89621 10.5056 10.185 10.2159 10.259 9.84471L10.9218 6.52978C10.9837 6.22228 10.8871 5.90448 10.6659 5.68323L7.72219 2.74048C7.81969 2.73486 7.91625 2.71517 8.01375 2.71517C9.4584 2.71611 10.8974 3.2636 11.9915 4.35764C13.0855 5.45167 13.633 6.89071 13.6339 8.33536C13.6339 8.97566 13.5252 9.61502 13.3096 10.2216C13.1877 10.5619 13.2739 10.9434 13.5299 11.1994L14.8574 12.5268L15.5192 13.1878C15.6936 13.3621 15.9355 13.4624 16.182 13.4624C16.4286 13.4624 16.6704 13.3621 16.8448 13.1878L20.935 9.03191C21.1094 8.85848 21.1441 8.61661 21.1441 8.37005V6.24947L26.7183 2.95704L28.3692 4.64075L25.1087 10.215H22.9891C22.7425 10.215 22.5006 10.2497 22.3263 10.4241L18.1704 14.5471C17.8038 14.9137 17.8038 15.4902 18.1704 15.8568L20.036 17.7148L23.5853 21.2604C23.7934 21.4685 24.084 21.5641 24.3756 21.5238C24.609 21.4901 24.775 21.4648 24.894 21.4657C26.9602 21.4695 28.6402 23.1494 28.6439 25.2147C28.6402 27.2809 26.9602 28.9609 24.894 28.9646Z" fill="#FFD580"/>
<path d="M24.894 28.9646C22.8278 28.9609 21.1478 27.2809 21.1441 25.2147C21.1432 25.0956 21.1666 24.9297 21.2003 24.6981C21.2407 24.4066 21.1432 24.115 20.935 23.9069L18.5885 21.5604L16.8345 19.8064L16.8111 19.7829C16.6123 19.5842 16.3339 19.4848 16.0536 19.5129C15.7733 19.5411 15.5211 19.6939 15.3655 19.9292L15.282 20.0548L6.64409 28.6927C6.46222 28.8737 6.22691 28.9637 5.98129 28.9646C5.73567 28.9637 5.50036 28.8737 5.31849 28.6927L2.6673 26.0406C2.48543 25.8587 2.39543 25.6234 2.39449 25.3778C2.39543 25.1322 2.48543 24.8969 2.66636 24.715L11.3043 16.0771L11.4299 15.9936C11.6643 15.839 11.818 15.5858 11.8462 15.3055C11.8743 15.0252 11.7749 14.7468 11.5762 14.548L11.5527 14.5246L10.8777 13.8496C10.6218 13.5937 10.2412 13.5084 9.89996 13.6293C9.29341 13.8459 8.65405 13.9537 8.01375 13.9537C6.56909 13.9527 5.13006 13.4053 4.03696 12.3122C2.94292 11.2181 2.39543 9.77908 2.39449 8.33443C2.39449 8.23693 2.41418 8.14037 2.41887 8.04287L5.36255 10.9866C5.5838 11.2078 5.90161 11.3044 6.2091 11.2425L9.52403 10.5797C9.89621 10.5056 10.185 10.2159 10.259 9.84471L10.9218 6.52978C10.9837 6.22228 10.8871 5.90448 10.6659 5.68323L7.72219 2.74048C7.81969 2.73486 7.91625 2.71517 8.01375 2.71517C9.4584 2.71611 10.8974 3.2636 11.9915 4.35764C13.0855 5.45167 13.633 6.89071 13.6339 8.33536C13.6339 8.97566 13.5252 9.61502 13.3096 10.2216C13.1877 10.5619 13.2739 10.9434 13.5299 11.1994L14.8574 12.5268L15.5192 13.1878C15.6936 13.3621 15.9355 13.4624 16.182 13.4624C16.4286 13.4624 16.6704 13.3621 16.8448 13.1878L20.935 9.03191C21.1094 8.85848 21.1441 8.61661 21.1441 8.37005V6.24947L26.7183 2.95704L28.3692 4.64075L25.1087 10.215H22.9891C22.7425 10.215 22.5006 10.2497 22.3263 10.4241L18.1704 14.5471C17.8038 14.9137 17.8038 15.4902 18.1704 15.8568L20.036 17.7148L23.5853 21.2604C23.7934 21.4685 24.084 21.5641 24.3756 21.5238C24.609 21.4901 24.775 21.4648 24.894 21.4657C26.9602 21.4695 28.6402 23.1494 28.6439 25.2147C28.6402 27.2809 26.9602 28.9609 24.894 28.9646Z" fill="#FFD580"/>
<mask id="path-2-inside-1" fill="white">
<path d="M16.6756 21.3124C17.2231 20.7649 17.4978 20.0393 17.4969 19.324C17.4978 18.6077 17.2231 17.8821 16.6756 17.3356L14.0244 14.6844C13.4769 14.1369 12.7513 13.8622 12.036 13.8632C11.3207 13.8622 10.5942 14.1369 10.0477 14.6844C9.68203 15.0509 9.68203 15.6444 10.0477 16.01C10.4142 16.3756 11.0076 16.3756 11.3732 16.01C11.5551 15.8281 11.7904 15.7391 12.036 15.7381C12.2817 15.7391 12.517 15.8291 12.6988 16.0109L15.35 18.6621C15.5319 18.844 15.621 19.0793 15.6219 19.3249C15.621 19.5705 15.531 19.8058 15.35 19.9877C14.9835 20.3543 14.9844 20.9477 15.35 21.3133C15.7156 21.6789 16.3091 21.6789 16.6756 21.3124Z"/>
</mask>
<path d="M16.6756 21.3124C17.2231 20.7649 17.4978 20.0393 17.4969 19.324C17.4978 18.6077 17.2231 17.8821 16.6756 17.3356L14.0244 14.6844C13.4769 14.1369 12.7513 13.8622 12.036 13.8632C11.3207 13.8622 10.5942 14.1369 10.0477 14.6844C9.68203 15.0509 9.68203 15.6444 10.0477 16.01C10.4142 16.3756 11.0076 16.3756 11.3732 16.01C11.5551 15.8281 11.7904 15.7391 12.036 15.7381C12.2817 15.7391 12.517 15.8291 12.6988 16.0109L15.35 18.6621C15.5319 18.844 15.621 19.0793 15.6219 19.3249C15.621 19.5705 15.531 19.8058 15.35 19.9877C14.9835 20.3543 14.9844 20.9477 15.35 21.3133C15.7156 21.6789 16.3091 21.6789 16.6756 21.3124Z" fill="white"/>
<path d="M17.4969 19.324L13.4968 19.3187L13.4969 19.3292L17.4969 19.324ZM16.6756 17.3356L13.8472 20.164L13.8496 20.1664L16.6756 17.3356ZM14.0244 14.6844L11.196 17.5128L11.196 17.5128L14.0244 14.6844ZM12.036 13.8632L12.0308 17.8632L12.0413 17.8632L12.036 13.8632ZM10.0477 14.6844L7.2168 11.8584L7.2156 11.8596L10.0477 14.6844ZM10.0477 16.01L7.21922 18.8384L7.22285 18.842L10.0477 16.01ZM12.036 15.7381L12.0513 11.7382L12.036 11.7381L12.0208 11.7382L12.036 15.7381ZM12.6988 16.0109L15.5273 13.1825V13.1825L12.6988 16.0109ZM15.35 18.6621L12.5216 21.4905L12.5216 21.4905L15.35 18.6621ZM15.6219 19.3249L19.6219 19.3402L19.6219 19.3249L19.6219 19.3096L15.6219 19.3249ZM15.35 19.9877L18.1785 22.8162L18.1858 22.8088L15.35 19.9877ZM19.5041 24.1408C20.8364 22.8085 21.4991 21.0485 21.4969 19.3187L13.4969 19.3292C13.4965 19.03 13.6098 18.7213 13.8472 18.4839L19.5041 24.1408ZM21.4969 19.3292C21.4991 17.5999 20.8372 15.838 19.5016 14.5047L13.8496 20.1664C13.609 19.9263 13.4965 19.6156 13.4969 19.3187L21.4969 19.3292ZM19.5041 14.5072L16.8529 11.856L11.196 17.5128L13.8472 20.164L19.5041 14.5072ZM16.8529 11.856C15.5205 10.5236 13.7606 9.8609 12.0308 9.86316L12.0413 17.8632C11.7421 17.8636 11.4334 17.7502 11.196 17.5128L16.8529 11.856ZM12.0413 9.86316C10.3136 9.8609 8.55056 10.5223 7.2168 11.8584L12.8785 17.5104C12.6378 17.7515 12.3279 17.8635 12.0308 17.8632L12.0413 9.86316ZM7.2156 11.8596C5.29471 13.7854 5.28951 16.9087 7.21922 18.8384L12.8761 13.1816C14.0746 14.38 14.0694 16.3165 12.8797 17.5092L7.2156 11.8596ZM7.22285 18.842C9.14866 20.7629 12.272 20.7681 14.2017 18.8384L8.54482 13.1816C9.7433 11.9831 11.6797 11.9883 12.8725 13.1779L7.22285 18.842ZM14.2017 18.8384C13.587 19.4531 12.7882 19.7353 12.0513 19.7381L12.0208 11.7382C10.7927 11.7428 9.52324 12.2031 8.54482 13.1816L14.2017 18.8384ZM12.0208 19.7381C11.2733 19.7352 10.478 19.4469 9.87041 18.8394L15.5273 13.1825C14.556 12.2112 13.2901 11.7429 12.0513 11.7382L12.0208 19.7381ZM9.87041 18.8394L12.5216 21.4905L18.1785 15.8337L15.5273 13.1825L9.87041 18.8394ZM12.5216 21.4905C11.9069 20.8759 11.6247 20.077 11.6219 19.3402L19.6219 19.3096C19.6172 18.0816 19.1569 16.8121 18.1785 15.8337L12.5216 21.4905ZM11.6219 19.3096C11.6248 18.5634 11.912 17.7721 12.5143 17.1666L18.1858 22.8088C19.15 21.8396 19.6171 20.5777 19.6219 19.3402L11.6219 19.3096ZM12.5216 17.1593C10.5903 19.0905 10.5965 22.2166 12.5216 24.1417L18.1785 18.4849C19.3723 19.6788 19.3766 21.618 18.1785 22.8161L12.5216 17.1593ZM12.5216 24.1417C14.4519 26.0721 17.578 26.0669 19.5041 24.1408L13.8472 18.4839C15.0401 17.291 16.9794 17.2858 18.1785 18.4849L12.5216 24.1417Z" fill="#664848" mask="url(#path-2-inside-1)"/>
<path d="M5.87004 26.8143L13.3699 19.3145C13.7364 18.9479 13.7364 18.3545 13.3699 17.9889C13.0033 17.6224 12.4099 17.6224 12.0443 17.9889L4.54445 25.4887C4.17789 25.8553 4.17789 26.4487 4.54445 26.8143C4.911 27.1809 5.50443 27.1809 5.87004 26.8143Z" fill="#664848"/>
<mask id="path-5-inside-2" fill="white">
<path d="M15.5196 11.8615L12.6978 14.6833C12.3312 15.0499 12.3312 15.6433 12.6978 16.0089C13.0643 16.3755 13.6577 16.3755 14.0234 16.0089L16.8452 13.1871C17.2117 12.8205 17.2117 12.2271 16.8452 11.8615C16.4796 11.4959 15.8861 11.4959 15.5196 11.8615Z"/>
</mask>
<path d="M15.5196 11.8615L12.6978 14.6833C12.3312 15.0499 12.3312 15.6433 12.6978 16.0089C13.0643 16.3755 13.6577 16.3755 14.0234 16.0089L16.8452 13.1871C17.2117 12.8205 17.2117 12.2271 16.8452 11.8615C16.4796 11.4959 15.8861 11.4959 15.5196 11.8615Z" fill="white"/>
<path d="M15.5196 11.8615L12.6948 9.02944L12.6912 9.03307L15.5196 11.8615ZM12.6978 14.6833L9.86934 11.8549L9.86934 11.8549L12.6978 14.6833ZM12.6978 16.0089L15.5262 13.1805L15.5226 13.1769L12.6978 16.0089ZM14.0234 16.0089L11.1949 13.1805L11.1913 13.1841L14.0234 16.0089ZM16.8452 13.1871L14.0168 10.3587L14.0168 10.3587L16.8452 13.1871ZM16.8452 11.8615L14.0168 14.6899L14.0204 14.6935L16.8452 11.8615ZM12.6912 9.03307L9.86934 11.8549L15.5262 17.5117L18.348 14.6899L12.6912 9.03307ZM9.86934 11.8549C7.94269 13.7815 7.93748 16.9104 9.87296 18.841L15.5226 13.1769C16.7249 14.3762 16.7197 16.3182 15.5262 17.5117L9.86934 11.8549ZM9.86934 18.8373C11.796 20.764 14.9249 20.7692 16.8554 18.8337L11.1913 13.1841C12.3906 11.9817 14.3327 11.9869 15.5262 13.1805L9.86934 18.8373ZM16.8518 18.8373L19.6736 16.0155L14.0168 10.3587L11.1949 13.1805L16.8518 18.8373ZM19.6736 16.0155C21.6003 14.0889 21.6055 10.96 19.67 9.02945L14.0204 14.6935C12.818 13.4942 12.8232 11.5522 14.0168 10.3587L19.6736 16.0155ZM19.6736 9.03307C17.7439 7.10335 14.6206 7.10855 12.6948 9.02945L18.3444 14.6935C17.1517 15.8832 15.2152 15.8884 14.0168 14.6899L19.6736 9.03307Z" fill="#664848" mask="url(#path-5-inside-2)"/>
<mask id="path-7-inside-3" fill="white">
<path d="M18.1719 14.5137L15.3501 17.3355C14.9836 17.7021 14.9836 18.2955 15.3501 18.6611C15.7167 19.0277 16.3101 19.0277 16.6757 18.6611L19.4975 15.8393C19.8641 15.4727 19.8641 14.8793 19.4975 14.5137C19.131 14.1471 18.5375 14.1471 18.1719 14.5137Z"/>
</mask>
<path d="M18.1719 14.5137L15.3501 17.3355C14.9836 17.7021 14.9836 18.2955 15.3501 18.6611C15.7167 19.0277 16.3101 19.0277 16.6757 18.6611L19.4975 15.8393C19.8641 15.4727 19.8641 14.8793 19.4975 14.5137C19.131 14.1471 18.5375 14.1471 18.1719 14.5137Z" fill="white"/>
<path d="M18.1719 14.5137L21.0004 17.3421L21.004 17.3385L18.1719 14.5137ZM15.3501 17.3355L12.5217 14.5071L12.5217 14.5071L15.3501 17.3355ZM15.3501 18.6611L18.1785 15.8327L18.1749 15.8291L15.3501 18.6611ZM16.6757 18.6611L13.8473 15.8327L13.8437 15.8363L16.6757 18.6611ZM19.4975 15.8393L22.3259 18.6677L22.326 18.6677L19.4975 15.8393ZM19.4975 14.5137L16.6691 17.3421L16.6727 17.3457L19.4975 14.5137ZM15.3435 11.6853L12.5217 14.5071L18.1785 20.1639L21.0004 17.3421L15.3435 11.6853ZM12.5217 14.5071C10.595 16.4337 10.5898 19.5626 12.5253 21.4931L18.1749 15.8291C19.3773 17.0284 19.3721 18.9704 18.1785 20.1639L12.5217 14.5071ZM12.5217 21.4895C14.4483 23.4162 17.5772 23.4214 19.5078 21.4859L13.8437 15.8363C15.043 14.6339 16.985 14.6391 18.1785 15.8327L12.5217 21.4895ZM19.5041 21.4895L22.3259 18.6677L16.6691 13.0109L13.8473 15.8327L19.5041 21.4895ZM22.326 18.6677C24.2526 16.7411 24.2578 13.6122 22.3223 11.6816L16.6727 17.3457C15.4703 16.1464 15.4756 14.2044 16.6691 13.0109L22.326 18.6677ZM22.326 11.6853C20.3993 9.75861 17.2704 9.75339 15.3399 11.6889L21.004 17.3385C19.8047 18.5409 17.8626 18.5357 16.6691 17.3421L22.326 11.6853Z" fill="#664848" mask="url(#path-7-inside-3)"/>
<path d="M24.8945 26.1515V27.089C25.832 27.0862 26.7666 26.2509 26.7695 25.2141C26.7666 24.1772 25.9313 23.3419 24.8945 23.3391C23.8576 23.3419 23.0223 24.1772 23.0195 25.2141C23.0223 26.2509 23.957 27.0862 24.8945 27.089V26.1515V25.2141V26.1515Z" fill="white"/>
<path d="M24.894 19.5898C24.7815 19.5898 24.6878 19.6001 24.5912 19.6095L21.3625 16.3808L20.1597 15.2437L23.3781 12.09H25.6412C25.9702 12.09 26.2768 11.85 26.4455 11.5678L30.3867 4.94262C30.607 4.57326 30.5489 4.0867 30.2451 3.78202L27.594 1.12239C27.2893 0.817711 26.8196 0.755838 26.4502 0.976145L19.7922 4.9145C19.5091 5.08418 19.2691 5.38886 19.2691 5.71792V7.981L16.1164 11.1994L15.2211 10.2713C15.3898 9.63752 15.492 8.98597 15.492 8.33443C15.493 6.41728 14.7674 4.48982 13.3086 3.0311C11.8509 1.57238 9.92714 0.839273 8.01 0.840211C7.15783 0.840211 6.30847 0.984583 5.49661 1.27333C5.19287 1.38207 4.96881 1.63613 4.89756 1.95112C4.82725 2.26612 4.92194 2.59142 5.14975 2.81923L8.98498 6.65352L8.54342 8.8641L6.33378 9.30565L2.49855 5.47042C2.27075 5.24262 1.9445 5.14793 1.62951 5.21918C1.31452 5.29043 1.06046 5.51542 0.952649 5.81917C0.663906 6.63102 0.519534 7.48226 0.519534 8.33443C0.518596 10.2516 1.25171 12.179 2.71136 13.6387C4.17008 15.0974 6.09754 15.8305 8.01375 15.8296C8.33249 15.8296 8.65123 15.8024 8.9681 15.7621L1.34077 23.3894C0.793278 23.936 0.518596 24.6625 0.519534 25.3778C0.518596 26.0931 0.793278 26.8197 1.34077 27.3662L3.99196 30.0174C4.53945 30.5658 5.26599 30.8405 5.98129 30.8396C6.69753 30.8405 7.42313 30.5658 7.96969 30.0183L16.182 21.806L17.262 22.886L19.2879 24.9128C19.2794 25.0084 19.2701 25.1022 19.2691 25.2147C19.271 28.3196 21.7891 30.8377 24.894 30.8396C27.9989 30.8377 30.517 28.3196 30.5189 25.2147C30.517 22.1098 27.9989 19.5917 24.894 19.5898ZM24.894 28.9646C22.8278 28.9609 21.1478 27.2809 21.1441 25.2147C21.1432 25.0956 21.1666 24.9297 21.2003 24.6981C21.2407 24.4066 21.1432 24.115 20.935 23.9069L18.5885 21.5604L16.8345 19.8064L16.8111 19.7829C16.6123 19.5842 16.3339 19.4848 16.0536 19.5129C15.7733 19.5411 15.5211 19.6939 15.3655 19.9292L15.282 20.0548L6.64409 28.6927C6.46222 28.8737 6.22691 28.9637 5.98129 28.9646C5.73567 28.9637 5.50036 28.8737 5.31849 28.6927L2.6673 26.0406C2.48543 25.8587 2.39543 25.6234 2.39449 25.3778C2.39543 25.1322 2.48543 24.8969 2.66636 24.715L11.3043 16.0771L11.4299 15.9936C11.6643 15.839 11.818 15.5858 11.8462 15.3055C11.8743 15.0252 11.7749 14.7468 11.5762 14.548L11.5527 14.5246L10.8777 13.8496C10.6218 13.5937 10.2412 13.5084 9.89996 13.6293C9.29341 13.8459 8.65405 13.9537 8.01375 13.9537C6.56909 13.9527 5.13006 13.4053 4.03696 12.3122C2.94292 11.2181 2.39543 9.77908 2.39449 8.33443C2.39449 8.23693 2.41418 8.14037 2.41887 8.04287L5.36255 10.9866C5.5838 11.2078 5.90161 11.3044 6.2091 11.2425L9.52403 10.5797C9.89621 10.5056 10.185 10.2159 10.259 9.84471L10.9218 6.52978C10.9837 6.22228 10.8871 5.90448 10.6659 5.68323L7.72219 2.74048C7.81969 2.73486 7.91625 2.71517 8.01375 2.71517C9.4584 2.71611 10.8974 3.2636 11.9915 4.35764C13.0855 5.45167 13.633 6.89071 13.6339 8.33536C13.6339 8.97566 13.5252 9.61502 13.3096 10.2216C13.1877 10.5619 13.2739 10.9434 13.5299 11.1994L14.8574 12.5268L15.5192 13.1878C15.6936 13.3621 15.9355 13.4624 16.182 13.4624C16.4286 13.4624 16.6704 13.3621 16.8448 13.1878L20.935 9.03191C21.1094 8.85848 21.1441 8.61661 21.1441 8.37005V6.24947L26.7183 2.95704L28.3692 4.64075L25.1087 10.215H22.9891C22.7425 10.215 22.5006 10.2497 22.3263 10.4241L18.1704 14.5471C17.8038 14.9137 17.8038 15.4902 18.1704 15.8568L20.036 17.7148L23.5853 21.2604C23.7934 21.4685 24.084 21.5641 24.3756 21.5238C24.609 21.4901 24.775 21.4648 24.894 21.4657C26.9602 21.4695 28.6402 23.1494 28.6439 25.2147C28.6402 27.2809 26.9602 28.9609 24.894 28.9646Z" fill="#664848"/>
</svg>
