<svg width="31" height="26" viewBox="0 0 31 26" fill="none" xmlns="http://www.w3.org/2000/svg">
<path d="M28.0969 3.74052C26.5317 1.93893 24.1769 1.119 21.7615 1.58051C20.4233 1.8368 19.2204 2.57067 18.2576 3.53341L15.5198 6.27126L12.7819 3.53341C11.8192 2.57067 10.6162 1.8368 9.27805 1.58051C6.86364 1.11805 4.50881 1.93799 2.9427 3.74052C0.709865 6.31003 1.09572 10.5837 3.50351 12.9915L14.1825 23.6705C14.9211 24.4091 16.1184 24.4091 16.857 23.6705L27.536 12.9915C29.9438 10.5837 30.3297 6.31003 28.0969 3.74052ZM25.8602 6.9361C25.6815 7.09119 25.4602 7.16685 25.2408 7.16685C24.9769 7.16685 24.7131 7.0562 24.5258 6.84058C24.175 6.43487 23.6851 6.19182 23.1829 6.17385C22.6268 6.16345 22.0821 6.39609 21.5998 6.87746C21.2281 7.24818 20.6295 7.2444 20.2625 6.87557C19.8928 6.50485 19.8947 5.90716 20.2644 5.53833C21.1146 4.69097 22.1634 4.23797 23.252 4.28431C24.2771 4.32214 25.2625 4.80256 25.9548 5.60169C26.2972 5.997 26.2546 6.59469 25.8602 6.9361Z" fill="#FF8080"/>
<path d="M28.8106 3.12037C27.3589 1.44551 25.284 0.50547 23.0853 0.508307C22.5888 0.508307 22.0866 0.555593 21.5835 0.652056C20.0183 0.953739 18.6593 1.79543 17.5888 2.86503L15.5195 4.93426L13.4503 2.86503C12.3807 1.79543 11.0208 0.953739 9.4556 0.652056C8.95342 0.555593 8.4503 0.508307 7.9538 0.508307C5.75501 0.50547 3.68011 1.44551 2.22844 3.12037C1.05481 4.47369 0.518587 6.20057 0.519532 7.91326C0.52237 10.0128 1.31204 12.1312 2.83464 13.6604L13.5137 24.3394C14.065 24.8917 14.797 25.1716 15.5195 25.1707C16.2421 25.1716 16.974 24.8917 17.5254 24.3394L28.2044 13.6604C29.727 12.1321 30.5167 10.0128 30.5195 7.91326C30.5205 6.20057 29.9842 4.47369 28.8106 3.12037ZM26.8681 12.3231L16.1881 23.0022C16.0009 23.1885 15.7645 23.2783 15.5195 23.2793C15.2746 23.2783 15.0382 23.1885 14.8509 23.0022L4.17189 12.3231C3.04365 11.2006 2.40813 9.53611 2.41096 7.91421C2.41096 6.58831 2.82519 5.31822 3.65742 4.36115C4.75918 3.09484 6.28934 2.40163 7.9538 2.39974C8.3302 2.39974 8.71321 2.43568 9.10001 2.50944C10.2103 2.72034 11.2572 3.34545 12.1131 4.20227L14.8509 6.94012C15.0268 7.11602 15.2708 7.21722 15.5195 7.21722C15.7682 7.21722 16.0122 7.11602 16.1881 6.94012L18.926 4.20227C19.7819 3.34545 20.8297 2.72034 21.939 2.50944C22.3258 2.43568 22.7089 2.39974 23.0853 2.39974C24.7497 2.40258 26.2799 3.09484 27.3826 4.36115C28.2148 5.31822 28.6281 6.58831 28.629 7.91421C28.6319 9.53611 27.9964 11.2006 26.8681 12.3231Z" fill="#664848"/>
</svg>
