<svg width="33" height="21" viewBox="0 0 33 21" fill="none" xmlns="http://www.w3.org/2000/svg">
<g clip-path="url(#clip0)">
<path d="M32.668 0.836914H0.667969V20.8369H32.668V0.836914Z" fill="white"/>
<path fill-rule="evenodd" clip-rule="evenodd" d="M5.30346 5.8947C5.52601 5.99423 5.52605 5.99414 5.52608 5.99407L5.5256 5.99519L5.52305 6.00124L5.51198 6.02834C5.50211 6.05298 5.48746 6.09064 5.46928 6.14056C5.43293 6.24043 5.3825 6.38927 5.32793 6.58119C5.21874 6.9652 5.09329 7.52056 5.03054 8.20026C4.9051 9.55903 5.03026 11.412 6.03485 13.3905C6.79426 14.8861 7.37039 15.4862 7.87254 16.0093C7.95077 16.0907 8.02722 16.1704 8.10227 16.2512C8.38928 16.5604 8.65698 16.8882 8.91471 17.391C9.17037 17.8898 9.41202 18.5523 9.6599 19.5287C9.69338 19.6606 9.61506 19.795 9.48495 19.829C9.35485 19.8629 9.22224 19.7835 9.18876 19.6516C8.94606 18.6957 8.71557 18.0721 8.48301 17.6184C8.25252 17.1687 8.01591 16.8778 7.74799 16.5892C7.67494 16.5105 7.59968 16.4321 7.52197 16.3512C7.01138 15.8193 6.3949 15.1772 5.60229 13.6161C4.54644 11.5367 4.41405 9.58536 4.54616 8.15431C4.61219 7.4391 4.74429 6.85317 4.86046 6.44461C4.91857 6.24025 4.97277 6.07999 5.01288 5.96983C5.03293 5.91474 5.04948 5.87214 5.06124 5.84279C5.06711 5.82812 5.0718 5.81675 5.07513 5.80878L5.07909 5.79939L5.08028 5.79663L5.08066 5.79574L5.0808 5.79542C5.08086 5.79529 5.08091 5.79517 5.30346 5.8947Z" fill="#82C8FF"/>
<path d="M6.48597 16.327C5.43537 16.2038 4.66349 16.7127 3.8916 17.2217C4.60806 17.9052 5.24718 18.4939 6.21023 18.6069C7.33305 18.7386 8.39652 18.1496 8.79438 17.7967C8.48503 17.4178 7.81672 16.4831 6.48597 16.327Z" fill="#82C8FF"/>
<path d="M6.5174 4.66022C6.71871 3.6374 6.25947 2.84226 5.80023 2.04712C5.05582 2.70099 4.41296 3.2858 4.22843 4.22339C4.01329 5.31654 4.5323 6.40387 4.86083 6.82031C5.26704 6.54409 6.26242 5.9558 6.5174 4.66022Z" fill="#82C8FF"/>
<path d="M4.05535 6.67415C3.34126 5.90537 2.41917 5.79461 1.49707 5.68384C1.5866 6.66217 1.68034 7.51903 2.33492 8.22374C3.0981 9.04536 4.29409 9.28301 4.82948 9.27144C4.84632 8.78561 4.95985 7.64792 4.05535 6.67415Z" fill="#82C8FF"/>
<path d="M4.51629 13.3945C3.47257 13.2238 2.67769 13.6971 1.88281 14.1705C2.56651 14.8857 3.1774 15.5029 4.13413 15.6594C5.2496 15.8419 6.33951 15.3019 6.75346 14.9674C6.46217 14.5749 5.83832 13.6108 4.51629 13.3945Z" fill="#82C8FF"/>
<path d="M4.02254 10.3127C3.14983 9.72369 2.22628 9.822 1.30273 9.92031C1.61552 10.853 1.9044 11.6666 2.70438 12.2065C3.63709 12.836 4.85664 12.8 5.37537 12.669C5.27975 12.1921 5.12797 11.0588 4.02254 10.3127Z" fill="#82C8FF"/>
<path d="M18.8167 9.04481C18.7062 9.06646 18.6338 9.17471 18.6554 9.28521L19.0508 11.293C19.0724 11.4036 19 11.5116 18.8895 11.5335L12.2636 12.8379C12.1531 12.8595 12.0451 12.7872 12.0232 12.6766L11.6279 10.6688C11.6062 10.5583 11.498 10.4859 11.3875 10.5076L10.1827 10.7448C10.0721 10.7665 9.99976 10.8747 10.0214 10.9852L11.0097 16.0049C11.0313 16.1154 11.1396 16.1878 11.2501 16.1662L21.0888 14.2292C21.1993 14.2075 21.2717 14.0993 21.2501 13.9887L20.2618 8.96903C20.2402 8.85852 20.1319 8.78613 20.0214 8.80778L18.8167 9.04481Z" fill="#0044EE"/>
<path d="M18.7967 4.83691L10.2579 6.51797C10.2579 6.51797 9.60387 9.92542 9.6731 10.2772C9.82533 11.051 10.5757 11.5519 11.3495 11.3997C11.9812 11.2754 12.432 10.7508 12.494 10.1419C12.782 10.6818 13.3977 10.9942 14.0294 10.8699C14.6611 10.7457 15.1121 10.222 15.1739 9.61329C15.4619 10.1532 16.0778 10.4662 16.7093 10.3417C17.341 10.2175 17.7922 9.69426 17.854 9.08534C18.142 9.62525 18.7579 9.93828 19.3894 9.81401C20.1632 9.66178 20.6681 8.91642 20.5157 8.14287C20.4846 7.98433 18.7967 4.83691 18.7967 4.83691ZM17.6996 8.22203C17.6975 8.23737 17.6948 8.2527 17.6932 8.26827C17.6858 8.25451 17.6774 8.24143 17.6698 8.2279L17.6996 8.22203ZM15.0192 8.74954C15.0172 8.76487 15.0142 8.78021 15.0127 8.79577C15.0052 8.78201 14.9969 8.76893 14.9892 8.7554L15.0192 8.74954ZM12.3391 9.27726C12.337 9.2926 12.3343 9.30793 12.3327 9.3235C12.3253 9.30974 12.317 9.29666 12.3093 9.28313L12.3391 9.27726Z" fill="#EB1919"/>
<path d="M21.3441 11.648C21.4785 11.4778 21.6321 11.5107 21.6856 11.7209L21.9664 12.8287C22.0196 13.0389 22.2295 13.2725 22.433 13.3478L23.5047 13.7445C23.7081 13.8198 23.7243 13.9761 23.5407 14.0916L22.5739 14.701C22.3903 14.8167 22.2332 15.0886 22.2244 15.3054L22.1781 16.4472C22.1693 16.6639 22.0259 16.7278 21.859 16.5888L20.9808 15.8577C20.8142 15.719 20.507 15.6534 20.2982 15.712L19.1978 16.021C18.989 16.0796 18.8839 15.9628 18.9644 15.7614L19.3884 14.7003C19.4689 14.4989 19.4362 14.1863 19.316 14.0059L18.6823 13.0551C18.5621 12.8747 18.6405 12.7387 18.8571 12.7529L19.9973 12.8282C20.2138 12.8424 20.5009 12.715 20.6353 12.5447L21.3441 11.648Z" fill="#FFCC00"/>
<path fill-rule="evenodd" clip-rule="evenodd" d="M28.0321 5.8947C27.8096 5.99423 27.8095 5.99414 27.8095 5.99407L27.81 5.99519L27.8125 6.00124L27.8236 6.02834C27.8335 6.05298 27.8481 6.09064 27.8663 6.14056C27.9027 6.24043 27.9531 6.38927 28.0077 6.58119C28.1168 6.9652 28.2423 7.52056 28.305 8.20026C28.4305 9.55903 28.3053 11.412 27.3007 13.3905C26.5413 14.8861 25.9652 15.4862 25.463 16.0093C25.3848 16.0907 25.3084 16.1704 25.2333 16.2512C24.9463 16.5604 24.6786 16.8882 24.4209 17.391C24.1652 17.8898 23.9236 18.5523 23.6757 19.5287C23.6422 19.6606 23.7205 19.795 23.8506 19.829C23.9807 19.8629 24.1133 19.7835 24.1468 19.6516C24.3895 18.6957 24.62 18.0721 24.8526 17.6184C25.0831 17.1687 25.3197 16.8778 25.5876 16.5892C25.6606 16.5105 25.7359 16.4321 25.8136 16.3512C26.3242 15.8193 26.9407 15.1772 27.7333 13.6161C28.7891 11.5367 28.9215 9.58536 28.7894 8.15431C28.7234 7.4391 28.5913 6.85317 28.4751 6.44461C28.417 6.24025 28.3628 6.07999 28.3227 5.96983C28.3026 5.91474 28.2861 5.87214 28.2743 5.84279C28.2685 5.82812 28.2638 5.81675 28.2604 5.80878L28.2565 5.79939L28.2553 5.79663L28.2549 5.79574L28.2548 5.79542C28.2547 5.79529 28.2547 5.79517 28.0321 5.8947Z" fill="#82C8FF"/>
<path d="M26.8504 16.327C27.901 16.2038 28.6729 16.7127 29.4448 17.2217C28.7283 17.9052 28.0892 18.4939 27.1261 18.6069C26.0033 18.7386 24.9398 18.1496 24.542 17.7967C24.8513 17.4178 25.5196 16.4831 26.8504 16.327Z" fill="#82C8FF"/>
<path d="M26.8182 4.66022C26.6169 3.6374 27.0761 2.84226 27.5353 2.04712C28.2798 2.70099 28.9226 3.2858 29.1071 4.22339C29.3223 5.31654 28.8033 6.40387 28.4747 6.82031C28.0685 6.54409 27.0731 5.9558 26.8182 4.66022Z" fill="#82C8FF"/>
<path d="M29.2807 6.67415C29.9948 5.90537 30.9169 5.79461 31.839 5.68384C31.7494 6.66217 31.6557 7.51904 31.0011 8.22374C30.2379 9.04537 29.042 9.28301 28.5066 9.27144C28.4897 8.78561 28.3762 7.64792 29.2807 6.67415Z" fill="#82C8FF"/>
<path d="M28.8202 13.3945C29.8639 13.2238 30.6588 13.6971 31.4537 14.1705C30.7699 14.8857 30.1591 15.5029 29.2023 15.6594C28.0869 15.8419 26.997 15.3019 26.583 14.9674C26.8743 14.5749 27.4981 13.6108 28.8202 13.3945Z" fill="#82C8FF"/>
<path d="M29.3137 10.3127C30.1864 9.72368 31.11 9.822 32.0335 9.92031C31.7207 10.853 31.4319 11.6666 30.6319 12.2065C29.6992 12.836 28.4796 12.8 27.9609 12.669C28.0565 12.1921 28.2083 11.0588 29.3137 10.3127Z" fill="#82C8FF"/>
</g>
<defs>
<clipPath id="clip0">
<rect width="32" height="20" fill="white" transform="translate(0.667969 0.836914)"/>
</clipPath>
</defs>
</svg>
