<svg width="31" height="31" viewBox="0 0 31 31" fill="none" xmlns="http://www.w3.org/2000/svg">
<path d="M30.0927 4.30706L26.2572 0.471687C25.6986 -0.0869458 24.7895 -0.0868872 24.2309 0.471687L17.0094 7.6929C16.8286 7.87377 16.8286 8.16686 17.0094 8.34774C17.1903 8.5285 17.4834 8.5285 17.6642 8.34774L24.8856 1.12653C24.9814 1.03079 25.1086 0.978113 25.244 0.978113C25.3794 0.978113 25.5066 1.03079 25.6024 1.12653L29.4379 4.9619C29.5336 5.05758 29.5863 5.18485 29.5863 5.32026C29.5863 5.45561 29.5336 5.58288 29.4379 5.67856L28.4966 6.61981L26.0304 4.15372C25.8496 3.97295 25.5564 3.97295 25.3756 4.15372C25.1948 4.3346 25.1948 4.62768 25.3756 4.80856L27.8418 7.27465L26.7664 8.35002L25.6825 7.26616C25.5016 7.0854 25.2085 7.0854 25.0277 7.26616C24.8468 7.44704 24.8468 7.74012 25.0277 7.921L26.1116 9.00481L25.0362 10.0802L23.9523 8.99631C23.7714 8.81555 23.4783 8.81555 23.2975 8.99631C23.1166 9.17719 23.1166 9.47028 23.2975 9.65116L24.3814 10.735L23.306 11.8103L20.8398 9.34412C20.659 9.16342 20.3658 9.16331 20.185 9.34412C20.0041 9.525 20.0041 9.81809 20.185 9.99897L22.6512 12.4651L21.5758 13.5405L20.4919 12.4566C20.3111 12.2759 20.0179 12.2759 19.8371 12.4566C19.6562 12.6375 19.6562 12.9306 19.8371 13.1115L20.9209 14.1953L20.0112 15.105L15.459 10.5529L17.6642 8.34774C17.8451 8.16686 17.1903 8.52862 17.0094 8.34774C16.8286 8.16698 17.1903 7.51213 17.0094 7.6929L14.8041 9.89807L6.2628 1.35727C5.66877 0.763249 4.87896 0.43612 4.03888 0.43612C3.1988 0.436179 2.409 0.763308 1.81502 1.35733C1.22093 1.95135 0.893788 2.74108 0.893788 3.5812C0.893788 4.42126 1.22093 5.21104 1.81496 5.80506L10.3561 14.346L0.930703 23.7713C0.372057 24.33 0.372057 25.239 0.930703 25.7977L4.76617 29.6331C5.03676 29.9037 5.39659 30.0527 5.77934 30.0527C6.16208 30.0527 6.52191 29.9037 6.7925 29.6331L16.218 20.2078L18.4069 22.3966C18.5877 22.5774 18.2261 21.9226 18.4069 21.7418C18.5877 21.5609 19.2425 21.9227 19.0617 21.7418L16.6175 19.2977C16.5995 19.2692 16.5784 19.2421 16.5536 19.2173C16.5289 19.1926 16.5018 19.1715 16.4734 19.1535L6.44052 9.12088L7.56936 7.99207L8.44993 8.78251C24.7037 24.9004 8.65882 8.78251 8.77736 8.78251C8.89589 8.78251 9.01437 8.73727 9.10479 8.64692C9.28561 8.46604 9.28561 8.17295 9.10479 7.99207L8.33713 7.22444L9.57882 5.98278L14.4761 10.88L14.4767 10.8806L14.4774 10.8812L19.6385 16.0422C19.6513 16.0591 19.6649 16.0756 19.6803 16.091C19.6957 16.1064 19.7121 16.12 19.729 16.1328L26.6004 23.004L25.3587 24.2456L18.4259 17.313C18.4218 17.3085 18.418 17.3038 18.4136 17.2995L15.649 14.5348C15.6444 14.5303 15.6394 14.5263 15.6347 14.5219L9.10479 7.99207C8.92396 7.81131 9.28561 8.46616 9.10479 8.64692C8.92396 8.8278 7.56936 7.99207 8.44993 8.78251L24.7037 24.9004L23.4619 26.142L19.0617 21.7418C18.8809 21.561 18.5877 21.561 18.4069 21.7418C18.2261 21.9227 18.2261 22.2158 18.4069 22.3966L23.1346 27.1242C23.1795 27.1692 23.2352 27.2054 23.2944 27.2284L28.889 29.4004C28.9772 29.4346 29.0692 29.4513 29.1605 29.4513C29.3563 29.4513 29.5486 29.3746 29.6921 29.231C29.9025 29.0205 29.9688 28.7053 29.8609 28.4279L27.6865 22.836C27.6636 22.777 27.6273 22.7212 27.5824 22.6764L20.6659 15.76L30.0927 6.3334C30.6514 5.77471 30.6514 4.86575 30.0927 4.30706ZM15.5634 19.553L14.6547 20.4614L13.5709 19.3775C13.39 19.1968 13.0969 19.1968 12.916 19.3775C12.7352 19.5584 12.7352 19.8515 12.916 20.0324L13.9999 21.1163L12.9245 22.1916L10.4583 19.7255C10.2775 19.5447 9.98436 19.5447 9.80353 19.7255C9.62271 19.9063 9.62271 20.1994 9.80353 20.3803L12.2697 22.8465L11.1943 23.9218L10.1105 22.838C9.92963 22.6572 9.63648 22.6572 9.45565 22.838C9.27483 23.0188 9.27483 23.3119 9.45565 23.4928L10.5395 24.5766L9.46415 25.652L8.38026 24.5681C8.19943 24.3874 7.90628 24.3874 7.72546 24.5681C7.54463 24.749 7.54463 25.0421 7.72546 25.223L8.80935 26.3068L7.73395 27.3822L5.26774 24.9161C5.08692 24.7353 4.79376 24.7353 4.61294 24.9161C4.43212 25.0969 4.43212 25.39 4.61294 25.5709L7.07915 28.037L6.13788 28.9782C6.04213 29.074 5.91487 29.1267 5.77951 29.1267C5.64416 29.1267 5.51689 29.074 5.42114 28.9782L1.58568 25.1428C1.3881 24.9452 1.3881 24.6237 1.58568 24.4261L11.0111 15.0009L15.5634 19.553ZM2.46976 5.15028C1.60455 4.28508 1.60455 2.87731 2.46976 2.01212C3.33498 1.14686 4.74279 1.14686 5.608 2.01212L7.07148 3.47555L3.93324 6.61372L2.46976 5.15028ZM7.35513 6.89667L7.35455 6.89725L5.78572 8.46604L4.5881 7.26844L7.72633 4.13028L8.92396 5.32788L7.35513 6.89667ZM28.854 28.3934L24.2915 26.6222L27.0807 23.8331L28.854 28.3934Z" fill="#2C2B3F"/>
</svg>
