<svg width="512" height="512" viewBox="0 0 512 512" fill="none" xmlns="http://www.w3.org/2000/svg">
<path d="M152.664 106.94H147.664V111.94V427.06H125.668V84.9399H361V427.06H339V111.94V106.94H334H152.664Z" stroke="black" stroke-width="10"/>
<path d="M452.824 425.06H59.1758C57.3193 425.06 55.5388 425.798 54.226 427.11C52.9133 428.423 52.1758 430.204 52.1758 432.06C52.1758 433.917 52.9133 435.697 54.226 437.01C55.5388 438.323 57.3193 439.06 59.1758 439.06H452.824C454.68 439.06 456.461 438.323 457.774 437.01C459.086 435.697 459.824 433.917 459.824 432.06C459.824 430.204 459.086 428.423 457.774 427.11C456.461 425.798 454.68 425.06 452.824 425.06V425.06Z" fill="black"/>
<path d="M296.633 296.162C304.272 296.162 310.465 289.969 310.465 282.33C310.465 274.691 304.272 268.498 296.633 268.498C288.994 268.498 282.801 274.691 282.801 282.33C282.801 289.969 288.994 296.162 296.633 296.162Z" fill="black"/>
</svg>
