<svg width="368" height="368" viewBox="0 0 368 368" fill="none" xmlns="http://www.w3.org/2000/svg">
<g clip-path="url(#clip0)">
<path d="M363.334 48.5334C360.934 46.1334 357.734 44.5334 353.734 44.5334H14.5336C10.9336 44.5334 7.33359 46.1334 4.93359 48.5334C2.53359 50.9334 0.933594 54.1334 0.933594 58.1334V309.733C1.33359 313.733 2.53359 316.933 5.33359 319.333C7.73359 321.733 11.3336 323.333 14.9336 323.333H353.734C357.334 323.333 360.934 321.733 363.334 319.333C365.734 316.933 367.334 313.733 367.334 309.733V58.1334C367.334 54.5334 365.734 50.9334 363.334 48.5334ZM354.934 309.733C354.934 310.133 354.934 310.133 354.534 310.533C354.534 310.533 354.134 310.933 353.734 310.933H14.5336C14.1336 310.933 14.1336 310.933 13.7336 310.533C13.7336 310.533 13.3336 310.133 13.3336 309.733V58.1334H13.7336C13.7336 57.7334 13.7336 57.7334 14.1336 57.3334C14.1336 57.3334 14.5336 56.9334 14.9336 56.9334H353.734C354.134 56.9334 354.134 56.9334 354.534 57.3334C354.534 57.3334 354.934 57.7334 354.934 58.1334V309.733Z" fill="black"/>
<path d="M327.334 86.9334C325.334 84.9334 322.534 83.7334 319.334 83.7334H48.934C45.734 83.7334 42.934 84.9334 40.934 86.9334C38.934 88.9334 37.734 91.7334 37.734 94.9334V273.733C37.334 276.533 38.534 279.333 40.934 281.733C42.934 283.733 45.734 284.933 48.934 284.933H50.134H116.934H136.534H183.734H227.334H318.134H319.334C322.534 284.933 325.334 283.733 327.334 281.733C329.334 279.733 330.534 276.933 330.534 273.733V94.9334C330.534 91.7334 329.334 88.9334 327.334 86.9334ZM227.334 272.933V272.533H183.734H136.534H116.934H60.934L88.934 224.133L116.934 175.733L144.934 224.133V224.533L154.534 241.333C154.934 242.133 155.734 242.933 156.934 243.733C159.734 245.333 163.734 244.533 165.334 241.333L187.334 203.333L227.334 133.733L267.334 202.933V203.333L307.334 272.933H227.334V272.933ZM318.534 266.533L278.134 196.933V196.533L232.534 118.133C230.934 115.333 226.934 114.133 224.134 115.733C223.334 116.133 222.534 116.933 221.734 118.133L176.534 196.933L160.134 225.333L155.734 217.733V217.333L122.534 159.733C120.934 156.933 116.934 155.733 114.134 157.333C113.334 157.733 112.534 158.533 111.734 159.733L78.534 217.733L50.534 266.533V95.7334H318.534V266.533V266.533Z" fill="black"/>
<path d="M175.333 117.333C171.333 113.333 165.333 110.533 158.933 110.533C152.933 110.533 147.333 112.933 142.933 116.933L142.533 117.333C138.533 121.333 135.733 127.333 135.733 133.733C135.733 140.133 138.533 145.733 142.533 150.133C146.533 154.133 152.533 156.933 158.933 156.933C165.333 156.933 170.933 154.533 175.333 150.133C179.333 146.133 182.133 140.133 182.133 133.733C182.133 127.333 179.733 121.733 175.333 117.333ZM166.533 141.333C164.533 143.333 161.733 144.533 158.933 144.533C156.133 144.533 153.333 143.333 151.333 141.333C149.333 139.333 148.133 136.533 148.133 133.733C148.133 130.533 149.333 128.133 151.333 126.133C153.333 124.133 156.133 122.933 158.933 122.933C161.733 122.933 164.533 124.133 166.533 126.133C168.533 128.133 169.733 130.933 169.733 133.733C169.733 136.533 168.533 139.333 166.533 141.333Z" fill="black"/>
</g>
<defs>
<clipPath id="clip0">
<rect width="366.4" height="366.4" fill="white" transform="translate(0.933594 0.733398)"/>
</clipPath>
</defs>
</svg>
