<svg width="322" height="78" viewBox="0 0 322 78" fill="none" xmlns="http://www.w3.org/2000/svg">
<path d="M26.1466 51.0065C30.8183 51.0065 34.723 47.7991 38.0001 44.1036C38.4185 43.6155 38.6277 43.0577 38.6277 42.5696C38.6277 41.8724 38.2093 41.2448 37.4423 40.8962C35.6991 42.6394 32.7009 44.3825 30.121 44.3825C28.3081 44.3825 27.1925 43.1275 28.0292 39.2228L32.9101 16.1433C32.0734 15.5855 30.888 15.2369 29.633 15.2369C27.1228 15.2369 24.7521 16.4222 24.0548 19.6297L21.8933 29.6703C19.2437 29.9492 16.3849 30.1583 13.2472 30.2281L15.6877 19.0718C16.3152 16.4222 14.8509 15.2369 12.3408 15.2369C9.41229 15.2369 6.90214 16.7011 4.53144 18.5838C3.13691 19.6994 3.62499 21.8609 4.53144 22.4187C5.15898 21.8609 5.57733 21.582 5.92597 21.582C6.5535 21.582 6.90214 22.2095 6.62323 23.3252L0.835938 50.1001C1.67265 50.6579 2.858 51.0065 4.11308 51.0065C6.62323 51.0065 9.06366 49.8212 9.76092 46.6138L12.2711 34.9695C15.339 34.83 18.4767 34.1328 21.1263 33.296L19.7318 40.0595C17.8492 49.0542 22.6603 51.0065 26.1466 51.0065Z" fill="url(#paint0_linear_1153_685)"/>
<path d="M56.0124 20.2572C57.6859 20.2572 59.1501 20.5361 60.4749 21.0242C61.5208 21.4425 62.7062 20.6756 62.8456 19.0718C60.7538 15.9342 57.9648 14.958 54.4784 14.958C43.9497 14.958 36.6285 28.1363 36.6285 38.665C36.6285 45.2193 39.6964 51.0065 46.8783 51.0065C54.2693 51.0065 62.497 42.7091 64.5888 33.5052C65.9833 33.7841 67.3778 33.8538 68.7724 33.8538C68.6329 35.1786 68.5632 36.4337 68.4935 37.6191C67.9356 47.3808 71.422 51.0065 76.4423 51.0065C85.2278 51.0065 94.9198 41.7329 95.7565 31.2042C95.7565 30.6464 95.8262 30.0886 95.7565 29.5308C99.7309 28.2757 103.566 25.5564 105.1 24.3711C106.285 23.4646 106.285 21.5123 105.448 20.8847C102.52 22.9068 98.7547 25.138 94.5711 26.3234C93.4555 24.7894 91.7124 23.883 89.6206 23.883C85.6462 23.883 83.9727 27.0207 85.2278 30.507C85.7856 30.7859 86.8315 30.9253 87.9471 30.8556C88.7141 35.4576 86.5526 45.2193 80.6258 45.2193C78.3249 45.2193 76.2331 43.3366 76.5817 36.5035C76.6514 34.9695 76.8606 33.0869 77.2093 30.9951C86.3434 25.2775 95.4079 12.5873 95.8262 7.42753C96.1748 2.96503 93.5252 0.664062 89.2719 0.664062C77.9065 0.664062 71.2128 17.1195 69.121 31.0648C67.7962 31.0648 66.4714 30.9253 65.0071 30.7162C65.0769 30.4373 65.0769 30.1583 65.0769 29.8097C65.2163 25.3472 62.3575 22.4884 58.5923 22.4884C54.6179 22.4884 53.0839 25.9748 54.5482 29.8097C55.6638 30.507 56.7794 31.0648 57.895 31.5529C58.9409 38.7347 53.9904 44.9403 50.0857 44.9403C47.6452 44.9403 45.5535 42.5696 45.5535 36.4337C45.5535 29.6005 49.6673 20.2572 56.0124 20.2572ZM89.0627 4.9871C90.527 4.9871 91.0151 6.17245 90.7362 8.19452C90.0389 13.5635 84.1819 22.2793 77.9065 27.2996C80.068 17.1195 84.4608 4.9871 89.0627 4.9871Z" fill="url(#paint1_linear_1153_685)"/>
<path d="M116.783 14.958C106.254 14.958 98.9328 28.1363 98.9328 38.665C98.9328 45.2193 102.001 51.0065 109.183 51.0065C120.13 51.0065 127.59 37.8283 127.59 27.439C127.59 20.6058 124.383 14.958 116.783 14.958ZM118.317 20.2572C121.176 20.2572 122.361 23.116 122.361 26.8812C122.361 34.2025 117.898 44.9403 112.39 44.9403C109.95 44.9403 107.858 42.5696 107.858 36.4337C107.858 29.6005 111.972 20.2572 118.317 20.2572Z" fill="url(#paint2_linear_1153_685)"/>
<path d="M131.578 19.6297C131.16 20.048 131.09 20.5361 131.09 21.0242C131.09 21.7912 131.509 22.5582 132.276 22.9068C133.879 21.3728 136.738 19.8388 139.039 19.8388C141.061 19.8388 142.735 20.8847 142.735 23.4646C142.735 30.5767 127.465 29.8097 127.465 41.454C127.465 46.4743 131.509 51.0065 138.969 51.0065C145.315 51.0065 153.124 45.8468 156.819 37.6888C157.447 36.364 156.819 35.5273 155.285 35.6667C152.148 41.7329 146.43 44.8706 140.713 44.8706C137.435 44.8706 135.832 43.4064 135.832 41.5238C135.832 34.3419 150.753 34.4814 150.753 22.6279C150.753 18.2351 147.685 14.7488 142.595 14.7488C138.481 14.7488 135.204 16.4222 131.578 19.6297Z" fill="url(#paint3_linear_1153_685)"/>
<path d="M153.951 38.665C153.951 45.2193 157.019 51.0065 164.201 51.0065C172.499 51.0065 181.981 40.4779 182.4 29.9492C186.932 29.0427 191.673 25.6959 193.417 24.3711C194.602 23.4646 194.602 21.4425 193.765 20.8847C190.558 23.0463 186.514 25.5564 181.842 26.6023C180.866 24.0224 178.635 22.4884 175.915 22.4884C171.941 22.4884 170.407 25.9748 171.871 29.8097C172.638 30.2978 173.823 30.5767 175.078 30.6464C176.752 38.1769 171.522 44.9403 167.409 44.9403C164.968 44.9403 162.876 42.5696 162.876 36.4337C162.876 29.6005 166.99 20.2572 173.335 20.2572C175.009 20.2572 176.473 20.5361 177.798 21.0242C178.844 21.4425 180.029 20.6756 180.168 19.0718C178.077 15.9342 175.288 14.958 171.801 14.958C161.273 14.958 153.951 28.1363 153.951 38.665Z" fill="url(#paint4_linear_1153_685)"/>
<path d="M222.692 44.0339C223.878 42.988 223.669 41.454 222.623 40.5476C220.182 42.6394 216.487 44.7312 212.652 46.6138C212.861 45.7073 213.07 44.7312 213.279 43.755L219.136 16.1433C218.3 15.5855 217.114 15.2369 215.859 15.2369C214.116 15.2369 212.233 15.8644 211.048 17.259C209.305 15.725 207.074 14.958 203.936 14.958C194.244 14.958 186.365 27.0904 186.365 39.2925C186.365 43.755 187.829 51.0065 195.081 51.0065C198.846 51.0065 202.402 48.3569 205.261 44.522C204.703 46.4743 204.215 48.2175 203.727 49.9607C194.314 53.447 183.436 60.071 183.436 68.7171C183.436 74.5044 187.411 77.2934 191.664 77.2934C203.727 77.2934 208.608 63.5573 211.745 50.5882C216.696 48.2872 221.437 45.1495 222.692 44.0339ZM205.819 39.432C203.936 42.0118 201.007 43.8247 198.776 43.8247C196.615 43.8247 195.011 42.2907 195.011 38.8044C195.011 31.2042 198.009 20.1875 206.446 20.1875C207.492 20.1875 208.538 20.3269 209.723 20.7453L205.819 39.432ZM191.037 71.0878C190.13 71.0878 188.178 70.251 188.178 67.8106C188.178 63.139 194.593 57.9095 202.262 54.8415C198.706 66.2766 195.848 71.0878 191.037 71.0878Z" fill="url(#paint5_linear_1153_685)"/>
<path d="M244.518 51.0065C249.19 51.0065 253.095 47.7991 256.372 44.1036C256.79 43.6155 256.999 43.0577 256.999 42.5696C256.999 41.8724 256.581 41.2448 255.814 40.8962C254.071 42.6394 251.073 44.3825 248.493 44.3825C246.68 44.3825 245.564 43.1275 246.401 39.2228L251.282 16.1433C250.445 15.5855 249.26 15.2369 248.005 15.2369C245.495 15.2369 243.124 16.4222 242.427 19.6297L240.265 29.6703C237.615 29.9492 234.757 30.1583 231.619 30.2281L234.059 19.0718C234.687 16.4222 233.223 15.2369 230.713 15.2369C227.784 15.2369 225.274 16.7011 222.903 18.5838C221.509 19.6994 221.997 21.8609 222.903 22.4187C223.531 21.8609 223.949 21.582 224.298 21.582C224.925 21.582 225.274 22.2095 224.995 23.3252L219.208 50.1001C220.044 50.6579 221.23 51.0065 222.485 51.0065C224.995 51.0065 227.435 49.8212 228.133 46.6138L230.643 34.9695C233.711 34.83 236.848 34.1328 239.498 33.296L238.104 40.0595C236.221 49.0542 241.032 51.0065 244.518 51.0065Z" fill="url(#paint6_linear_1153_685)"/>
<path d="M255.628 37.6191C254.442 42.8486 254.442 51.0065 262.182 51.0065C266.156 51.0065 269.573 47.6597 272.362 43.1275C272.013 49.2634 275.43 51.0065 278.847 51.0065C282.612 51.0065 287.632 47.7991 290.909 44.1036C291.328 43.6155 291.537 43.0577 291.537 42.5696C291.537 41.8724 291.118 41.2448 290.352 40.8962C288.608 42.6394 285.61 44.3825 283.03 44.3825C281.217 44.3825 280.102 43.1275 280.938 39.2228L285.819 16.1433C284.983 15.5855 283.797 15.2369 282.542 15.2369C280.032 15.2369 277.382 16.4222 276.685 19.6297L272.502 39.3622C270.619 41.5935 268.527 42.988 266.087 42.988C263.995 42.988 263.088 41.7329 263.716 38.8741L267.969 19.0718C268.597 16.4222 267.133 15.2369 264.622 15.2369C261.694 15.2369 259.184 16.7011 256.813 18.5838C255.419 19.6994 255.907 21.8609 256.813 22.4187C257.441 21.8609 257.859 21.582 258.208 21.582C258.835 21.582 259.184 22.2095 258.905 23.3252L255.628 37.6191Z" fill="url(#paint7_linear_1153_685)"/>
<path d="M315.043 21.6517C315.043 18.514 313.439 14.958 307.094 14.958C295.589 14.958 289.593 29.4611 289.593 38.5255C289.593 47.1019 294.892 51.0065 301.446 51.0065C308.21 51.0065 316.298 46.823 321.109 39.7806C321.876 38.5255 321.179 37.0613 319.366 37.4099C316.368 41.3843 309.953 44.9403 304.932 44.9403C301.725 44.9403 299.145 43.5458 298.448 39.7806C311.905 32.3199 315.043 27.5785 315.043 21.6517ZM307.582 20.3966C308.767 20.3966 309.604 21.5123 309.604 23.116C309.604 27.6482 305.002 32.529 298.239 36.7824C298.448 31.9015 300.679 20.3966 307.582 20.3966Z" fill="url(#paint8_linear_1153_685)"/>
<defs>
<linearGradient id="paint0_linear_1153_685" x1="3.09007" y1="7.87463" x2="319.764" y2="50.4487" gradientUnits="userSpaceOnUse">
<stop stop-color="#DFC079"/>
<stop offset="0.137944" stop-color="#E4BE7E"/>
<stop offset="0.273751" stop-color="#FBDE89"/>
<stop offset="0.418258" stop-color="#E8C064"/>
<stop offset="0.567708" stop-color="#DABB71"/>
<stop offset="0.672458" stop-color="#F3D386"/>
<stop offset="0.8125" stop-color="#D2B26D"/>
<stop offset="1" stop-color="#E7BF7C"/>
</linearGradient>
<linearGradient id="paint1_linear_1153_685" x1="3.09007" y1="7.87463" x2="319.764" y2="50.4487" gradientUnits="userSpaceOnUse">
<stop stop-color="#DFC079"/>
<stop offset="0.137944" stop-color="#E4BE7E"/>
<stop offset="0.273751" stop-color="#FBDE89"/>
<stop offset="0.418258" stop-color="#E8C064"/>
<stop offset="0.567708" stop-color="#DABB71"/>
<stop offset="0.672458" stop-color="#F3D386"/>
<stop offset="0.8125" stop-color="#D2B26D"/>
<stop offset="1" stop-color="#E7BF7C"/>
</linearGradient>
<linearGradient id="paint2_linear_1153_685" x1="3.09007" y1="7.87463" x2="319.764" y2="50.4487" gradientUnits="userSpaceOnUse">
<stop stop-color="#DFC079"/>
<stop offset="0.137944" stop-color="#E4BE7E"/>
<stop offset="0.273751" stop-color="#FBDE89"/>
<stop offset="0.418258" stop-color="#E8C064"/>
<stop offset="0.567708" stop-color="#DABB71"/>
<stop offset="0.672458" stop-color="#F3D386"/>
<stop offset="0.8125" stop-color="#D2B26D"/>
<stop offset="1" stop-color="#E7BF7C"/>
</linearGradient>
<linearGradient id="paint3_linear_1153_685" x1="3.09007" y1="7.87463" x2="319.764" y2="50.4487" gradientUnits="userSpaceOnUse">
<stop stop-color="#DFC079"/>
<stop offset="0.137944" stop-color="#E4BE7E"/>
<stop offset="0.273751" stop-color="#FBDE89"/>
<stop offset="0.418258" stop-color="#E8C064"/>
<stop offset="0.567708" stop-color="#DABB71"/>
<stop offset="0.672458" stop-color="#F3D386"/>
<stop offset="0.8125" stop-color="#D2B26D"/>
<stop offset="1" stop-color="#E7BF7C"/>
</linearGradient>
<linearGradient id="paint4_linear_1153_685" x1="3.09007" y1="7.87463" x2="319.764" y2="50.4487" gradientUnits="userSpaceOnUse">
<stop stop-color="#DFC079"/>
<stop offset="0.137944" stop-color="#E4BE7E"/>
<stop offset="0.273751" stop-color="#FBDE89"/>
<stop offset="0.418258" stop-color="#E8C064"/>
<stop offset="0.567708" stop-color="#DABB71"/>
<stop offset="0.672458" stop-color="#F3D386"/>
<stop offset="0.8125" stop-color="#D2B26D"/>
<stop offset="1" stop-color="#E7BF7C"/>
</linearGradient>
<linearGradient id="paint5_linear_1153_685" x1="3.09007" y1="7.87463" x2="319.764" y2="50.4487" gradientUnits="userSpaceOnUse">
<stop stop-color="#DFC079"/>
<stop offset="0.137944" stop-color="#E4BE7E"/>
<stop offset="0.273751" stop-color="#FBDE89"/>
<stop offset="0.418258" stop-color="#E8C064"/>
<stop offset="0.567708" stop-color="#DABB71"/>
<stop offset="0.672458" stop-color="#F3D386"/>
<stop offset="0.8125" stop-color="#D2B26D"/>
<stop offset="1" stop-color="#E7BF7C"/>
</linearGradient>
<linearGradient id="paint6_linear_1153_685" x1="3.09007" y1="7.87463" x2="319.764" y2="50.4487" gradientUnits="userSpaceOnUse">
<stop stop-color="#DFC079"/>
<stop offset="0.137944" stop-color="#E4BE7E"/>
<stop offset="0.273751" stop-color="#FBDE89"/>
<stop offset="0.418258" stop-color="#E8C064"/>
<stop offset="0.567708" stop-color="#DABB71"/>
<stop offset="0.672458" stop-color="#F3D386"/>
<stop offset="0.8125" stop-color="#D2B26D"/>
<stop offset="1" stop-color="#E7BF7C"/>
</linearGradient>
<linearGradient id="paint7_linear_1153_685" x1="3.09007" y1="7.87463" x2="319.764" y2="50.4487" gradientUnits="userSpaceOnUse">
<stop stop-color="#DFC079"/>
<stop offset="0.137944" stop-color="#E4BE7E"/>
<stop offset="0.273751" stop-color="#FBDE89"/>
<stop offset="0.418258" stop-color="#E8C064"/>
<stop offset="0.567708" stop-color="#DABB71"/>
<stop offset="0.672458" stop-color="#F3D386"/>
<stop offset="0.8125" stop-color="#D2B26D"/>
<stop offset="1" stop-color="#E7BF7C"/>
</linearGradient>
<linearGradient id="paint8_linear_1153_685" x1="3.09007" y1="7.87463" x2="319.764" y2="50.4487" gradientUnits="userSpaceOnUse">
<stop stop-color="#DFC079"/>
<stop offset="0.137944" stop-color="#E4BE7E"/>
<stop offset="0.273751" stop-color="#FBDE89"/>
<stop offset="0.418258" stop-color="#E8C064"/>
<stop offset="0.567708" stop-color="#DABB71"/>
<stop offset="0.672458" stop-color="#F3D386"/>
<stop offset="0.8125" stop-color="#D2B26D"/>
<stop offset="1" stop-color="#E7BF7C"/>
</linearGradient>
</defs>
</svg>
