<svg width="14" height="16" viewBox="0 0 14 16" fill="none" xmlns="http://www.w3.org/2000/svg">
<g clip-path="url(#clip0_575:311)">
<path fill-rule="evenodd" clip-rule="evenodd" d="M5.83125 5.13065L11.4019 3.98021C11.4904 3.96194 11.5825 3.97941 11.6582 4.0288C11.7339 4.07819 11.787 4.15549 11.8059 4.24386L12.9598 9.81451C12.9688 9.85858 12.969 9.90398 12.9604 9.94813C12.9519 9.99229 12.9347 10.0343 12.9099 10.0718C12.8851 10.1094 12.8532 10.1416 12.8159 10.1668C12.7786 10.192 12.7368 10.2095 12.6927 10.2185L7.12205 11.3724C7.07799 11.3814 7.03258 11.3816 6.98843 11.3731C6.94428 11.3645 6.90223 11.3473 6.86472 11.3225C6.8272 11.2977 6.79494 11.2658 6.76977 11.2285C6.7446 11.1912 6.72702 11.1494 6.71804 11.1053L5.56762 5.53467C5.54935 5.44616 5.56681 5.35402 5.61619 5.27834C5.66558 5.20265 5.74288 5.14957 5.83125 5.13065Z" fill="#535353" stroke="#535353" stroke-miterlimit="10"/>
<path fill-rule="evenodd" clip-rule="evenodd" d="M2.45873 1.19963C2.43349 1.07434 2.45895 0.944149 2.52956 0.837604C2.60016 0.731058 2.71013 0.656863 2.83536 0.631281C2.89765 0.618278 2.96189 0.617717 3.02439 0.62963C3.0869 0.641542 3.14644 0.665681 3.19958 0.700682C3.25272 0.735683 3.29841 0.780848 3.33403 0.83357C3.36966 0.886293 3.39451 0.945539 3.40715 1.0079L5.96136 13.3681C5.98661 13.4934 5.96114 13.6236 5.89054 13.7301C5.81994 13.8367 5.70996 13.9109 5.58473 13.9365C5.45944 13.9617 5.32925 13.9362 5.2227 13.8656C5.11616 13.795 5.04195 13.6851 5.01637 13.5598L2.45873 1.19963Z" fill="#535353"/>
<path fill-rule="evenodd" clip-rule="evenodd" d="M5.58441 13.9369C5.45912 13.9621 5.32892 13.9367 5.22238 13.8661C5.11583 13.7954 5.04163 13.6855 5.01605 13.5603C5.00304 13.498 5.00248 13.4337 5.0144 13.3712C5.02631 13.3087 5.05046 13.2492 5.08546 13.196C5.12046 13.1429 5.16562 13.0972 5.21835 13.0616C5.27107 13.026 5.33031 13.0011 5.39267 12.9885L13.0998 11.3964C13.1619 11.3834 13.2259 11.3829 13.2882 11.3948C13.3505 11.4068 13.4098 11.431 13.4626 11.466C13.5155 11.501 13.5609 11.5462 13.5962 11.5989C13.6315 11.6516 13.6559 11.7108 13.6682 11.773C13.6812 11.8351 13.6817 11.8991 13.6697 11.9614C13.6578 12.0237 13.6336 12.0829 13.5985 12.1358C13.5635 12.1887 13.5183 12.2341 13.4656 12.2693C13.4129 12.3046 13.3538 12.3291 13.2916 12.3414L5.58441 13.9369Z" fill="#535353"/>
<path fill-rule="evenodd" clip-rule="evenodd" d="M0.924464 2.01474C0.798262 2.03997 0.667202 2.01413 0.560019 1.94289C0.452836 1.87165 0.378271 1.76082 0.352672 1.63469C0.328353 1.50949 0.354202 1.37975 0.424654 1.27343C0.495106 1.16711 0.604521 1.09272 0.729301 1.06632L2.8658 0.624643C2.991 0.600324 3.12075 0.626184 3.22706 0.696636C3.33338 0.767088 3.40776 0.876482 3.43416 1.00126C3.45948 1.12697 3.43411 1.25762 3.36357 1.36471C3.29303 1.47181 3.18303 1.54669 3.05753 1.57306L0.924464 2.01474Z" fill="#535353"/>
<path fill-rule="evenodd" clip-rule="evenodd" d="M5.09223 11.3584C5.65069 11.2431 6.23209 11.3544 6.70852 11.6677C7.18495 11.981 7.51741 12.4708 7.63275 13.0292C7.69035 13.3056 7.6929 13.5905 7.64024 13.8678C7.58759 14.1451 7.48077 14.4093 7.32589 14.6453C7.17101 14.8813 6.97112 15.0844 6.73766 15.243C6.5042 15.4016 6.24175 15.5127 5.96532 15.5698C5.40686 15.6851 4.82547 15.5738 4.34904 15.2605C3.8726 14.9471 3.54015 14.4574 3.4248 13.8989C3.31036 13.341 3.42154 12.7605 3.73403 12.2844C4.04652 11.8083 4.53487 11.4753 5.09223 11.3584Z" fill="#535353"/>
</g>
<defs>
<clipPath id="clip0_575:311">
<rect width="13.3326" height="15" fill="white" transform="translate(0.345703 0.614258)"/>
</clipPath>
</defs>
</svg>
