<svg width="24" height="19" viewBox="0 0 24 19" fill="none" xmlns="http://www.w3.org/2000/svg">
<path d="M22.5138 18.6179H6.73775C6.08754 18.6179 5.56055 18.0837 5.56055 17.4247C5.56055 16.7656 6.08754 16.2314 6.73775 16.2314H22.5134C23.1637 16.2314 23.6907 16.7656 23.6907 17.4247C23.6907 18.0837 23.164 18.6179 22.5138 18.6179Z" fill="#2C2B3F"/>
<path d="M22.5138 11.1276H6.73775C6.08754 11.1276 5.56055 10.5935 5.56055 9.93443C5.56055 9.27537 6.08754 8.74121 6.73775 8.74121H22.5134C23.1637 8.74121 23.6907 9.27537 23.6907 9.93443C23.691 10.5935 23.164 11.1276 22.5138 11.1276Z" fill="#2C2B3F"/>
<path d="M22.4963 4.04365H6.72017C6.06996 4.04365 5.54297 3.50949 5.54297 2.85044C5.54297 2.19139 6.06996 1.65723 6.72017 1.65723H22.4959C23.1461 1.65723 23.6731 2.19139 23.6731 2.85044C23.6731 3.50949 23.1465 4.04365 22.4963 4.04365Z" fill="#2C2B3F"/>
<path d="M1.67864 4.13954C2.55179 4.13954 3.25962 3.42208 3.25962 2.53705C3.25962 1.65203 2.55179 0.93457 1.67864 0.93457C0.805485 0.93457 0.0976562 1.65203 0.0976562 2.53705C0.0976562 3.42208 0.805485 4.13954 1.67864 4.13954Z" fill="#2C2B3F"/>
<path d="M1.67864 11.537C2.55179 11.537 3.25962 10.8195 3.25962 9.93451C3.25962 9.04949 2.55179 8.33203 1.67864 8.33203C0.805485 8.33203 0.0976562 9.04949 0.0976562 9.93451C0.0976562 10.8195 0.805485 11.537 1.67864 11.537Z" fill="#2C2B3F"/>
<path d="M1.67864 18.9345C2.55179 18.9345 3.25962 18.217 3.25962 17.332C3.25962 16.447 2.55179 15.7295 1.67864 15.7295C0.805485 15.7295 0.0976562 16.447 0.0976562 17.332C0.0976562 18.217 0.805485 18.9345 1.67864 18.9345Z" fill="#2C2B3F"/>
</svg>
