<svg width="19" height="19" viewBox="0 0 19 19" fill="none" xmlns="http://www.w3.org/2000/svg">
<path d="M3.08611 15.45L3.21109 15.0804L2.98023 14.7659C1.98387 13.4085 1.39844 11.7383 1.39844 9.93457C1.39844 5.39077 5.12507 1.68457 9.71877 1.68457H9.72331C14.317 1.68457 18.0436 5.39184 18.0436 9.93457C18.0436 14.4773 14.317 18.1846 9.72331 18.1846C8.02833 18.1846 6.4596 17.685 5.14413 16.8205L4.84581 16.6245L4.50553 16.7324L2.42982 17.3906L3.08611 15.45Z" stroke="#535353" stroke-width="1.5"/>
<path d="M13.8944 12.8622C13.718 13.3565 13.0176 13.7665 12.4589 13.8862C12.0768 13.9669 11.5775 14.0313 9.89704 13.3402C7.74748 12.4568 6.36321 10.29 6.25532 10.1494C6.152 10.0088 5.38672 9.00204 5.38672 7.96081C5.38672 6.91957 5.91976 6.41256 6.13463 6.19488C6.31109 6.0162 6.60276 5.93457 6.88254 5.93457C6.97306 5.93457 7.05443 5.93911 7.12757 5.94273C7.34244 5.9518 7.45033 5.9645 7.59205 6.301C7.76851 6.72275 8.19824 7.76399 8.24944 7.87101C8.30156 7.97804 8.35367 8.12316 8.28053 8.26374C8.21195 8.40886 8.15161 8.47326 8.04372 8.59661C7.93583 8.71996 7.83343 8.81429 7.72554 8.94671C7.62679 9.0619 7.51524 9.18525 7.63959 9.3984C7.76394 9.60701 8.19367 10.3027 8.82637 10.8614C9.64286 11.5824 10.3048 11.8128 10.5416 11.9108C10.7181 11.9833 10.9284 11.9661 11.0573 11.8301C11.221 11.655 11.423 11.3648 11.6287 11.0791C11.775 10.8741 11.9597 10.8487 12.1536 10.9212C12.3511 10.9893 13.3961 11.5017 13.611 11.6078C13.8258 11.7149 13.9676 11.7657 14.0197 11.8555C14.0709 11.9452 14.0709 12.367 13.8944 12.8622Z" fill="#535353"/>
</svg>
