<svg width="191" height="181" viewBox="0 0 191 181" fill="none" xmlns="http://www.w3.org/2000/svg">
<path fill-rule="evenodd" clip-rule="evenodd" d="M58.7505 115.329L0.0459419 82.2196C0.0153885 83.2157 0 84.2156 0 85.2191C0 138.117 42.7568 181 95.5 181C148.243 181 191 138.117 191 85.2191C191 70.6435 187.754 56.8282 181.947 44.4609L59.0206 115.797L58.7505 115.329Z" fill="#289E30"/>
<path d="M59.4918 43.8713L26.5 24.5L19.8306 33.4035L59.4918 55.3859L144.555 7.23391L135.5 0.5L59.4918 43.8713Z" fill="#289E30"/>
<path d="M59.4918 67.9473L13.5683 42.3011L8.87158 51.7222L59.4918 79.4619L161 22L153 14L59.4918 67.9473Z" fill="#289E30"/>
<path d="M59.4919 91.4996L5 61L1.5 72L59.4919 103.538L175.866 37.0669L169.604 29.2161L59.4919 91.4996Z" fill="#289E30"/>
</svg>
