<svg width="50" height="50" viewBox="0 0 50 50" fill="none" xmlns="http://www.w3.org/2000/svg">
<g clip-path="url(#clip0)">
<path d="M6.89653 11.2069H1.72412V7.75858C1.72412 5.85416 3.26798 4.3103 5.1724 4.3103H9.48274V11.2069H6.89653Z" fill="#1E81CE"/>
<path d="M6.03442 4.3103C7.93884 4.3103 9.4827 5.85416 9.4827 7.75858V46.5517C9.4827 48.4561 11.0266 50 12.931 50H35.3448V4.3103H6.03442Z" fill="#5AAAE7"/>
<path d="M44.8276 9.48276C44.8276 10.6552 42.9396 11.4397 42.5172 12.4483C42.0948 13.4569 42.8448 15.3879 42.0517 16.181C41.2586 16.9741 39.3707 16.181 38.3189 16.6466C37.2672 17.1121 36.5172 18.9655 35.3448 18.9655C34.1724 18.9655 33.3879 17.0776 32.3793 16.6552C31.3707 16.2328 29.4396 16.9828 28.6465 16.1897C27.8534 15.3966 28.6465 13.5086 28.181 12.4569C27.7155 11.4052 25.8621 10.6552 25.8621 9.48276C25.8621 8.31034 27.75 7.52586 28.1724 6.51724C28.5948 5.50862 27.8448 3.57759 28.6379 2.78448C29.431 1.99138 31.319 2.78448 32.3707 2.31897C33.4224 1.85345 34.1724 0 35.3448 0C36.5172 0 37.3017 1.88793 38.3103 2.31034C39.3189 2.73276 41.25 1.98276 42.0431 2.77586C42.8362 3.56897 42.0431 5.4569 42.5086 6.50862C42.9741 7.56034 44.8276 8.31034 44.8276 9.48276Z" fill="#FFD422"/>
<path d="M37.931 50.0001C39.8354 50.0001 41.3793 48.4562 41.3793 46.5518V43.1035H17.2414V46.5518C17.2414 48.4562 15.6975 50.0001 13.7931 50.0001H37.931Z" fill="#1E81CE"/>
<path d="M25.8621 15.5173L22.4138 18.9656H25.8621V22.4139L29.3104 18.9656L25.8621 15.5173Z" fill="#F40E34"/>
<path d="M35.3448 13.7931C37.7253 13.7931 39.6551 11.8632 39.6551 9.48271C39.6551 7.10217 37.7253 5.17236 35.3448 5.17236C32.9642 5.17236 31.0344 7.10217 31.0344 9.48271C31.0344 11.8632 32.9642 13.7931 35.3448 13.7931Z" fill="#E7B900"/>
<path d="M33.129 4.80784L32.3882 3.25041C33.3159 2.80967 34.3109 2.58618 35.3448 2.58618V4.31032C34.5686 4.31032 33.8227 4.47788 33.129 4.80784Z" fill="white"/>
<path d="M30.1724 9.48283H28.4482C28.4482 7.61429 29.1832 5.86451 30.5184 4.55664L31.7256 5.78832C30.7238 6.76947 30.1724 8.08153 30.1724 9.48283Z" fill="white"/>
<path d="M35.3448 16.3794V14.6553C37.0354 14.6553 38.6222 13.8265 39.5903 12.4382L41.0047 13.4249C39.7141 15.2749 37.5985 16.3794 35.3448 16.3794Z" fill="white"/>
<path d="M42.1716 10.4673L40.4642 10.2223C40.4996 9.97857 40.5173 9.72976 40.5173 9.48267H42.2414C42.2414 9.81144 42.2178 10.1427 42.1716 10.4673Z" fill="white"/>
<path d="M44.8275 15.5173L48.2758 18.9656H44.8275V22.4139L41.3793 18.9656L44.8275 15.5173Z" fill="#F40E34"/>
<path d="M32.7586 34.4827H12.069V39.6551H32.7586V34.4827Z" fill="white"/>
<path d="M23.2759 7.75854H12.069V12.0689H23.2759V7.75854Z" fill="white"/>
<path d="M32.7586 30.1724H12.069V31.8965H32.7586V30.1724Z" fill="white"/>
<path d="M32.7586 26.7241H12.069V28.4483H32.7586V26.7241Z" fill="white"/>
<path d="M23.2759 23.2759H12.069V25H23.2759V23.2759Z" fill="white"/>
<path d="M32.7586 23.2759H28.4482V25H32.7586V23.2759Z" fill="white"/>
<path d="M18.9655 19.8276H12.069V21.5518H18.9655V19.8276Z" fill="white"/>
<path d="M18.9655 16.3792H12.069V18.1033H18.9655V16.3792Z" fill="white"/>
</g>
<defs>
<clipPath id="clip0">
<rect width="50" height="50" fill="white"/>
</clipPath>
</defs>
</svg>
