<svg width="50" height="50" viewBox="0 0 50 50" fill="none" xmlns="http://www.w3.org/2000/svg">
<g clip-path="url(#clip0)">
<path d="M14.6893 0H42.9379V41.6667H14.6893V0Z" fill="#378BF7"/>
<path d="M17.5142 41.6667V2.77783H40.113V41.6667" fill="#6EC8FA"/>
<path d="M17.5142 41.6667V2.77783H40.113V41.6667" fill="#51BCF9"/>
<path d="M17.5142 4.16675H38.7006V41.6667H17.5142V4.16675Z" fill="#6EC8FA"/>
<path d="M25.9887 24.3056C25.9887 25.8396 24.7239 27.0834 23.1638 27.0834C21.6038 27.0834 20.339 25.8396 20.339 24.3056C20.339 22.7716 21.6038 21.5278 23.1638 21.5278C24.7239 21.5278 25.9887 22.7716 25.9887 24.3056Z" fill="#B3B3B3"/>
<path d="M24.5763 24.3056C24.5763 25.0726 23.9438 25.6945 23.1638 25.6945C22.3838 25.6945 21.7514 25.0726 21.7514 24.3056C21.7514 23.5386 22.3838 22.9167 23.1638 22.9167C23.9438 22.9167 24.5763 23.5386 24.5763 24.3056Z" fill="#CCCCCC"/>
<path d="M23.1639 23.6111H28.8136V25H23.1639V23.6111Z" fill="white"/>
<path d="M28.1074 11.1111H29.5198V12.5H28.1074V11.1111Z" fill="white"/>
</g>
<g clip-path="url(#clip1)">
<path d="M7.06213 8.33325H35.3107V49.9999H7.06213V8.33325Z" fill="#378BF7"/>
<path d="M9.88702 50V11.1111H32.4859V50" fill="#6EC8FA"/>
<path d="M9.88702 50V11.1111H32.4859V50" fill="#51BCF9"/>
<path d="M9.88702 12.5H31.0735V50H9.88702V12.5Z" fill="#6EC8FA"/>
<path d="M18.3616 32.6389C18.3616 34.1729 17.0967 35.4166 15.5367 35.4166C13.9767 35.4166 12.7119 34.1729 12.7119 32.6389C12.7119 31.1048 13.9767 29.8611 15.5367 29.8611C17.0967 29.8611 18.3616 31.1048 18.3616 32.6389Z" fill="#B3B3B3"/>
<path d="M16.9491 32.6389C16.9491 33.4059 16.3167 34.0278 15.5367 34.0278C14.7567 34.0278 14.1243 33.4059 14.1243 32.6389C14.1243 31.8719 14.7567 31.25 15.5367 31.25C16.3167 31.25 16.9491 31.8719 16.9491 32.6389Z" fill="#CCCCCC"/>
<path d="M15.5367 31.9443H21.1865V33.3332H15.5367V31.9443Z" fill="white"/>
<path d="M20.4802 19.4443H21.8927V20.8332H20.4802V19.4443Z" fill="white"/>
</g>
<defs>
<clipPath id="clip0">
<rect width="42.3729" height="41.6667" fill="white" transform="translate(7.62714)"/>
</clipPath>
<clipPath id="clip1">
<rect width="42.3729" height="41.6667" fill="white" transform="translate(0 8.33325)"/>
</clipPath>
</defs>
</svg>
