<svg width="50" height="50" viewBox="0 0 50 50" fill="none" xmlns="http://www.w3.org/2000/svg">
<g clip-path="url(#clip0)">
<path d="M16.6667 41.6667H33.3334V50.0001H16.6667V41.6667Z" fill="#E4BF98"/>
<path d="M16.6667 41.6667H30.8334V50.0001H16.6667V41.6667Z" fill="#F9DAAE"/>
<path d="M11.6667 21.6667V31.6667C11.6667 39.0308 17.6359 45.0001 25 45.0001C32.3641 45.0001 38.3334 39.0308 38.3334 31.6667V21.6667" fill="#E4BF98"/>
<path d="M23.75 44.9366C30.5265 44.3059 35.8334 38.6085 35.8334 31.6667V21.6667H11.6667V31.6667C11.6667 38.6085 16.9735 44.3059 23.75 44.9366Z" fill="#F9DAAE"/>
<path d="M35 26.6667H38.3333V30.0001H35V26.6667Z" fill="#999999"/>
<path d="M11.6667 26.6667H15V30.0001H11.6667V26.6667Z" fill="#999999"/>
<path d="M15 25V31.6667H22.5L23.3333 28.3333H26.6667L27.5 31.6667H35V25H15Z" fill="#B3B3B3"/>
<path d="M15 31.6666H21.875L22.5 29.1666H23.125L23.3333 28.3333H26.6667L27.5 31.6666H34.1667V25.8333H15V31.6666Z" fill="#CCCCCC"/>
<path d="M8.33331 18.3333H41.6666V21.6666H8.33331V18.3333Z" fill="#EB9238"/>
<path d="M8.33331 20H41.6666V21.6667H8.33331V20Z" fill="#F3A546"/>
<path d="M10 18.3333V14.9999C10 8.55664 15.2234 3.33325 21.6667 3.33325H28.3333C34.7766 3.33325 40 8.55664 40 14.9999V18.3333" fill="#F3A546"/>
<path d="M28.3333 1.66675H32.5L30.8333 18.3334H27.5" fill="#F4B23E"/>
<path d="M21.6667 1.66675H17.5L19.1667 18.3334H22.5" fill="#F4B23E"/>
<path d="M22.5 18.3333L20.8333 0H29.1666L27.5 18.3333" fill="#F3A546"/>
<path d="M25 37.5001C24.7868 37.5001 24.5732 37.4183 24.4108 37.2559L22.9883 35.8334H21.6667V34.1667H23.3334C23.5551 34.1667 23.7667 34.2542 23.9225 34.4109L25 35.4884L26.0775 34.4109C26.2333 34.2542 26.4449 34.1667 26.6667 34.1667H28.3334V35.8334H27.0117L25.5892 37.2559C25.4269 37.4183 25.2132 37.5001 25 37.5001Z" fill="#E4BF98"/>
<path d="M25 40.8333C22.6709 40.8333 20.3625 40.0635 18.4993 38.6658L17.8333 38.1665L18.8326 36.8335L19.4991 37.3332C21.0758 38.516 23.029 39.1667 25 39.1667C26.971 39.1667 28.9242 38.516 30.5001 37.3332L31.1674 36.8335L32.1667 38.1665L31.4998 38.6666C29.6375 40.0635 27.3291 40.8333 25 40.8333Z" fill="#E4BF98"/>
</g>
<defs>
<clipPath id="clip0">
<rect width="50" height="50" fill="white"/>
</clipPath>
</defs>
</svg>
