<svg width="50" height="50" viewBox="0 0 50 50" fill="none" xmlns="http://www.w3.org/2000/svg">
<g clip-path="url(#clip0)">
<path d="M5.83337 0V50H39.1667V38.3333H17.5V0H5.83337Z" fill="#F4B23E"/>
<path d="M15 2.5H5.83337V50H36.6667V40.8333H15V2.5Z" fill="#F8CD6D"/>
<path d="M13.3333 4.99992C13.3333 5.92033 12.5871 6.66659 11.6667 6.66659C10.7463 6.66659 10 5.92033 10 4.99992C10 4.07951 10.7463 3.33325 11.6667 3.33325C12.5871 3.33325 13.3333 4.07951 13.3333 4.99992Z" fill="white"/>
<path d="M5.83337 49.9999L17.5 38.3333H39.1667V49.9999H5.83337Z" fill="#B3B3B3"/>
<path d="M39.1667 49.9999V40.8333H19.1667L10 49.9999H39.1667Z" fill="#CCCCCC"/>
<path d="M25.8334 0L20.8334 5H24.1667V31.6667H39.1667V35L44.1667 30L39.1667 25V28.3333H27.5V5H30.8334L25.8334 0Z" fill="#C73246"/>
<path d="M25.8334 0L20.8334 5H24.1667V31.6667H39.1667V35L44.1667 30H25.8334V0Z" fill="#EC4C5F"/>
<path d="M5.83337 9.16675H10V10.8334H5.83337V9.16675Z" fill="#999999"/>
<path d="M5.83337 12.5H11.6667V14.1667H5.83337V12.5Z" fill="#999999"/>
<path d="M5.83337 15.8335H10V17.5002H5.83337V15.8335Z" fill="#999999"/>
<path d="M5.83337 19.1667H11.6667V20.8334H5.83337V19.1667Z" fill="#999999"/>
<path d="M5.83337 22.5H10V24.1667H5.83337V22.5Z" fill="#999999"/>
<path d="M5.83337 25.8335H11.6667V27.5002H5.83337V25.8335Z" fill="#999999"/>
<path d="M5.83337 29.1667H10V30.8334H5.83337V29.1667Z" fill="#999999"/>
<path d="M5.83337 32.5H11.6667V34.1667H5.83337V32.5Z" fill="#999999"/>
<path d="M5.83337 35.8335H10V37.5002H5.83337V35.8335Z" fill="#999999"/>
<path d="M5.83337 39.1667H11.6667V40.8334H5.83337V39.1667Z" fill="#999999"/>
</g>
<defs>
<clipPath id="clip0">
<rect width="50" height="50" fill="white"/>
</clipPath>
</defs>
</svg>
