<svg width="42" height="42" viewBox="0 0 42 42" fill="none" xmlns="http://www.w3.org/2000/svg">
<path d="M34.6725 24.8441C33.7995 23.9391 32.7464 23.4552 31.6303 23.4552C30.5232 23.4552 29.4611 23.9301 28.5521 24.8351L25.7079 27.6577C25.4738 27.5323 25.2398 27.4158 25.0148 27.2993C24.6908 27.138 24.3848 26.9857 24.1237 26.8244C21.4596 25.1398 19.0384 22.9444 16.7162 20.1039C15.5911 18.6882 14.8351 17.4964 14.286 16.2867C15.0241 15.6147 15.7081 14.9158 16.3742 14.2437C16.6262 13.9928 16.8782 13.733 17.1302 13.4821C19.0204 11.6004 19.0204 9.16308 17.1302 7.28136L14.673 4.83513C14.394 4.55735 14.106 4.27061 13.836 3.98387C13.2959 3.42832 12.7289 2.85484 12.1439 2.3172C11.2708 1.45699 10.2267 1 9.12864 1C8.03055 1 6.96848 1.45699 6.06841 2.3172C6.05941 2.32616 6.05941 2.32616 6.05041 2.33513L2.99018 5.4086C1.8381 6.55556 1.18105 7.95341 1.03704 9.57527C0.82102 12.1918 1.59508 14.629 2.18912 16.224C3.64723 20.1398 5.82539 23.7688 9.07463 27.6577C13.0169 32.3441 17.7603 36.0448 23.1787 38.6523C25.2488 39.629 28.012 40.7849 31.0993 40.9821C31.2883 40.991 31.4863 41 31.6663 41C33.7455 41 35.4916 40.2563 36.8597 38.7778C36.8687 38.7599 36.8867 38.7509 36.8957 38.733C37.3637 38.1685 37.9038 37.6577 38.4708 37.1111C38.8578 36.7437 39.2539 36.3584 39.6409 35.9552C40.532 35.0323 41 33.957 41 32.8548C41 31.7437 40.523 30.6774 39.6139 29.7814L34.6725 24.8441ZM37.8948 34.2796C37.8858 34.2796 37.8858 34.2885 37.8948 34.2796C37.5437 34.6559 37.1837 34.9964 36.7967 35.3728C36.2116 35.9283 35.6176 36.5108 35.0596 37.1649C34.1505 38.1326 33.0794 38.5896 31.6753 38.5896C31.5403 38.5896 31.3963 38.5896 31.2613 38.5806C28.5881 38.4104 26.1039 37.371 24.2408 36.4839C19.1464 34.0287 14.673 30.543 10.9558 26.1254C7.88654 22.4427 5.83439 19.0376 4.47529 15.3817C3.63823 13.1505 3.33221 11.4122 3.46722 9.7724C3.55722 8.72401 3.96225 7.85484 4.70931 7.11111L7.77854 4.05556C8.21957 3.64337 8.6876 3.41935 9.14664 3.41935C9.71368 3.41935 10.1727 3.75986 10.4607 4.04659C10.4697 4.05556 10.4787 4.06452 10.4877 4.07348C11.0368 4.58423 11.5588 5.1129 12.1079 5.67742C12.3869 5.96416 12.6749 6.2509 12.9629 6.5466L15.4201 8.99283C16.3742 9.94265 16.3742 10.8208 15.4201 11.7706C15.1591 12.0305 14.9071 12.2903 14.646 12.5412C13.89 13.3118 13.1699 14.0287 12.3869 14.7276C12.3689 14.7455 12.3509 14.7545 12.3419 14.7724C11.5678 15.543 11.7118 16.2957 11.8738 16.8065C11.8828 16.8333 11.8918 16.8602 11.9008 16.8871C12.5399 18.4283 13.44 19.8799 14.8081 21.6093L14.8171 21.6183C17.3012 24.6649 19.9204 27.0394 22.8097 28.8584C23.1787 29.0914 23.5567 29.2796 23.9167 29.4588C24.2408 29.6201 24.5468 29.7724 24.8078 29.9337C24.8438 29.9516 24.8798 29.9785 24.9158 29.9964C25.2218 30.1487 25.5098 30.2204 25.8069 30.2204C26.5539 30.2204 27.022 29.7545 27.175 29.6021L30.2532 26.5376C30.5592 26.233 31.0453 25.8656 31.6123 25.8656C32.1703 25.8656 32.6294 26.2151 32.9084 26.5197C32.9174 26.5287 32.9174 26.5287 32.9264 26.5376L37.8858 31.4749C38.8128 32.3889 38.8128 33.3298 37.8948 34.2796Z" fill="#2C2B3F" stroke="white"/>
</svg>
