<svg width="40" height="28" viewBox="0 0 40 28" fill="none" xmlns="http://www.w3.org/2000/svg">
<path d="M38.6421 12.4791L35.9184 11.3017L33.6054 6.80598C32.9803 5.57502 31.7121 4.8079 30.3279 4.81682H26.345V3.69289C26.345 1.65913 24.7196 0 22.6835 0H3.64385C1.60771 0 0.000237619 1.66805 0.000237619 3.69289V20.9085C-0.0176232 22.1484 0.973653 23.1653 2.21498 23.1832C2.22391 23.1832 2.23284 23.1832 2.2507 23.1832H2.72401C2.72401 23.2724 2.71508 23.308 2.71508 23.3616C2.70615 25.9127 4.76908 27.9911 7.32318 28C9.87728 28.0089 11.9581 25.9484 11.967 23.3972C11.967 23.3794 11.967 23.3705 11.967 23.3526C11.967 23.2902 11.967 23.2634 11.9581 23.1742H27.3452C27.3452 23.2634 27.3452 23.2991 27.3452 23.3526C27.3362 25.9038 29.3992 27.9821 31.9533 27.991C34.5074 28 36.5882 25.9394 36.5971 23.3883C36.5971 23.3705 36.5971 23.3616 36.5971 23.3437C36.5971 23.2813 36.5971 23.2545 36.5971 23.1653H37.7491C38.9904 23.1653 39.9996 22.1574 39.9996 20.9175C39.9996 20.9085 39.9996 20.8996 39.9996 20.8818V14.5486C40.0174 13.6744 39.4816 12.8448 38.6421 12.4791ZM7.34997 26.2249C5.77822 26.2249 4.5101 24.9582 4.5101 23.3883C4.5101 21.8184 5.77822 20.5517 7.34997 20.5517C8.92172 20.5517 10.1898 21.8184 10.1898 23.3883C10.1898 24.9493 8.91279 26.2249 7.34997 26.2249ZM24.5589 21.417H11.5383C10.7882 19.7846 9.14498 18.741 7.34997 18.7499C5.54603 18.741 3.91176 19.7757 3.1616 21.417H2.2507C1.97386 21.417 1.78632 21.2029 1.78632 20.9264V16.3326H24.5589V21.417ZM24.5589 3.70181V14.5486H1.78632V3.70181C1.78632 2.65817 2.59899 1.79293 3.64385 1.79293H22.6835C23.7284 1.80185 24.5678 2.65817 24.5589 3.69289V3.70181ZM26.345 6.60974H30.3279C31.0334 6.60082 31.6943 6.98438 32.0247 7.61771L33.8108 11.0698H26.345V6.60974ZM31.9801 26.2249C30.4083 26.2249 29.1402 24.9582 29.1402 23.3883C29.1402 21.8184 30.4083 20.5517 31.9801 20.5517C33.5518 20.5517 34.8199 21.8184 34.8199 23.3883C34.8199 24.9493 33.5518 26.2249 31.9801 26.2249ZM38.2224 20.9264C38.2224 21.2029 38.0349 21.417 37.758 21.417H36.1684C35.0878 19.1067 32.3373 18.1077 30.0243 19.187C29.0419 19.6419 28.2471 20.4358 27.7917 21.417H26.345V12.8538H35.0968L37.9366 14.1026C38.1152 14.1918 38.2313 14.388 38.2224 14.5842V20.9264Z" fill="#2C2B3F"/>
</svg>
