<svg width="30" height="30" viewBox="0 0 30 30" fill="none" xmlns="http://www.w3.org/2000/svg">
<g clip-path="url(#clip0_982_2779)">
<path d="M20.3918 9.09082C20.0677 9.09082 19.8047 9.35266 19.8047 9.67653C19.8047 10.0002 20.0677 10.2625 20.3918 10.2625C20.7165 10.2625 20.9789 10.0002 20.9789 9.67653C20.9789 9.35266 20.7165 9.09082 20.3918 9.09082Z" fill="#2C2B3F"/>
<path d="M9.72466 19.7368C9.39993 19.7368 9.13757 19.9993 9.13757 20.3228C9.13757 20.6469 9.39993 20.9087 9.72466 20.9087C10.0487 20.9087 10.3117 20.6469 10.3117 20.3228C10.3117 19.9993 10.0487 19.7368 9.72466 19.7368Z" fill="#2C2B3F"/>
<path d="M29.3577 3.60472C29.1596 3.55871 28.9513 3.61845 28.8082 3.76265L26.3744 6.211H25.2075L23.9231 4.88279V3.70199L26.3221 1.27195C26.464 1.12821 26.5218 0.921534 26.4748 0.724925C26.428 0.528544 26.2831 0.370158 26.0914 0.305613C25.4887 0.102824 24.858 5.55889e-05 24.2166 5.55889e-05C22.3044 5.55889e-05 20.5673 0.889949 19.4504 2.44154C18.4052 3.89403 18.0829 5.67404 18.5446 7.37761L14.2201 11.6936L7.01549 4.4866V3.07211C7.01549 2.86634 6.90725 2.67546 6.73043 2.56971L2.57934 0.0835975C2.34817 -0.0548761 2.05257 -0.0184838 1.86222 0.171717L0.201875 1.82859C0.0115312 2.01879 -0.0249322 2.31382 0.113583 2.54454L2.6041 6.68753C2.71005 6.864 2.90109 6.9718 3.10725 6.97203L4.52405 6.97249L11.7294 14.1795L7.4214 18.4791C5.7145 18.0186 3.93009 18.3406 2.47407 19.3845C0.920365 20.4985 0.0294189 22.2318 0.0294189 24.1402C0.0294189 24.7802 0.132388 25.4098 0.335574 26.0111C0.400474 26.2036 0.560776 26.349 0.758917 26.3947C0.957287 26.4407 1.16529 26.381 1.30862 26.2368L3.74227 23.7887H4.91552L6.25228 25.1228V26.2938L3.79937 28.7227C3.65489 28.8657 3.59504 29.0733 3.64113 29.2713C3.687 29.4691 3.83262 29.6291 4.02549 29.6938C4.62794 29.8966 5.25883 29.9994 5.90003 29.9994C7.81218 29.9994 9.54867 29.11 10.665 27.5593C11.711 26.1061 12.0337 24.3254 11.5723 22.6218L15.0322 19.1687L15.8247 20.0279L15.461 20.3907C15.2317 20.6196 15.2317 20.9906 15.461 21.2195C15.6903 21.4481 16.0619 21.4481 16.2914 21.2195L16.6207 20.8908L24.057 28.9525C24.0625 28.9584 24.0682 28.9642 24.074 28.9699C25.4499 30.3432 27.6792 30.3436 29.0559 28.9697C30.4287 27.5989 30.4287 25.3684 29.0559 23.9976C29.05 23.9917 29.0438 23.986 29.0376 23.9803L20.9475 16.5727L21.2732 16.2477C21.5025 16.019 21.5025 15.648 21.2732 15.4191C21.0438 15.1903 20.6723 15.1903 20.4427 15.4191L20.0816 15.7799L19.219 14.9898L22.6957 11.5199C23.1899 11.6518 23.6999 11.7186 24.2166 11.7186C27.4538 11.7186 30.0872 9.0901 30.0872 5.85943C30.0872 5.21925 29.9842 4.58983 29.7811 3.98832C29.7162 3.79583 29.5559 3.65049 29.3577 3.60472ZM5.18315 5.97273C5.07307 5.86264 4.92377 5.80656 4.76783 5.80656L3.44001 5.80611L1.35632 2.33397L2.36835 1.32391L5.84132 3.40399V4.72922C5.84132 4.8844 5.90301 5.03317 6.01286 5.14303L13.3899 12.5224L12.5595 13.351L5.18315 5.97273ZM20.1164 17.4022L28.234 24.8347C29.1408 25.7493 29.138 27.2301 28.2255 28.1413C27.3109 29.0541 25.8304 29.0569 24.9122 28.1493L17.4516 20.0613L20.1164 17.4022ZM19.2505 16.6091L16.6556 19.1984L15.863 18.3392L18.388 15.819L19.2505 16.6091ZM24.2166 10.5467C23.7031 10.5467 23.1981 10.4645 22.7161 10.3025C22.5049 10.2318 22.2714 10.2862 22.1136 10.4435C19.1704 13.381 12.8285 19.7102 10.4933 22.0412C10.3355 22.1986 10.2807 22.4316 10.352 22.6427C10.84 24.089 10.6066 25.6316 9.71126 26.8756C8.81848 28.1159 7.4292 28.8275 5.90003 28.8275C5.72826 28.8275 5.55741 28.8181 5.38817 28.8L7.25285 26.9534C7.36384 26.8436 7.42645 26.6939 7.42645 26.5375V24.88C7.42645 24.7246 7.36453 24.5756 7.25445 24.4657L5.5737 22.7882C5.46362 22.6784 5.31432 22.6166 5.15861 22.6166H3.4978C3.34117 22.6166 3.19119 22.6791 3.08088 22.7898L1.23088 24.6509C1.21253 24.482 1.20336 24.3114 1.20336 24.14C1.20336 22.6136 1.91611 21.2273 3.15908 20.3362C4.40526 19.4427 5.95117 19.2094 7.40054 19.6967C7.61175 19.7679 7.84521 19.7132 8.00299 19.5557C8.03532 19.5237 19.6151 7.96629 19.6234 7.95805C19.7811 7.80058 19.8357 7.56781 19.7646 7.35678C19.2764 5.91048 19.5094 4.36827 20.404 3.12521C21.2975 1.88375 22.687 1.17193 24.2164 1.17193C24.3934 1.17193 24.5693 1.18177 24.7436 1.201L22.9177 3.05059C22.8094 3.16023 22.7489 3.30786 22.7489 3.46167V5.11923C22.7489 5.27121 22.8078 5.41701 22.9135 5.52618L24.5356 7.20366C24.6461 7.3181 24.7986 7.38264 24.958 7.38264H26.6188C26.7752 7.38264 26.9252 7.32039 27.0355 7.20938L28.8855 5.34857C28.9039 5.51748 28.913 5.688 28.913 5.85943C28.913 8.44397 26.8062 10.5467 24.2166 10.5467Z" fill="#2C2B3F"/>
<path d="M18.3164 10.9192L10.9698 18.2515C10.7407 18.4801 10.7407 18.8511 10.9698 19.08C11.1991 19.3089 11.5709 19.3089 11.8002 19.08L19.1468 11.7478C19.3761 11.5191 19.3761 11.1481 19.1468 10.9192C18.9174 10.6903 18.5457 10.6903 18.3164 10.9192Z" fill="#2C2B3F"/>
<path d="M25.7352 26.4843C25.9646 26.7125 26.3363 26.7125 26.5656 26.4829C26.7945 26.2538 26.7938 25.8828 26.5643 25.6544L21.2725 20.3899C21.0429 20.1615 20.6709 20.1621 20.4423 20.3913C20.2132 20.6206 20.2139 20.9914 20.4434 21.2198L25.7352 26.4843Z" fill="#2C2B3F"/>
</g>
<defs>
<clipPath id="clip0_982_2779">
<rect width="30" height="30" fill="white"/>
</clipPath>
</defs>
</svg>
