<svg width="12" height="19" viewBox="0 0 12 19" fill="none" xmlns="http://www.w3.org/2000/svg">
<path d="M6.79397 11.2424C6.55583 11.2251 6.348 11.4029 6.32635 11.6414C6.32202 11.6935 6.32635 11.7455 6.34367 11.7975L8.03665 17.5652L6.48655 18.0205L4.75893 12.1315C4.68965 11.9016 4.45151 11.7715 4.22202 11.8366C4.17006 11.8496 4.12244 11.8756 4.08347 11.9059L0.00471509 15.0153L2.02677 0.444333L11.5612 11.6284L6.79397 11.2424Z" fill="#2C2B3F"/>
<path d="M6.79397 11.2424C6.55583 11.2251 6.348 11.4029 6.32635 11.6414C6.32202 11.6935 6.32635 11.7455 6.34367 11.7975L8.03665 17.5652L6.48655 18.0205L4.75893 12.1315C4.68965 11.9016 4.45151 11.7715 4.22202 11.8366C4.17006 11.8496 4.12244 11.8756 4.08347 11.9059L0.00471509 15.0153L2.02677 0.444333L11.5612 11.6284L6.79397 11.2424Z" fill="#2C2B3F"/>
</svg>
