<svg width="40" height="40" viewBox="0 0 40 40" fill="none" xmlns="http://www.w3.org/2000/svg">
<path d="M39.4414 5.67243L34.3276 0.558604C33.5828 -0.18624 32.3707 -0.186162 31.6259 0.558604L21.9975 10.1869C21.7564 10.4281 21.7564 10.8188 21.9975 11.06C22.2386 11.301 22.6295 11.301 22.8706 11.06L32.4989 1.43173C32.6265 1.30407 32.7962 1.23384 32.9767 1.23384C33.1572 1.23384 33.3268 1.30407 33.4545 1.43173L38.5684 6.54556C38.696 6.67313 38.7663 6.84282 38.7663 7.02337C38.7663 7.20384 38.696 7.37353 38.5684 7.5011L37.3134 8.7561L34.0252 5.46798C33.7841 5.22696 33.3932 5.22696 33.1522 5.46798C32.9111 5.70915 32.9111 6.09993 33.1522 6.3411L36.4403 9.62923L35.0065 11.0631L33.5613 9.6179C33.3202 9.37688 32.9293 9.37688 32.6882 9.6179C32.4472 9.85907 32.4472 10.2499 32.6882 10.491L34.1334 11.9361L32.6996 13.3699L31.2544 11.9248C31.0133 11.6838 30.6225 11.6838 30.3814 11.9248C30.1403 12.1659 30.1403 12.5567 30.3814 12.7979L31.8265 14.243L30.3927 15.6768L27.1045 12.3885C26.8635 12.1476 26.4725 12.1474 26.2315 12.3885C25.9904 12.6297 25.9904 13.0205 26.2315 13.2617L29.5197 16.5499L28.0858 17.9837L26.6407 16.5385C26.3996 16.2975 26.0087 16.2975 25.7676 16.5385C25.5265 16.7797 25.5265 17.1705 25.7676 17.4116L27.2127 18.8567L25.9997 20.0697L19.9303 14.0002L22.8706 11.06C23.1117 10.8188 22.2386 11.3012 21.9975 11.06C21.7564 10.819 22.2386 9.94587 21.9975 10.1869L19.0572 13.1271L7.66903 1.73938C6.877 0.947354 5.82395 0.511182 4.70387 0.511182C3.58379 0.51126 2.53075 0.947432 1.73879 1.73946C0.946685 2.53149 0.510513 3.58446 0.510513 4.70462C0.510513 5.8247 0.946685 6.87774 1.73872 7.66978L13.1266 19.0577L0.559731 31.6248C-0.185112 32.3697 -0.185112 33.5816 0.559731 34.3266L5.67356 39.4405C6.03434 39.8013 6.51411 40 7.02442 40C7.53473 40 8.0145 39.8013 8.37528 39.4405L20.9423 26.8734L23.8607 29.7919C24.1018 30.0329 23.6197 29.1598 23.8607 28.9188C24.1018 28.6776 24.9749 29.1599 24.7338 28.9188L21.475 25.6599C21.451 25.622 21.4229 25.5859 21.3898 25.5528C21.3568 25.5198 21.3207 25.4916 21.2828 25.4677L7.90598 12.0909L9.41106 10.5858L10.5851 11.6397C32.2563 33.1302 10.8636 11.6397 11.0217 11.6397C11.1797 11.6397 11.3377 11.5794 11.4582 11.4589C11.6993 11.2177 11.6993 10.827 11.4582 10.5858L10.4347 9.56228L12.0903 7.90673L18.6199 14.4363L18.6207 14.4372L18.6215 14.438L25.5029 21.3193C25.5199 21.3418 25.538 21.3638 25.5586 21.3844C25.5791 21.4049 25.6011 21.4231 25.6236 21.4401L34.7851 30.6017L33.1296 32.2572L23.8861 23.0138C23.8806 23.0077 23.8756 23.0014 23.8697 22.9956L20.1836 19.3095C20.1775 19.3034 20.1709 19.2981 20.1647 19.2923L11.4582 10.5858C11.2172 10.3448 11.6993 11.2179 11.4582 11.4589C11.2172 11.7001 9.41106 10.5858 10.5851 11.6397L32.2563 33.1302L30.6007 34.7857L24.7338 28.9188C24.4927 28.6777 24.1018 28.6777 23.8607 28.9188C23.6197 29.1599 23.6197 29.5507 23.8607 29.7919L30.1642 36.0953C30.2241 36.1552 30.2983 36.2036 30.3773 36.2342L37.8365 39.1302C37.9542 39.1759 38.0768 39.1981 38.1986 39.1981C38.4597 39.1981 38.7161 39.0959 38.9074 38.9044C39.1879 38.6237 39.2762 38.2034 39.1324 37.8335L36.2333 30.3777C36.2027 30.299 36.1543 30.2246 36.0945 30.1649L26.8727 20.9431L39.4414 8.37423C40.1864 7.62931 40.1864 6.41735 39.4414 5.67243ZM20.0695 26.0004L18.858 27.2116L17.4129 25.7664C17.1718 25.5254 16.7809 25.5254 16.5398 25.7664C16.2987 26.0076 16.2987 26.3984 16.5398 26.6395L17.985 28.0847L16.5511 29.5185L13.2629 26.2303C13.0218 25.9893 12.631 25.9893 12.3899 26.2303C12.1488 26.4715 12.1488 26.8623 12.3899 27.1034L15.6781 30.3917L14.2443 31.8255L12.7991 30.3803C12.558 30.1393 12.1672 30.1393 11.9261 30.3803C11.685 30.6215 11.685 31.0123 11.9261 31.2534L13.3712 32.6985L11.9374 34.1324L10.4922 32.6872C10.2511 32.4462 9.86028 32.4462 9.61918 32.6872C9.37809 32.9284 9.37809 33.3191 9.61918 33.5603L11.0643 35.0055L9.63051 36.4393L6.34231 33.1511C6.10122 32.9101 5.71036 32.9101 5.46926 33.1511C5.22817 33.3923 5.22817 33.7831 5.46926 34.0242L8.75747 37.3124L7.50247 38.5674C7.37481 38.695 7.20512 38.7653 7.02465 38.7653C6.84418 38.7653 6.6745 38.695 6.54684 38.5674L1.43301 33.4534C1.16958 33.19 1.16958 32.7613 1.43301 32.4979L14 19.9309L20.0695 26.0004ZM2.61176 6.79673C1.45817 5.64314 1.45817 3.7661 2.61176 2.61251C3.76536 1.45884 5.64239 1.45884 6.79598 2.61251L8.74723 4.56376L4.56301 8.74798L2.61176 6.79673ZM9.12543 9.12524L9.12465 9.12603L7.03293 11.2177L5.43614 9.62095L9.62036 5.43673L11.2172 7.03352L9.12543 9.12524ZM37.7899 37.7876L31.7068 35.4259L35.4256 31.7071L37.7899 37.7876Z" fill="#2C2B3F"/>
</svg>
