<svg width="50" height="50" viewBox="0 0 50 50" fill="none" xmlns="http://www.w3.org/2000/svg">
<path d="M32.9574 32.9767H0.00109863V10.2684C0.00109863 9.11836 0.9344 8.18506 2.0844 8.18506H30.874C32.025 8.18506 32.9573 9.11836 32.9573 10.2684V32.9767H32.9574Z" fill="#5AAAE7"/>
<path d="M40.7156 14.6526H32.9573V32.9776H48.3666V22.3026C48.3666 21.4734 48.0375 20.6787 47.45 20.0921L42.925 15.5682C42.3395 14.9817 41.5448 14.6526 40.7156 14.6526Z" fill="#C4C4C4"/>
<path d="M45.5094 26.4358V22.189L40.8271 17.5088H35.8136V26.4358H45.5094Z" fill="#84DBFF"/>
<path d="M48.3656 36.2486H3.27295C1.4667 36.2486 0 34.785 0 32.9778H48.3656C49.2688 32.9778 50 33.7101 50 34.6132V34.6143C50 35.5173 49.2688 36.2486 48.3656 36.2486Z" fill="#334A5E"/>
<path d="M16.3532 36.2486C16.3532 39.3236 13.8605 41.8153 10.7845 41.8153C7.71152 41.8153 5.21777 39.3236 5.21777 36.2486C5.21777 33.1736 7.71152 30.6809 10.7845 30.6809C13.8615 30.6819 16.3532 33.1747 16.3532 36.2486Z" fill="#40596B"/>
<path d="M13.5834 36.2484C13.5834 37.7932 12.3313 39.0463 10.7844 39.0463C9.2407 39.0463 7.98865 37.7932 7.98865 36.2484C7.98865 34.7036 9.23972 33.4504 10.7844 33.4504C12.3313 33.4515 13.5834 34.7036 13.5834 36.2484Z" fill="#CDD6E0"/>
<path d="M44.7699 36.2486C44.7699 39.3236 42.2761 41.8153 39.2022 41.8153C36.1283 41.8153 33.6355 39.3236 33.6355 36.2486C33.6355 33.1736 36.1282 30.6809 39.2022 30.6809C42.2762 30.6809 44.7699 33.1747 44.7699 36.2486Z" fill="#40596B"/>
<path d="M41.9999 36.2484C41.9999 37.7932 40.7489 39.0463 39.202 39.0463C37.6572 39.0463 36.4041 37.7932 36.4041 36.2484C36.4041 34.7036 37.6561 33.4504 39.202 33.4504C40.7489 33.4515 41.9999 34.7036 41.9999 36.2484Z" fill="#CDD6E0"/>
</svg>
