<svg width="50" height="50" viewBox="0 0 50 50" fill="none" xmlns="http://www.w3.org/2000/svg">
<path d="M38.7931 3.01733H11.2069V49.5691H38.7931V3.01733Z" fill="#FF4663"/>
<path d="M11.2069 49.5691H8.62073V0.431152L11.2069 3.01736V49.5691Z" fill="#DBD6D2"/>
<path d="M38.7931 49.5691H41.3793V0.431152L38.7931 3.01736V49.5691Z" fill="#DBD6D2"/>
<path d="M38.7931 3.01736H11.2069L8.62073 0.431152H41.3793L38.7931 3.01736Z" fill="#FBF6F2"/>
<path d="M8.62069 46.9827H0V49.5689H8.62069V46.9827Z" fill="#BFA380"/>
<path d="M50 46.9827H41.3793V49.5689H50V46.9827Z" fill="#BFA380"/>
<path d="M34.4827 7.32764H15.5172V14.2242H34.4827V7.32764Z" fill="#9B3838"/>
<path d="M34.4827 38.3621H15.5172V45.2586H34.4827V38.3621Z" fill="#9B3838"/>
<path d="M30.1724 28.8794V28.0173H15.5172V34.9139H34.4827V28.8794H30.1724Z" fill="#9B3838"/>
<path d="M30.1724 23.7068H34.4827V17.6724H15.5172V24.5689H30.1724V23.7068Z" fill="#9B3838"/>
<path d="M36.207 27.1553H32.7587C32.2828 27.1553 31.8966 26.7699 31.8966 26.2932C31.8966 25.8165 32.2828 25.4312 32.7587 25.4312H36.207C36.6828 25.4312 37.069 25.8165 37.069 26.2932C37.069 26.7699 36.6828 27.1553 36.207 27.1553Z" fill="#CFBB42"/>
</svg>
