<svg width="50" height="50" viewBox="0 0 50 50" fill="none" xmlns="http://www.w3.org/2000/svg">
<path d="M38.7931 3.01733H11.2069V49.5691H38.7931V3.01733Z" fill="#BFA380"/>
<path d="M11.2069 49.5691H8.62073V0.431152L11.2069 3.01736V49.5691Z" fill="#7A6857"/>
<path d="M38.7931 49.5691H41.3793V0.431152L38.7931 3.01736V49.5691Z" fill="#7A6857"/>
<path d="M38.7931 3.01736H11.2069L8.62073 0.431152H41.3793L38.7931 3.01736Z" fill="#6B5B4B"/>
<path d="M8.62069 46.9827H0V49.5689H8.62069V46.9827Z" fill="#DBD6D2"/>
<path d="M50 46.9827H41.3793V49.5689H50V46.9827Z" fill="#DBD6D2"/>
<path d="M32.7586 28.8794H28.8793C28.1655 28.8794 27.5862 28.3001 27.5862 27.5863C27.5862 26.8725 28.1655 26.2932 28.8793 26.2932H32.7586V28.8794Z" fill="#E7ECED"/>
<path d="M31.0344 24.9508V26.293H32.7586V28.8792H31.0344V30.2214C31.0344 30.9085 31.5913 31.4654 32.2784 31.4654H34.1008C34.7879 31.4654 35.3448 30.9085 35.3448 30.2214V24.9508C35.3448 24.2637 34.7879 23.7068 34.1008 23.7068H32.2784C31.5913 23.7068 31.0344 24.2637 31.0344 24.9508Z" fill="#6C797A"/>
</svg>
