<svg width="50" height="50" viewBox="0 0 50 50" fill="none" xmlns="http://www.w3.org/2000/svg">
<g clip-path="url(#clip0)">
<path d="M16.6016 0H7.22656C4.21104 0 1.75781 2.45323 1.75781 5.46875V44.5312C1.75781 47.5468 4.21104 50 7.22656 50H16.6016C19.6171 50 22.0703 47.5468 22.0703 44.5312V5.46875C22.0703 2.45323 19.6171 0 16.6016 0Z" fill="#6EC8FA"/>
<path d="M11.9141 7.8125C13.2065 7.8125 14.2578 6.76117 14.2578 5.46875C14.2578 4.17633 13.2065 3.125 11.9141 3.125C10.6216 3.125 9.57031 4.17633 9.57031 5.46875C9.57031 6.76117 10.6216 7.8125 11.9141 7.8125Z" fill="#E0DCE2"/>
<path d="M11.9141 42.1875C10.6216 42.1875 9.57031 43.2388 9.57031 44.5312C9.57031 45.8237 10.6216 46.875 11.9141 46.875C13.2065 46.875 14.2578 45.8237 14.2578 44.5312C14.2578 43.2388 13.2065 42.1875 11.9141 42.1875Z" fill="#E0DCE2"/>
<path d="M12.9238 3.354L9.79956 6.47862C10.0307 6.9608 10.4221 7.35219 10.9043 7.58374L14.0289 4.45912C13.7974 3.97694 13.406 3.58556 12.9238 3.354Z" fill="#D0CAD3"/>
<path d="M12.9238 42.4165L9.79956 45.5411C10.0307 46.0233 10.4221 46.4147 10.9043 46.6462L14.0289 43.5216C13.7974 43.0394 13.406 42.6481 12.9238 42.4165Z" fill="#D0CAD3"/>
<path d="M11.9141 27.3438C9.76028 27.3438 8.00781 29.0962 8.00781 31.25C8.00781 32.4825 8.59642 33.6414 9.57031 34.3739V39.0625C9.57031 39.4939 9.92012 39.8438 10.3516 39.8438H13.4766C13.908 39.8438 14.2578 39.4939 14.2578 39.0625V34.3739C15.2317 33.6414 15.8203 32.4825 15.8203 31.25C15.8203 29.0962 14.0678 27.3438 11.9141 27.3438Z" fill="#B3B3B3"/>
<path d="M48.0778 17.8157C48.0778 17.8153 48.0778 17.8153 48.0778 17.8157C47.8279 17.1291 47.3259 16.5809 46.6644 16.2719C46.0022 15.9633 45.2599 15.9305 44.5736 16.1803C40.303 17.7325 37.8941 16.1979 34.5585 14.0743C32.4471 12.7296 30.2639 11.3391 27.4208 10.6288C22.9305 9.50615 18.4898 10.0883 14.5699 12.3111C13.7417 11.9228 12.8326 11.7187 11.9141 11.7187C8.46786 11.7187 5.66406 14.5225 5.66406 17.9687C5.66406 21.4149 8.46786 24.2187 11.9141 24.2187C15.3603 24.2187 18.1641 21.4149 18.1641 17.9687C18.1641 17.5315 18.1183 17.0978 18.0283 16.6721C20.5425 15.4723 23.2529 15.2236 26.0948 15.9339C28.0758 16.4291 29.7977 17.5262 31.6216 18.6874C34.2709 20.3746 37.2734 22.2865 41.3124 22.2865C42.9523 22.2865 44.6785 21.9611 46.442 21.3199C47.8592 20.8045 48.5928 19.2325 48.0778 17.8157V17.8157Z" fill="#FFD982"/>
<path d="M11.9141 21.9592C8.85353 21.9592 6.30188 19.7478 5.7682 16.8391C5.70107 17.2057 5.66406 17.583 5.66406 17.9686C5.66406 21.4148 8.46786 24.2186 11.9141 24.2186C15.3603 24.2186 18.1641 21.4148 18.1641 17.9686C18.1641 17.5891 18.1278 17.2126 18.0595 16.841C17.5251 19.7486 14.9738 21.9592 11.9141 21.9592Z" fill="#FFC02E"/>
<path d="M48.0778 17.8155C48.0534 17.7483 48.0259 17.6831 47.9965 17.619C47.7032 18.266 47.1611 18.7993 46.4424 19.0606C44.6785 19.7018 42.9527 20.0272 41.3124 20.0272C37.2734 20.0272 34.2709 18.1153 31.6219 16.4281C29.7977 15.2665 28.0758 14.1698 26.0948 13.6746C23.2533 12.9643 20.5425 13.2127 18.0283 14.4128C18.1187 14.8385 18.1641 15.2726 18.1641 15.7094C18.1641 16.026 18.14 16.3373 18.0943 16.6413C20.5902 15.4683 23.278 15.2299 26.0948 15.9337C28.0758 16.4292 29.7977 17.5259 31.6219 18.6875C34.2709 20.3744 37.2734 22.2863 41.3124 22.2863C42.9527 22.2863 44.6785 21.9613 46.4424 21.3196C47.8592 20.8047 48.5928 19.2326 48.0778 17.8155V17.8155Z" fill="#FFC02E"/>
<path d="M11.9141 14.8438C10.191 14.8438 8.78906 16.2457 8.78906 17.9688C8.78906 19.6918 10.191 21.0938 11.9141 21.0938C13.6372 21.0938 15.0391 19.6918 15.0391 17.9688C15.0391 16.2457 13.6372 14.8438 11.9141 14.8438Z" fill="#FFE6AB"/>
</g>
<defs>
<clipPath id="clip0">
<rect width="50" height="50" fill="white"/>
</clipPath>
</defs>
</svg>
