<svg width="45" height="45" viewBox="0 0 45 45" fill="none" xmlns="http://www.w3.org/2000/svg">
<g clip-path="url(#clip0)">
<path d="M45 11.322V45L33.75 41L30.7501 24.161L33.75 7.32202L45 11.322Z" fill="#FEE191"/>
<path d="M33.75 7.32202V41L22.5 45L20.4999 28.1611L22.5 11.322L33.75 7.32202Z" fill="#FFD24D"/>
<path d="M22.5 11.322V45L11.25 41L8.25 24.161L11.25 7.32202L22.5 11.322Z" fill="#FEE191"/>
<path d="M11.25 7.32202V41L0 45V11.322L11.25 7.32202Z" fill="#FFD24D"/>
<path d="M38.286 10.161C38.286 18.2973 29.1008 25.8327 29.1008 25.8327C28.5642 26.2731 27.6858 26.2731 27.1491 25.8327C27.1491 25.8327 17.9639 18.2973 17.9639 10.161C17.9638 4.54931 22.5131 0 28.125 0C33.7368 0 38.286 4.54931 38.286 10.161Z" fill="#FF4663"/>
<path d="M28.125 15.2732C25.3062 15.2732 23.0129 12.9799 23.0129 10.1611C23.0129 7.3424 25.3062 5.04907 28.125 5.04907C30.9438 5.04907 33.2371 7.3424 33.2371 10.1611C33.2371 12.9799 30.9438 15.2732 28.125 15.2732Z" fill="white"/>
</g>
<defs>
<clipPath id="clip0">
<rect width="45" height="45" fill="white"/>
</clipPath>
</defs>
</svg>
