<svg width="45" height="45" viewBox="0 0 45 45" fill="none" xmlns="http://www.w3.org/2000/svg">
<g clip-path="url(#clip0)">
<path d="M35.3306 12.1498L34.6155 14.1429L33.702 16.6858L31.4317 15.8711L29.2314 15.0805L26.962 14.2658L27.8755 11.7227L28.5907 9.72974L30.8601 10.5446L33.0612 11.3351L35.3306 12.1498Z" fill="#B3B3B3"/>
<path d="M35.3306 12.1498L34.6155 14.1429L33.4507 13.7246L30.2338 12.5698L27.8755 11.7228L28.5907 9.72974L30.8601 10.5446L33.0612 11.3351L35.3306 12.1498Z" fill="#92949B"/>
<path d="M32.7042 8.49666L32.6982 8.51327L30.0986 8.85886L28.5482 6.97738L28.5549 6.95997C29.2161 3.38308 32.1044 0.521534 35.8267 -0.000976562L32.7042 8.49666Z" fill="#92949B"/>
<path d="M29.2315 15.0808L31.432 15.8708L33.7017 16.6861L35.3304 12.1498L33.0612 11.3351L30.8601 10.5444L28.591 9.72977L26.9617 14.2655L29.2315 15.0808ZM38.976 16.7456L38.9693 16.7482L30.8481 20.1643C30.1956 20.4379 29.603 20.8369 29.1027 21.3373L22.1149 28.3251L15.6704 21.8806L23.0318 14.5192C23.8778 13.6732 24.4469 12.5904 24.6645 11.4134L25.6799 5.91689L27.8891 6.73419L28.5483 6.97844L32.6984 8.51442L39.71 11.1105L42.7786 2.84326C45.7717 6.22873 45.6489 11.4022 42.4102 14.6408C41.9265 15.1245 41.4114 15.5595 40.8402 15.8838C40.4232 16.1191 38.976 16.7456 38.976 16.7456Z" fill="#484B54"/>
<path d="M15.6701 21.8806L1.39976 36.1517C-0.379674 37.9311 -0.379674 40.8161 1.39976 42.5955C2.28992 43.4857 3.45562 43.9308 4.6221 43.9308C5.78859 43.9308 6.9542 43.4858 7.84444 42.5955L22.1147 28.3252L15.6701 21.8806ZM5.47816 40.5461C4.97208 41.0521 4.15189 41.0521 3.64581 40.5461C3.13974 40.04 3.13974 39.2188 3.64493 38.7137C4.15198 38.2067 4.97217 38.2067 5.47904 38.7137C5.98424 39.2188 5.98423 40.04 5.47816 40.5461Z" fill="#E8B33F"/>
<path d="M29.859 15.3724L28.5641 14.8984L28.584 14.8438L30.192 10.3655L31.4896 10.8313L29.859 15.3724Z" fill="#484B54"/>
<path d="M32.1001 16.0497L30.8025 15.5836L32.4315 11.0486L33.7296 11.5134L33.7103 11.5674L32.1001 16.0497Z" fill="#484B54"/>
<path d="M1.39976 42.5955C-0.379674 40.8161 -0.379674 37.9312 1.39976 36.1517L15.6701 21.8806L16.8106 23.0212C16.8106 23.0211 0.32108 38.2354 1.39976 42.5955Z" fill="#D39F37"/>
<path d="M33.7017 17.3755C33.623 17.3755 33.5441 17.362 33.4687 17.3349L26.7285 14.9143C26.5564 14.8526 26.416 14.7249 26.3379 14.5595C26.2599 14.3942 26.2509 14.2045 26.3126 14.0324L27.942 9.49676C28.0706 9.13852 28.4653 8.95236 28.8238 9.08104L35.5631 11.5009C35.7352 11.5627 35.8758 11.6903 35.9537 11.8557C36.0318 12.0211 36.0408 12.2106 35.9791 12.3827L34.3505 16.919C34.2887 17.0912 34.1611 17.2317 33.9957 17.3097C33.903 17.3533 33.8025 17.3755 33.7017 17.3755ZM27.8434 13.8497L33.2858 15.8041L34.4485 12.5656L32.8281 11.9839H32.8281L29.0067 10.6116L27.8434 13.8497Z" fill="#66686D"/>
<path d="M4.6372 2.65405L9.58132 5.11939L10.014 8.18678L28.7882 26.961L26.4653 29.2839L7.69114 10.5097L4.62366 10.077L2.15833 5.13292L4.6372 2.65405Z" fill="#B5B6BA"/>
<path d="M26.4653 29.2838L7.69116 10.5096L8.44465 9.7561L27.6169 28.9283" fill="#92949B"/>
<path d="M29.6318 26.1177L32.1439 28.6298L28.134 32.6397L25.6218 30.1276L26.4653 29.284L28.7882 26.9612L29.6318 26.1177Z" fill="#484B54"/>
<path d="M44.5042 41.3203C44.5042 42.2617 44.1446 43.2041 43.4265 43.9222C41.9893 45.3594 39.659 45.3594 38.2218 43.9222L30.9438 36.6452C31.6203 35.9686 31.6203 34.8726 30.9438 34.196C30.2672 33.5194 29.1711 33.5194 28.4956 34.196L27.0273 32.7278L27.6247 32.1304L29.3605 30.3955L31.6348 28.1203L32.2321 27.5229L33.7003 28.9912C33.0237 29.6668 33.0237 30.7638 33.7003 31.4394C34.3769 32.1159 35.4729 32.1159 36.1495 31.4394L43.4265 38.7174C44.1447 39.4356 44.5042 40.3779 44.5042 41.3203Z" fill="#FF4663"/>
<path d="M43.4265 43.922C41.9893 45.3592 39.659 45.3592 38.2218 43.922L30.9438 36.645C31.6203 35.9684 31.6203 34.8723 30.9438 34.1957C30.2672 33.5192 29.1711 33.5192 28.4956 34.1957L27.0273 32.7275L27.6247 32.1302L29.3605 30.3953C29.4755 30.5422 37.8409 41.205 43.4265 43.922Z" fill="#D33333"/>
<path d="M8.44463 9.75625L5.15821 9.41128L2.83658 4.45459L2.15833 5.13293L4.62366 10.0771L7.69114 10.5097L9.08008 10.3918" fill="#92949B"/>
</g>
<defs>
<clipPath id="clip0">
<rect width="45" height="45" fill="white"/>
</clipPath>
</defs>
</svg>
