<svg width="46" height="46" viewBox="0 0 46 46" fill="none" xmlns="http://www.w3.org/2000/svg">
<g clip-path="url(#clip0)">
<path d="M44.335 31.5793V40.5793C44.335 42.2293 42.985 43.5793 41.335 43.5793H35.335V28.5793H41.335C42.985 28.5793 44.335 29.9293 44.335 31.5793Z" fill="#99DDFF"/>
<path d="M35.335 28.5793V43.5793H26.335V30.5293L28.285 28.5793H35.335Z" fill="#99DDFF"/>
<path d="M26.335 30.5293V43.5793H17.335V39.2293H17.485L26.335 30.5293Z" fill="#99DDFF"/>
<path d="M17.335 19.5793H2.33496V28.5793H17.335V19.5793Z" fill="#FFD580"/>
<path d="M17.335 18.2293V19.5793H2.33496V10.5793H17.335V18.2293Z" fill="#FFD580"/>
<path d="M17.335 4.57934V10.5793H2.33496V4.57934C2.33496 2.92935 3.68496 1.57935 5.33496 1.57935H14.335C15.985 1.57935 17.335 2.92935 17.335 4.57934Z" fill="#FFD580"/>
<path d="M9.83496 39.0793C11.4918 39.0793 12.835 37.7362 12.835 36.0793C12.835 34.4225 11.4918 33.0793 9.83496 33.0793C8.17811 33.0793 6.83496 34.4225 6.83496 36.0793C6.83496 37.7362 8.17811 39.0793 9.83496 39.0793Z" fill="#664848"/>
<path d="M45.385 27.5293C45.085 27.2293 44.785 27.0793 44.335 27.0793H35.335H31.885L41.035 17.9293C41.335 17.6293 41.485 17.3293 41.485 16.8793C41.485 16.4293 41.335 16.1293 41.035 15.8293L30.385 5.17935C30.085 4.87935 29.785 4.72935 29.335 4.72935C28.885 4.72935 28.585 4.87935 28.285 5.17935L18.835 14.6293V10.5793V1.57935C18.835 1.12935 18.685 0.829346 18.385 0.529346C18.085 0.229346 17.785 0.0793457 17.335 0.0793457H2.33496C1.88496 0.0793457 1.58496 0.229346 1.28496 0.529346C0.984961 0.829346 0.834961 1.12935 0.834961 1.57935V10.5793V19.5793V28.5793V31.5793V36.0793C0.834961 41.0293 4.88496 45.0793 9.83496 45.0793H14.335H17.335H26.335H35.335H44.335C44.785 45.0793 45.085 44.9293 45.385 44.6293C45.685 44.3293 45.835 44.0293 45.835 43.5793V28.5793C45.835 28.1293 45.685 27.8293 45.385 27.5293ZM15.835 39.2293V42.0793H14.335H9.83496C6.53496 42.0793 3.83496 39.3793 3.83496 36.0793V31.5793V30.0793H15.835V39.2293ZM15.835 27.0793H3.83496V21.0793H15.835V27.0793ZM15.835 18.0793H3.83496V12.0793H15.835V18.0793ZM15.835 9.07935H3.83496V3.07935H15.835V9.07935ZM24.835 42.0793H18.835V40.1293L24.835 34.1293V42.0793ZM25.285 29.4793L18.835 35.9293V28.5793V19.5793V18.9793L29.335 8.47935L37.885 17.0293L27.235 27.6793L25.285 29.4793ZM33.835 42.0793H27.835V31.1293L28.885 30.0793H33.835V42.0793ZM42.835 42.0793H36.835V30.0793H42.835V42.0793Z" fill="#664848"/>
</g>
<defs>
<clipPath id="clip0">
<rect width="45" height="45" fill="white" transform="translate(0.834961 0.0793457)"/>
</clipPath>
</defs>
</svg>
