<svg width="46" height="38" viewBox="0 0 46 38" fill="none" xmlns="http://www.w3.org/2000/svg">
<path d="M42.2517 4.9311C39.904 2.22871 36.3717 0.998808 32.7487 1.69107C30.7414 2.07551 28.937 3.17632 27.4929 4.62043L23.3861 8.7272L19.2793 4.62043C17.8352 3.17632 16.0308 2.07551 14.0235 1.69107C10.4019 0.99739 6.86965 2.22729 4.5205 4.9311C1.17124 8.78536 1.75002 15.1959 5.36171 18.8076L21.3802 34.8261C22.4882 35.934 24.2841 35.934 25.392 34.8261L41.4105 18.8076C45.0222 15.1959 45.601 8.78536 42.2517 4.9311ZM38.8968 9.72446C38.6287 9.9571 38.2967 10.0706 37.9676 10.0706C37.5718 10.0706 37.1761 9.90462 36.8952 9.58118C36.3689 8.97261 35.6341 8.60804 34.8808 8.58109C34.0467 8.56548 33.2296 8.91445 32.5061 9.63651C31.9486 10.1926 31.0507 10.1869 30.5003 9.63367C29.9456 9.07759 29.9484 8.18105 30.5031 7.6278C31.7784 6.35676 33.3516 5.67727 34.9844 5.74678C36.5221 5.80352 38.0003 6.52415 39.0387 7.72285C39.5522 8.31581 39.4883 9.21235 38.8968 9.72446Z" fill="#FF8080"/>
<path d="M43.3233 4.00063C41.1458 1.48834 38.0335 0.0782734 34.7353 0.0825291C33.9905 0.0825291 33.2373 0.153458 32.4826 0.298152C30.1349 0.750677 28.0964 2.01321 26.4905 3.61761L23.3867 6.72145L20.2829 3.61761C18.6785 2.01321 16.6386 0.750677 14.2908 0.298152C13.5376 0.153458 12.7829 0.0825291 12.0381 0.0825291C8.73994 0.0782734 5.62759 1.48834 3.45008 4.00063C1.68963 6.03061 0.885302 8.62092 0.886721 11.19C0.890976 14.3392 2.07549 17.5168 4.35939 19.8106L20.3779 35.8292C21.2049 36.6576 22.3029 37.0775 23.3867 37.0761C24.4705 37.0775 25.5685 36.6576 26.3955 35.8292L42.414 19.8106C44.6979 17.5182 45.8824 14.3392 45.8867 11.19C45.8881 8.62092 45.0838 6.03061 43.3233 4.00063ZM40.4096 17.8048L24.3896 33.8233C24.1088 34.1028 23.7541 34.2375 23.3867 34.2389C23.0193 34.2375 22.6647 34.1028 22.3838 33.8233L6.36525 17.8048C4.67289 16.1209 3.71961 13.6242 3.72387 11.1914C3.72387 9.20254 4.3452 7.29739 5.59355 5.8618C7.24618 3.96233 9.54144 2.92251 12.0381 2.91968C12.6027 2.91968 13.1772 2.97358 13.7574 3.08423C15.4228 3.40057 16.9932 4.33825 18.277 5.62348L22.3838 9.73025C22.6476 9.9941 23.0136 10.1459 23.3867 10.1459C23.7598 10.1459 24.1258 9.9941 24.3896 9.73025L28.4964 5.62348C29.7802 4.33825 31.352 3.40057 33.016 3.08423C33.5962 2.97358 34.1707 2.91968 34.7353 2.91968C37.232 2.92393 39.5272 3.96233 41.1813 5.8618C42.4296 7.29739 43.0496 9.20254 43.051 11.1914C43.0552 13.6242 42.1019 16.1209 40.4096 17.8048Z" fill="#664848"/>
</svg>
