<svg width="46" height="46" viewBox="0 0 46 46" fill="none" xmlns="http://www.w3.org/2000/svg">
<g clip-path="url(#clip0)">
<path d="M37.5012 28.2045C37.3324 28.2045 37.1918 28.2199 37.047 28.234L32.2039 23.391L30.3998 21.6852L35.2273 16.9547H38.6219C39.1155 16.9547 39.5753 16.5947 39.8285 16.1715L45.7402 6.2337C46.0707 5.67965 45.9835 4.94982 45.5279 4.4928L41.5511 0.503352C41.0941 0.0463302 40.3895 -0.0464803 39.8355 0.283981L29.8485 6.19151C29.4238 6.44604 29.0639 6.90306 29.0639 7.39664V10.7913L24.3347 15.6188L22.9918 14.2267C23.2449 13.276 23.3982 12.2987 23.3982 11.3214C23.3996 8.44568 22.3112 5.55449 20.1231 3.36642C17.9364 1.17834 15.0509 0.0786733 12.1752 0.0800795C10.8969 0.0800795 9.62286 0.296637 8.40508 0.729753C7.94946 0.892874 7.61338 1.27396 7.5065 1.74645C7.40104 2.21894 7.54307 2.7069 7.88478 3.04861L13.6376 8.80005L12.9753 12.1159L9.66083 12.7782L3.90799 7.0254C3.56628 6.68369 3.07691 6.54166 2.60442 6.64853C2.13193 6.7554 1.75085 7.0929 1.58913 7.54851C1.15601 8.7663 0.939457 10.0431 0.939457 11.3214C0.93805 14.1971 2.03771 17.0883 4.2272 19.2778C6.41528 21.4659 9.30647 22.5655 12.1808 22.5641C12.6589 22.5641 13.137 22.5233 13.6123 22.4629L2.17131 33.9039C1.35007 34.7237 0.93805 35.8135 0.939457 36.8865C0.93805 37.9594 1.35007 39.0492 2.17131 39.8691L6.1481 43.8459C6.96933 44.6685 8.05915 45.0805 9.13209 45.0791C10.2064 45.0805 11.2949 44.6685 12.1147 43.8473L24.4332 31.5288L26.0531 33.1487L29.092 36.189C29.0793 36.3324 29.0653 36.473 29.0639 36.6418C29.0667 41.2992 32.8438 45.0763 37.5012 45.0791C42.1586 45.0763 45.9357 41.2992 45.9385 36.6418C45.9357 31.9844 42.1586 28.2073 37.5012 28.2045ZM37.5012 42.2667C34.4019 42.2611 31.8819 39.7411 31.8763 36.6418C31.8749 36.4632 31.91 36.2143 31.9607 35.867C32.0211 35.4296 31.8749 34.9923 31.5627 34.6801L28.0429 31.1603L25.4119 28.5293L25.3767 28.4942C25.0786 28.196 24.661 28.047 24.2405 28.0892C23.8201 28.1314 23.4418 28.3606 23.2084 28.7135L23.0832 28.902L10.1263 41.8589C9.85349 42.1303 9.50052 42.2653 9.13209 42.2667C8.76366 42.2653 8.4107 42.1303 8.1379 41.8589L4.16111 37.8807C3.8883 37.6079 3.7533 37.2549 3.7519 36.8865C3.7533 36.518 3.8883 36.1651 4.1597 35.8923L17.1166 22.9354L17.305 22.8102C17.6566 22.5782 17.8872 22.1985 17.9294 21.7781C17.9716 21.3576 17.8225 20.9399 17.5244 20.6418L17.4893 20.6067L16.4768 19.5942C16.0929 19.2103 15.522 19.0823 15.0101 19.2637C14.1003 19.5886 13.1412 19.7503 12.1808 19.7503C10.0138 19.7489 7.85525 18.9276 6.21559 17.288C4.57454 15.6469 3.7533 13.4884 3.7519 11.3214C3.7519 11.1752 3.78143 11.0303 3.78846 10.8841L8.20399 15.2996C8.53586 15.6315 9.01256 15.7763 9.4738 15.6835L14.4462 14.6893C15.0045 14.5782 15.4376 14.1437 15.5487 13.5868L16.5429 8.61443C16.6357 8.15319 16.4908 7.67648 16.159 7.34461L11.7434 2.93049C11.8897 2.92205 12.0345 2.89252 12.1808 2.89252C14.3478 2.89393 16.5063 3.71516 18.1474 5.35622C19.7884 6.99727 20.6097 9.15582 20.6111 11.3228C20.6111 12.2833 20.4479 13.2423 20.1245 14.1521C19.9417 14.6626 20.0711 15.2349 20.455 15.6188L22.4462 17.61L23.439 18.6014C23.7005 18.863 24.0633 19.0134 24.4332 19.0134C24.803 19.0134 25.1658 18.863 25.4274 18.6014L31.5627 12.3676C31.8243 12.1075 31.8763 11.7447 31.8763 11.3748V8.19397L40.2377 3.25532L42.714 5.78089L37.8232 14.1423H34.6437C34.2739 14.1423 33.9111 14.1943 33.6495 14.4559L27.4158 20.6404C26.8659 21.1903 26.8659 22.0551 27.4158 22.6049L30.2141 25.392L35.5381 30.7104C35.8503 31.0225 36.2862 31.166 36.7235 31.1055C37.0737 31.0549 37.3226 31.0169 37.5012 31.0183C40.6005 31.0239 43.1204 33.5439 43.1261 36.6418C43.1204 39.7411 40.6005 42.2611 37.5012 42.2667Z" fill="#FFD580"/>
<path d="M37.5012 42.2667C34.4019 42.2611 31.8819 39.7411 31.8763 36.6418C31.8749 36.4632 31.91 36.2143 31.9607 35.867C32.0211 35.4296 31.8749 34.9923 31.5627 34.6801L28.0429 31.1603L25.4119 28.5293L25.3767 28.4942C25.0786 28.196 24.661 28.047 24.2405 28.0892C23.8201 28.1314 23.4418 28.3606 23.2084 28.7135L23.0832 28.902L10.1263 41.8589C9.85349 42.1303 9.50052 42.2653 9.13209 42.2667C8.76366 42.2653 8.4107 42.1303 8.1379 41.8589L4.16111 37.8807C3.8883 37.6079 3.7533 37.2549 3.7519 36.8865C3.7533 36.518 3.8883 36.1651 4.1597 35.8923L17.1166 22.9354L17.305 22.8102C17.6566 22.5782 17.8872 22.1985 17.9294 21.7781C17.9716 21.3576 17.8225 20.9399 17.5244 20.6418L17.4893 20.6067L16.4768 19.5942C16.0929 19.2103 15.522 19.0823 15.0101 19.2637C14.1003 19.5886 13.1412 19.7503 12.1808 19.7503C10.0138 19.7489 7.85525 18.9276 6.21559 17.288C4.57454 15.6469 3.7533 13.4884 3.7519 11.3214C3.7519 11.1752 3.78143 11.0303 3.78846 10.8841L8.20399 15.2996C8.53586 15.6315 9.01256 15.7763 9.4738 15.6835L14.4462 14.6893C15.0045 14.5782 15.4376 14.1437 15.5487 13.5868L16.5429 8.61443C16.6357 8.15319 16.4908 7.67648 16.159 7.34461L11.7434 2.93049C11.8897 2.92205 12.0345 2.89252 12.1808 2.89252C14.3478 2.89393 16.5063 3.71516 18.1474 5.35622C19.7884 6.99727 20.6097 9.15582 20.6111 11.3228C20.6111 12.2833 20.4479 13.2423 20.1245 14.1521C19.9417 14.6626 20.0711 15.2349 20.455 15.6188L22.4462 17.61L23.439 18.6014C23.7005 18.863 24.0633 19.0134 24.4332 19.0134C24.803 19.0134 25.1658 18.863 25.4274 18.6014L31.5627 12.3676C31.8243 12.1075 31.8763 11.7447 31.8763 11.3748V8.19397L40.2377 3.25532L42.714 5.78089L37.8232 14.1423H34.6437C34.2739 14.1423 33.9111 14.1943 33.6495 14.4559L27.4158 20.6404C26.8659 21.1903 26.8659 22.0551 27.4158 22.6049L30.2141 25.392L35.5381 30.7104C35.8503 31.0225 36.2862 31.166 36.7235 31.1055C37.0737 31.0549 37.3226 31.0169 37.5012 31.0183C40.6005 31.0239 43.1204 33.5439 43.1261 36.6418C43.1204 39.7411 40.6005 42.2611 37.5012 42.2667Z" fill="#FFD580"/>
<path d="M23.7594 29.3746C23.7596 29.3743 23.7599 29.3741 23.7602 29.3738C23.7599 29.3741 23.7596 29.3743 23.7594 29.3746ZM15.8058 21.421C15.806 21.4209 15.8061 21.4207 15.8063 21.4205L15.8058 21.421Z" fill="white" stroke="#664848" stroke-width="4"/>
<path d="M8.96522 39.0419L20.215 27.7921C20.7648 27.2423 20.7648 26.3522 20.215 25.8037C19.6652 25.2539 18.775 25.2539 18.2266 25.8037L6.97683 37.0535C6.427 37.6033 6.427 38.4935 6.97683 39.0419C7.52666 39.5917 8.4168 39.5917 8.96522 39.0419Z" fill="#664848"/>
<path d="M24.0132 17.1869L23.439 16.6127L24.4345 17.6082L24.4332 17.6069L24.0132 17.1869Z" fill="white" stroke="#664848" stroke-width="4"/>
<path d="M25.1732 26.812L29.406 22.5792C29.9558 22.0294 29.9558 21.1393 29.406 20.5908C28.8561 20.041 27.966 20.041 27.4176 20.5908L25.1732 26.812ZM25.1732 26.812L25.1731 26.8119M25.1732 26.812L25.1731 26.8119M25.1731 26.8119L25.1731 26.8118M25.1731 26.8119L25.1731 26.8118M25.1731 26.8118L25.173 26.8118L25.1731 26.8118ZM28.8336 22.0032C28.833 22.0038 28.8324 22.0045 28.8318 22.0051L28.8336 22.0032Z" fill="white" stroke="#664848" stroke-width="4"/>
<path d="M37.5019 38.0478V39.454C38.9081 39.4498 40.3101 38.1968 40.3143 36.6415C40.3101 35.0863 39.0572 33.8333 37.5019 33.8291C35.9466 33.8333 34.6937 35.0863 34.6895 36.6415C34.6937 38.1968 36.0957 39.4498 37.5019 39.454V38.0478V36.6415V38.0478Z" fill="white"/>
<path d="M37.5012 28.2045C37.3324 28.2045 37.1918 28.2199 37.047 28.234L32.2039 23.391L30.3998 21.6852L35.2273 16.9547H38.6219C39.1155 16.9547 39.5753 16.5947 39.8285 16.1715L45.7402 6.2337C46.0707 5.67965 45.9835 4.94982 45.5279 4.4928L41.5511 0.503352C41.0941 0.0463302 40.3895 -0.0464803 39.8355 0.283981L29.8485 6.19151C29.4238 6.44604 29.0639 6.90306 29.0639 7.39664V10.7913L24.3347 15.6188L22.9918 14.2267C23.2449 13.276 23.3982 12.2987 23.3982 11.3214C23.3996 8.44568 22.3112 5.55449 20.1231 3.36642C17.9364 1.17834 15.0509 0.0786733 12.1752 0.0800795C10.8969 0.0800795 9.62286 0.296637 8.40508 0.729753C7.94946 0.892874 7.61338 1.27396 7.5065 1.74645C7.40104 2.21894 7.54307 2.7069 7.88478 3.04861L13.6376 8.80005L12.9753 12.1159L9.66083 12.7782L3.90799 7.0254C3.56628 6.68369 3.07691 6.54166 2.60442 6.64853C2.13193 6.7554 1.75085 7.0929 1.58913 7.54851C1.15601 8.7663 0.939457 10.0431 0.939457 11.3214C0.93805 14.1971 2.03771 17.0883 4.2272 19.2778C6.41528 21.4659 9.30647 22.5655 12.1808 22.5641C12.6589 22.5641 13.137 22.5233 13.6123 22.4629L2.17131 33.9039C1.35007 34.7237 0.93805 35.8135 0.939457 36.8865C0.93805 37.9594 1.35007 39.0492 2.17131 39.8691L6.1481 43.8459C6.96933 44.6685 8.05915 45.0805 9.13209 45.0791C10.2064 45.0805 11.2949 44.6685 12.1147 43.8473L24.4332 31.5288L26.0531 33.1487L29.092 36.189C29.0793 36.3324 29.0653 36.473 29.0639 36.6418C29.0667 41.2992 32.8438 45.0763 37.5012 45.0791C42.1586 45.0763 45.9357 41.2992 45.9385 36.6418C45.9357 31.9844 42.1586 28.2073 37.5012 28.2045ZM37.5012 42.2667C34.4019 42.2611 31.8819 39.7411 31.8763 36.6418C31.8749 36.4632 31.91 36.2143 31.9607 35.867C32.0211 35.4296 31.8749 34.9923 31.5627 34.6801L28.0429 31.1603L25.4119 28.5293L25.3767 28.4942C25.0786 28.196 24.661 28.047 24.2405 28.0892C23.8201 28.1314 23.4418 28.3606 23.2084 28.7135L23.0832 28.902L10.1263 41.8589C9.85349 42.1303 9.50052 42.2653 9.13209 42.2667C8.76366 42.2653 8.4107 42.1303 8.1379 41.8589L4.16111 37.8807C3.8883 37.6079 3.7533 37.2549 3.7519 36.8865C3.7533 36.518 3.8883 36.1651 4.1597 35.8923L17.1166 22.9354L17.305 22.8102C17.6566 22.5782 17.8872 22.1985 17.9294 21.7781C17.9716 21.3576 17.8225 20.9399 17.5244 20.6418L17.4893 20.6067L16.4768 19.5942C16.0929 19.2103 15.522 19.0823 15.0101 19.2637C14.1003 19.5886 13.1412 19.7503 12.1808 19.7503C10.0138 19.7489 7.85525 18.9276 6.21559 17.288C4.57454 15.6469 3.7533 13.4884 3.7519 11.3214C3.7519 11.1752 3.78143 11.0303 3.78846 10.8841L8.20399 15.2996C8.53586 15.6315 9.01256 15.7763 9.4738 15.6835L14.4462 14.6893C15.0045 14.5782 15.4376 14.1437 15.5487 13.5868L16.5429 8.61443C16.6357 8.15319 16.4908 7.67648 16.159 7.34461L11.7434 2.93049C11.8897 2.92205 12.0345 2.89252 12.1808 2.89252C14.3478 2.89393 16.5063 3.71516 18.1474 5.35622C19.7884 6.99727 20.6097 9.15582 20.6111 11.3228C20.6111 12.2833 20.4479 13.2423 20.1245 14.1521C19.9417 14.6626 20.0711 15.2349 20.455 15.6188L22.4462 17.61L23.439 18.6014C23.7005 18.863 24.0633 19.0134 24.4332 19.0134C24.803 19.0134 25.1658 18.863 25.4274 18.6014L31.5627 12.3676C31.8243 12.1075 31.8763 11.7447 31.8763 11.3748V8.19397L40.2377 3.25532L42.714 5.78089L37.8232 14.1423H34.6437C34.2739 14.1423 33.9111 14.1943 33.6495 14.4559L27.4158 20.6404C26.8659 21.1903 26.8659 22.0551 27.4158 22.6049L30.2141 25.392L35.5381 30.7104C35.8503 31.0225 36.2862 31.166 36.7235 31.1055C37.0737 31.0549 37.3226 31.0169 37.5012 31.0183C40.6005 31.0239 43.1204 33.5439 43.1261 36.6418C43.1204 39.7411 40.6005 42.2611 37.5012 42.2667Z" fill="#664848"/>
</g>
<defs>
<clipPath id="clip0">
<rect width="45" height="45" fill="white" transform="translate(0.939453 0.0793457)"/>
</clipPath>
</defs>
</svg>
