<svg width="37" height="46" viewBox="0 0 37 46" fill="none" xmlns="http://www.w3.org/2000/svg">
<path d="M34.5421 11.9117L24.3089 1.67847L24.1162 1.75862V9.92331C24.1162 11.4772 25.3748 12.7358 26.9287 12.7358H34.2004C34.365 12.3378 34.3776 12.3097 34.5421 11.9117Z" fill="#97DBFF"/>
<path d="M35.3662 10.9187V10.9173L25.2187 0.684033C24.9164 0.380283 24.5395 0.238252 24.1275 0.280439C23.7337 0.160908 23.3695 0.0793457 22.9504 0.0793457H4.42871C2.09855 0.080752 0.211367 1.96794 0.209961 4.2981V40.8606C0.211367 43.1908 2.09855 45.0793 4.42871 45.0793H32.5537C34.8839 45.0793 36.7711 43.1908 36.7725 40.8606V13.9014C36.7725 12.782 36.7725 11.7104 35.3662 10.9187ZM25.5225 4.88028L31.9715 11.3293H26.9287C26.1525 11.3279 25.5239 10.6993 25.5225 9.9231V4.88028ZM33.96 40.8606C33.9586 41.6368 33.33 42.2654 32.5537 42.2668H4.42871C3.65246 42.2654 3.02387 41.6368 3.02246 40.8606V4.2981C3.02387 3.52185 3.65246 2.89185 4.42871 2.89185H22.71V9.9231C22.7114 12.2533 24.5986 14.1418 26.9287 14.1418H33.96V40.8606Z" fill="#664848"/>
<path d="M7.24121 19.7668H29.7412C30.5175 19.7668 31.1475 19.1368 31.1475 18.3606C31.1475 17.5843 30.5175 16.9543 29.7412 16.9543H7.24121C6.46496 16.9543 5.83496 17.5843 5.83496 18.3606C5.83496 19.1368 6.46496 19.7668 7.24121 19.7668Z" fill="#664848"/>
<path d="M7.24121 25.3918H29.7412C30.5175 25.3918 31.1475 24.7618 31.1475 23.9856C31.1475 23.2093 30.5175 22.5793 29.7412 22.5793H7.24121C6.46496 22.5793 5.83496 23.2093 5.83496 23.9856C5.83496 24.7618 6.46496 25.3918 7.24121 25.3918Z" fill="#664848"/>
<path d="M7.24121 31.0168H29.7412C30.5175 31.0168 31.1475 30.3868 31.1475 29.6106C31.1475 28.8343 30.5175 28.2043 29.7412 28.2043H7.24121C6.46496 28.2043 5.83496 28.8343 5.83496 29.6106C5.83496 30.3868 6.46496 31.0168 7.24121 31.0168Z" fill="#664848"/>
<path d="M7.24121 36.6418H18.4912C19.2675 36.6418 19.8975 36.0118 19.8975 35.2356C19.8975 34.4593 19.2675 33.8293 18.4912 33.8293H7.24121C6.46496 33.8293 5.83496 34.4593 5.83496 35.2356C5.83496 36.0118 6.46496 36.6418 7.24121 36.6418Z" fill="#664848"/>
</svg>
