<svg width="76" height="76" viewBox="0 0 76 76" fill="none" xmlns="http://www.w3.org/2000/svg">
<circle cx="37.5371" cy="37.9692" r="37.5" fill="#EA4862"/>
<path d="M37.5372 37.2656C36.5716 37.2656 35.6455 36.8953 34.9627 36.2361C34.2799 35.5769 33.8963 34.6829 33.8963 33.7506C33.8963 32.8184 34.2799 31.9244 34.9627 31.2652C35.6455 30.606 36.5716 30.2357 37.5372 30.2357C38.5028 30.2357 39.4289 30.606 40.1117 31.2652C40.7945 31.9244 41.1781 32.8184 41.1781 33.7506C41.1781 34.2122 41.0839 34.6693 40.9009 35.0958C40.718 35.5222 40.4498 35.9097 40.1117 36.2361C39.7736 36.5625 39.3722 36.8214 38.9305 36.9981C38.4888 37.1747 38.0153 37.2656 37.5372 37.2656ZM37.5372 23.9087C34.8335 23.9087 32.2405 24.9456 30.3287 26.7913C28.4168 28.6371 27.3428 31.1404 27.3428 33.7506C27.3428 41.1321 37.5372 52.0286 37.5372 52.0286C37.5372 52.0286 47.7316 41.1321 47.7316 33.7506C47.7316 31.1404 46.6576 28.6371 44.7457 26.7913C42.8339 24.9456 40.2409 23.9087 37.5372 23.9087Z" fill="white"/>
</svg>
