<svg width="12" height="13" viewBox="0 0 12 13" fill="none" xmlns="http://www.w3.org/2000/svg">
<path d="M0 0.600296L0 11.4028C0 11.7341 0.447103 12.0029 1.00023 12.0029C1.55336 12.0029 2.00046 11.7341 2.00046 11.4028L2.00046 0.600296C2.00046 0.26902 1.55336 0.000157356 1.00023 0.000157356C0.447103 0.000157356 0 0.26902 0 0.600296Z" fill="#2C2B3F"/>
<path d="M5.00391 4.20193L5.00391 11.4029C5.00391 11.7341 5.45096 12.0029 6.00403 12.0029C6.55711 12.0029 7.00416 11.7341 7.00416 11.4029L7.00416 4.20193C7.00416 3.87069 6.55711 3.60185 6.00403 3.60185C5.45096 3.60185 5.00391 3.87069 5.00391 4.20193Z" fill="#2C2B3F"/>
<path d="M10 7.80239V11.4029C10 11.7341 10.4471 12.0029 11.0001 12.0029C11.5532 12.0029 12.0003 11.7341 12.0003 11.4029V7.80239C12.0003 7.47115 11.5532 7.20232 11.0001 7.20232C10.4471 7.20232 10 7.47115 10 7.80239Z" fill="#2C2B3F"/>
</svg>
