<svg width="12" height="13" viewBox="0 0 12 13" fill="none" xmlns="http://www.w3.org/2000/svg">
<path d="M12 0.60008L12 11.4037C12 11.735 11.5528 12.0039 10.9997 12.0039C10.4465 12.0039 9.99933 11.735 9.99933 11.4037L9.99933 0.60008C9.99933 0.268768 10.4465 -0.00012207 10.9997 -0.00012207C11.5528 -0.00012207 12 0.268768 12 0.60008Z" fill="#2C2B3F"/>
<path d="M7.00195 4.20209L7.00195 11.4038C7.00195 11.735 6.55485 12.0039 6.00172 12.0039C5.44859 12.0039 5.00149 11.735 5.00149 11.4038L5.00149 4.20209C5.00149 3.87081 5.44859 3.60195 6.00172 3.60195C6.55485 3.60195 7.00195 3.87081 7.00195 4.20209Z" fill="#2C2B3F"/>
<path d="M2 7.80414L2 11.4039C2 11.7351 1.55303 12.0039 1.00006 12.0039C0.447087 12.0039 0.000112295 11.7351 0.000112295 11.4039L0.000112295 7.80414C0.000112295 7.47296 0.447087 7.20418 1.00006 7.20418C1.55303 7.20418 2 7.47296 2 7.80414Z" fill="#2C2B3F"/>
</svg>
